<?xml version="1.0" encoding="utf-8"?>
<!-- Generator: Adobe Illustrator 29.1.0, SVG Export Plug-In . SVG Version: 9.03 Build 55587)  -->
<!DOCTYPE svg PUBLIC "-//W3C//DTD SVG 1.0//EN" "http://www.w3.org/TR/2001/REC-SVG-20010904/DTD/svg10.dtd" [
	<!ENTITY ns_extend "http://ns.adobe.com/Extensibility/1.0/">
	<!ENTITY ns_ai "http://ns.adobe.com/AdobeIllustrator/10.0/">
	<!ENTITY ns_graphs "http://ns.adobe.com/Graphs/1.0/">
	<!ENTITY ns_vars "http://ns.adobe.com/Variables/1.0/">
	<!ENTITY ns_imrep "http://ns.adobe.com/ImageReplacement/1.0/">
	<!ENTITY ns_sfw "http://ns.adobe.com/SaveForWeb/1.0/">
	<!ENTITY ns_custom "http://ns.adobe.com/GenericCustomNamespace/1.0/">
	<!ENTITY ns_adobe_xpath "http://ns.adobe.com/XPath/1.0/">
]>
<svg version="1.0" xmlns:x="&ns_extend;" xmlns:i="&ns_ai;" xmlns:graph="&ns_graphs;"
	 xmlns="http://www.w3.org/2000/svg" xmlns:xlink="http://www.w3.org/1999/xlink" x="0px" y="0px"
	 viewBox="0 0 1139.7446289 1271.4893799" enable-background="new 0 0 1139.7446289 1271.4893799" xml:space="preserve">
<metadata>
	<sfw  xmlns="&ns_sfw;">
		<slices></slices>
		<sliceSourceBounds  bottomLeftOrigin="true" height="967.0281976" width="1053.8510638" x="-6143.5" y="-3738.7055882">
			</sliceSourceBounds>
		<optimizationSettings>
			<targetSettings  fileFormat="PNG24Format" targetSettingsID="0">
				<PNG24Format  filtered="false" interlaced="false" matteColor="#FFFFFF" noMatteColor="false" transparency="false">
					</PNG24Format>
			</targetSettings>
		</optimizationSettings>
	</sfw>
</metadata>
<g id="srodek">
	
		<linearGradient id="SVGID_1_" gradientUnits="userSpaceOnUse" x1="562.414856" y1="231.8297882" x2="562.414856" y2="1002.2623291">
		<stop  offset="0" style="stop-color:#D59E53"/>
		<stop  offset="0.0155097" style="stop-color:#DCA75C"/>
		<stop  offset="0.0552111" style="stop-color:#EABB6F"/>
		<stop  offset="0.0960949" style="stop-color:#F2C77B"/>
		<stop  offset="0.1396648" style="stop-color:#F5CB7F"/>
		<stop  offset="0.1729871" style="stop-color:#F6CD87"/>
		<stop  offset="0.2996356" style="stop-color:#F8D69D"/>
		<stop  offset="0.4158651" style="stop-color:#F9DCAB"/>
		<stop  offset="0.5111732" style="stop-color:#F9DEB0"/>
		<stop  offset="0.6598473" style="stop-color:#F9DDAD"/>
		<stop  offset="0.7431155" style="stop-color:#F8DAA6"/>
		<stop  offset="0.8102082" style="stop-color:#F7D59A"/>
		<stop  offset="0.8683497" style="stop-color:#F6CE88"/>
		<stop  offset="0.8882681" style="stop-color:#F5CB7F"/>
		<stop  offset="1" style="stop-color:#D59E53"/>
	</linearGradient>
	
		<rect x="157.6808014" y="233.287262" fill="url(#SVGID_1_)" stroke="#D59E53" stroke-width="5" stroke-miterlimit="10" width="809.4681396" height="772.085083"/>
</g>
<g id="Gora">
	<g>
		<g>
			
				<linearGradient id="SVGID_00000003794416690865288550000015931821530503984008_" gradientUnits="userSpaceOnUse" x1="113.7658997" y1="168.9468231" x2="113.7658997" y2="309.3936768">
				<stop  offset="0.0055866" style="stop-color:#8F4715"/>
				<stop  offset="0.5614525" style="stop-color:#D59E53"/>
				<stop  offset="0.6267252" style="stop-color:#BF813C"/>
				<stop  offset="0.7157604" style="stop-color:#AA6628"/>
				<stop  offset="0.8068733" style="stop-color:#9A541D"/>
				<stop  offset="0.9003834" style="stop-color:#924A17"/>
				<stop  offset="1" style="stop-color:#8F4715"/>
			</linearGradient>
			
				<path fill="url(#SVGID_00000003794416690865288550000015931821530503984008_)" stroke="#602D12" stroke-width="5" stroke-miterlimit="10" d="
				M77.1063919,182.2234192v0.0197144c-0.0991211-0.0119324-0.1982422-0.0197144-0.2978516-0.0197144
				c-7.0507812,0-31.3617325,7.148941-31.3617325,66.457428c0,62.2234192,24.3109512,66.457428,31.3617325,66.457428
				c0.0996094,0,0.1987305-0.007782,0.2978516-0.0197144v0.0197144h104.9785995v-132.914856H77.1063919z"/>
			
				<linearGradient id="SVGID_00000154403572124818920260000015104243644822747038_" gradientUnits="userSpaceOnUse" x1="157.6808014" y1="148.5213013" x2="157.6808014" y2="287.0012817">
				<stop  offset="0.0055866" style="stop-color:#8F4715"/>
				<stop  offset="0.5614525" style="stop-color:#D59E53"/>
				<stop  offset="0.6267252" style="stop-color:#BF813C"/>
				<stop  offset="0.7157604" style="stop-color:#AA6628"/>
				<stop  offset="0.8068733" style="stop-color:#9A541D"/>
				<stop  offset="0.9003834" style="stop-color:#924A17"/>
				<stop  offset="1" style="stop-color:#8F4715"/>
			</linearGradient>
			
				<path fill="url(#SVGID_00000154403572124818920260000015104243644822747038_)" stroke="#602D12" stroke-width="5" stroke-miterlimit="10" d="
				M121.021286,167.0532074v0.0242004c-0.0991211-0.0146484-0.1982422-0.0242004-0.2978516-0.0242004
				c-7.0507812,0-31.3617325,8.7808228-31.3617325,81.6276398c0,76.4271545,24.3109512,81.627655,31.3617325,81.627655
				c0.0996094,0,0.1987305-0.009552,0.2978516-0.0242004v0.0242004h104.9786072V167.0532074H121.021286z"/>
		</g>
		<g>
			
				<linearGradient id="SVGID_00000104698948016101140780000011320049911055537794_" gradientUnits="userSpaceOnUse" x1="1245.1274414" y1="168.9468231" x2="1245.1274414" y2="309.3936768" gradientTransform="matrix(-1 0 0 1 2271.1062012 0)">
				<stop  offset="0.0055866" style="stop-color:#8F4715"/>
				<stop  offset="0.5614525" style="stop-color:#D59E53"/>
				<stop  offset="0.6267252" style="stop-color:#BF813C"/>
				<stop  offset="0.7157604" style="stop-color:#AA6628"/>
				<stop  offset="0.8068733" style="stop-color:#9A541D"/>
				<stop  offset="0.9003834" style="stop-color:#924A17"/>
				<stop  offset="1" style="stop-color:#8F4715"/>
			</linearGradient>
			
				<path fill="url(#SVGID_00000104698948016101140780000011320049911055537794_)" stroke="#602D12" stroke-width="5" stroke-miterlimit="10" d="
				M1062.6383057,182.2234192v0.0197144c0.0991211-0.0119324,0.1982422-0.0197144,0.2978516-0.0197144
				c7.0507812,0,31.3616943,7.148941,31.3616943,66.457428c0,62.2234192-24.3109131,66.457428-31.3616943,66.457428
				c-0.0996094,0-0.1987305-0.007782-0.2978516-0.0197144v0.0197144H957.659668v-132.914856H1062.6383057z"/>
			
				<linearGradient id="SVGID_00000039823432526548594330000010860403726135820948_" gradientUnits="userSpaceOnUse" x1="1289.0423584" y1="148.5213013" x2="1289.0423584" y2="287.0012817" gradientTransform="matrix(-1 0 0 1 2271.1062012 0)">
				<stop  offset="0.0055866" style="stop-color:#8F4715"/>
				<stop  offset="0.5614525" style="stop-color:#D59E53"/>
				<stop  offset="0.6267252" style="stop-color:#BF813C"/>
				<stop  offset="0.7157604" style="stop-color:#AA6628"/>
				<stop  offset="0.8068733" style="stop-color:#9A541D"/>
				<stop  offset="0.9003834" style="stop-color:#924A17"/>
				<stop  offset="1" style="stop-color:#8F4715"/>
			</linearGradient>
			
				<path fill="url(#SVGID_00000039823432526548594330000010860403726135820948_)" stroke="#602D12" stroke-width="5" stroke-miterlimit="10" d="
				M1018.7233887,167.0532074v0.0242004c0.0991211-0.0146484,0.1982422-0.0242004,0.2978516-0.0242004
				c7.0507812,0,31.3616943,8.7808228,31.3616943,81.6276398c0,76.4271545-24.3109131,81.627655-31.3616943,81.627655
				c-0.0996094,0-0.1987305-0.009552-0.2978516-0.0242004v0.0242004H913.744812V167.0532074H1018.7233887z"/>
		</g>
		
			<linearGradient id="SVGID_00000152950105744653922780000012350692760965480588_" gradientUnits="userSpaceOnUse" x1="569.8725586" y1="323.1596069" x2="569.8725586" y2="242.5741577">
			<stop  offset="0" style="stop-color:#D59E53"/>
			<stop  offset="0.0366028" style="stop-color:#DCA75C"/>
			<stop  offset="0.1302983" style="stop-color:#EABB6F"/>
			<stop  offset="0.2267839" style="stop-color:#F2C77B"/>
			<stop  offset="0.3296089" style="stop-color:#F5CB7F"/>
			<stop  offset="0.9162011" style="stop-color:#F9DEB0"/>
		</linearGradient>
		
			<path fill="url(#SVGID_00000152950105744653922780000012350692760965480588_)" stroke="#D59E53" stroke-width="5" stroke-miterlimit="10" d="
			M990.6381836,154.7977905c0,0-307.7338867,8.6064453-413.1806641,8.6064453
			c-99.0913391,0-392.0107422-7.5998535-426.9609375-8.5161133c-0.4609375-0.0554199-0.9243164-0.090332-1.3901367-0.090332
			c-0.284668,0-0.5683594,0.0107422-0.8510742,0.0314941c-0.7773438-0.0205078-1.1914062-0.0314941-1.1914062-0.0314941v0.1877441
			c-17.0976562,3.0300293-30.6381912,43.8164062-30.6381912,93.6953125s13.540535,90.6652832,30.6381912,93.6953125v0.1877441
			l1.1738281-0.0334473c0.2885742,0.0217285,0.578125,0.0334473,0.8686523,0.0334473
			c0.496582,0,0.9902344-0.0373535,1.4814453-0.1003418l418.2631836-11.8996582l421.7871094,12
			c18.0493164,0,32.6811523-42.032959,32.6811523-93.8830566S1008.6875,154.7977905,990.6381836,154.7977905z"/>
	</g>
</g>
<g id="Dol">
	<g>
		<g>
			
				<linearGradient id="SVGID_00000136391009676808307450000001317810560522283673_" gradientUnits="userSpaceOnUse" x1="103.5531158" y1="856.414856" x2="103.5531158" y2="996.8616943" gradientTransform="matrix(-1 0 0 -1 1129.5318604 1958.9573975)">
				<stop  offset="0.0055866" style="stop-color:#8F4715"/>
				<stop  offset="0.5614525" style="stop-color:#D59E53"/>
				<stop  offset="0.6267252" style="stop-color:#BF813C"/>
				<stop  offset="0.7157604" style="stop-color:#AA6628"/>
				<stop  offset="0.8068733" style="stop-color:#9A541D"/>
				<stop  offset="0.9003834" style="stop-color:#924A17"/>
				<stop  offset="1" style="stop-color:#8F4715"/>
			</linearGradient>
			
				<path fill="url(#SVGID_00000136391009676808307450000001317810560522283673_)" stroke="#602D12" stroke-width="5" stroke-miterlimit="10" d="
				M1062.6383057,1089.2659912v-0.0197754c0.0991211,0.0119629,0.1982422,0.0197754,0.2978516,0.0197754
				c7.0507812,0,31.3616943-7.1490479,31.3616943-66.4574585c0-62.2234497-24.3109131-66.4574585-31.3616943-66.4574585
				c-0.0996094,0-0.1987305,0.0078125-0.2978516,0.0197144v-0.0197144H957.659668v132.914917H1062.6383057z"/>
			
				<linearGradient id="SVGID_00000054968903352297887040000004346836687747593393_" gradientUnits="userSpaceOnUse" x1="147.4680023" y1="835.9893188" x2="147.4680023" y2="974.4692993" gradientTransform="matrix(-1 0 0 -1 1129.5318604 1958.9573975)">
				<stop  offset="0.0055866" style="stop-color:#8F4715"/>
				<stop  offset="0.5614525" style="stop-color:#D59E53"/>
				<stop  offset="0.6267252" style="stop-color:#BF813C"/>
				<stop  offset="0.7157604" style="stop-color:#AA6628"/>
				<stop  offset="0.8068733" style="stop-color:#9A541D"/>
				<stop  offset="0.9003834" style="stop-color:#924A17"/>
				<stop  offset="1" style="stop-color:#8F4715"/>
			</linearGradient>
			
				<path fill="url(#SVGID_00000054968903352297887040000004346836687747593393_)" stroke="#602D12" stroke-width="5" stroke-miterlimit="10" d="
				M1018.7233887,1104.4361572v-0.0241699c0.0991211,0.0146484,0.1982422,0.0241699,0.2978516,0.0241699
				c7.0507812,0,31.3616943-8.7808838,31.3616943-81.6276245c0-76.4271851-24.3109131-81.6276855-31.3616943-81.6276855
				c-0.0996094,0-0.1987305,0.0095825-0.2978516,0.024231v-0.024231H913.744812v163.2553101H1018.7233887z"/>
		</g>
		<g>
			
				<linearGradient id="SVGID_00000075124460521454635370000009061339358770221202_" gradientUnits="userSpaceOnUse" x1="1255.34021" y1="856.414856" x2="1255.34021" y2="996.8616943" gradientTransform="matrix(1 0 0 -1 -1141.5743408 1958.9573975)">
				<stop  offset="0.0055866" style="stop-color:#8F4715"/>
				<stop  offset="0.5614525" style="stop-color:#D59E53"/>
				<stop  offset="0.6267252" style="stop-color:#BF813C"/>
				<stop  offset="0.7157604" style="stop-color:#AA6628"/>
				<stop  offset="0.8068733" style="stop-color:#9A541D"/>
				<stop  offset="0.9003834" style="stop-color:#924A17"/>
				<stop  offset="1" style="stop-color:#8F4715"/>
			</linearGradient>
			
				<path fill="url(#SVGID_00000075124460521454635370000009061339358770221202_)" stroke="#602D12" stroke-width="5" stroke-miterlimit="10" d="
				M77.1063919,1089.2659912v-0.0197754c-0.0991211,0.0119629-0.1982422,0.0197754-0.2978516,0.0197754
				c-7.0507812,0-31.3617325-7.1490479-31.3617325-66.4574585c0-62.2234497,24.3109512-66.4574585,31.3617325-66.4574585
				c0.0996094,0,0.1987305,0.0078125,0.2978516,0.0197144v-0.0197144h104.9785995v132.914917H77.1063919z"/>
			
				<linearGradient id="SVGID_00000013891787939632141230000009842948936419999412_" gradientUnits="userSpaceOnUse" x1="1299.255127" y1="835.9893188" x2="1299.255127" y2="974.4692993" gradientTransform="matrix(1 0 0 -1 -1141.5743408 1958.9573975)">
				<stop  offset="0.0055866" style="stop-color:#8F4715"/>
				<stop  offset="0.5614525" style="stop-color:#D59E53"/>
				<stop  offset="0.6267252" style="stop-color:#BF813C"/>
				<stop  offset="0.7157604" style="stop-color:#AA6628"/>
				<stop  offset="0.8068733" style="stop-color:#9A541D"/>
				<stop  offset="0.9003834" style="stop-color:#924A17"/>
				<stop  offset="1" style="stop-color:#8F4715"/>
			</linearGradient>
			
				<path fill="url(#SVGID_00000013891787939632141230000009842948936419999412_)" stroke="#602D12" stroke-width="5" stroke-miterlimit="10" d="
				M121.021286,1104.4361572v-0.0241699c-0.0991211,0.0146484-0.1982422,0.0241699-0.2978516,0.0241699
				c-7.0507812,0-31.3617325-8.7808838-31.3617325-81.6276245c0-76.4271851,24.3109512-81.6276855,31.3617325-81.6276855
				c0.0996094,0,0.1987305,0.0095825,0.2978516,0.024231v-0.024231h104.9786072v163.2553101H121.021286z"/>
		</g>
		
			<linearGradient id="SVGID_00000049906207265897792090000005228074938388921744_" gradientUnits="userSpaceOnUse" x1="569.8721313" y1="1086.0532227" x2="569.8721313" y2="988.0106812">
			<stop  offset="0" style="stop-color:#D59E53"/>
			<stop  offset="0.0366028" style="stop-color:#DCA75C"/>
			<stop  offset="0.1302983" style="stop-color:#EABB6F"/>
			<stop  offset="0.2267839" style="stop-color:#F2C77B"/>
			<stop  offset="0.3296089" style="stop-color:#F5CB7F"/>
			<stop  offset="0.9162011" style="stop-color:#F9DEB0"/>
		</linearGradient>
		
			<path fill="url(#SVGID_00000049906207265897792090000005228074938388921744_)" stroke="#D59E53" stroke-width="5" stroke-miterlimit="10" d="
			M149.1065216,1116.6915283c0,0,307.7338867-8.6064453,413.1806641-8.6064453
			c99.0913086,0,392.0107422,7.5998535,426.9609375,8.5161133c0.4609375,0.0554199,0.9243164,0.090332,1.3901367,0.090332
			c0.284668,0,0.5683594-0.0107422,0.8510742-0.0314941c0.7773438,0.0205078,1.1914062,0.0314941,1.1914062,0.0314941v-0.1877441
			c17.0976562-3.0300293,30.6381836-43.8164062,30.6381836-93.6952515c0-49.8789062-13.5405273-90.6652832-30.6381836-93.6953125
			v-0.1877441l-1.1738281,0.0334473c-0.2885742-0.0217285-0.578125-0.0334473-0.8686523-0.0334473
			c-0.496582,0-0.9902344,0.0373535-1.4814453,0.1003418l-418.2631836,11.8996582l-421.7871094-12
			c-18.0493164,0-32.6811523,42.032959-32.6811523,93.8830566
			C116.4253693,1074.6585693,131.0572052,1116.6915283,149.1065216,1116.6915283z"/>
	</g>
</g>
</svg>
