<?xml version="1.0" encoding="UTF-8"?>
<svg id="Warstwa_1" xmlns="http://www.w3.org/2000/svg" version="1.1" viewBox="0 0 825.2 979.4">
  <!-- Generator: Adobe Illustrator 29.1.0, SVG Export Plug-In . SVG Version: 2.1.0 Build 142)  -->
  <defs>
    <style>
      .st0 {
        fill: #f4a185;
      }

      .st1 {
        fill: #fac9a4;
      }

      .st2 {
        fill: #39281f;
      }

      .st3 {
        stroke: #563a2c;
      }

      .st3, .st4, .st5, .st6, .st7, .st8 {
        fill: none;
        stroke-miterlimit: 10;
      }

      .st3, .st8 {
        stroke-width: 3px;
      }

      .st9 {
        fill: #4f332f;
      }

      .st4, .st5 {
        stroke: #6c4e3c;
      }

      .st4, .st6, .st7 {
        stroke-width: 4px;
      }

      .st10 {
        fill: #6e4f3e;
      }

      .st11 {
        fill: #fcd7be;
      }

      .st5 {
        stroke-width: 5px;
      }

      .st12 {
        fill: #7f3a2b;
      }

      .st13 {
        fill: #fee5bf;
      }

      .st14 {
        fill: #f9daa8;
      }

      .st15 {
        fill: #ddd4cc;
      }

      .st16 {
        fill: #6c4e3c;
      }

      .st17 {
        fill: #fdf5e8;
      }

      .st18 {
        fill: #f39a84;
      }

      .st19 {
        fill: #f18f7c;
      }

      .st20 {
        fill: #a7523a;
      }

      .st21 {
        fill: #f2a67e;
      }

      .st22 {
        fill: #f6d3b2;
      }

      .st23 {
        fill: #6d4a43;
      }

      .st24 {
        fill: #fdfcfb;
      }

      .st25 {
        fill: #fdf5ea;
      }

      .st26 {
        fill: #f08775;
      }

      .st27 {
        fill: #6d4e3d;
      }

      .st28 {
        fill: #f5a988;
      }

      .st29 {
        fill: #933423;
      }

      .st30 {
        fill: #fefcef;
      }

      .st31 {
        fill: #6c4e3c;
      }

      .st32 {
        fill: #fdf7ee;
      }

      .st6, .st8 {
        stroke: #4f332f;
      }

      .st33 {
        fill: #802b1c;
      }

      .st34 {
        display: none;
      }

      .st35 {
        fill: #80b5bd;
      }

      .st36 {
        fill: #9f4a37;
      }

      .st37 {
        fill: #e7a445;
      }

      .st38 {
        fill: #f9f5ed;
      }

      .st39 {
        fill: #2d78bd;
      }

      .st40 {
        fill: #feefd6;
      }

      .st41 {
        fill: #ded6cb;
      }

      .st42 {
        fill: #fefefe;
      }

      .st43 {
        fill: #6c1b12;
      }

      .st7 {
        stroke: #6c4e3c;
      }

      .st44 {
        fill: #fdd05d;
      }

      .st45 {
        fill: #f18b78;
      }

      .st46 {
        fill: #893e2f;
      }
    </style>
  </defs>
  <g id="skin">
    <g id="kolor">
      <path class="st1" d="M489.2,711.2c2.9,22,5.5,43.9,7,66-8.1-.7-16.6,1.3-23,6.5-6.7,5.4-4.9,10.7-15.6,11.4-2.9.2-6.5.4-8.2-2.6-2.3-25.2-5.7-50.2-8.2-75.3-1-11.4-10.1-47.7-7-47.7,8,0,33.4-26.6,46-14.4,8,7.7,7.1,34,9,56.1Z"/>
    </g>
    <g id="kolor1" data-name="kolor">
      <path class="st1" d="M398.2,719.2c-2.3,24.5-5.7,48.9-8.2,73.3-14,10.6-19.1-7.8-29.1-12.5-5.2-2.4-11-3.2-16.7-2.8.8-21,2.6-42.1,5-63,0,0,4.9-53.8,5-54.1,10.4,3.6,39.4-23.2,49-6.9,4.7,8-2.8,36-5,66Z"/>
    </g>
    <g id="kolor2" data-name="kolor">
      <path class="st1" d="M313.2,534.2c-1.1,2.8,30.3-42.6,31.3-42.1,1.3.6,31.7,4.4,30.6,14.8-1.9,17.9-29.2,43.3-34.9,52.3-4.4,6.2-33.9,48.7-34.6,52-.9,4,2.3,14.1,1.6,20.5-.4,3.6-3.8,12.6-8.3,12.3-9.7-.8.5-28.3-11.5-18.2-3.4,2.8-4.6,5.2-4.1,9.4.6,5.9,2.8,6.9,5,12-16.3,8-30.5-10.5-27.8-27.3,1.9-11.5,43.2-74.6,52.8-85.7Z"/>
    </g>
    <g id="kolor3" data-name="kolor">
      <path class="st1" d="M552.2,648.2c1.8-3.7,3.4-9,4-13,.8-5.9-4.7-10.1-10-13-2.8,5.3,2.8,22.4-6.4,21-11.2-1.6-6.2-26.1-5.8-33.3-11.6-14.8-31.8-46.7-31.8-46.7,0,0-19.6-28.5-22-31.5-33-40.7,16.4-26.6,16-34.1.8.9,32.7,40.5,34,42,8.8,11,46.9,68.5,48.8,79.2,2.9,16.7-9.3,34.5-26.8,29.3Z"/>
    </g>
    <g id="kolor4" data-name="kolor">
      <path class="st1" d="M439.2,455.2c1,6.6,2.8,6.2,9,7-7.9,22-48.6,20.6-58,0,8.1-1.9,9,1.6,10-7,.7-8-2.6-55.7,4.7-55.9,3.5,0,21.8-5.2,32.5,11.1,6.9,10.6,2,34.5,1.8,44.8Z"/>
    </g>
    <g id="kolor5" data-name="kolor">
      <path class="st1" d="M575,342.9c-4.3-7.3-18.2-19.4-33.2-11.7,1.1-6.6,3.3-16.8,3.5-19.5,12.6-182-262-177.2-251.1-4,.2,3.4,3.2,16.2,4.5,23.8-21.5-4.2-30.3,4-34.7,11.9-18,32.5,21.8,70.3,53.2,49.7,1.2,4.2,5.9,9.9,9,13.5,14.7,16.4,32.8,28,54,34,52.2,14.9,113.5-.2,143.5-47.4,30.8,20.3,70.1-18.7,51.3-50.4Z"/>
    </g>
    <g id="shadow">
      <path class="st21" d="M350.2,710.2c.2-1.7-.6-7.7.5-8,15.9,3.6,32,7,48.5,6,.8,3.9-.7,7.5-1,11-16.6,0-32.5-3.7-48-9Z"/>
      <path class="st21" d="M441.2,717.2c-.2-2.6-1.9-5.8-1-9,16.7,1.2,32.8-3.1,49-6,.3.3-.2,7.3,0,9-15.2,7-31.7,9.6-48,6Z"/>
      <path class="st21" d="M400.2,455.2c.3-2.3-.2-4.7,0-7,5.2,2.3,37.7-1.4,39,0,.3.3-.2,5.5,0,7-12.8,5.5-26.2,4.4-39,0Z"/>
      <path class="st21" d="M526.2,532.4c.4,7.4-17,28.4-24,30.9-1.8-2.5-11.7-9.9-7.8-12.8,1.5-1.1,10.6-3.9,14.3-6.2,5.7-3.5,10.3-8.3,15-13,1.9.8,1.9.4,2.5,1.1Z"/>
      <path class="st21" d="M313.2,534.2c.8-1,1.8-3.4,3.5-3,7.8,8.7,18.1,16.8,29.5,20,1.1,1.6-8.7,18.4-7,12-6.8-2.6-27.1-26.3-26-29Z"/>
      <path class="st21" d="M280.9,343.5c7.6-1.3,16.7,3.3,20.7,9.8.8,1.3,7.5,24.2,7.5,25.6,0,4.2-5.2,5.8-8.6,6.3-30.2,4.3-43.5-37.5-19.7-41.7Z"/>
      <path class="st21" d="M553,343.5c26.4-3.4,21.9,40.7-8.2,41.8-3.5.1-12.5-.4-14.1-4.1-.5-1.2,5.3-23.3,6.4-25.6,2.4-5.5,9.9-11.3,15.9-12.1Z"/>
    </g>
    <g id="outline">
      <path class="st4" d="M451.1,464.2c-6.2-.8-11-2.4-11.9-9,0-2.7.4-4.3.8-8.4"/>
      <path class="st4" d="M400.1,445.4c0,4.8.2,8.1,0,9.9-1,8.6-4.7,8.4-12.5,8.4"/>
      <path class="st16" d="M472,652c3.1,0,5.9.9,8.2,3.2,8,7.7,7.1,34,9,56.1,2.9,22,5.5,43.9,7,66-1.1,0-2.1-.1-3.2-.1-7.1,0-14.3,2.2-19.8,6.6-6.7,5.4-4.9,10.7-15.6,11.4-.7,0-1.5,0-2.3,0-2.3,0-4.7-.4-5.9-2.7-2.3-25.2-5.7-50.2-8.2-75.3-1-11.4-10.1-47.7-7-47.7h0c6.5,0,24.5-17.6,37.8-17.6M472,648h0c-9,0-19.1,6.5-27.2,11.7-3.8,2.4-9,5.8-10.6,5.9-1.3,0-2.6.6-3.4,1.6-2.1,2.6-1.8,6.5,2.8,29.9,1.6,8,3.2,16.3,3.6,20.5,1.1,11.8,2.5,23.7,3.9,35.2,1.5,13.1,3.1,26.7,4.3,40.1v.8c0,0,.5.7.5.7,1.8,3.1,4.9,4.7,9.4,4.7s1.7,0,2.5-.1c8.9-.6,11.5-4.4,13.8-7.7,1.1-1.6,2.1-3.1,4-4.6,4.6-3.7,10.8-5.7,17.3-5.7.9,0,1.9,0,2.8.1l4.7.4-.3-4.7c-1.5-22.9-4.3-45.3-7-66.2-.4-5.1-.7-10.5-1-15.7-1-19.2-1.9-35.8-9.2-42.8-3-2.9-6.7-4.3-11-4.3h0Z"/>
      <path class="st16" d="M393.6,647.9c4,0,7.3,1.4,9.6,5.3,4.7,8-2.8,36-5,66-2.3,24.5-5.7,48.9-8.2,73.3-3,2.3-5.7,3.2-8,3.2-8.5,0-13.3-12-21.1-15.7-4.4-2.1-9.3-2.9-14.1-2.9-.9,0-1.7,0-2.6,0,.8-21,2.6-42.1,5-63,0,0,4.9-53.8,5-54.1.7.2,1.4.3,2.2.3,8.8,0,25.5-12.6,37.2-12.6M393.6,643.9h0c-7.1,0-15.1,3.7-22.8,7.3-5.5,2.6-11.2,5.2-14.4,5.2s-.8,0-.9-.1l-4.6-1.6-.6,4.9c0,0,0,.4-5,54.2-2.6,22.7-4.2,43.4-5,63.3l-.2,4.4,4.4-.3c.8,0,1.6,0,2.4,0,4.7,0,8.8.8,12.4,2.5,2.6,1.2,5,3.9,7.5,6.6,4,4.4,8.6,9.4,15.3,9.4s6.8-1.3,10.4-4l1.4-1,.2-1.7c1.1-10.8,2.4-21.9,3.7-32.6,1.6-13.4,3.2-27.2,4.5-40.8h0s0,0,0,0c.8-11,2.4-21.9,3.8-31.5,2.6-17.8,4.4-30.7.7-36.9-2.8-4.8-7.3-7.3-13.1-7.3h0Z"/>
      <path class="st16" d="M344.5,492.1s0,0,0,0c1.3.6,31.7,4.4,30.6,14.8-1.9,17.9-29.2,43.3-34.9,52.3-4.4,6.2-33.9,48.7-34.6,52-.9,4,2.3,14.1,1.6,20.5-.4,3.5-3.6,12.3-8.1,12.3s-.2,0-.3,0c-8.2-.6-2.2-20.4-7.4-20.4-1,0-2.3.7-4.2,2.2-3.4,2.8-4.6,5.2-4.1,9.4.6,5.9,2.8,6.9,5,12-2.7,1.3-5.3,1.9-7.8,1.9-12.7,0-22.2-15.2-19.9-29.2,1.9-11.5,43.2-74.6,52.8-85.7,0,0,0,.1,0,.1.7,0,30-42.3,31.3-42.3M344.5,488.1c-2.2,0-3.3,1.5-5.2,3.9-1.1,1.4-2.6,3.4-4.6,6.1-3.6,4.9-8.1,11.2-12.4,17.3-3.9,5.4-8.1,11.3-10.3,14.3l-1.7,2c-5,5.8-17.7,24.4-29.6,43.2-10.3,16.4-22.9,37.3-24.1,44.5-1.5,8.9,1.2,18.6,7,25.4,4.6,5.4,10.6,8.4,16.9,8.4s6.5-.8,9.6-2.3l3.4-1.7-1.5-3.5c-.9-2.1-1.8-3.6-2.5-4.8-1.2-2-1.9-3.2-2.2-6.1-.3-2.5,0-3.7,2.7-5.9,0,0,0,0,0,0,0,1,0,2.2.1,3.1,0,2.9.2,6.2.9,8.9,1.6,5.7,5.4,6.9,7.6,7.1.2,0,.4,0,.6,0,7.8,0,11.5-11.6,12.1-15.8.5-3.9-.3-8.5-.9-12.7-.4-2.7-.9-5.9-.7-7.3,2.2-4.9,28.5-43.1,33.9-50.7h0c0,0,0-.2,0-.2,1.4-2.3,4.7-6,8.5-10.4,10.8-12.4,25.6-29.5,27-43.7,1.3-12.5-21.6-16.8-31.4-18.6-.7-.1-1.4-.3-1.8-.3l-.5-.2h-.9Z"/>
      <path class="st16" d="M496.2,497.7c.8.9,32.7,40.5,34,42,8.8,11,46.9,68.5,48.8,79.2,2.5,14.7-6.5,30.2-20.7,30.2s-4-.3-6.1-.9c1.8-3.7,3.4-9,4-13,.8-5.9-4.7-10.1-10-13-2.7,5.1,2.4,21.1-5.4,21.1s-.6,0-1,0c-11.2-1.6-6.2-26.1-5.8-33.3-11.6-14.8-31.8-46.7-31.8-46.7,0,0-19.6-28.5-22-31.5-33-40.7,16.4-26.6,16-34.1M491.5,485.5l.6,10.6c-1.4.3-3.6.4-5.4.6-7.5.6-17.7,1.4-21,9-2.8,6.6.8,15.7,11.3,28.7,1.7,2.1,13.9,19.7,21.8,31.1,1.3,2,19.5,30.7,31,45.8,0,.9-.2,1.9-.3,3-1.2,10.9-3.5,31.1,9.6,33,.5,0,1.1.1,1.6.1,2.3,0,4.2-.8,5.7-2.3,3.2-3.2,3-8.7,2.9-13.9,0-.6,0-1.3,0-2,3.3,2.8,3,4.8,2.9,5.6-.5,3.5-2,8.4-3.6,11.8l-2,4.2,4.5,1.3c2.4.7,4.9,1.1,7.2,1.1,6.8,0,13.2-3.1,17.9-8.6,5.9-7,8.4-16.8,6.8-26.3-.9-5.3-8.4-19.1-22.4-41-10.2-16.1-22.5-34.1-27.3-40.1-.8-1-14-17.3-23.6-29.2-5.6-6.9-10.1-12.5-10.4-12.8l-7.8-9.8h0Z"/>
      <path class="st16" d="M420.5,176.6c65.6,0,131,44.3,124.7,135.2-.2,2.7-2.3,12.8-3.5,19.5,3.4-1.7,6.7-2.5,9.9-2.5,10.9,0,20,8.5,23.3,14.2,15.2,25.6-7.6,56-33.1,56s-12.3-1.7-18.2-5.6c-18.8,29.7-50.1,46.6-83.6,51.5-6.7,1-13.5,1.4-20.3,1.4s-13.1-.4-19.5-1.3c-6.8-.9-13.5-2.3-20-4.2-21.2-6.1-39.2-17.7-54-34-3.2-3.5-7.8-9.3-9-13.5-6.2,4.1-12.7,5.8-19.1,5.8-25.8,0-48.6-29.5-34.1-55.6,3.6-6.4,10-13.1,23.9-13.1,3.2,0,6.8.4,10.8,1.2-1.3-7.6-4.3-20.4-4.5-23.8-5.5-86.7,60.6-131.2,126.4-131.2M420.5,172.6h0c-38.8,0-74.9,14.7-99,40.4-22.9,24.4-33.8,57.3-31.4,95,.1,2.1,1,6.5,2.4,13.4.4,1.8.7,3.6,1.1,5.3-2-.2-4-.3-5.8-.3-12.6,0-21.8,5.1-27.4,15.2-6.9,12.5-6.6,26.9.8,39.6,7.9,13.3,22.3,21.9,36.8,21.9s11.8-1.4,17.3-4.2c2.3,4,5.7,8,7.9,10.5,15.5,17.2,34.3,29,55.8,35.2,6.7,1.9,13.6,3.4,20.6,4.3,6.6.9,13.4,1.4,20.1,1.4s14-.5,20.8-1.5c17.8-2.6,34.3-8.3,48.8-16.9,14.4-8.6,26.3-19.7,35.5-33.1,5.3,2.8,11,4.2,17,4.2,14.4,0,28.7-8.8,36.5-22.4,7.3-12.9,7.4-27.4,0-39.7-3.8-6.5-14.1-16.1-26.8-16.1-1.6,0-3.2.2-4.7.5.1-.7.3-1.4.4-2.1,1.1-5.7,1.8-9.3,1.9-11,2.8-40.2-8.1-74.6-31.5-99.7-23.6-25.2-59-39.7-97.2-39.7h0Z"/>
    </g>
  </g>
  <g id="buty">
    <g id="kolor6" data-name="kolor">
      <path id="kolor7" data-name="kolor" class="st42" d="M395.2,821.3s0,0,0,0c.4-7.3-2.1-24.3-2.9-25-.8-.7-13.3,4.6-20.9-1.6-1.6-1.3-3-5.1-5.5-7.5-8.2-7.7-26.5-12.4-33.6-1.6-.2.3-1.2,2.2-2,3.8-.1,0-.3,0-.4,0-12.7,2-22.2,12.7-24.2,27.9,0,.4-.4,4.6-.4,4.6,0,0-.7.2-.8.3-.2,2-.6,5.8,0,7.3,1.5,4.3,46.9,5.9,53.5,5.6,5.1-.2,36.3-3.7,37.4-6.6.7-1.9-.2-5.2.1-7.4Z"/>
      <path id="kolor8" data-name="kolor" class="st42" d="M536.2,822.2c-.2-.2-1-.2-2.1-.1,0-2,0-4.6,0-5-1.1-15.4-11.2-24.8-23.1-27.2-1.4-2.4-3.5-5.2-3.8-5.6-9.4-11-38-1.5-37.9,10.9-4.9-.6-14.6,4.5-21.1,1.4-1.2,3.8-5.1,19.4-3.5,24.7-.2,0-.3,0-.5-.1-.2,7.8-1.5,7.8,5.8,9.7,14.3,3.7,35.8,4.9,50.7,4.3,5-.2,34.1-3,35.4-6.6.3-.9.4-6.1.1-6.4Z"/>
    </g>
    <g id="outline1" data-name="outline">
      <path class="st16" d="M345.4,779.3c7.4,0,15.6,3.5,20.4,7.9,2.5,2.4,4,6.2,5.5,7.5,2.9,2.3,6.4,3,9.8,3,5,0,9.6-1.5,10.8-1.5s.2,0,.3,0c1,.8,4.3,20.3,2,22.5-3.7,3.5-25.4,5.2-46.4,5.2s-41.3-1.8-42.5-5.3c1.9-17.6,13.5-29.6,28.8-29.6s9.8,1.2,15.1,3.7c4.8,2.3,12.1,11,13.6,11.4,0,0,0,0,0,0,.7,0,7-5.4,7.2-6.1-1-1.1-2.2-1.7-2.2-1.7l-4.9,3.7s-7.2-6.8-9.8-8.3c-5.8-3.4-11.4-4.8-17.7-4.8-1.4,0-2.8,0-4.2.2,2.8-5.7,8.2-8,14.2-8M345.4,776.3h0c-7.9,0-13.9,3.4-16.9,9.7l-.4.8c-5.9,1.2-11.3,4.1-15.6,8.5-5.7,5.8-9.2,13.9-10.2,23.2v.6c0,0,.1.6.1.6.8,2.6,3.9,4.7,16.3,6.1,7.7.9,18,1.3,29,1.3s42.5-.4,48.5-6c1.4-1.3,1.9-3.5,1.7-7.8-.1-3.1-.6-7.1-1.3-11.2-1.2-6.9-1.9-7.5-2.6-8.1-.6-.5-1.3-.7-2.2-.7s-1.6.2-2.9.5c-2,.4-4.9,1.1-7.9,1.1s-6-.8-7.9-2.4c-.3-.3-1-1.4-1.6-2.2-1-1.6-2.2-3.5-3.8-5.1-5.6-5.2-14.6-8.8-22.4-8.8h0Z"/>
      <path class="st16" d="M494.7,779.6c5.7,0,10.8,1.8,13.5,6.1-6.3,1.3-12.6,1.6-18.7,4.3-4.2,1.8-12.7,10.6-12.7,10.6,0,0-3.3-2.2-6.6-4,0,.9-.6,1.9-.6,1.9,0,0,4.1,3.5,8.1,5.7,6.8-10.2,17.2-15,27.1-15,14.9,0,28.9,10.6,29.3,29.9-14.1,3.9-29.3,5.5-44.2,5.5s-7.5-.1-11.2-.3c-5.7-.3-29-2.6-32.8-5.2-3.6-2.4.9-18.2,2.3-22.4,1.7.8,3.5,1.1,5.5,1.1,5.2,0,10.9-2,14.6-2s.7,0,1,0c0-8.7,13.9-16.1,25.4-16.1M494.7,776.6c-6.2,0-13.1,2-18.6,5.2-5.1,3.1-8.4,6.9-9.4,10.9-1.6.2-3.4.5-5.2.9-2.6.5-5.4,1.1-7.8,1.1s-3.1-.3-4.2-.8l-3.1-1.5-1,3.3c-.5,1.5-2.1,6.9-3.1,12.3-1.3,7.5-.7,11.7,2,13.5,5.4,3.6,34,5.7,34.3,5.7,3.8.2,7.6.3,11.4.3,16.4,0,31.6-1.9,45-5.6l2.2-.6v-2.3c-.4-18-11.6-28.8-24.5-31.9l-1.9-3c-3-4.9-8.7-7.6-16-7.6h0Z"/>
      <path class="st16" d="M395.2,821.3c-.3,2.1.6,5.5-.1,7.4-1.1,2.9-32.3,6.4-37.4,6.6-.5,0-1.3,0-2.3,0-11.3,0-49.9-1.7-51.3-5.6-.5-1.5.5-5.4,0-7.4,14.5,3.3,29.3,5,44.1,5s31.6-2,46.9-6M398.8,817.2l-4.3,1.2c-14.8,3.9-30.4,5.9-46.1,5.9s-29-1.7-43.4-5l-4.5-1,.9,4.5c.1.5,0,1.9-.1,2.8-.2,1.8-.3,3.5.2,4.9.9,2.5,3.2,4.6,24.5,6.3,10.8.9,23.3,1.4,29.6,1.4s1.9,0,2.4,0c2.7-.1,12.1-1.1,20.5-2.4,4.9-.7,8.9-1.4,11.9-2.1,5.1-1.2,7-2.2,7.7-4.1.7-1.7.5-3.6.4-5.5,0-.9-.1-1.9,0-2.5l.6-4.4h0Z"/>
      <path class="st16" d="M444.2,821.3c14.8,4.4,31,6.3,46.8,6.3s7.8-.1,11.6-.4c4.7-.3,27.5-5.1,32.6-5.1.5,0,.9,0,1,.2.2.2.2,5.5-.1,6.4-1.3,3.6-30.4,6.4-35.4,6.6-2.5.1-5.2.2-8,.2-13.9,0-30.8-1.3-42.7-4.4-7.3-1.9-6-1.8-5.8-9.7M441.3,817.3v3.9c-.1,1.1-.2,2.1-.2,3-.2,2.8-.3,4.9,1.3,6.7,1.4,1.6,3.6,2.2,6.9,3.1,10.9,2.8,27.1,4.5,43.4,4.5s5.6,0,8.1-.2c2.5-.1,11-.8,19.4-2.1,15.9-2.3,17.9-4.4,18.7-6.5.1-.3.4-1.1.5-4.4,0-3.2,0-4.2-1-5.1-1-1-2.5-1-3.1-1-3.1,0-11.5,1.5-19.6,3-5.6,1-11.3,2.1-13.2,2.2-3.8.2-7.6.4-11.5.4-16.3,0-32.2-2.1-46-6.2l-3.8-1.1h0Z"/>
    </g>
  </g>
  <g id="spodenki">
    <path id="kolor9" data-name="kolor" class="st17" d="M491.2,623.2c-45.9,13.2-96.3,15.1-142,0-1.2,3.2-1.4,6.7-2,10-1.4,7.2-10.2,58.5-8.5,61,18.3,7.7,38.7,12.7,58.5,11,2.6-.2,11.1.4,12.3-2.2,0-5.4,7.2-41.3,5.7-42.8-.3-.3-3.9.3-5,0-1.2-.3-4.6-1.6-5-3,10.7.5,21.2,2.2,31.5-2,2.2,2.3-6.2,4.7-7.5,5-1.1.3-4.7-.3-5,0-1.4,1.5,5.1,36.4,5,41.5,1.6,5,7.3,3.1,11,3.5,20.5,2.4,41.9-2.4,60.5-11,1.7-2.6-7.2-54.4-8.3-61-1.1-6.6-.9-3.3-1.2-10Z"/>
    <path id="shadow1" data-name="shadow" class="st41" d="M347.2,633.2c.6-3.3.8-6.8,2-10,45.7,15.1,96.1,13.2,142,0,.3,6.7,0,3.4,1.2,10-7.5,1.3-35.6,15.9-97.4,11.7-7.6-.5-44.1-12.1-47.8-11.7Z"/>
    <path id="shadow2" data-name="shadow" class="st41" d="M410.2,660.2c1.1.3,4.7-.3,5,0,1.5,1.6-5.6,37.4-5.7,42.8-1.3,2.6-9.8,2-12.3,2.2l13-45Z"/>
    <path id="shadow3" data-name="shadow" class="st41" d="M429.2,660.2l11,45c-3.7-.4-9.4,1.5-11-3.5,0-5.1-6.4-40-5-41.5.3-.3,3.9.3,5,0Z"/>
    <g id="outline2" data-name="outline">
      <path class="st16" d="M491.2,623.2c.3,6.7,0,3.4,1.2,10,1.1,6.6,10,58.4,8.3,61-15.4,7.1-32.7,11.6-49.8,11.6s-7.2-.2-10.8-.6c-.5,0-.9,0-1.5,0-1.1,0-2.2,0-3.3,0-2.7,0-5.3-.5-6.2-3.5,0-5.1-6.6-39.1-5.2-40.6.3-.3,4.1-.7,5.2-.9,1.3-.3,9.7-2.7,7.5-5-5.3,2.2-10.7,2.8-16.1,2.8s-10.2-.5-15.4-.8c.4,1.4,3.8,2.7,5,3,1.1.3,5.2.9,5.2.9,0,0-5.8,36.5-5.9,41.9-1.3,2.6-9.8,2-12.3,2.2-2.7.2-5.4.4-8.1.4-17.2,0-34.6-4.6-50.5-11.3-1.7-2.6,7.1-53.9,8.5-61,.6-3.3.8-6.8,2-10,22.1,7.3,45.2,10.6,68.5,10.6s49.8-3.8,73.5-10.6M494,619.3l-3.7,1.1c-24.3,7-48.7,10.5-72.7,10.5s-46.5-3.5-67.5-10.5l-2.7-.9-1,2.7c-.9,2.5-1.3,5-1.6,7.4-.2,1.1-.3,2.1-.5,3.1-.7,3.7-3.3,18.5-5.4,32.3-4.4,28.3-3.5,29.6-2.7,30.9l.5.8.8.4c18.2,7.7,35.5,11.6,51.6,11.6s5.6-.1,8.3-.4c.4,0,1.3,0,2.2,0,4.8,0,10.8,0,12.6-3.8l.3-.6v-.7c0-4.2,4.2-31.3,5.8-41.4v-.7c.8,0,1.5,0,2.2,0s.2,0,.3,0c-.4,2.5.3,8,2.9,24,1.1,6.9,2.4,14.8,2.4,16.7v.5s.1.5.1.5c1.8,5.6,7.3,5.6,9.1,5.6s1.2,0,1.8,0c.5,0,1,0,1.5,0s.8,0,1.1,0c3.6.4,7.4.6,11.1.6,16.5,0,34.1-4.1,51-11.9l.8-.4.5-.7c.9-1.3,1.7-2.6-2.5-30.2-1.4-9.2-3.2-20.1-5.3-32.5v-.5c-.4-1.9-.6-3.1-.8-3.8q-.3-1.3-.4-4.1v-1.8c0,0-.2-3.8-.2-3.8h0Z"/>
    </g>
  </g>
  <g id="t_x5F_shirt">
    <path id="kolor10" data-name="kolor" class="st17" d="M525.1,523c-.3-2.4-19.8-27.6-22.9-31.2-11-12.6-27-25-43.9-28.1-10.3-1.9-6.6,2.8-12,8.1-12.8,12.7-41.7,11.8-54.1-1.1-1.9-2-3.5-7.3-5.5-7.6-4.3-.6-15.9,4-20.2,5.9-14.1,6.3-22.6,15.2-32.3,26.7-3.1,3.6-18.2,22.9-19.3,25.8-2.8,7.6,19.4,21.8,25.3,24.7,3.5,1.7,6.8,4,11,4,2.9-12.9,4.8-26.2,8-39,.6-2.4,1.5-4.6,2-7,1.4-1.4,1.9.1,2,1.5.8,6.6-8.1,36.8-9.7,46.3-3.9,22-6.7,44.2-8.4,66.5,11.2,5.2,23.6,7.5,35.7,9.5,22.2,3.6,45.6,3.7,68.7,1,6.2-.7,42.2-6.7,44.2-10.9-2.2-37.7-8.7-75-17.5-111.6,2.7-5,3.2,1.7,4,4.6,3.6,12.7,5.5,26,8,39,4.1.6,7.6-2.3,11-4,5.7-2.8,26.7-16.4,25.9-23.3Z"/>
    <path id="shadow4" data-name="shadow" class="st41" d="M503.4,543.9c-3.4,1.6-11.1,6.9-15.2,6.3-2.6-12.9-4.5-26.3-8-39,6.3,4.4,11.6,23.3,23.2,32.6Z"/>
    <path id="shadow5" data-name="shadow" class="st41" d="M361,507.9c-3.2,12.8-7,29.5-9.8,42.3-4.2,0-13.5-5-17.1-6.7,9.8-8.6,23.5-29.3,26.9-35.6Z"/>
    <path id="outline3" data-name="outline" class="st31" d="M385.9,463.1c.3,0,.6,0,.8,0,2,.3,3.6,5.6,5.5,7.6,6.4,6.7,17.3,10.2,28.1,10.2s19.9-3,26-9.1c4.5-4.5,2.6-8.5,8.1-8.5s2.3.1,3.8.4c16.9,3.1,32.9,15.5,43.9,28.1,3.1,3.6,22.6,28.8,22.9,31.2.9,6.8-20.1,20.5-25.9,23.3-3.1,1.5-6.2,4-9.9,4s-.7,0-1.1,0c-2.6-12.9-4.5-26.3-8-39-.6-2.1-1-6.4-2.3-6.4s-1,.5-1.7,1.8c8.8,36.6,15.3,73.9,17.5,111.6-2,4.2-38,10.2-44.2,10.9-10.5,1.2-21.2,1.9-31.7,1.9s-25-.9-37-2.9c-12.2-2-24.5-4.4-35.7-9.5,1.7-22.3,4.5-44.5,8.4-66.5,1.7-9.5,10.5-39.7,9.7-46.3-.1-1-.4-2.1-1.1-2.1s-.6.2-1,.6c-.6,2.4-1.4,4.6-2,7-3.2,12.8-5.1,26.1-8,39,0,0,0,0,0,0-4.2,0-7.4-2.3-10.9-4-5.8-2.9-28.1-17.1-25.3-24.7,1.1-2.9,16.2-22.1,19.3-25.8,9.7-11.5,18.2-20.4,32.3-26.7,4.1-1.8,14.6-6,19.3-6M385.9,460.1h0c-6.4,0-20,6-20.6,6.3-15.1,6.7-24.1,16.4-33.4,27.5-1.1,1.3-18.4,22.8-19.8,26.7-1.7,4.7,1.6,10.4,10.3,17.5,6,4.9,13.3,9.4,16.5,11,.7.3,1.3.7,2,1.1,2.7,1.4,5.7,3,9.3,3.2-3.7,21.3-6.4,43.2-8.1,65.1l-.2,2.1,1.9.9c11.8,5.4,25,7.9,36.5,9.7,11.9,1.9,24.5,2.9,37.5,2.9s21.2-.6,32-1.9c3.2-.4,13.9-2.1,23.9-4.2,20.7-4.4,21.9-6.8,22.6-8.4l.3-.7v-.8c-1.2-20.7-3.8-42.2-7.7-64.8,0,0,.2,0,.2,0,3.5,0,6.4-1.6,8.9-3.1.8-.5,1.6-.9,2.3-1.2,2.9-1.4,9.8-5.6,16-10.5,11.1-8.7,11.9-13.2,11.6-15.9-.1-1-.3-2.4-11-16.6-5.5-7.3-11-14.4-12.6-16.2-6.5-7.4-23.8-25.1-45.6-29.1-1.7-.3-3.2-.5-4.4-.5-5.3,0-6.6,3.1-7.7,5.3-.6,1.3-1.2,2.7-2.6,4.1-5.2,5.1-14.1,8.2-23.9,8.2s-20.4-3.5-25.9-9.2c-.5-.5-1.1-1.7-1.7-2.8-1.4-2.6-2.8-5.3-5.6-5.7-.4,0-.8,0-1.2,0h0Z"/>
  </g>
  <g id="Oczy">
    <g>
      <ellipse class="st30" cx="359.5" cy="339.8" rx="29.5" ry="27.8"/>
      <path class="st15" d="M359.5,328c13.7,0,25.2,8.6,28.5,20.2.6-2.2,1-4.6,1-7,0-15-13.2-27.2-29.5-27.2s-29.5,12.2-29.5,27.2.3,4.8,1,7c3.3-11.7,14.8-20.2,28.5-20.2Z"/>
      <path class="st27" d="M359.5,318.6c15.1,0,27.8,8.3,29.3,24.5.1-1.1.2-2.2.2-3.3,0-15.4-13.2-27.8-29.5-27.8s-29.5,12.5-29.5,27.8,0,2.2.2,3.3c1.7-12.2,14.2-24.5,29.3-24.5Z"/>
      <g>
        <g id="kolor11" data-name="kolor">
          <circle class="st39" cx="366.9" cy="343.1" r="21.4"/>
          <path class="st27" d="M366.9,365.5c-12.4,0-22.4-10.1-22.4-22.4s10.1-22.4,22.4-22.4,22.4,10.1,22.4,22.4-10.1,22.4-22.4,22.4ZM366.9,322.7c-11.3,0-20.4,9.2-20.4,20.4s9.2,20.4,20.4,20.4,20.4-9.2,20.4-20.4-9.2-20.4-20.4-20.4Z"/>
        </g>
        <circle class="st2" cx="366.9" cy="343.1" r="12.1"/>
        <circle class="st38" cx="373.4" cy="334.2" r="7.1"/>
      </g>
      <path class="st27" d="M376.1,294.7c-10.4-.9-21.2,0-30.6,5-3.3,1.6-6.3,3.7-9.4,5.8-.3.2-.7,0-.8-.2-.1-.2-.1-.5,0-.7.6-.8,1.2-1.5,1.8-2.3,9.3-11.6,26.3-17.5,40.4-11.9,2.4,1.1,1.3,4.6-1.3,4.2h0Z"/>
    </g>
    <g>
      <ellipse class="st30" cx="480.3" cy="339.8" rx="29.5" ry="27.8"/>
      <path class="st15" d="M480.3,328c-13.7,0-25.2,8.6-28.5,20.2-.6-2.2-1-4.6-1-7,0-15,13.2-27.2,29.5-27.2s29.5,12.2,29.5,27.2-.3,4.8-1,7c-3.3-11.7-14.8-20.2-28.5-20.2Z"/>
      <path class="st27" d="M480.3,318.6c-15.1,0-27.8,8.3-29.3,24.5-.1-1.1-.2-2.2-.2-3.3,0-15.4,13.2-27.8,29.5-27.8s29.5,12.5,29.5,27.8,0,2.2-.2,3.3c-1.7-12.2-14.2-24.5-29.3-24.5Z"/>
      <g>
        <g id="kolor12" data-name="kolor">
          <circle class="st39" cx="473" cy="343.1" r="21.4"/>
          <path class="st27" d="M450.5,343.1c0-12.4,10.1-22.4,22.4-22.4s22.4,10.1,22.4,22.4-10.1,22.4-22.4,22.4-22.4-10.1-22.4-22.4ZM452.5,343.1c0,11.3,9.2,20.4,20.4,20.4s20.4-9.2,20.4-20.4-9.2-20.4-20.4-20.4-20.4,9.2-20.4,20.4Z"/>
        </g>
        <circle class="st2" cx="473" cy="343.1" r="12.1"/>
        <circle class="st38" cx="480.3" cy="334.2" r="7.1"/>
      </g>
      <path class="st27" d="M462.4,290.5c15.1-6.1,33.2,1.1,42.2,14.1.4.5-.3,1.2-.8.9-1.6-1-3.1-2.2-4.7-3.1-8.2-5.3-17.9-8-27.6-8-2.6,0-5.6.1-8.1.3-2.4.1-3.2-3.3-1-4.2h0Z"/>
    </g>
  </g>
  <g id="Usta">
    <g>
      <g id="_x31_2">
        <path class="st21" d="M451.3,404.1c-13,20.3-41.3,25.4-60,9.6-2.7-2.2-4.5-5-6.6-7.4,1.2-1.2,2.3,1,2.9,1.3,15.6,6.9,31.9,8.7,48.4,3.5,5.4-1.7,10.1-4.9,15.3-7Z"/>
        <path class="st10" d="M381.9,403c.4.1.7.4,1.1.6,2.3,1.1,4.3,2.8,6.8,3.9,18.1,8.3,39.5,7.7,56.5-2.3,1.7-1,3.5-2.7,5.4-3.2.9-.2,2.7-.7,2.3,1,1-.3,2.2.2,3.3-.8,3-2.9-1.3-7.4-4.6-6.9-1.3.2-4.1,4.3-6,5.6-15,11.4-45.9,11-60.9-.5-1.4-1-4-4.5-5-4.9-4.9-2.1-7.8,3.9-4.6,7.4,2.4,0,3.3-.8,5.7,0Z"/>
      </g>
      <g id="_x31_1" class="st34">
        <path class="st26" d="M441.2,413.5c.2.1.4.4.6.6.8,1.7.3,3.2,0,5-9.6,12.7-39.9,11.4-50.6.6-.7-5.2,1.1-6.8,5.6-8.4,10.4-3.7,35.1-4.1,44.5,2.4ZM411.5,422.3c.9.5,3.5-2.2,3.1,1.1,4,0,5,1.2,8.9,0,4.3-1.2,10.6-4.5,4.4-7.4-4.6-2.2-15.4-3.2-20.3-1.7-.4.1,1.9,1.8-.7,1.6s-1.6,1.4-.7,1.9c.9.6,1.3,1.3,1.9,1.7h-3.7c-2.3,3.9,1.9,5.1,5.1,5,1.7,0,2.1-.6,1.9-2.2Z"/>
        <path class="st24" d="M445.1,391.5c1.4,2-5.1,4.9-6.5,5.4-11.9,4.4-33.1,3.8-44.7-1.3-1.9-.8-3.7-1.7-5-3.3-.4-2,6.5-1.4,8-1.4,10.8.4,20.9,1.4,32,1.1,2.3,0,15.4-1.8,16.2-.6Z"/>
        <path class="st26" d="M441.2,413.5c-9.4-6.4-34-6.1-44.5-2.4-4.5,1.6-6.4,3.2-5.6,8.4-2-2-.9-5.2,1.1-6.9,7.8-6.4,35-5.8,44.1-2.3,1.6.6,3.8,1.7,4.9,3.1Z"/>
        <path class="st26" d="M441.8,419c.3-1.8.8-3.2,0-5,1.8,1.9,1.6,2.9,0,5Z"/>
        <path class="st18" d="M405.3,419.5c-3.2-4,2.7-5.8,5.8-6.1,5.1-.8,19.4-.6,20.5,5.7,0,2.1-1.9,3.4-3.9,4.4-6.9,3.1-16.9,1.5-22.3-3.9h0Z"/>
        <path class="st11" d="M408.6,419.5c4.2,2.3,3.3,6.2-1.5,5-3.1-.6-7.8-4.7-4.3-6.2,1.7-.6,3.9,0,5.6,1h.2Z"/>
        <path class="st10" d="M451.3,388.2c-9.1-1.2-19.8,1.4-29.1,1.6-9.6.2-18.7-1.3-28.1-1.7-3.5-.2-9.8-.4-13.1.2-11.5,1.9-6.9,14.6-2.8,21.3,15.4,25.3,55.7,28.1,74,4.7,5.5-7,13.4-24.1-.9-26.1ZM441.8,419c-9.6,12.7-39.9,11.4-50.6.6-2-2-.9-5.2,1.1-6.9,7.8-6.4,35-5.8,44.1-2.3,1.6.6,3.8,1.7,4.9,3.1.2.1.4.4.6.6,1.8,1.9,1.6,2.9,0,5ZM438.6,396.8c-11.9,4.4-33.1,3.8-44.7-1.3-1.9-.8-3.7-1.7-5-3.3-.4-2,6.5-1.4,8-1.4,10.8.4,20.9,1.4,32,1.1,2.3,0,15.4-1.8,16.2-.6,1.4,2-5.1,4.9-6.5,5.4Z"/>
      </g>
      <g id="_x39_" class="st34">
        <path class="st36" d="M417.6,387.6c11.9-1,21.4,5.6,24.2,17.3,4.9,20.7-15,26.3-31.4,22.1-21.9-5.6-12.6-37.8,7.3-39.4ZM416,390.3c-2.3.3-9,2.5-8.1,5.5,5.5,3.7,14.5,3.7,20.9,2.3,2.1-.5,6-1,3.9-3.9-2.9-3.9-12.3-4.5-16.7-3.9ZM437.6,414.4c-.2-1.3.2-1.5-1.4-2.8-7.3-5.9-33-6.6-33.3,5.8,0,1.4-.3,1.8,1.1.8.3,3.6,3.6,5.1,6.9,6.1,7.6,2.4,25.8,1.9,27.2-8.6,0-.6-.4-1-.5-1.4Z"/>
        <path class="st24" d="M416,390.3c4.4-.6,13.8,0,16.7,3.9,2.1,2.9-1.7,3.5-3.9,3.9-6.3,1.4-15.4,1.3-20.9-2.3-1-3,5.8-5.2,8.1-5.5Z"/>
        <path class="st18" d="M437.7,415.4c1.2-4.4-3.7-5.2-6.9-6.4-6.9-2.2-17.5-2.1-23.4,1.5-4,2.2-6.7,6.6-2.8,10.2,7.5,7.3,30.7,7,33.1-5.3h0ZM413.3,419.5c-.6,2.1-7.6,2.5-6.2-.7,1.3-2,6.3-1.6,6.3.5h0ZM426.7,408.6c0,0,.9.2,1.5.3.6.1.8.2.2,0-.5-.1-1.3-.3-1.8-.3h0ZM423.1,408.3c0,0,.1,0,.2,0,0,0-.1,0-.2,0Z"/>
        <path class="st11" d="M408.2,417.8c1.3-.4,5.8-.6,5.1,1.7-.5,1.8-4.2,1.8-5.6,1.4-1.6-.5-.5-2.7.6-3.1Z"/>
      </g>
      <g id="_x38_" class="st34">
        <path class="st21" d="M440.3,404.2c2.9,1.3,7.8,5.4,9.4,8.3-7.9-1.5-9,.5-15.7,2.2-11.9,2.9-22,3.2-33.9.4-6.2-1.4-9-3.8-15.8-2.6,3.2-2.4,6.1-6.9,9.9-8.3,2.5-.9,1.8-.9,3.9-1.9,3-1.5,6.2-1.8,9.5-1.4,2.2.3,3.5,1.5,5.3,1.9,5.8,1.3,10.8-3.4,18.4-1.8,1.6.3,7.8,2.6,9.2,3.2ZM430.3,406.5c-11.3-2.5-11.5,3.9,0,2.7v-2.7Z"/>
        <path class="st40" d="M430.3,406.5v2.7c-11.5,1.3-11.3-5.2,0-2.7Z"/>
        <path class="st14" d="M439.2,403.1c.2.1.5,1,1.1,1.1-1.4-.6-7.6-2.8-9.2-3.2-7.6-1.6-12.6,3.2-18.4,1.8-1.7-.4-3-1.6-5.3-1.9-3.3-.4-6.5,0-9.5,1.4-2.1,1-1.4,1-3.9,1.9v-.6c4.1-2.6,8.3-4.5,13.2-3.6,8.4,1.6,4.7,2.8,14.3.6,5.2-1.2,12.9,0,17.6,2.5Z"/>
        <path class="st29" d="M439.2,403.1c-4.7-2.6-12.5-3.7-17.6-2.5-9.6,2.3-5.9,1-14.3-.6-5-.9-9.2,1-13.2,3.6l-.6-.5c3.1-1.2,7.4-4.3,10.7-4.3,3.4,0,7.4,2.5,10.4,2.7,3.5.2,5.7-1.8,8.9-2.2,5.5-.7,11.2.5,15.6,3.8Z"/>
        <path class="st10" d="M455.4,409.1c-9.1-6.2-19.4-14.7-31.3-13.1-2.4.3-6.6,2.5-8.4,2.5-2.4,0-6.4-2.4-9.4-2.7-11.9-1.2-18.7,7.7-27.8,13.4-1.7,2.5.3,4.3,2.9,4.1,1.1,0,2-.9,2.6-1,3.2-2.4,6.1-6.9,9.9-8.3v-.6l-.6-.5c3.1-1.2,7.4-4.3,10.7-4.3,3.4,0,7.4,2.5,10.4,2.7,3.5.2,5.7-1.8,8.9-2.2,5.5-.7,11.2.5,15.6,3.8.2.1.5,1,1.1,1.1,2.9,1.3,7.8,5.4,9.4,8.3,1.4.3,3.6,2.2,5.5.8.8-.5,1.6-3.6.3-4.2Z"/>
      </g>
      <g id="_x36_" class="st34">
        <path class="st36" d="M393.8,409.4c2.4,0,3.2,7,4,9,4.8,12.5,20.1,19,30.7,9.2,5.3-4.9,4.9-6.4,7.7-12.7.2-.4,1.4-1.2,0-1.7,0-.6-.1-1.7,0-2.2,1.3-.2,2.5-1,3.9-1.1.8,0,1.6.2,2.2.6-3.4,2.4-3.1,5.9-4.5,9.5-8.5,20.9-35.5,19.3-42.9-1.4-1.1-3-.6-6.7-3.2-8.6.8.4,2-.5,2.2-.6Z"/>
        <path class="st0" d="M410.9,398.9c1.1.9,3.3,2.9,3.3,4.4.3.3.9-.8,1.1-1.1l.6-1.1c.1-.2.4-.3.6-.6,6.4-3.7,15.9-5.3,22-.2,2.6,2.2,4.4,5.9,1.2,8.5,0,0-.5-.3-.4-.4,0,0,.8-.1.9-.5.8-2.6.8-6.7-2.7-6.7.9,2.8-1,3.8-1.5,5.4-1.1,3.3-2.6,11.3-4.5,13.6-.5.6-7.3,7.4-7.8,7.6-2.1,1.2-7.5.7-6.3,3.6,4.2.4,8.1-1.1,11.3-3.9-10.6,9.8-25.9,3.3-30.7-9.2-.8-2-1.6-9-4-9-1.1-3.9,1.4-9.2,5-11,4-2.1,8.1-.7,12.1.6ZM408.6,418.6c.7-2.3.8-4.3-.2-6.5-7.7-2.3-7.4,9.3.2,6.5Z"/>
        <path class="st43" d="M440.1,410c-1.3.1-2.5.9-3.9,1.1.4-1.6,2.8-1.2,3.3-2.2,3.2-2.6,1.5-6.3-1.2-8.5-6.1-5.1-15.6-3.5-22,.2,0-.1-.2-.7,0-1,1.6-1.6,9.3-3.4,11.7-3.4,7,0,18.3,5.9,11.9,13.8Z"/>
        <path class="st43" d="M410.9,398.9c-4-1.3-8.1-2.6-12.1-.6-1.2-.6,1.3-1.5,1.5-1.5,4.2-.6,7.3-.5,10.6,2.1Z"/>
        <path class="st43" d="M415.3,402.2c0-.1.2-.6.6-1.1l-.6,1.1Z"/>
        <path class="st45" d="M428.5,427.6c-3.2,2.7-7.1,4.2-11.3,3.9-1.2-2.9,4.2-2.4,6.3-3.6.5-.3,7.3-7,7.8-7.6,1.9-2.4,3.4-10.3,4.5-13.6.5-1.5,2.4-2.6,1.5-5.4,3.5,0,3.5,4.1,2.7,6.7-.1.4-.9.5-.9.5,0,.1.4.4.4.4-.5,1-2.9.6-3.3,2.2-.1.5,0,1.6,0,2.2v1.7c-2.8,6.3-2.4,7.7-7.7,12.7Z"/>
        <path class="st10" d="M393.8,409.4c-1.1-3.9,1.4-9.2,5-11-1.2-.6,1.3-1.5,1.5-1.5,4.2-.6,7.3-.5,10.6,2.1,1.1.9,3.3,2.9,3.3,4.4.3.3.9-.8,1.1-1.1,0-.1.2-.6.6-1.1.1-.2.4-.3.6-.6,0-.1-.2-.7,0-1,1.6-1.6,9.3-3.4,11.7-3.4,7,0,18.3,5.9,11.9,13.8.8,0,1.6.2,2.2.6,4.3-3.1,7.8-4.7,11.6-9.1,3.5-4,10.3-14,3.5-17.8-5.3-2.9-10.9,2.2-15.5,4.2-14.6,6.3-34.8,6.6-50,1.8-4.2-1.3-14-8-16.9-3.2-3.4,5.7,3.6,14.1,7.8,17.7,2.8,2.4,6.2,3.8,8.8,5.8.8.4,2-.5,2.2-.6Z"/>
        <path class="st10" d="M436.2,414.9c.2-.4,1.4-1.2,0-1.7v1.7Z"/>
        <path class="st11" d="M408.6,418.6c-7.6,2.8-7.9-8.8-.2-6.5.9,2.2.8,4.2.2,6.5Z"/>
      </g>
      <g id="_x35_" class="st34">
        <path class="st10" d="M449,392.5c10.5-3.1,17.2,15.6,14.3,23.7-.8.2-1.9-.1-2.8,0v4.4c-.1,0-.4,0-.5,0-.2,0-.4.3-.6.6-.2,0-.8,0-1.1,0-.6-.1-2.5-1.1-3.3-1.1v-.6c.1,0,.4-.4.6-.6,2.3-1.8.4-4-1.4-5.5-11.6-10.1-39.6-11.2-53.9-7.1-3.6,1-11.7,4.7-13.9,7.9-1.4,2-1.7,3.9-.2,5.9-.5,0-3.3,1.1-3.9,1.1-.3,0-.8,0-1.1,0,.8-3.4-2.7-4.7-5.5-5v-1.7c1.4.4,1.2-1.4,2-1.6.8-.2,1.7.7,3.8,0,2.5-.8,3.8-3.5,5.2-4.1,2.5-1.2,10-3.2,11.5-4.5,2-1.7,2.8-4,6.1-4.9.2-1.3-.6-.7-1.4-.8-2.1-.4-4.2-1-6.3-1.1l2.8-1.1c7.7,2.6,17.3,2.2,25.9,1.7v1.1s.8,0,.8,0l.3-1.1c4.6-.4,9.4-.6,13.9-1.8,3.3-.9,6-2.9,8.7-3.7Z"/>
        <path class="st10" d="M465.5,414.5c-.7,1-1,1.4-2.2,1.7,2.8-8.1-3.8-26.8-14.3-23.7,1.1-1.7.2-2.1-1.3-2.2-7.1-.8-14.4.9-21.5,1.2-11,.4-23.4-1.6-33.9,0-10,1.5-17.5,8-17.1,18.7,0,.6-.2,1.4.6,1.7,0,.9,0,1.8,0,2.8v1.7c-.4,0-.7,0-1.1,0-5.9-7.2-.3-20.1,7-24.7,10.1-6.4,28.7-1.8,40.7-2.3,8.7-.3,17.7-2.5,26.4-1.7,12.5,1.1,20.6,15.6,16.8,27Z"/>
        <path class="st19" d="M406.6,405.7c1.5,0,3.7,0,5.2,0h13.2c1.3,0,4.5.9,6.1,1,.9,0,2.4.5,3-.5,5.6.9,10.3,2.1,15.2,4.9,3,1.7,6.8,3.6,6.2,7.8-.2.2-.4.5-.6.6-3.2,1.3-12.1.3-16,0-2.6-.2-5.4-.9-8.3-1.1-.8-.8-2-1-3-1.1-13.2-1.3-20.9,1.4-33,2.2-1.6.1-8.6.5-8.9-1.3-.9-5.9,16.3-12.3,20.7-12.4ZM447.3,411.8c-3.3-2.3-7.5-1.2-8.7,2.7l7.6.2,1.1-2.9Z"/>
        <path class="st10" d="M392.3,391.4c0,3.2,4.7,4.1,7.2,5l-2.8,1.1c2.1.2,4.2.8,6.3,1.1.8.1,1.6-.5,1.4.8-3.3.9-4,3.2-6.1,4.9-1.5,1.3-9,3.3-11.5,4.5-1.4.7-2.8,3.3-5.2,4.1-2.1.7-3-.1-3.8,0-.7.2-.6,2-2,1.6,0-.9,0-1.9,0-2.8,0-.1.9-.9.5-1.6h-1.1c-.4-10.7,7.1-17.2,17.1-18.7ZM390.3,393v.6c.4-.2.4-.4,0-.6Z"/>
        <path class="st24" d="M449,392.5c-2.7.8-5.3,2.8-8.7,3.7-4.5,1.2-9.2,1.4-13.9,1.8-.4,0-.7,0-1.1,0-8.6.6-18.2.9-25.9-1.7-2.4-.8-7.2-1.7-7.2-5,10.5-1.6,22.9.4,33.9,0,7.1-.2,14.3-1.9,21.5-1.2,1.6.2,2.5.6,1.3,2.2Z"/>
        <path class="st33" d="M386.2,420c-1.5-2-1.2-3.9.2-5.9,2.2-3.1,10.3-6.8,13.9-7.9,14.3-4.1,42.3-3,53.9,7.1,1.7,1.5,3.6,3.7,1.4,5.5.6-4.2-3.2-6.1-6.2-7.8-5-2.7-9.7-4-15.2-4.9-1.7-.3-5.6-1.1-6.9-1.1h-16.5c-.7,0-2.8,1.1-4.1.6-4.5,0-21.7,6.5-20.7,12.4.3,1.8,7.3,1.4,8.9,1.3,12.2-.8,19.8-3.5,33-2.2,1.1.1,2.3.3,3,1.1-6.3-.4-13.2-1-19.6-.6-5.9.4-12.3,2.4-18.1,2.8-2.5.2-5-.6-6.9-.5Z"/>
        <path class="st33" d="M455,419.4v.6c-5.4-.1-9.9.8-16,0v-.6c3.9.3,12.7,1.3,16,0Z"/>
        <path class="st12" d="M426.4,398l-.3,1.1h-.8s0-1.1,0-1.1c.4,0,.7,0,1.1,0Z"/>
        <path class="st46" d="M375.2,410.1h1.1c.4.8-.5,1.5-.5,1.7-.7-.3-.5-1-.6-1.7Z"/>
        <path class="st46" d="M439.1,419.4v.6c-.4,0-1.1.2-1.1-.3l1.1-.3Z"/>
        <path class="st10" d="M439.1,420c-.4,0-1.1.2-1.1-.3l1.1-.3c-2.6-.2-5.4-.9-8.3-1.1-6.3-.4-13.2-1-19.6-.6-5.9.4-12.3,2.4-18.1,2.8-2.5.2-5-.6-6.9-.5-.5,0-3.3,1.1-3.9,1.1,8.1,3,16.8-.3,25-1.1,14.5-1.4,25.5,1.8,39.4,2.2.2,0,.4,0,.6,0,1.6,0,3.3,0,5,0,.5,0,1.1,0,1.7,0,1.4-.1,3.1-.4,4.4-1.1-.6-.1-2.5-1.1-3.3-1.1-5.4-.1-9.9.8-16,0Z"/>
        <path class="st10" d="M375.8,416.1c-.4,0-.7,0-1.1,0,.7.8,2.4,3,3.5,3.6.6.4,2.4,1.2,3.1,1.3.8-3.4-2.7-4.7-5.5-5Z"/>
        <path class="st10" d="M463.3,416.1c-.8.2-1.9-.1-2.8,0v4.4c3.3-1.4,3.9-3,5-6.1-.7,1-1,1.4-2.2,1.7Z"/>
        <path class="st10" d="M459.4,421.1c.2,0,.5-.3.6-.6-.2,0-.4.3-.6.6Z"/>
        <path class="st11" d="M447.3,411.8l-1.1,2.9-7.6-.2c1.3-3.9,5.5-5,8.7-2.7Z"/>
        <path class="st28" d="M434.1,406.2c-.6.9-2,.6-3,.5-1.6-.2-4.8-1-6.1-1h-13.2c-1.6,0-3.7,0-5.2,0,1.3.6,3.4-.6,4.1-.6h16.5c1.3,0,5.2.8,6.9,1.1Z"/>
        <path class="st20" d="M390.3,393c.4.2.4.4,0,.6v-.6Z"/>
      </g>
      <g id="_x34_" class="st34">
        <path class="st21" d="M396,405.8c4.3-2.1,7.3-3.3,12.2-2.6,2.7.4,4.9,2.1,6.9,2.5,6,1.3,12.3-4.8,18.9-1.8l6.6,2.5c2.6,1.8,3.8,3.3,5.5,6.1,1.1,1.8,1.8,4.3,3.3,6.1-4.8-1.3-8.9,2.8-13.6,4.2-11.1,3.3-26.1,3-37-.7-5.7-1.9-5.5-3.8-12.1-3-.5-2.3,2.2-2.7,2.8-3.7.6-.9,1.3-3.5,2.2-5.1h.6c.8-.2,1.1-.8,1.1-1.7.2-.2.4-.4.6-.6l1.7-1.7c.2-.2.3-.4.6-.6ZM420.2,412.4c-3.6-.2-15.5.2-11.8,6,3.9,6.1,21.4,3.8,18.9-3.5-.1-.3-3.4-1.9-3.8-2,1.4-.6,5,.3,5.5-1.9.5-2.3-9.5-4.6-8.8,1.4Z"/>
        <path class="st18" d="M420.2,412.4c.6,0,2.8.4,3.3.6.4.1,3.7,1.7,3.8,2,2.6,7.2-15,9.6-18.9,3.5-3.7-5.8,8.2-6.3,11.8-6Z"/>
        <path class="st13" d="M423.5,412.9c-.5-.1-2.7-.5-3.3-.6-.7-6,9.3-3.6,8.8-1.4-.5,2.2-4.1,1.4-5.5,1.9Z"/>
        <path class="st14" d="M437.8,404.7c1.1.5,1.7.9,2.8,1.7l-6.6-2.5c-6.5-3-12.9,3.1-18.9,1.8-2-.4-4.2-2.1-6.9-2.5-4.9-.7-8,.5-12.2,2.6,3.2-2.6,5.8-3.9,10.2-3.9,4.7,0,7.5,4.1,12.5,3.2,1.5-.2,2.9-1.3,4.4-1.7,6.1-1.6,9.1-1.4,14.7,1.3Z"/>
        <path class="st29" d="M437.8,404.1v.6c-5.6-2.7-8.7-2.9-14.7-1.3-1.5.4-2.9,1.4-4.4,1.7-5.1.8-7.9-3.2-12.5-3.2-4.4,0-7,1.3-10.2,3.9-.2.2-.4.4-.6.6-.7.6-1,1-1.7,1.7-.2.2-.4.4-.6.6-.4.4-1.3.5-1.1,1.7h-.6c.2-.3,0-1.1.5-1.9,3.3-4.8,11-7.9,16.7-6.7,1.5.3,3.7,2,5.3,2.4,9.5,2.1,11-6.2,23.7.3Z"/>
        <path class="st14" d="M392.1,410.2c-.2-1.1.7-1.2,1.1-1.7,0,.8-.3,1.4-1.1,1.7Z"/>
        <path class="st14" d="M393.8,408c.6-.7.9-1,1.7-1.7l-1.7,1.7Z"/>
        <path class="st10" d="M426,399.2c-3.1.3-6.4,2.8-8.8,2.7-2.5,0-4.9-2-7.2-2.7-11.4-3.1-17.8,4.9-24.1,12.4-1.1,1.4-5.1,3.4-3.8,6.1,1.2,2.4,2.8,1.5,4.6,1.3-.5-2.3,2.2-2.7,2.8-3.7.6-.9,1.3-3.5,2.2-5.1.2-.3,0-1.1.5-1.9,3.3-4.8,11-7.9,16.7-6.7,1.5.3,3.7,2,5.3,2.4,9.5,2.1,11-6.2,23.7.3v.6c1.1.5,1.7.9,2.8,1.7,2.6,1.8,3.8,3.3,5.5,6.1,1.1,1.8,1.8,4.3,3.3,6.1.5.1,1.1,1,2,1.1,2.4.3,4.4-2.1,3.3-4.4-8.9-8.7-14.5-17.4-28.6-16Z"/>
      </g>
      <g id="_x32_" class="st34">
        <path class="st36" d="M464.8,417.6l-8.3-.6c2,.3,3.3-.2,5-.6,6.1-1.5,5.6-6.4,5.5-11.8,0-.9.4-2.4-.6-3-.3-3.7-1.5-7-4-9.7-.4-.4-1.2-.5-1.5-.7-.2-.2-.4-.4-.6-.6-.2-.2-.3-.4-.6-.6-8.1-5.4-12.3-1.8-20.4.6-4.9,1.4-10.5,3.5-16.2,3.9-5.7.4-11.9,0-17.4-1.4-.8-.2-3-.6-3.3-1.4,8.9,1.1,16.8,2.8,25.7.6,1.2-.3,1.8.4.7-1.2,12.7-2.3,26.7-11.9,37.2,1.1,5.3,6.6,8.2,21.4-1.4,25.3Z"/>
        <path class="st36" d="M393.3,386.8l2.2,2.7c-2.9-.2-4.9-1.3-7.9-1-1.2,0-4.6,1.5-5.2,2.3-.3.3,0,.9,0,1-.5.6-.5.6-1.1,1.1-3.2,2.6-5.1,8.7-5,13.5,0,3.2,1.8,8.5,4.7,10.2.8.5.9,0,1.1,0h8.5c0,1.3.2,1-.8,1.1-3,.4-6.6-.3-9.6,0-4.1-1.2-5.2-1.8-6.8-6.2-1.8-5-.4-9.8,1.7-14.6,3.6-8.1,9.3-11.8,18.3-10.1Z"/>
        <path class="st29" d="M429,391.2c1,1.6.5.9-.7,1.2-8.9,2.2-16.8.4-25.7-.6.3.8,2.5,1.2,3.3,1.4,5.5,1.4,11.7,1.8,17.4,1.4,5.7-.4,11.3-2.4,16.2-3.9v.6c-2.3.5-5.2,2.2-7.9,2.8-9.1,2.2-18.3,2.1-27.3-.4-6.2-1.7-15.2-7.1-20.9-1.9h-1.1c0-.1-.2-.7,0-1,.7-.7,4-2.2,5.2-2.3,3-.2,5,.8,7.9,1l-2.2-2.7c15.1,2.8,18.1,7.6,35.8,4.4ZM399.3,389.5c-.2-.2-4.1-1.4-3.3.5,0-.1,4.9,1.1,3.3-.5Z"/>
        <path class="st36" d="M454.4,417c-2.3,1.5-6-.4-8.3,1.1-.2,0-.4,0-.6,0,.3-1.7-.9-.9-1.9-1.1-2.4-.4-5.7-1.2-8,0-.2,0-.4,0-.6,0-.9-1-2.3-1-3.6-1.1-11.7-.7-24.4.2-36.1.6-.2-1.5,0-1,1.1-1.1,2.6-.3,5.1-.4,7.7-.6,8-.6,15.9-.7,24-.6l26.1,2.8Z"/>
        <path class="st29" d="M381.1,392.8l-3.3,8.2c.3.4,7.6,1.5,8.8,1.7,1.8.2,3.9,0,5.8,0,.9,0,2,.7,2.7.6.3,0,3.1-5.6,4.8-1.1-.6-.3-2.8-.8-3.2-.5l-.4,2.2c.5.7,2.5.7,3.3.5,1.1-.3.8-1.5.9-1.6.2-.1,2.6,0,3.3,0v.6c-.7,0-2.8-.5-2.7.5h7.7c-1.7.1-5.8.4-7.3.7-1.2.2-2.3,1.5-3.5,1.5-1.2,0-2.7-1.4-4.4-1.6-2.3-.3-5,.2-7.4,0-1.8-.2-4.5-.8-6.3-1.1-1-.2-2-1.7-2.5-.2-.9,3.6.3,11.7,4.9,12.3,2.7.4,6-.3,8.8,0l2.7.5v-.5s-2.2,0-2.2,0c1.1-1.1,3.4-.4,5-.6v.6c-1,.1-1.3-.4-1.1,1.1,11.7-.3,24.4-1.3,36.1-.6,1.3,0,2.6.1,3.6,1.1-8.8-.5-18.5-1-27.3-.6-9,.4-19.2,3.7-27.8,1.1,3.1-.3,6.7.4,9.6,0,1-.1.9.2.8-1.1h-8.5c-.2,0-.3.6-1.1,0-2.9-1.7-4.6-7-4.7-10.2-.1-4.8,1.8-10.9,5-13.5Z"/>
        <path class="st29" d="M456.6,417l8.3.6c-5.6,2.3-12.7.9-18.7.6,2.2-1.5,5.9.4,8.3-1.1h2.2Z"/>
        <path class="st29" d="M435.6,417c2.3-1.2,5.6-.4,8,0,1,.2,2.2-.6,1.9,1.1-3.4-.2-6.7-.9-9.9-1.1Z"/>
        <path class="st33" d="M459.9,390.1h-1.1c-.5-3.2-15.4-1.6-17.6,1.1,0,0-.8,0-1.1,0-.2,0-.4,0-.6,0v-.6c8.1-2.4,12.3-6,20.4-.6Z"/>
        <path class="st33" d="M466.5,401.6c.9.6.5,2.1.6,3,0,5.4.6,10.4-5.5,11.8v-.6c5.2-.9,5-8.1,5-12.1,0-.7,0-1.5,0-2.2Z"/>
        <path class="st40" d="M459.3,390.1l1.1.6c.2.1.4.4.6.6,1.6,2.9,4.2,5.5,4.4,9-.2.8-6.1,1.9-7.2,2,.6-1.7,6.1-1.5,6.6-2.2-1.2-3.5-2.9-8-6.6-9.4,0-.6.6-.5.6-.5h.6Z"/>
        <path class="st40" d="M383.3,391.7h.6c-2.7,1.9-4.9,5.4-4.9,8.8,2.2.5,5.5,1.7,7.7,1.1v1.1c-1.2-.1-8.5-1.3-8.8-1.7l3.3-8.2c.6-.5.6-.5,1.1-1.1h1.1Z"/>
        <path class="st25" d="M439.5,391.2l.3.5.3-.5c.3,0,1,0,1.1,0,0,0-.2,1,.4,1.1,1.2.3,3.2-.2,4.7.1,3.8.7,8.3,5.9,8.7,9.8-2.4.2-6.6.9-8.5.6-1.6-.3-1.3-2.1-2.7-2.2-2.4-.2-2.7,2-3.3,2.1-.5.1-1.8-.5-2.7-.5-6.6,0-13.2,0-19.8,0-.9,0-2.4-.4-3,.6-2.6,0-5.1,0-7.7,0-1.1,0-2.2,0-3.3,0-.7,0-3.1-.1-3.3,0-.1-.2-.3-.4-.6-.6-1.7-4.5-4.4,1.1-4.8,1.1-.6,0-1.8-.6-2.7-.6-1.9,0-4,.2-5.8,0v-1.1c.8-.2,3.9-5.1,5.5-6.3.6-.5,3.6-2.1,4.2-2.4,1-.3,2.8.4,2.9-.7-5.5-.6-10.3-4.2-15.4-.6h-.6c5.7-5.2,14.7.2,20.9,1.9,9,2.4,18.2,2.5,27.3.4,2.7-.6,5.7-2.3,7.9-2.8Z"/>
        <path class="st36" d="M399.3,389.5c1.6,1.7-3.3.4-3.3.5-.8-2,3.1-.8,3.3-.5Z"/>
        <path class="st33" d="M404.3,414.3v.6c-2.6.2-5.2.3-7.7.6v-.6c2.6-.2,5.2-.4,7.7-.6Z"/>
        <path class="st32" d="M426.3,403.8c3.1,0,11.7-.6,13.9,0,.5.1.7,1.2,1.3,1.6,2.4,1.6,2.5-.4,4-.9,3.5-1.2,7.1-.3,10.6-.7v.6c.9,2.5.4,5.1.6,7.7-.1.4-.5.7-.6,1.1,0,.3,0,.8,0,1.1-1-.3-2.7.2-3.9,0v1.1c-17.1-.9-30.6-2.4-47.9-1.1-2.5.2-5.1.3-7.7.6-1.6.1-3.8-.5-5,.6h-.6c-2.8-.3-6.1.4-8.8,0l8.3-.6c-.3-1.1-2.2-.2-3.3-.8-2-1-2.1-7.6-1.1-9.6,2.3.3,5-.3,7.4,0,1.7.2,3.2,1.7,4.4,1.6,1.2,0,2.3-1.3,3.5-1.5,1.6-.3,5.6-.6,7.3-.7,5.8-.3,11.8,0,17.6,0Z"/>
        <path class="st41" d="M386.1,404.4c-1,2-.9,8.6,1.1,9.6,1.1.6,3-.3,3.3.8l-8.3.6c-4.6-.6-5.8-8.7-4.9-12.3.4-1.6,1.5,0,2.5.2,1.8.4,4.5,1,6.3,1.1Z"/>
        <polygon class="st33" points="391.6 415.4 393.8 415.4 393.8 415.9 391.1 415.4 391.6 415.4"/>
        <path class="st10" d="M466.5,401.6c-.3-3.7-1.5-7-4-9.7-.4-.4-1.2-.5-1.5-.7,1.6,2.9,4.2,5.5,4.4,9-.2.8-6.1,1.9-7.2,2-.7,0-2.2,0-3.3,0-2.4.2-6.6.9-8.5.6-1.6-.3-1.3-2.1-2.7-2.2-2.4-.2-2.7,2-3.3,2.1-.5.1-1.8-.5-2.7-.5-6.6,0-13.2,0-19.8,0-.9,0-2.4-.4-3,.6,3.2,0,6.5-.1,9.7,0,1.1,0,2.2-.6,1.9,1.1,3.1,0,11.7-.6,13.9,0,.5.1.7,1.2,1.3,1.6,2.4,1.6,2.5-.4,4-.9,3.5-1.2,7.1-.3,10.6-.7,3-.3,7.3-.7,9.6-2.2l.8,2.2c0-.7,0-1.5,0-2.2ZM430.7,403.3h-1.6v-.5h1.6v.5Z"/>
        <path class="st10" d="M452.2,415.4c-17.1-.9-30.6-2.4-47.9-1.1v.6c8-.6,15.9-.7,24-.6l26.1,2.8h2.2c2,.3,3.3-.2,5-.6v-.6c-3,.5-6.7-.4-9.4-.6Z"/>
        <path class="st10" d="M459.3,390.1l1.1.6c-.2-.2-.3-.4-.6-.6h-.6Z"/>
        <path class="st41" d="M458.8,390.1s-.6,0-.6.5c3.7,1.4,5.4,5.8,6.6,9.4-.6.7-6,.5-6.6,2.2-.7,0-2.2,0-3.3,0-.4-3.9-4.9-9-8.7-9.8-1.6-.3-3.5.2-4.7-.1-.6-.2-.3-1.1-.4-1.1,2.2-2.7,17.1-4.3,17.6-1.1Z"/>
        <path class="st43" d="M414.7,402.7c3.2,0,6.5-.1,9.7,0,1.1,0,2.2-.6,1.9,1.1-5.8,0-11.8-.3-17.6,0h-7.7c0-1,2-.5,2.7-.6,1.1-.1,2.3.4,3.3-.6,2.6,0,5.1,0,7.7,0Z"/>
        <path class="st40" d="M466.5,403.8c0,4,.3,11.2-5,12.1-3,.5-6.7-.4-9.4-.6v-1.1c1.1.2,2.9-.3,3.9,0,.3,0,.2,1.1,1.9,1.2,8.5.3,7.6-5.6,7.5-12.2l-9.4,1.1v-.6c3-.3,7.3-.7,9.6-2.2l.8,2.2Z"/>
        <rect class="st43" x="429" y="402.7" width="1.6" height=".5"/>
        <path class="st22" d="M439.5,391.2c.2,0,.4,0,.6,0l-.3.5-.3-.5Z"/>
        <path class="st20" d="M399.9,402.2c.2.1.4.3.6.6,0,0,.2,1.2-.9,1.6-.8.3-2.7.3-3.3-.5l.4-2.2c.4-.3,2.6.2,3.2.5Z"/>
        <path class="st20" d="M407,402.7c-1,.9-2.2.4-3.3.6v-.6c1.1,0,2.2,0,3.3,0Z"/>
        <path class="st41" d="M383.9,391.7c5.2-3.7,9.9,0,15.4.6,0,1.1-1.9.3-2.9.7-.7.2-3.6,1.9-4.2,2.4-1.6,1.2-4.7,6.1-5.5,6.3-2.2.6-5.5-.6-7.7-1.1,0-3.4,2.2-6.8,4.9-8.8Z"/>
        <path class="st41" d="M456,404.4l9.4-1.1c.2,6.6,1,12.5-7.5,12.2-1.7,0-1.6-1.1-1.9-1.2,0-.3,0-.8,0-1.1h1.1c.2-.6-.5-1-.5-1.1-.2-2.6.4-5.2-.6-7.7Z"/>
        <path class="st40" d="M456.6,412.1c0,0,.8.5.5,1.1h-1.1c0-.3.4-.7.6-1.1Z"/>
      </g>
      <g id="_x31_" class="st34">
        <path class="st28" d="M452.1,409.4c-.8.3-2.5,0-3,.1-.2,0-2.7,1.6-3,1.8-2.3,1.7-3.4,4.8-5.2,6.9-3.1,3.6-9.3,7.6-14,8.2-3.4.4-7.1-.3-10.5-.6,0-.5-7.2-3.8-8.8-5.2-4.5-4-5.6-9.1-11.5-11.6-.8-.3-1.4-.9-2.2-.2-.3-.2-1.3,0-1.6-.8,1.8-1.8,4.2-2.5,6.1-4.4,6-6.1,6.3-16.7,18.4-15.1,2.3.3,4.7,2.5,5.6,2.6.6,0,5.2-2.8,8.2-2.7,9.1.3,11.2,10.3,16.2,15.2,2.3,2.3,5.2,3.1,7.7,4.9-.5,1-1.7.6-2.2.8ZM417.4,404.4c-1,1.3-1.6,2.1-1,4,.1.5,3.3,3.8,3.8,4,1.8.8,5.6-.8,6-2.5,2.9-5.5-5.6-9.9-8.8-5.5ZM431.5,408.3c-1.5.4-1.3,4.1,1.6,3.2,2-.6.3-3.8-1.6-3.2ZM414.1,411c.9-3.5-5.5-2.5-5.5-.3l.9,1.4c1.6-.9,2.8-1.4,4.7-1.1ZM419,415.4c-3.5-1.2-8.4-1.1-8.7,3.4,2.4,3.7,8.8.5,8.7-3.4Z"/>
        <path class="st20" d="M426.2,409.9c-.4,1.7-4.3,3.3-6,2.5-.5-.2-3.6-3.5-3.8-4-.6-1.9,0-2.7,1-4l3.6-1.1c2.4.1,4.5.7,5,3.3,0,.3.3,3.2.2,3.3Z"/>
        <path class="st11" d="M419,415.4c.1,4-6.3,7.1-8.7,3.4.3-4.6,5.3-4.6,8.7-3.4Z"/>
        <path class="st26" d="M414.1,411c-1.9-.3-3.1.2-4.7,1.1l-.9-1.4c0-2.2,6.4-3.2,5.5.3Z"/>
        <path class="st26" d="M431.5,408.3c1.8-.5,3.6,2.6,1.6,3.2-2.8.9-3.1-2.8-1.6-3.2Z"/>
        <path class="st29" d="M426.2,409.9c0-.2-.1-3-.2-3.3-.5-2.6-2.6-3.2-5-3.3l-3.6,1.1c3.2-4.4,11.7,0,8.8,5.5Z"/>
        <path class="st10" d="M438.2,424.9c6.2-4.1,7.9-12.5,13.9-15.5-.8.3-2.5,0-3,.1-.2,0-2.7,1.6-3,1.8-2.3,1.7-3.4,4.8-5.2,6.9-3.1,3.6-9.3,7.6-14,8.2-3.4.4-7.1-.3-10.5-.6,0-.5-7.2-3.8-8.8-5.2-4.5-4-5.6-9.1-11.5-11.6-.8-.3-1.4-.9-2.2-.2,6.9,4.3,5,3.8,9.1,9.9,8.1,11.8,23.5,14,35.3,6.2Z"/>
      </g>
    </g>
  </g>
  <g id="Włosy">
    <g id="girl_x5F_2">
      <path id="kolor13" data-name="kolor" class="st44" d="M567.6,262.3c.9,4.3,15.8,43.3-9.1,38.4s1.3,24.6-4.2,18.6-1.5-11-1.9-11.4c-1.1-1.1-7.6,2.6-11,1.5-25.2-19.9-45-54.1-62.2-81.3-1.7,11.1,28.7,67.3,23.8,72.2-8.1,7.8-47.5-25.2-50.4-36.1-4.2,11.4,31.8,38.7,5.6,30.5s-42.5-36.9-48.4-62.8c-8.9,15.3,9.6,46.5,15.3,59.8-22.3,23.8-56.7-10.6-55.2-36,0,0,0-35.1,0-35.1-14.7,7.4-8.5,62.7-12.3,72.2-3.6,6.4-5-1.2-6.1-1.9-5.2-3.2-15.8-11.2-15.8-18.1v-35.1c-8.6,5.3-7.6,18.5-16.7,24.1-4.3,9.2-11.6,48-18.5,50-4.6,1.4-10.8-45.2-10.5-50.4.6-12,16.8-39.2,15.3-40.8-3.4-3.6-10.3,12.9-11.1,14.5-13,26.4-10.8,52-7.9,80.4-2.3,2.4-17.7-8.8-20.9-5.7-1.1,1.1,1.8,26.9-5.7,30.4-2.1-14.3,7.2-30.2,1.9-43.7,5-171.6,271.4-205.1,305.9-34.2ZM477.3,224.3v1.9l.9-.9-.9-.9Z"/>
      <path id="shadow6" data-name="shadow" class="st37" d="M571.6,279.4c-.7.6-.3,2.8-.6,4-1.4,15.3-12.2,10.7-12.7,20.3-.2,4.6.2,14.4-1.9,15.8-1.1.7-2-.7-2.4-1.7-1.5-2.3-.3-9.6-3-9.7-2.1,0-6.7,2-9.6.7-25.1-18.5-43.2-51.5-60.3-77.9-.7-1.2-1.8-2.7-1.8-.9,1.4,14.9,25.9,60.8,24.1,69.3-.7,2.1-3,2.3-5.8,1.9-15.1-3.9-36.7-22.8-44.5-35.6-.1-.1-.2-.2-.3,0-2.6,9.3,23.9,31.4,11.5,30.5-28.8-4.9-46.5-34-53.5-60.7-.4-1.2-.8-2.5-1.6-1.4-2.2,5-1.7,10.7-.5,16.9,2.9,14.1,11.3,28.8,15.6,39,.6,2.2-1.2,4-3,5.3-24.8,17.3-55.4-19.5-51.2-45.7,0-8.5,0-23.7,0-27.6,0-1.1-.5-1.1-1.5-.2-12.2,10.9-7.6,55.6-10.2,68.9-.2,1.4-1,3.2-2.3,3.7-3,.8-4.1-3.6-6.6-4.8-5-3.6-12.1-9.3-13.4-15.7-.8-7,.5-25.2-.5-35.4-3.1,1-5.5,5.9-6.9,9-1.9,4.2-3.5,8.7-6.7,11.9-1.3,1.4-2.8,2.7-3.5,4.5-4,8.7-15.2,66.9-21.5,40.8-3.4-15.2-4.7-32.3-2.7-44s7-28.7,10-36c.6-1.3,1.4-3.4.9-3.9-1.2-.8-2.2.2-3.7,1.6-18.3,26.3-19.1,57.7-15.5,88.6,0,1.4.5,4-.5,4.6-4.3.5-12.3-5.3-18.4-7.1-.9-.3-1.8-.7-2.4-1.2-2.2-1.6-1.1-7.5-2.6-8.4-19.1,76.5-1.3,148.4,83.5,133.8,1.5-.3,4.9-.6,3.8-2.4-10.5-9.2-22.8-17-31.6-28-2.6-4.2-21,1.3-26,.4-52.2-9.8-40.3-81.6-3.8-75.8,8.6,1.4,17.2,19.5,25.8,25.2,4.6,3.4,2.7-1,3.1-4.9.4-14-.7-30.4.5-39.4,1.5-7.4,6.7-17.1,8.5-25,.6-2.4,1.6-1.5,2.7,0,6.4,8.7,14.6,19.7,25.7,21.4,5.8,1.1,13.3.1,14.3-6.3.3-.9.8-1,2.2-.3,2.5,1.3,8,5.1,11.7,7.1,11.9,5.6,30.7,6.9,43.8,5.7,6-.2,7.6-5.6,8.3-10.3.4-1.5,1.9-1.2,3.1-.9,14.3,2.8,39.7,12.4,58.4,9.2,3-.5,6.7-1.5,9.2-2.7,2.8-1.1,4.9-3.4,7.5-1.5,11.5,14.3,10,34.7,12.2,51.1.2,1.1.5,2.7,1.6,2.8,1,0,2.4-1.9,3.5-3.7,4.6-6.9,4-35.7,26.1-26.5s21.3,9.8,23.2,15.8c8.2,25.3-4.3,69.1-54.4,55.4-1.2-.3-16.1,21.6-24.8,27.2-3.1,1.8-1.3,2.9,1.9,3.5,91.5,19.4,93.9-77.6,69.6-150.1h0Z"/>
      <path id="outline4" data-name="outline" class="st7" d="M573.2,284c-1.7-10-5.2-19.8-5.6-21.7-34.5-170.9-300.9-134.4-305.9,37.2,0,0,0,0,0,0-18.7,76.1-.6,147.3,83.8,132.8,1.5-.3,4.9-.6,3.8-2.4-10.5-9.2-22.8-17-31.6-28-2.6-4.2-21,1.3-26,.4-52.2-9.8-40.3-81.6-3.8-75.8,8.6,1.4,17.2,19.5,25.8,25.2,4.6,3.4,2.7-1,3.1-4.9.4-14-.7-30.4.5-39.4,1.5-7.4,6.7-17.1,8.5-25,.6-2.4,1.6-1.5,2.7,0,6.4,8.7,14.6,19.7,25.7,21.4,5.8,1.1,13.3.1,14.3-6.3.3-.9.8-1,2.2-.3,2.5,1.3,8,5.1,11.7,7.1,11.9,5.6,30.7,6.9,43.8,5.7,6-.2,7.6-5.6,8.3-10.3.4-1.5,1.9-1.2,3.1-.9,14.3,2.8,39.7,12.4,58.4,9.2,3-.5,6.7-1.5,9.2-2.7,2.8-1.1,4.9-3.4,7.5-1.5,11.5,14.3,10,34.7,12.2,51.1.2,1.1.5,2.7,1.6,2.8,1,0,2.4-1.9,3.5-3.7,4.6-6.9,4-35.7,26.1-26.5,8.2,3.4,21.3,9.8,23.2,15.8,8.2,25.3-4.3,69.1-54.4,55.4-1.2-.3-16.1,21.6-24.8,27.2-3.1,1.8-1.3,2.9,1.9,3.5,89.5,19,93.8-73.6,71.1-145.5Z"/>
    </g>
    <g id="girl_x5F_1" class="st34">
      <path id="kolor14" data-name="kolor" class="st23" d="M264.5,338.1c-48.3-155.7,136.2-246.9,257.3-157,26,21.4,41.1,62.7,79.8,58,0,13.4-21.7,12.4-22.8,13.3,9,20,12.9,46.5-5.7,64.5,11-1.6,21.6-17.8,18.8,2.7-1.6,11.7-3.6,22.4-16.8,20.2-16.9-17.1-29.6-8.2-35.8-3.5-1.3,1-10.4,26.1-15.6,30-1.3,0-2.5,0-3.8,0,2.8-47.3,9-42-31.3-41.8-4.4,0-22.6-6.1-28-8.1-14.4-5.2-22.5-15.8-9,6.2-.2.6.3,1.6,0,1.9-36.3,2-83.5-12.9-86.4-55.1-34.2,62.7-70.2,20.6-58,89.3-.2,1.7,6.1,9.7-3.8,3.8-10-6-8.5-30.4-9.7-31.4-5-3.8-26.8,3-29.1,6.9Z"/>
      <path id="shadow7" data-name="shadow" class="st9" d="M258.5,363.5c1.9,17.7,14,32.8,32.7,34.8s21.7-4.4,26.5-3.1c1.9.5,6.3,23.2,45,40.8-7.7,19.5-35.1,17.4-49.4,12.6s-8.6-22.3-9.9-23.6c-36.6,8.9-55.1-25.2-44.9-61.6Z"/>
      <path id="shadow8" data-name="shadow" class="st9" d="M579.9,371.8c10.5,9.5,12.5,18.8,4,32.6-17.4,28.5-44.3,17-44.3,17,0,0-2.1,7.6-3.3,10-15.9,33.1-53.3,24.2-66,7,3.4,4.5,21.6-8.3,34.5-20.3s20.4-22.8,20.4-22.8c0,0,34.6,18.9,54.8-23.5Z"/>
      <path class="st35" d="M542.7,294.1c-25.4-112-233.8-103.8-254.6,7.6-23.6-163,264.1-169.8,254.6-7.6Z"/>
      <g id="outline5" data-name="outline">
        <path id="outline6" data-name="outline" class="st3" d="M264.5,338.1c-48.3-155.7,136.2-246.9,257.3-157,26,21.4,41.1,62.7,79.8,58,0,13.4-21.7,12.4-22.8,13.3,9,20,12.9,46.5-5.7,64.5,11-1.6,21.6-17.8,18.8,2.7-1.6,11.7-3.6,22.4-16.8,20.2-16.9-17.1-29.6-8.2-35.8-3.5-1.3,1-10.4,26.1-15.6,30-1.3,0-2.5,0-3.8,0,2.8-47.3,9-42-31.3-41.8-4.4,0-22.6-6.1-28-8.1-14.4-5.2-22.5-15.8-9,6.2-.2.6.3,1.6,0,1.9-36.3,2-83.5-12.9-86.4-55.1-34.2,62.7-70.2,20.6-58,89.3-.2,1.7,6.1,9.7-3.8,3.8-10-6-8.5-30.4-9.7-31.4-5-3.8-26.8,3-29.1,6.9Z"/>
        <path id="outline7" data-name="outline" class="st6" d="M258.5,363.5c1.9,17.7,14,32.8,32.7,34.8s21.7-4.4,26.5-3.1c1.9.5,6.3,23.2,45,40.8-7.7,19.5-35.1,17.4-49.4,12.6s-8.6-22.3-9.9-23.6c-36.6,8.9-55.1-25.2-44.9-61.6Z"/>
        <path id="outline8" data-name="outline" class="st8" d="M578.1,375.4c1-1.8,3.4-2.1,4.8-.6,7.8,8.5,8.6,17.2,1,29.6-14,23-34.2,20-41.6,17.9s-3.2.5-3.7,2c-.7,2.4-1.8,5.6-2.4,7-14.2,29.5-45.4,25.6-61.1,12.3-1.7-1.5-1.3-4.3.8-5.1,7.3-2.7,19.4-11.8,28.7-20.5s16.1-17.1,18.9-20.8,2.3-1.5,3.5-1c7.5,3.2,33.6,11.1,50.9-20.9Z"/>
      </g>
    </g>
    <g id="boy_x5F_1" class="st34">
      <path id="kolor15" data-name="kolor" class="st44" d="M570.8,199l-35.7-17.1c9.2-1.9,20.9-5.4,17.9-8.2-3-2.2-21.1-5.1-24.7-6.4-25.5-8.8-49.8-25.8-77.4-31.4-13.4-2.8-26.3-2.4-40-1.5-35,2.7-73.7,11.2-87.9,40.4-3.3,5.2-7.7,9.4-13.1,12.8-6.4,4.1-13.6,7.8-18.6,13.8-10.3,12.3-14.8,30.8-12.2,46.7v.2c1.2,4.4,2.4,9.3,6,7.1,2.1-1.4-.1,9.3,2.2,12.3,2.6,2.9,5,3.3,6.8,7.4,1.6,3.8,5.9,9.9,9,11.3,7.6,2.5,11.5-17.2,13.1-22.8,2.1-7.5,3.6-15,4.3-22.7.9-9.3.2-19.3,2.2-28.4.6-2.4-.4-5.4,1.7-5.5.9.2,1.6,6.2,2.2,9.5.6,3.1.3,5,1.3,9.1,2.4,10.3,10.7,16.6,19,23.2,5.9,5.3,28.7,16.8,32.6,8.5,1.4-3.8,0-7.8-.8-11.9-1.4-5.4-3.3-13.4-3.8-18.2-1.2-11.1,4.9,2.2,7,5.1,17,28,64.6,41.5,98.4,39.6,2.8-.5,14.3-3.6,13.3-5.2-.8-.9,3.2-1.3,2-1.8-7.3-2.9-19.5-3.4-27.6-7.1-1.4-.5,11.4-.4,15.1-1,3.4,0-9.2-.5-16.4-.7,7.8,0,15.6-1.7,23.4-1.2,7.8.5,14.6,4.4,21.9,6.9,8.9,3.5,25.3,5.8,32.6-.2,11.9-9.3,9-32.6-2.6-47-1.3-2-4.4-4.3-6.7-6.7,3.1.3,5.3.6,6,.9,9.5,3.7,47.1-.9,29.1-9.4ZM511.4,243.9c-11.4,0-26.6-16.2-36.9-24.7-5.4-4.5-11.4-6.3-18.4-7.2-5.2-.9-14.9-1.4-18.4-3.8h0c-.3-1.7,7.1-1.4,9.4-1.4,6.9.2,14.2,1,20.8,3,11.4,3.3,19.7,12.8,30.7,17,6,2.6,13.9,3.1,18.8,7.4,4.6,4.3-.8,10.1-6,9.8Z"/>
      <g id="shadow9" data-name="shadow">
        <path class="st37" d="M531.7,192c6.3-2,19.1-8.2,22.5-14.4.9-1.6,1.1-3.7-1.1-3.9-5.5-.3-14.2,3.8-20.8,3.8-11.6.9-24.4-1.4-35.6-3.1-5.9-.7-5.7,1.3-2.5,4.1,9,7.2,25.2,17.4,37.3,13.5h.2Z"/>
        <path class="st37" d="M564.3,201.2c-9.1,2.1-17.8,3.2-24.5-4.6-2.1-2.1-10.2-11.9-11-11.9-.5,0-1.3,2-1.8,2.3-1.7,1.2-26.6-8.6-28.1-6.9-2.2,2.8,26.9,21,30.7,26.1,2.8,3.6,6,7.2,8.7,11,7.9,11,14.5,27.7,2.5,37.9-4.5,3.8-10.9,6.5-17.3,6.4-7.8,0-14.8-3.9-22-6.5-13.9-5.8-28.8.7-43.1-2.1-1.7,0-18.3-4.7-12.2.1,2.5,2,10.2,5.7,16.1,7.1,3.5,1.1,32.5,6.6,20.2,9.8-35.3,2.8-84.4-11.5-101.9-42.1-1.5-2.1-4.4-8.6-5.9-8.1-.9,1.6-.2,4,0,5.9.7,7.1,4.2,17.3,4.8,25.2.7,12.8-16.2,5.4-22.8,2.4-15-7-25.2-21.2-27.8-37.2-.9-3.5-1.4-13.3-4.1-14.3-.7,0-1.4.9-2.1,2.8-1.8,5.1-2.5,11.5-2.7,17.1-.3,13.2-1.2,26.5-4.9,39.2-.9,3.5-2,7.3-3.7,10.3-2.7,5.5-8.5,8.1-12.3,1.8-2.3-3.8-8.3-6.1-9.7-10.2-1.4-3.7-9-35.8-10.2-32.4-3.7,10.4.3,31.4,0,36.7,1.1,20.5,11.2,47.5,26.2,61.4,9.8,8.4,8.9-7.6,9.1-14.4.3-14,3.2-28.3,7.3-41.5,2.1-6.5,4.2-12.4,7.4-15.1,6.9-5.7,18.8,4.3,26,6.8,8.7,3.9,18.7,4.8,27.8,2.4,13.7-3.9,18-3.8,30.7,2.7,22.7,11.8,45.3,16.5,70.7,11.5,8.3-1,18.2-5.1,25.1.2,6.4,5.9,7.3,14.1,9.9,23.3.7,2.9,1.4,5.8,2,8.7,3.9,19.9,6.5,20.1,19.1,5.5,7.3-8.3,16.1-15.4,19.6-26.3,5.4-17.5,2.4-37.2-3-54.4-1.4-4.9-3.7-10.5-2.4-15.4,1.8-7.5,12.4-10.7,17.9-15.1,3-2.2,4.3-4.9.9-6.3-2-.8-5.4-.3-9.1.4h-.1Z"/>
        <path class="st37" d="M437.6,208.1c-.4-.6.7-1,3.1-1.2,1.6-.2,3.9-.2,6.4-.1,6.9.2,14.2,1,20.9,3,11.4,3.3,19.7,12.8,30.7,17,6,2.6,13.9,3.1,18.8,7.4,4.6,4.3-.8,10.1-6,9.8-11.4,0-26.6-16.2-36.9-24.7-5.4-4.5-11.4-6.3-18.4-7.2-5.2-.9-14.9-1.4-18.4-3.8h0Z"/>
      </g>
      <path id="outline9" data-name="outline" class="st5" d="M575.6,203.1c0-.8-.4-1.6-1.5-2.2-.8-.6-1.8-1.3-3.3-1.9l-26.7-12.7c4.4-2.6,8.3-5.6,10-8.7.9-1.6,1.1-3.7-1.1-3.9-3-2.2-21.1-5.1-24.7-6.4-25.5-8.8-49.8-25.8-77.4-31.4-13.4-2.8-26.3-2.4-40-1.5-35,2.7-73.7,11.2-87.9,40.4-3.3,5.2-7.7,9.4-13.1,12.8-6.4,4.1-13.6,7.8-18.6,13.8-6.5,7.8-10.8,18.2-12.3,28.7,0,0,0,0,0,0-3.7,10.4.3,31.4,0,36.7.7,12.1,4.4,26.4,10.5,39s9.6,16.7,15.7,22.4c9.8,8.4,8.9-7.6,9.1-14.4.3-14,3.2-28.3,7.3-41.5,2.1-6.5,4.2-12.4,7.4-15.1,6.9-5.7,18.8,4.3,26,6.8,8.7,3.9,18.7,4.8,27.8,2.4,13.7-3.9,18-3.8,30.7,2.7,22.7,11.8,45.3,16.5,70.7,11.5,8.3-1,18.2-5.1,25.1.2,6.4,5.9,7.3,14.1,9.9,23.3.7,2.9,1.4,5.8,2,8.7,3.9,19.9,6.5,20.1,19.1,5.5,4.6-5.2,9.8-10,13.9-15.5s4.4-6.7,5.7-10.8c5.4-17.5,2.4-37.2-3-54.4-1.4-4.9-3.7-10.5-2.4-15.4,1.8-7.5,12.4-10.7,17.9-15.1.9-.7,1.7-1.4,2.2-2.1.5-.6.8-1.2.7-1.8Z"/>
    </g>
  </g>
  <metadata>
    <sfw xmlns="http://ns.adobe.com/SaveForWeb/1.0/">
      <slices/>
      <sliceSourceBounds x="252.97" y="141.02" width="350.17" height="707.17" bottomLeftOrigin="true"/>
    </sfw>
  </metadata>
</svg>