# File exported by Pixologic 3D Print Exporter for ZBrush
# http://www.pixologic.com
mtllib dry_tree.mtl

#Object: obj0
#Vertex Count: 189
#UV Count: 770
#Face Count: 198
#Vertex Count: 189
v -1.017951 0.203650 -2.666331
v -1.017951 0.081740 -2.666331
v -1.133896 0.165978 -2.666331
v -1.089609 0.302278 -2.666331
v -0.946294 0.302278 -2.666331
v -0.902008 0.165978 -2.666331
v -1.811054 0.707633 -1.652813
v -2.087089 0.908185 -1.652813
v -1.981654 1.232680 -1.652813
v -1.640456 1.232680 -1.652813
v -1.535022 0.908183 -1.652813
v -1.009778 0.230991 -0.135289
v -1.376624 0.497522 -0.135289
v -1.236502 0.928776 -0.135289
v -0.783054 0.928775 -0.135289
v -0.642931 0.497521 -0.135289
v -0.146337 0.189436 1.068630
v -0.621868 0.534930 1.068630
v -0.440232 1.093951 1.068630
v 0.147558 1.093950 1.068630
v 0.329194 0.534929 1.068630
v -0.244906 -0.504605 2.024231
v -0.720436 -0.159111 2.024231
v -0.538800 0.399909 2.024231
v 0.048989 0.399908 2.024231
v 0.230625 -0.159112 2.024231
v -0.782479 -0.852165 3.156299
v -1.627921 -0.237913 3.156299
v -1.304992 0.755963 3.156299
v -0.259966 0.755962 3.156299
v 0.062963 -0.237915 3.156299
v -0.782479 0.036787 3.156299
v -0.432926 0.903516 0.043387
v -0.395494 0.969765 0.512834
v -0.311976 0.712726 0.512834
v -0.349408 0.646476 0.043385
v 2.185153 0.992362 -1.070863
v 2.214334 1.047905 -0.951001
v 2.191690 1.117593 -0.951001
v 2.162510 1.062050 -1.070863
v 0.374577 1.574421 0.020719
v 0.458094 1.317382 0.020720
v 0.516693 1.392259 0.481845
v 0.433176 1.649298 0.481844
v -0.783908 0.250681 0.430598
v -1.201414 0.554018 0.430598
v -1.041941 1.044827 0.430598
v -0.525874 1.044825 0.430598
v -0.366401 0.554017 0.430598
v -0.457572 1.049316 0.260115
v -0.301849 0.570053 0.260115
v 2.165418 1.123311 -1.016746
v 2.211083 0.982772 -1.016746
v 0.522984 1.241367 0.232260
v 0.363947 1.730830 0.232260
v 0.882544 1.373909 -0.377030
v 0.956481 1.146360 -0.377029
v 1.018213 1.093911 -0.190791
v 1.014700 1.251771 0.030092
v 0.940765 1.479322 0.030091
v 0.875845 1.532072 -0.190791
v 0.668361 1.469873 -0.127127
v 0.662818 1.548116 -0.027233
v 0.826735 1.508567 -0.202811
v 0.829490 1.440842 -0.283891
v -1.669671 0.234085 -0.824776
v -1.986573 0.464328 -0.824776
v -1.846926 0.857853 -0.835142
v -1.455212 0.857853 -0.835142
v -1.334166 0.485312 -0.835142
v 0.343822 2.475065 -0.836859
v 0.341243 2.527615 -0.780910
v 0.228069 2.569602 -0.659624
v 0.232794 2.507605 -0.728650
v 0.166742 1.901982 -0.393617
v 0.328822 1.864225 -0.551436
v 0.325576 1.936460 -0.469811
v 0.160592 1.985804 -0.293050
v 1.459375 1.078871 -0.613621
v 1.523304 0.882119 -0.613620
v 1.582937 0.843288 -0.455137
v 1.583782 0.995062 -0.265843
v 1.519853 1.191814 -0.265844
v 1.457978 1.227870 -0.455137
v -1.350173 0.233926 -0.473252
v -1.692059 0.482322 -0.473252
v -1.542949 0.905959 -0.483528
v -1.120354 0.905959 -0.483528
v -0.989765 0.504048 -0.483528
v -1.678300 0.282552 -0.778375
v -1.478794 0.290448 -0.535916
v -1.673303 0.446268 -0.524696
v -1.863819 0.420174 -0.763579
v -2.694380 -0.860586 -0.685653
v -2.596670 -0.849589 -0.558754
v -2.492461 -0.935524 -0.569971
v -2.577220 -0.934304 -0.712816
v -2.087144 -0.185112 -0.522940
v -2.241367 -0.071356 -0.506384
v -2.100521 -0.068335 -0.313917
v -1.936556 -0.191868 -0.330224
v -1.585892 0.283745 -0.671513
v -1.779788 0.438455 -0.650569
v -2.537773 -0.942517 -0.650473
v -2.649691 -0.853755 -0.620995
v -2.179615 -0.063329 -0.405136
v -2.015582 -0.191227 -0.446640
v -1.571514 0.368410 -0.525284
v -1.766551 0.344813 -0.775669
v -2.599503 -0.902461 -0.629463
v -2.634005 -0.907583 -0.707477
v -2.153631 -0.137774 -0.525556
v -2.022174 -0.124491 -0.311082
v -2.546011 -0.891708 -0.560396
v -1.740279 0.490341 -1.221810
v -2.028021 0.699399 -1.221810
v -1.908449 1.048082 -1.227221
v -1.552779 1.048082 -1.227221
v -1.442871 0.709822 -1.227221
v -1.595843 1.147446 -1.595165
v -1.559877 1.017328 -1.258586
v -1.481774 0.804743 -1.279283
v -1.524733 0.944141 -1.618282
v -0.312032 1.483295 -1.436843
v -0.233352 1.367869 -1.380298
v -0.276117 1.483844 -1.374547
v -0.326066 1.600774 -1.429791
v -1.778381 0.620243 -1.446234
v -2.049763 0.817415 -1.446234
v -1.941492 1.141291 -1.448823
v -1.606043 1.141291 -1.448823
v -1.502385 0.822261 -1.448823
v -1.597159 1.090703 -1.418713
v -1.509566 0.875528 -1.473597
v -0.299735 1.547435 -1.400923
v -0.270043 1.423881 -1.411955
v -1.019197 1.436323 -1.267949
v -0.971010 1.278792 -1.276921
v -0.932197 1.186213 -1.230343
v -0.888069 1.095138 -1.166012
v -0.946267 1.272229 -1.156827
v -0.986706 1.363383 -1.208055
v -1.236160 0.235939 -2.109382
v -1.420684 0.370005 -2.109382
v -1.350202 0.586925 -2.109382
v -1.122117 0.586925 -2.109382
v -1.051636 0.370004 -2.109382
v -0.924921 0.236497 -2.666331
v -0.961995 0.185469 -2.666331
v -0.961995 0.122394 -2.666331
v -1.088102 0.482235 -2.109382
v -1.147105 0.300641 -2.109382
v -1.608046 0.656531 -1.492076
v -1.666667 0.784978 -1.666936
v -0.512432 0.301498 0.393098
v -0.791180 0.296973 -0.164250
v 0.235458 0.162269 2.041195
v 0.378242 0.851247 0.986833
v 0.027025 -0.399819 1.996331
v 0.145752 0.279355 1.010014
v 0.026976 0.317342 3.190404
v -0.374453 -0.555717 3.156299
v -0.374453 -0.095789 3.156299
v -0.355187 0.845713 0.512834
v -0.715428 0.720644 -0.135289
v -0.392619 0.779464 0.043386
v 2.187457 1.055484 -1.016746
v 2.173438 1.028417 -1.070863
v 0.414884 1.450369 0.020720
v 0.473483 1.525246 0.481844
v 0.918227 1.264089 -0.377029
v 0.976447 1.369502 0.030092
v 2.202618 1.083960 -0.951001
v 1.490229 0.983915 -0.613621
v 1.550707 1.096858 -0.265843
v -1.008062 0.726440 -0.532344
v -1.396793 0.678058 -0.835142
v -1.116017 0.288324 -0.539364
v -1.507751 0.355331 -0.829779
v -1.490364 0.871164 -1.237252
v -1.560822 0.542615 -1.263737
v -1.514255 0.902718 -1.277370
v -1.589572 1.076072 -1.652813
v -1.561524 1.049327 -1.606322
v -0.285405 1.487806 -1.406248
v -0.319293 1.544077 -1.433195
v -0.995941 1.360296 -1.272279
v -0.918180 1.186762 -1.161260
v -0.255478 1.427872 -1.377323
#UV count: 770
vt 0.736043 0.982449
vt 0.747286 0.971430
vt 0.750061 0.989691
vt 0.736043 0.982449
vt 0.750061 0.989691
vt 0.733662 0.998047
vt 0.736043 0.982449
vt 0.733662 0.998047
vt 0.720520 0.985068
vt 0.736043 0.982449
vt 0.720520 0.985068
vt 0.724507 0.977027
vt 0.732602 0.975696
vt 0.736043 0.982449
vt 0.732602 0.975696
vt 0.738437 0.969929
vt 0.747286 0.971430
vt 0.942194 0.130079
vt 0.862964 0.132232
vt 0.848932 0.105799
vt 0.934368 0.113742
vt 0.823467 0.347488
vt 0.799834 0.266500
vt 0.824981 0.250691
vt 0.839740 0.339343
vt 0.839740 0.339343
vt 0.824981 0.250691
vt 0.852593 0.260708
vt 0.857853 0.343288
vt 0.936542 0.420373
vt 0.941356 0.505430
vt 0.928867 0.498603
vt 0.928522 0.416602
vt 0.086062 0.986556
vt 0.072898 0.908786
vt 0.087934 0.906037
vt 0.095503 0.984970
vt 0.768110 0.077362
vt 0.737555 0.095778
vt 0.732530 0.054555
vt 0.748423 0.037621
vt 0.749666 0.537707
vt 0.721400 0.537972
vt 0.734094 0.495865
vt 0.764010 0.497069
vt 0.911797 0.421113
vt 0.890438 0.439553
vt 0.854811 0.416733
vt 0.878068 0.396057
vt 0.006185 0.423224
vt 0.029939 0.415394
vt 0.044477 0.437736
vt 0.014297 0.442144
vt 0.273786 0.802483
vt 0.348389 0.834951
vt 0.303206 0.883763
vt 0.236367 0.848282
vt 0.529895 0.559877
vt 0.451796 0.562528
vt 0.441844 0.495664
vt 0.517913 0.501768
vt 0.770915 0.590339
vt 0.773047 0.654325
vt 0.721805 0.690513
vt 0.718864 0.602520
vt 0.165247 0.239250
vt 0.213804 0.174021
vt 0.232777 0.208965
vt 0.177075 0.268309
vt 0.765028 0.196372
vt 0.633002 0.256726
vt 0.613768 0.183063
vt 0.759284 0.121601
vt 0.336020 0.551372
vt 0.191448 0.619096
vt 0.211401 0.545099
vt 0.336391 0.477115
vt 0.793177 0.745960
vt 0.890012 0.872876
vt 0.825990 0.909575
vt 0.740280 0.792612
vt 0.485011 0.282252
vt 0.637814 0.294678
vt 0.651643 0.331556
vt 0.490093 0.326771
vt 0.279576 0.078326
vt 0.427816 0.058858
vt 0.448129 0.094604
vt 0.297312 0.115498
vt 0.633002 0.256726
vt 0.468385 0.276632
vt 0.429388 0.146781
vt 0.613768 0.183063
vt 0.191448 0.619096
vt 0.001953 0.605665
vt 0.044330 0.478154
vt 0.211401 0.545099
vt 0.772625 0.595603
vt 0.911459 0.476572
vt 0.929614 0.610460
vt 0.783195 0.670949
vt 0.637814 0.294678
vt 0.770195 0.199168
vt 0.788294 0.264312
vt 0.651643 0.331556
vt 0.427816 0.058858
vt 0.567797 0.001953
vt 0.602749 0.061386
vt 0.448129 0.094604
vt 0.315877 0.166112
vt 0.351707 0.275138
vt 0.236567 0.275261
vt 0.236567 0.275261
vt 0.351707 0.275138
vt 0.315933 0.384438
vt 0.315933 0.384438
vt 0.351707 0.275138
vt 0.444326 0.343145
vt 0.444326 0.343145
vt 0.351707 0.275138
vt 0.396625 0.242494
vt 0.462601 0.277835
vt 0.396625 0.242494
vt 0.351707 0.275138
vt 0.315877 0.166112
vt 0.378009 0.185931
vt 0.691605 0.650061
vt 0.718864 0.602520
vt 0.721805 0.690513
vt 0.695759 0.682949
vt 0.686362 0.718393
vt 0.740280 0.792612
vt 0.724415 0.827846
vt 0.672488 0.733157
vt 0.659504 0.749965
vt 0.695157 0.851897
vt 0.643093 0.761588
vt 0.617131 0.758219
vt 0.405651 0.830280
vt 0.360262 0.826791
vt 0.365192 0.796812
vt 0.410957 0.812953
vt 0.952685 0.507788
vt 0.943401 0.502770
vt 0.952192 0.500052
vt 0.957079 0.506460
vt 0.405651 0.830280
vt 0.410957 0.812953
vt 0.543418 0.801972
vt 0.540018 0.819268
vt 0.254125 0.921505
vt 0.249734 0.884254
vt 0.386067 0.918476
vt 0.378259 0.953891
vt 0.904536 0.941194
vt 0.905434 0.958121
vt 0.778154 0.911464
vt 0.780280 0.895313
vt 0.691605 0.650061
vt 0.695759 0.682949
vt 0.561725 0.706201
vt 0.565870 0.672379
vt 0.540018 0.819268
vt 0.543418 0.801972
vt 0.616448 0.842979
vt 0.619307 0.859030
vt 0.378259 0.953891
vt 0.386067 0.918476
vt 0.466113 0.889825
vt 0.452385 0.922643
vt 0.780280 0.895313
vt 0.778154 0.911464
vt 0.691870 0.923897
vt 0.697751 0.909887
vt 0.348389 0.834951
vt 0.465258 0.858748
vt 0.406750 0.907058
vt 0.303206 0.883763
vt 0.451796 0.562528
vt 0.336020 0.551372
vt 0.336391 0.477115
vt 0.441844 0.495664
vt 0.773047 0.654325
vt 0.793177 0.745960
vt 0.740280 0.792612
vt 0.721805 0.690513
vt 0.213804 0.174021
vt 0.279576 0.078326
vt 0.297312 0.115498
vt 0.232777 0.208965
vt 0.695759 0.682949
vt 0.721805 0.690513
vt 0.740280 0.792612
vt 0.686362 0.718393
vt 0.188709 0.174778
vt 0.213804 0.174021
vt 0.165247 0.239250
vt 0.166700 0.196988
vt 0.943401 0.502770
vt 0.942364 0.493686
vt 0.946744 0.492268
vt 0.952192 0.500052
vt 0.188709 0.174778
vt 0.166700 0.196988
vt 0.050054 0.137688
vt 0.061294 0.110369
vt 0.899095 0.217186
vt 0.930200 0.200719
vt 0.990785 0.325449
vt 0.959517 0.341436
vt 0.029395 0.665887
vt 0.059114 0.669143
vt 0.070342 0.754985
vt 0.044392 0.750408
vt 0.974678 0.908117
vt 0.955916 0.937700
vt 0.902115 0.862968
vt 0.921785 0.839601
vt 0.619307 0.859030
vt 0.616448 0.842979
vt 0.691926 0.884435
vt 0.694893 0.897994
vt 0.452385 0.922643
vt 0.466113 0.889825
vt 0.551234 0.881177
vt 0.537296 0.909673
vt 0.697751 0.909887
vt 0.691870 0.923897
vt 0.605629 0.944049
vt 0.610954 0.932230
vt 0.493192 0.619804
vt 0.498445 0.652429
vt 0.416373 0.616166
vt 0.408835 0.589017
vt 0.044392 0.750408
vt 0.070342 0.754985
vt 0.047626 0.839539
vt 0.025724 0.834177
vt 0.921785 0.839601
vt 0.902115 0.862968
vt 0.839166 0.795279
vt 0.856367 0.775645
vt 0.525936 0.653567
vt 0.565870 0.672379
vt 0.561725 0.706201
vt 0.526665 0.667290
vt 0.526665 0.667290
vt 0.561725 0.706201
vt 0.498445 0.652429
vt 0.504383 0.648296
vt 0.504383 0.648296
vt 0.498445 0.652429
vt 0.493192 0.619804
vt 0.502295 0.634031
vt 0.502295 0.634031
vt 0.493192 0.619804
vt 0.565870 0.672379
vt 0.525936 0.653567
vt 0.644136 0.566216
vt 0.588390 0.561293
vt 0.578281 0.503525
vt 0.640517 0.512853
vt 0.847279 0.505585
vt 0.805844 0.545193
vt 0.753978 0.547193
vt 0.799140 0.499010
vt 0.242970 0.740659
vt 0.307510 0.749928
vt 0.304745 0.777769
vt 0.242372 0.765216
vt 0.101469 0.356875
vt 0.126217 0.292451
vt 0.143301 0.320907
vt 0.119624 0.378210
vt 0.351763 0.375097
vt 0.351808 0.375318
vt 0.351450 0.375358
vt 0.351427 0.375169
vt 0.007933 0.607466
vt 0.010037 0.607914
vt 0.013029 0.613499
vt 0.002941 0.611299
vt 0.017714 0.614891
vt 0.016391 0.614618
vt 0.017674 0.608196
vt 0.019040 0.608470
vt 0.961820 0.605690
vt 0.983875 0.627991
vt 0.896652 0.664117
vt 0.881886 0.636339
vt 0.234876 0.851216
vt 0.230016 0.866888
vt 0.138763 0.849910
vt 0.144133 0.833830
vt 0.002941 0.611299
vt 0.013029 0.613499
vt 0.006445 0.617584
vt 0.005079 0.616943
vt 0.896652 0.664117
vt 0.903860 0.675942
vt 0.824322 0.709966
vt 0.818580 0.702410
vt 0.881886 0.636339
vt 0.896652 0.664117
vt 0.818580 0.702410
vt 0.810884 0.681755
vt 0.013029 0.613499
vt 0.012673 0.614697
vt 0.007313 0.617766
vt 0.006445 0.617584
vt 0.694893 0.897994
vt 0.691926 0.884435
vt 0.798512 0.885127
vt 0.799473 0.889934
vt 0.537296 0.909673
vt 0.551234 0.881177
vt 0.661139 0.884238
vt 0.657342 0.895370
vt 0.610954 0.932230
vt 0.605629 0.944049
vt 0.484771 0.923547
vt 0.486254 0.919319
vt 0.408835 0.589017
vt 0.416373 0.616166
vt 0.303968 0.584615
vt 0.301418 0.574275
vt 0.025724 0.834177
vt 0.047626 0.839539
vt 0.049806 0.944312
vt 0.042052 0.943179
vt 0.856367 0.775645
vt 0.839166 0.795279
vt 0.787269 0.683940
vt 0.793055 0.676682
vt 0.213220 0.797707
vt 0.273786 0.802483
vt 0.236367 0.848282
vt 0.176231 0.837626
vt 0.588390 0.561293
vt 0.529895 0.559877
vt 0.517913 0.501768
vt 0.578281 0.503525
vt 0.805844 0.545193
vt 0.770915 0.590339
vt 0.718864 0.602520
vt 0.753978 0.547193
vt 0.307510 0.749928
vt 0.369790 0.768827
vt 0.365192 0.796812
vt 0.304745 0.777769
vt 0.126217 0.292451
vt 0.165247 0.239250
vt 0.177075 0.268309
vt 0.143301 0.320907
vt 0.156111 0.794552
vt 0.154072 0.786069
vt 0.173658 0.798438
vt 0.194764 0.804366
vt 0.213220 0.797707
vt 0.185415 0.817017
vt 0.174471 0.829240
vt 0.176231 0.837626
vt 0.153978 0.823570
vt 0.136584 0.816825
vt 0.118547 0.821720
vt 0.146529 0.804479
vt 0.253278 0.972420
vt 0.261547 0.970149
vt 0.262727 0.979942
vt 0.251837 0.979822
vt 0.836819 0.722548
vt 0.849285 0.712695
vt 0.898353 0.783904
vt 0.886488 0.792152
vt 0.840438 0.956263
vt 0.832374 0.975881
vt 0.746891 0.952404
vt 0.752903 0.937908
vt 0.480733 0.929560
vt 0.483993 0.944942
vt 0.396841 0.969404
vt 0.394639 0.955272
vt 0.940303 0.069068
vt 0.940553 0.087293
vt 0.853311 0.074886
vt 0.853050 0.061334
vt 0.886488 0.792152
vt 0.898353 0.783904
vt 0.973860 0.876703
vt 0.965019 0.881954
vt 0.752903 0.937908
vt 0.746891 0.952404
vt 0.626226 0.961776
vt 0.631203 0.952427
vt 0.394639 0.955272
vt 0.396841 0.969404
vt 0.272899 0.976067
vt 0.271439 0.967131
vt 0.853050 0.061334
vt 0.853311 0.074886
vt 0.746514 0.018528
vt 0.747059 0.008864
vt 0.154072 0.786069
vt 0.213220 0.797707
vt 0.173658 0.798438
vt 0.173658 0.798438
vt 0.213220 0.797707
vt 0.194764 0.804366
vt 0.176231 0.837626
vt 0.118547 0.821720
vt 0.153978 0.823570
vt 0.153978 0.823570
vt 0.118547 0.821720
vt 0.136584 0.816825
vt 0.261547 0.970149
vt 0.271439 0.967131
vt 0.272899 0.976067
vt 0.262727 0.979942
vt 0.832374 0.975881
vt 0.825481 0.992656
vt 0.740678 0.966461
vt 0.746891 0.952404
vt 0.940553 0.087293
vt 0.940819 0.109665
vt 0.853128 0.093013
vt 0.853311 0.074886
vt 0.746891 0.952404
vt 0.740678 0.966461
vt 0.621289 0.970782
vt 0.626226 0.961776
vt 0.853311 0.074886
vt 0.853128 0.093013
vt 0.747359 0.030498
vt 0.746514 0.018528
vt 0.213220 0.797707
vt 0.176231 0.837626
vt 0.185415 0.817017
vt 0.185415 0.817017
vt 0.176231 0.837626
vt 0.174471 0.829240
vt 0.118547 0.821720
vt 0.154072 0.786069
vt 0.146529 0.804479
vt 0.146529 0.804479
vt 0.154072 0.786069
vt 0.156111 0.794552
vt 0.251837 0.979822
vt 0.262727 0.979942
vt 0.261885 0.988955
vt 0.251026 0.989528
vt 0.849285 0.712695
vt 0.859938 0.703689
vt 0.906905 0.777660
vt 0.898353 0.783904
vt 0.483993 0.944942
vt 0.487346 0.961112
vt 0.398266 0.981813
vt 0.396841 0.969404
vt 0.898353 0.783904
vt 0.906905 0.777660
vt 0.979744 0.871101
vt 0.973860 0.876703
vt 0.396841 0.969404
vt 0.398266 0.981813
vt 0.273836 0.984577
vt 0.272899 0.976067
vt 0.262727 0.979942
vt 0.272899 0.976067
vt 0.273836 0.984577
vt 0.261885 0.988955
vt 0.700850 0.108303
vt 0.637890 0.118642
vt 0.652272 0.071054
vt 0.707141 0.063658
vt 0.691420 0.543266
vt 0.644136 0.566216
vt 0.640517 0.512853
vt 0.700984 0.497569
vt 0.871400 0.461019
vt 0.847279 0.505585
vt 0.799140 0.499010
vt 0.831454 0.442875
vt 0.192164 0.713612
vt 0.242970 0.740659
vt 0.242372 0.765216
vt 0.190462 0.737464
vt 0.052571 0.395504
vt 0.101469 0.356875
vt 0.119624 0.378210
vt 0.071046 0.415480
vt 0.120317 0.781564
vt 0.117249 0.791147
vt 0.106560 0.784776
vt 0.099285 0.782228
vt 0.187332 0.716829
vt 0.192164 0.713612
vt 0.190462 0.737464
vt 0.184628 0.733647
vt 0.184407 0.747969
vt 0.191915 0.757947
vt 0.171666 0.764092
vt 0.164142 0.764670
vt 0.148303 0.778326
vt 0.151168 0.783914
vt 0.130667 0.787133
vt 0.133578 0.779914
vt 0.959920 0.939937
vt 0.964079 0.932521
vt 0.971151 0.928819
vt 0.966571 0.936796
vt 0.148303 0.778326
vt 0.133578 0.779914
vt 0.100713 0.698010
vt 0.110122 0.692965
vt 0.184407 0.747969
vt 0.164142 0.764670
vt 0.121194 0.683750
vt 0.131982 0.672603
vt 0.889200 0.339145
vt 0.873193 0.341778
vt 0.866326 0.255588
vt 0.877746 0.253720
vt 0.936608 0.338015
vt 0.912629 0.339796
vt 0.892009 0.251755
vt 0.904685 0.249687
vt 0.737555 0.095778
vt 0.700850 0.108303
vt 0.707141 0.063658
vt 0.732530 0.054555
vt 0.721400 0.537972
vt 0.691420 0.543266
vt 0.700984 0.497569
vt 0.734094 0.495865
vt 0.890438 0.439553
vt 0.871400 0.461019
vt 0.831454 0.442875
vt 0.854811 0.416733
vt 0.029939 0.415394
vt 0.052571 0.395504
vt 0.071046 0.415480
vt 0.044477 0.437736
vt 0.099285 0.782228
vt 0.106560 0.784776
vt 0.079839 0.796614
vt 0.078839 0.791496
vt 0.164142 0.764670
vt 0.171666 0.764092
vt 0.151168 0.783914
vt 0.148303 0.778326
vt 0.964079 0.932521
vt 0.969432 0.924766
vt 0.976030 0.920723
vt 0.971151 0.928819
vt 0.164142 0.764670
vt 0.148303 0.778326
vt 0.110122 0.692965
vt 0.121194 0.683750
vt 0.912629 0.339796
vt 0.889200 0.339145
vt 0.877746 0.253720
vt 0.892009 0.251755
vt 0.110122 0.692965
vt 0.100713 0.698010
vt 0.039791 0.632264
vt 0.045942 0.627696
vt 0.131982 0.672603
vt 0.121194 0.683750
vt 0.050763 0.619189
vt 0.055621 0.611011
vt 0.877746 0.253720
vt 0.866326 0.255588
vt 0.856811 0.160770
vt 0.864548 0.160103
vt 0.904685 0.249687
vt 0.892009 0.251755
vt 0.873787 0.158170
vt 0.882215 0.156874
vt 0.121194 0.683750
vt 0.110122 0.692965
vt 0.045942 0.627696
vt 0.050763 0.619189
vt 0.892009 0.251755
vt 0.877746 0.253720
vt 0.864548 0.160103
vt 0.873787 0.158170
vt 0.862964 0.132232
vt 0.768110 0.077362
vt 0.748423 0.037621
vt 0.848932 0.105799
vt 0.799834 0.266500
vt 0.762897 0.147201
vt 0.798832 0.122699
vt 0.824981 0.250691
vt 0.824981 0.250691
vt 0.798832 0.122699
vt 0.837478 0.142471
vt 0.852593 0.260708
vt 0.941356 0.505430
vt 0.993753 0.615787
vt 0.975163 0.605069
vt 0.928867 0.498603
vt 0.072898 0.908786
vt 0.062871 0.798522
vt 0.086247 0.797820
vt 0.087934 0.906037
vt 0.724507 0.977027
vt 0.728900 0.968431
vt 0.732602 0.975696
vt 0.732602 0.975696
vt 0.728900 0.968431
vt 0.738437 0.969929
vt 0.928522 0.416602
vt 0.928867 0.498603
vt 0.915469 0.491364
vt 0.919895 0.412548
vt 0.095503 0.984970
vt 0.087934 0.906037
vt 0.101974 0.903479
vt 0.104301 0.983688
vt 0.014297 0.442144
vt 0.044477 0.437736
vt 0.046162 0.461753
vt 0.016373 0.462239
vt 0.177075 0.268309
vt 0.232777 0.208965
vt 0.245090 0.243536
vt 0.190204 0.294856
vt 0.490093 0.326771
vt 0.651643 0.331556
vt 0.668345 0.369671
vt 0.519868 0.356654
vt 0.297312 0.115498
vt 0.448129 0.094604
vt 0.470200 0.125898
vt 0.315860 0.150300
vt 0.651643 0.331556
vt 0.788294 0.264312
vt 0.806014 0.333003
vt 0.668345 0.369671
vt 0.448129 0.094604
vt 0.602749 0.061386
vt 0.637133 0.117046
vt 0.470200 0.125898
vt 0.396625 0.242494
vt 0.444827 0.207768
vt 0.462601 0.277835
vt 0.444827 0.207768
vt 0.396625 0.242494
vt 0.378009 0.185931
vt 0.672488 0.733157
vt 0.724415 0.827846
vt 0.695157 0.851897
vt 0.659504 0.749965
vt 0.410957 0.812953
vt 0.365192 0.796812
vt 0.369790 0.768827
vt 0.415659 0.796805
vt 0.957079 0.506460
vt 0.952192 0.500052
vt 0.961613 0.497122
vt 0.961781 0.504940
vt 0.410957 0.812953
vt 0.415659 0.796805
vt 0.546848 0.785885
vt 0.543418 0.801972
vt 0.905434 0.958121
vt 0.907303 0.976466
vt 0.775827 0.928813
vt 0.778154 0.911464
vt 0.543418 0.801972
vt 0.546848 0.785885
vt 0.614278 0.828082
vt 0.616448 0.842979
vt 0.778154 0.911464
vt 0.775827 0.928813
vt 0.685360 0.938895
vt 0.691870 0.923897
vt 0.232777 0.208965
vt 0.297312 0.115498
vt 0.315860 0.150300
vt 0.245090 0.243536
vt 0.952192 0.500052
vt 0.946744 0.492268
vt 0.951447 0.490844
vt 0.961613 0.497122
vt 0.616448 0.842979
vt 0.614278 0.828082
vt 0.689256 0.871794
vt 0.691926 0.884435
vt 0.691870 0.923897
vt 0.685360 0.938895
vt 0.599858 0.956691
vt 0.605629 0.944049
vt 0.242372 0.765216
vt 0.304745 0.777769
vt 0.301771 0.807071
vt 0.241375 0.791256
vt 0.119624 0.378210
vt 0.143301 0.320907
vt 0.160418 0.347691
vt 0.136598 0.397447
vt 0.691926 0.884435
vt 0.689256 0.871794
vt 0.797712 0.880645
vt 0.798512 0.885127
vt 0.605629 0.944049
vt 0.599858 0.956691
vt 0.483013 0.928083
vt 0.484771 0.923547
vt 0.304745 0.777769
vt 0.365192 0.796812
vt 0.360262 0.826791
vt 0.301771 0.807071
vt 0.143301 0.320907
vt 0.177075 0.268309
vt 0.190204 0.294856
vt 0.160418 0.347691
vt 0.190462 0.737464
vt 0.242372 0.765216
vt 0.241375 0.791256
vt 0.191915 0.757947
vt 0.071046 0.415480
vt 0.119624 0.378210
vt 0.136598 0.397447
vt 0.089782 0.431972
vt 0.184628 0.733647
vt 0.190462 0.737464
vt 0.191915 0.757947
vt 0.184407 0.747969
vt 0.133578 0.779914
vt 0.130667 0.787133
vt 0.117249 0.791147
vt 0.120317 0.781564
vt 0.966571 0.936796
vt 0.971151 0.928819
vt 0.978727 0.924846
vt 0.973783 0.933505
vt 0.133578 0.779914
vt 0.120317 0.781564
vt 0.091832 0.702506
vt 0.100713 0.698010
vt 0.873193 0.341778
vt 0.860116 0.344483
vt 0.854031 0.257566
vt 0.866326 0.255588
vt 0.044477 0.437736
vt 0.071046 0.415480
vt 0.089782 0.431972
vt 0.062793 0.453012
vt 0.971151 0.928819
vt 0.976030 0.920723
vt 0.982998 0.916325
vt 0.978727 0.924846
vt 0.100713 0.698010
vt 0.091832 0.702506
vt 0.034033 0.636657
vt 0.039791 0.632264
vt 0.866326 0.255588
vt 0.854031 0.257566
vt 0.848507 0.161472
vt 0.856811 0.160770
vt 0.928867 0.498603
vt 0.975163 0.605069
vt 0.955282 0.593750
vt 0.915469 0.491364
vt 0.087934 0.906037
vt 0.086247 0.797820
vt 0.106288 0.790833
vt 0.101974 0.903479
g obj0
#Face Count: 198
f 1/1 2/2 3/3
f 1/4 3/5 4/6
f 1/7 4/8 5/9
f 1/10 5/11 148/12 149/13
f 1/14 149/15 150/16 2/17
f 2/18 143/19 144/20 3/21
f 3/22 144/23 145/24 4/25
f 4/26 145/27 146/28 5/29
f 5/30 146/31 151/32 148/33
f 6/34 147/35 152/36 150/37
f 7/38 128/39 129/40 8/41
f 8/42 129/43 130/44 9/45
f 9/46 130/47 131/48 10/49
f 11/50 132/51 153/52 154/53
f 12/54 45/55 46/56 13/57
f 13/58 46/59 47/60 14/61
f 14/62 47/63 48/64 15/65
f 16/66 49/67 155/68 156/69
f 17/70 22/71 23/72 18/73
f 18/74 23/75 24/76 19/77
f 19/78 24/79 25/80 20/81
f 20/82 25/83 157/84 158/85
f 21/86 26/87 159/88 160/89
f 22/90 27/91 28/92 23/93
f 23/94 28/95 29/96 24/97
f 24/98 29/99 30/100 25/101
f 25/102 30/103 161/104 157/105
f 26/106 31/107 162/108 159/109
f 27/110 32/111 28/112
f 28/113 32/114 29/115
f 29/116 32/117 30/118
f 30/119 32/120 163/121 161/122
f 163/123 32/124 27/125 162/126
f 33/127 15/128 48/129 50/130
f 34/131 20/132 158/133 164/134
f 35/135 21/136 49/137 51/138
f 36/139 16/140 165/141 166/142
f 40/143 52/144 167/145 168/146
f 36/147 166/148 169/149 42/150
f 35/151 51/152 54/153 43/154
f 34/155 164/156 170/157 44/158
f 33/159 50/160 55/161 41/162
f 42/163 169/164 171/165 57/166
f 43/167 54/168 58/169 59/170
f 44/171 170/172 172/173 60/174
f 45/175 17/176 18/177 46/178
f 46/179 18/180 19/181 47/182
f 47/183 19/184 20/185 48/186
f 49/187 21/188 160/189 155/190
f 50/191 48/192 20/193 34/194
f 51/195 49/196 16/197 36/198
f 52/199 39/200 173/201 167/202
f 51/203 36/204 42/205 54/206
f 50/207 34/208 44/209 55/210
f 54/211 42/212 57/213 58/214
f 55/215 44/216 60/217 61/218
f 57/219 171/220 174/221 80/222
f 59/223 58/224 81/225 82/226
f 60/227 172/228 175/229 83/230
f 56/231 61/232 84/233 79/234
f 58/235 57/236 80/237 81/238
f 61/239 60/240 83/241 84/242
f 62/243 41/244 55/245 63/246
f 63/247 55/248 61/249 64/250
f 64/251 61/252 56/253 65/254
f 65/255 56/256 41/257 62/258
f 67/259 86/260 87/261 68/262
f 68/263 87/264 88/265 69/266
f 69/267 88/268 176/269 177/270
f 70/271 89/272 178/273 179/274
f 74/275 73/276 72/277 71/278
f 65/279 62/280 75/281 76/282
f 64/283 65/284 76/285 77/286
f 63/287 64/288 77/289 78/290
f 62/291 63/292 78/293 75/294
f 76/295 75/296 74/297 71/298
f 77/299 76/300 71/301 72/302
f 78/303 77/304 72/305 73/306
f 75/307 78/308 73/309 74/310
f 80/311 174/312 168/313 37/314
f 82/315 81/316 53/317 38/318
f 83/319 175/320 173/321 39/322
f 79/323 84/324 52/325 40/326
f 81/327 80/328 37/329 53/330
f 84/331 83/332 39/333 52/334
f 85/335 12/336 13/337 86/338
f 86/339 13/340 14/341 87/342
f 87/343 14/344 15/345 88/346
f 88/347 15/348 165/349 176/350
f 89/351 16/352 156/353 178/354
f 90/355 66/356 102/357
f 91/358 85/359 108/360
f 92/361 86/362 103/363
f 93/364 67/365 109/366
f 97/367 104/368 110/369 111/370
f 93/371 109/372 112/373 99/374
f 92/375 103/376 106/377 100/378
f 91/379 108/380 113/381 101/382
f 90/383 102/384 107/385 98/386
f 99/387 112/388 111/389 94/390
f 100/391 106/392 105/393 95/394
f 101/395 113/396 114/397 96/398
f 98/399 107/400 104/401 97/402
f 66/403 85/404 102/405
f 102/406 85/407 91/408
f 86/409 67/410 103/411
f 103/412 67/413 93/414
f 104/415 96/416 114/417 110/418
f 103/419 93/420 99/421 106/422
f 102/423 91/424 101/425 107/426
f 106/427 99/428 94/429 105/430
f 107/431 101/432 96/433 104/434
f 85/435 86/436 108/437
f 108/438 86/439 92/440
f 67/441 66/442 109/443
f 109/444 66/445 90/446
f 111/447 110/448 105/449 94/450
f 109/451 90/452 98/453 112/454
f 108/455 92/456 100/457 113/458
f 112/459 98/460 97/461 111/462
f 113/463 100/464 95/465 114/466
f 110/467 114/468 95/469 105/470
f 115/471 66/472 67/473 116/474
f 116/475 67/476 68/477 117/478
f 117/479 68/480 69/481 118/482
f 118/483 69/484 177/485 180/486
f 119/487 70/488 179/489 181/490
f 120/491 10/492 131/493 133/494
f 121/495 118/496 180/497 182/498
f 122/499 119/500 132/501 134/502
f 123/503 11/504 183/505 184/506
f 127/507 135/508 185/509 186/510
f 123/511 184/512 187/513 138/514
f 122/515 134/516 139/517 140/518
f 121/519 182/520 188/521 141/522
f 120/523 133/524 142/525 137/526
f 128/527 115/528 116/529 129/530
f 129/531 116/532 117/533 130/534
f 130/535 117/536 118/537 131/538
f 132/539 119/540 181/541 153/542
f 133/543 131/544 118/545 121/546
f 134/547 132/548 11/549 123/550
f 135/551 126/552 189/553 185/554
f 134/555 123/556 138/557 139/558
f 133/559 121/560 141/561 142/562
f 138/563 187/564 186/565 124/566
f 140/567 139/568 136/569 125/570
f 141/571 188/572 189/573 126/574
f 137/575 142/576 135/577 127/578
f 139/579 138/580 124/581 136/582
f 142/583 141/584 126/585 135/586
f 143/587 7/588 8/589 144/590
f 144/591 8/592 9/593 145/594
f 145/595 9/596 10/597 146/598
f 146/599 10/600 183/601 151/602
f 147/603 11/604 154/605 152/606
f 148/607 6/608 149/609
f 149/610 6/611 150/612
f 148/613 151/614 147/615 6/616
f 150/617 152/618 143/619 2/620
f 154/621 153/622 128/623 7/624
f 156/625 155/626 45/627 12/628
f 158/629 157/630 26/631 21/632
f 160/633 159/634 22/635 17/636
f 157/637 161/638 31/639 26/640
f 159/641 162/642 27/643 22/644
f 163/645 31/646 161/647
f 31/648 163/649 162/650
f 164/651 158/652 21/653 35/654
f 166/655 165/656 15/657 33/658
f 168/659 167/660 53/661 37/662
f 166/663 33/664 41/665 169/666
f 164/667 35/668 43/669 170/670
f 169/671 41/672 56/673 171/674
f 170/675 43/676 59/677 172/678
f 155/679 160/680 17/681 45/682
f 167/683 173/684 38/685 53/686
f 171/687 56/688 79/689 174/690
f 172/691 59/692 82/693 175/694
f 177/695 176/696 89/697 70/698
f 179/699 178/700 85/701 66/702
f 174/703 79/704 40/705 168/706
f 175/707 82/708 38/709 173/710
f 176/711 165/712 16/713 89/714
f 178/715 156/716 12/717 85/718
f 180/719 177/720 70/721 119/722
f 181/723 179/724 66/725 115/726
f 182/727 180/728 119/729 122/730
f 184/731 183/732 10/733 120/734
f 186/735 185/736 136/737 124/738
f 184/739 120/740 137/741 187/742
f 182/743 122/744 140/745 188/746
f 153/747 181/748 115/749 128/750
f 185/751 189/752 125/753 136/754
f 187/755 137/756 127/757 186/758
f 188/759 140/760 125/761 189/762
f 151/763 183/764 11/765 147/766
f 152/767 154/768 7/769 143/770
