<?xml version="1.0" encoding="utf-8"?>
<!-- Generator: Adobe Illustrator 29.1.0, SVG Export Plug-In . SVG Version: 9.03 Build 55587)  -->
<!DOCTYPE svg PUBLIC "-//W3C//DTD SVG 1.0//EN" "http://www.w3.org/TR/2001/REC-SVG-20010904/DTD/svg10.dtd" [
	<!ENTITY ns_extend "http://ns.adobe.com/Extensibility/1.0/">
	<!ENTITY ns_ai "http://ns.adobe.com/AdobeIllustrator/10.0/">
	<!ENTITY ns_graphs "http://ns.adobe.com/Graphs/1.0/">
	<!ENTITY ns_vars "http://ns.adobe.com/Variables/1.0/">
	<!ENTITY ns_imrep "http://ns.adobe.com/ImageReplacement/1.0/">
	<!ENTITY ns_sfw "http://ns.adobe.com/SaveForWeb/1.0/">
	<!ENTITY ns_custom "http://ns.adobe.com/GenericCustomNamespace/1.0/">
	<!ENTITY ns_adobe_xpath "http://ns.adobe.com/XPath/1.0/">
]>
<svg version="1.0" xmlns:x="&ns_extend;" xmlns:i="&ns_ai;" xmlns:graph="&ns_graphs;"
	 xmlns="http://www.w3.org/2000/svg" xmlns:xlink="http://www.w3.org/1999/xlink" x="0px" y="0px"
	 viewBox="0 0 713.8292847 343.1489258" enable-background="new 0 0 713.8292847 343.1489258" xml:space="preserve">
<metadata>
	<sfw  xmlns="&ns_sfw;">
		<slices></slices>
		<sliceSourceBounds  bottomLeftOrigin="true" height="2277.0619749" width="2858.6885018" x="-1633.730494" y="-1888.4148936">
			</sliceSourceBounds>
	</sfw>
</metadata>
<g id="skin">
</g>
<g id="shadow">
</g>
<g id="outline">
</g>
<g id="Warstwa_1" display="none">
	<g display="inline">
		<g>
			<path fill="#FDF5E8" d="M540.0697632-28.3681202c-0.2990723-2.388916-19.7868652-27.6312237-22.8978271-31.2031841
				c-10.973114-12.5995483-27.0157166-25.0012207-43.9147644-28.0758667
				c-10.2918701-1.8724976-6.6376953,2.8251343-11.9744873,8.1176758
				c-12.8015137,12.6956787-41.6975098,11.8276367-54.0656738-1.0870972c-1.8726807-1.9555054-3.47229-7.314209-5.5065918-7.5956421
				c-4.2718506-0.5910034-15.8591309,4.0241089-20.1765137,5.9402466
				c-14.1032715,6.2591553-22.6032715,15.1697388-32.2995605,26.7005615
				c-3.0686035,3.6494141-18.2451172,22.9026489-19.3100586,25.7746563
				c-2.8037109,7.5621948,19.4388428,21.8252563,25.2789307,24.6941528
				c3.5474854,1.7427366,6.7628174,4.0319824,10.9927979,4.0014648c2.862793-12.8596191,4.8078613-26.243042,8.0072021-39.0014648
				c0.5933838-2.366333,1.4622803-4.6265259,2.015625-6.9968262c1.3713379-1.4320679,1.8577881,0.1413574,2.0211182,1.5123291
				c0.7818604,6.5651245-8.0541992,36.7833862-9.7382812,46.28302c-3.9055176,22.0306396-6.673584,44.2069092-8.3742676,66.536377
				c11.2121582,5.1536865,23.5817871,7.5336304,35.7321777,9.508728
				c22.1855469,3.6063843,45.6228027,3.6647949,68.7092285,1.0220337
				c6.1518555-0.7041626,42.2386475-6.7119751,44.1888428-10.8634033
				c-2.159668-37.6623535-8.6772461-75.0008545-17.5091553-111.5679932c2.652832-5.0314331,3.1583252,1.7243652,3.9547119,4.5657349
				c3.5543213,12.6816998,5.4547119,26.043211,8.0465088,38.9547729c4.1342773,0.5678101,7.557373-2.3129272,10.9534607-3.9547727
				C519.9525757-7.8820968,540.9259644-21.527544,540.0697632-28.3681202z"/>
		</g>
		<g>
			<path fill="#FDF5E8" d="M506.1980896,71.8957977c-45.8983154,13.1907959-96.2727051,15.1190796-141.9790039,0.0004883
				c-1.1986084,3.2311401-1.366333,6.6726685-2.0158691,10.0010986
				c-1.3964844,7.1560669-10.2281494,58.4519043-8.5345459,61.0349121
				c18.3007812,7.7218628,38.7158203,12.7172241,58.5345459,10.9650879
				c2.5775146-0.2278442,11.0606689,0.4499512,12.3455811-2.1945801c0.0749512-5.3647461,7.1557617-41.2503662,5.659668-42.8088989
				c-0.3256836-0.3392334-3.8814697,0.2946777-5.005249,0.003479c-1.2335205-0.3196411-4.6053467-1.5552979-4.9996338-2.9885864
				c10.6672363,0.4967041,21.2053223,2.243103,31.4841309-2.0280151c2.1760254,2.2677612-6.1994629,4.6990967-7.4844971,5.0166016
				c-1.0809326,0.2671509-4.6949463-0.331604-5.0056152-0.0050659c-1.4415283,1.5155029,5.0770264,36.4275513,5.005249,41.5054321
				c1.552002,4.9512939,7.3212891,3.0648804,11.0003662,3.4996338c20.4631348,2.4182129,41.8775635-2.3989868,60.5275574-10.9653931
				c1.6826172-2.6140747-7.2115173-54.3560181-8.3448181-60.9876099
				C506.254364,75.3235931,506.490448,78.6440277,506.1980896,71.8957977z"/>
		</g>
	</g>
	<g display="inline">
		<g>
			<path fill="#FEFEFE" d="M407.1972351,244.8944855c0.9554443,0.7789764,4.3232422,20.3480682,2.0203247,22.5173187
				c-7.3643188,6.9368591-86.6671448,7.0426636-88.8829346-0.079895
				c2.4508057-23.0919952,21.7433777-36.4539185,43.841095-25.9070129
				c4.8151245,2.2981873,12.0991821,10.9810333,13.5608215,11.4494629c0.5065308,0.162323,8.0173645-5.6287842,7.4611206-6.9708862
				c-4.668335-1.6373444-3.9146118,3.6242828-7.3189392,2.8715973c-0.7988586-0.1766357-7.1715393-6.7527618-9.7580872-8.295105
				c-7.0337219-4.1941681-13.7723389-5.2407837-21.9116821-4.5886078c6.2181702-12.858017,25.9516907-8.0894775,34.5180969-0.017807
				c2.5176086,2.3721771,3.9915466,6.1898804,5.5440369,7.4559479
				C393.8911133,249.5436707,406.3560791,244.2086792,407.1972351,244.8944855z"/>
		</g>
		<g>
			<path fill="#FEFEFE" d="M484.2032166,243.8973999c-0.0083923-12.9553986,30.8716736-22.6464539,38.9942322-9.494278
				c-6.3215942,1.3465424-12.632019,1.644104-18.6861267,4.3023682c-4.192688,1.8409424-12.138855,9.9930878-12.9519043,10.1111298
				C489.4527893,249.1225128,487.829071,244.3568878,484.2032166,243.8973999
				c0.0032654,5.0325165,5.5766602,5.7306519,8.4846802,8.9954987c16.934021-25.3556366,55.83255-17.282074,56.3987122,14.8837738
				c-17.6964111,4.8685608-37.1098938,6.1084595-55.4324341,5.1697693
				c-5.696167-0.2918091-28.993042-2.6436462-32.7866516-5.2070923c-3.6069641-2.4373169,0.9283447-18.1625977,2.2781677-22.4224548
				C469.6199646,248.4374084,479.257843,243.2706909,484.2032166,243.8973999z"/>
		</g>
		<g>
			<path fill="#FEFEFE" d="M410.1955872,269.9016418c-0.2850647,2.1394348,0.5879211,5.5010986-0.1248474,7.3639221
				c-1.0958252,2.8638306-32.3252869,6.3681335-37.3857727,6.6135864
				c-6.5941162,0.3198547-52.0830078-1.3382568-53.5433655-5.600647c-0.5309143-1.5495605,0.4631042-5.3748779,0.0668945-7.3830261
				C349.1174927,277.7637329,380.502655,277.7908936,410.1955872,269.9016418z"/>
		</g>
		<g>
			<path fill="#FEFEFE" d="M551.2027588,270.8934631c0.2247314,0.2254333,0.1779175,5.4798889-0.142395,6.3642273
				c-1.2999268,3.5890808-30.3959351,6.4094543-35.3759766,6.6208801
				c-14.8345947,0.6297607-36.3952637-0.549408-50.6772766-4.2815857c-7.3093872-1.9100952-5.9938354-1.8457642-5.7968445-9.6947632
				c18.4510803,5.4443359,39.2117615,7.1691589,58.4747314,5.9769287
				C522.819397,275.5614014,550.0067139,269.6933899,551.2027588,270.8934631z"/>
		</g>
	</g>
</g>
<g id="buty">
	<g>
		<path fill="#FFFFFF" d="M580.6299438,211.2680969c-2.8339233-6.4144897-5.7634888-13.0066071-8.7910156-19.779541
			c-3.0289917-6.7709656-5.9697266-13.2659912-8.8202515-19.4835663
			c-2.8539429-6.2170868-5.4720459-11.6234894-7.8555298-16.2154846c-1.3743286-2.8974609-4.0029907-4.7750549-7.8909912-5.6303101
			c-3.8876953-0.8535156-8.2015991-0.9502411-12.937561-0.2854309c-3.2214966,0.4522095-6.4317017,1.3379974-9.6272583,2.6551361
			c-2.7974854,1.1542206-4.9362183,2.2539062-6.4168091,3.295578c-0.37323,0.2625732-0.6408081,0.6450653-0.7409058,1.0902863
			c-0.4713745,2.097168-1.1245728,5.1444397-1.9572144,9.1401825c-0.9244385,4.42836-1.9370117,9.4263153-3.039856,14.9906311
			c-1.1026306,5.56604-2.1891785,11.2465973-3.2586975,17.0485687c-1.0694885,5.8019867-2.0270386,11.2043762-2.8701477,16.1997681
			c-0.844574,4.9973755-1.4322205,9.0653381-1.7648926,12.2024231c-0.2225647,1.8674316-0.4299011,3.490387-0.6203003,4.8686066
			c-0.1933899,1.3821716-0.1964111,2.7340851-0.010376,4.0594635c0.4125061,2.9387207,1.9180603,5.0695038,4.5203247,6.3935699
			c2.6005554,1.3243256,6.2700195,1.6565552,11.0077515,0.9915161c2.0834351-0.2924652,3.8573608-0.7360687,5.3204956-1.3270874
			c1.0836792-0.4394379,2.0900879-0.868042,3.0193481-1.2843781c0.5820312-0.2607422,0.9871216-0.7950134,1.0614624-1.4284058
			c0.1361084-1.1599579,0.2698364-2.3488159,0.399292-3.5679474c0.1655884-1.5675507,0.3503418-3.1873322,0.5491333-4.8586121
			c0.2008057-1.6697845,0.3881836-3.4349823,0.5621338-5.2955933c0.071167-0.7593079,0.1568604-1.5319519,0.2521362-2.3134155
			c0.0983276-0.8066864,0.7335815-1.4477844,1.5383301-1.5607605l22.9835815-3.2262878
			c0.8110352-0.1138458,1.5966797,0.3344574,1.9112549,1.0906525l3.3956909,8.1625977
			c1.3059692,3.1034241,2.9669189,5.3079071,4.9870605,6.6181793c2.0183716,1.3105164,5.3496704,1.640686,9.9937134,0.9887848
			c3.1260986-0.4388123,5.7655029-1.2444916,7.9202271-2.4155121c1.671936-0.9101105,2.9854126-1.8849487,3.9400024-2.9269562
			c0.4741211-0.5175171,0.592041-1.2607727,0.3171387-1.9065552
			C585.6405029,222.7022247,583.2807007,217.2708435,580.6299438,211.2680969z M535.697998,181.274353
			c0.6035156-3.2741699,1.1452637-6.2955322,1.6262207-9.0695648l0.8517456-0.1195679
			c1.1173096,2.4523926,2.3199463,5.1599121,3.6036987,8.1178436c1.2857666,2.9594421,2.6397705,6.0773468,4.0674438,9.3547211
			c1.0408936,2.3955994,2.0944824,4.8744354,3.1589966,7.4249878c0.4536133,1.0866699-0.244751,2.3109589-1.4108887,2.4746552
			l-12.9903564,1.8235016c-1.1883545,0.1668091-2.2098389-0.8604736-2.0336914-2.0474701
			c0.3848877-2.5936279,0.7979126-5.1389313,1.244812-7.6241913
			C534.468689,187.9920959,535.0941772,184.5467987,535.697998,181.274353z"/>
	</g>
	<g>
		<g>
			<path fill="#FFFFFF" d="M168.3159332,197.1563568l-26.5180054,2.7748871
				c-0.5492859,0.0574799-1.041153-0.341217-1.0986328-0.8905029l-0.1932373-1.8466644l-0.7993011-7.6385193
				c-0.0574799-0.5492859,0.3412018-1.0411682,0.8904877-1.0986481l19.0028076-1.9884644
				c2.0388947-0.2133484,3.5794373-0.9813843,4.6195221-2.3052368c1.0387421-1.3237152,1.4190674-3.3336945,1.1369781-6.029541
				c-0.1601105-1.5299988-0.5069427-2.8921204-1.0361176-4.0895233c-0.4280548-0.9651947-0.877243-1.7841339-1.346344-2.458313
				c-0.2022705-0.2907257-0.5560913-0.436142-0.9083405-0.3992767l-23.0235748,2.4092255
				c-0.5492859,0.0574799-1.0411682-0.341217-1.0986481-0.8905029l-0.6505127-6.216568l-0.2046814-1.9560547
				c-0.0574799-0.5492706,0.341217-1.041153,0.8905029-1.0986328l22.0628052-2.30867
				c2.0382233-0.2132874,3.5768127-1,4.6136475-2.3612671c1.0349731-1.359726,1.4128265-3.3869781,1.1305847-6.0841522
				c-0.1599579-1.5286713-0.5061188-2.8908691-1.0354462-4.0895996c-0.396759-0.8934631-0.8108978-1.6616669-1.2421875-2.3051605
				c-0.2528076-0.3771667-0.6884308-0.5850067-1.1400146-0.5377502l-35.364151,3.7005615
				c-3.1333618,0.3278809-5.5151062,1.4981537-7.1447067,3.5093994c-1.6315918,2.0114594-2.2819824,4.5850677-1.9543839,7.7157593
				l0.8119507,7.7593842l3.2130356,30.705368l0.8118057,7.7580414c0.3278809,3.1333618,1.4969482,5.5165863,3.5094681,7.1453705
				c2.0107956,1.6316681,4.5830612,2.282196,7.716423,1.9543152l31.9078979-3.3388672
				c2.0388947-0.2133484,3.5786285-0.9826508,4.6193848-2.3065643c1.0387421-1.3237152,1.4185333-3.3322906,1.1364441-6.0281372
				c-0.1600952-1.5299988-0.5101776-2.9295349-1.0468903-4.1989746c-0.4344635-1.0249176-0.8875427-1.8790741-1.3580627-2.564682
				C169.0252838,197.2653046,168.6694794,197.1193542,168.3159332,197.1563568z"/>
			<path fill="#FFFFFF" d="M244.7392578,154.6204376c-1.6828918-1.083374-3.7046204-1.6709747-6.0623627-1.759201
				c-2.2416077-0.0838928-4.4299774,0.3265228-6.5666046,1.2319489c-0.6456451,0.2735901-1.1159363,0.8542175-1.2196503,1.5477448
				c-0.629303,4.2079773-1.2551117,8.3473663-1.8783569,12.4181366c-0.6770782,4.412735-1.3722534,8.9182892-2.0861816,13.5189819
				c-0.7151337,4.6018219-1.5524597,9.5018005-2.5125275,14.6987457l-0.4785614-0.0179138
				c-0.5899811-3.0213165-1.2010498-5.8856201-1.8326721-8.5905609c-0.6334381-2.7038422-1.2784119-5.505127-1.9355621-8.40271
				c-0.6577759-2.8964386-1.3993378-6.1151123-2.2240143-9.6583099c-0.3250427-1.5433502-1.3664398-2.7464752-3.120636-3.6116028
				c-1.7554321-0.8628387-3.9710236-1.3454895-6.647995-1.4456787c-1.5301971-0.057251-3.0529938,0.093811-4.5654297,0.4521484
				c-0.8867493,0.2105865-1.636261,0.4090576-2.2481842,0.5961304c-0.6740417,0.2060852-1.1805115,0.7596741-1.3436584,1.4453735
				c-0.6658173,2.7984467-1.2956543,5.3219452-1.8901978,7.5680389c-0.6691132,2.5288544-1.3164825,4.8668518-1.9379578,7.0129547
				c-0.6238708,2.147171-1.2308044,4.2949829-1.8213501,6.4422455c-0.5918121,2.1495361-1.2210846,4.488205-1.8901215,7.0147247
				l-0.4779663-0.0178833c-0.1580505-0.8988953-0.3199005-2.1334076-0.4837646-3.7046051
				c-0.1656952-1.568924-0.3869171-3.731369-0.66716-6.487442c-0.2796936-2.7548981-0.6585388-6.3118134-1.132431-10.6705933
				c-0.475647-4.3588562-1.1336975-9.8092041-1.973526-16.3522034c-0.2892151-2.5004425-1.1958923-4.3051605-2.7176666-5.4152222
				c-1.5235291-1.1101379-3.4950714-1.7110596-5.9170074-1.8016968c-1.8494263-0.0692139-3.5836182,0.2177124-5.2024689,0.858429
				c-1.1472168,0.4551392-2.1195526,0.9478607-2.9170074,1.4785767c-0.5684509,0.3783112-0.8769836,1.0366364-0.8292694,1.717804
				c0.2053375,2.9319305,0.5268402,6.1721649,0.9649353,9.7215118c0.4881744,3.9771118,1.0545502,8.0354614,1.6984863,12.1761932
				c0.6421509,4.1418304,1.3386688,8.1267395,2.0902863,11.9512329c0.7497864,3.8267822,1.4853668,7.2053528,2.2055359,10.1368561
				c0.7195435,2.9326477,1.3726196,5.1112518,1.9580841,6.5357513c0.6478119,1.429184,2.1362152,2.6034546,4.4641571,3.5192871
				c2.326767,0.9157715,4.8924713,1.4279022,7.6984253,1.5328979c2.2947083,0.0858765,4.4099426-0.138855,6.3450775-0.6730652
				c1.5632019-0.4307556,2.8174133-0.9463348,3.7620544-1.547348c0.3887482-0.247345,0.6747131-0.6119995,0.812439-1.051712
				c0.5267334-1.6816101,1.0997009-3.5782471,1.7200317-5.6873474c0.6940613-2.3677979,1.4109497-4.8925476,2.1502533-7.5789032
				c0.0185699-0.0675812,0.0371399-0.1351776,0.0556641-0.202774c0.5419922-1.9764099,3.3551788-1.9189911,3.8070068,0.0799561
				c0.0057526,0.0254517,0.0115051,0.0508881,0.0172577,0.0763245c0.5751343,2.543869,1.1417389,4.8781891,1.7008972,7.0053558
				c0.5574188,2.1271057,1.0595093,4.0615997,1.5063477,5.8011932c0.3927917,1.419632,1.6267395,2.5843811,3.6990662,3.4906464
				c2.0729065,0.9062805,4.5744171,1.4159851,7.5075836,1.5257568c2.2947235,0.0858765,4.5365906-0.1341248,6.7273407-0.6587677
				c1.9222107-0.4597473,3.3818665-1.0233154,4.3777618-1.6915283c0.2638092-0.177002,0.4607697-0.4262238,0.5961609-0.7136078
				c0.6325378-1.3426208,1.3226929-3.1508026,2.0690002-5.4219666c0.8278198-2.521759,1.6530304-5.3954163,2.4773712-8.6209412
				c0.8219604-3.2244415,1.6165771-6.5457611,2.3832703-9.9639587c0.7655182-3.4182434,1.449295-6.744873,2.0494995-9.9776154
				c0.5996094-3.2327576,1.0904236-6.1189423,1.4729919-8.6585388c0.381897-2.537262,0.5994568-4.5091248,0.6519623-5.9121094
				C247.2185059,157.4588165,246.4221191,155.7049866,244.7392578,154.6204376z"/>
			<path fill="#FFFFFF" d="M293.5905457,152.8903351c-4.7357178-2.0572357-9.9371338-2.9032593-15.6018066-2.5359039
				c-5.6663818,0.3674622-10.6980896,1.877121-15.0957642,4.5266571
				c-4.3993835,2.6508331-7.7874298,6.3398132-10.1655579,11.0635529c-2.3786469,4.7249451-3.3533325,10.397049-2.923996,17.0174713
				s2.096817,12.1363983,5.0048981,16.5500946c2.9064026,4.414978,6.7120667,7.6526642,11.4168701,9.7119141
				c4.703064,2.0593414,9.9516907,2.9023132,15.7451477,2.5266113c5.7917175-0.3755951,10.8875122-1.8894043,15.2869263-4.5390625
				c4.3977051-2.6495514,7.7696228-6.3527069,10.1146851-11.1082458c2.3433838-4.7542572,3.3019409-10.4405212,2.8725891-17.0609589
				c-0.4293518-6.6204224-2.1284485-12.1191254-5.0968628-16.4973145
				C302.178772,158.1681824,298.3263245,154.9487457,293.5905457,152.8903351z M290.3669434,193.3717499
				c-2.1698914,3.016571-5.2281189,4.6533966-9.1741333,4.9093018c-3.9477844,0.256012-7.2063599-0.9711761-9.7791748-3.6801605
				c-2.572876-2.7101746-4.0470886-6.9605255-4.42276-12.7534027c-0.371582-5.7299194,0.543335-10.1036072,2.7446289-13.1233826
				c2.2013855-3.0186005,5.2426758-4.6543427,9.1263733-4.9062042c4.0101318-0.2600555,7.2866516,0.9823456,9.8300476,3.7248535
				c2.5423584,2.7449188,3.998291,6.9484711,4.3657227,12.6142883
				C293.4333191,185.9499207,292.5355835,190.3540955,290.3669434,193.3717499z"/>
			<path fill="#FFFFFF" d="M355.0866394,196.8848724l-20.3340454,0.0000153c-0.5522766,0-1-0.4477234-1-1v-5.9847412V167.79776
				v-8.8033295c0-3.1244507-0.7031555-5.2292175-2.1053467-6.3154755c-1.4039612-1.0839081-3.7002869-1.6258698-6.8889771-1.6258698
				c-1.4039612,0-2.8558044,0.1121216-4.3537598,0.3340454c-0.9367676,0.1400757-1.7299805,0.2610168-2.3799133,0.3630981
				c-0.5885315,0.0924377-1.0167236,0.5982666-1.0167236,1.1940308l0.0000305,14.8535004v22.1023865v11.5773773
				c0,2.7436676,0.7966003,4.9138489,2.3920898,6.507019c1.5937805,1.5955048,3.7627869,2.3920898,6.5064392,2.3920898h25.8347778
				c1.784729,0,3.1886902-0.5746613,4.2095337-1.7228241c1.0196838-1.1481476,1.5312805-2.9013519,1.5312805-5.2619019
				c0-1.3397217-0.1915588-2.5836639-0.5740967-3.7318115c-0.2913208-0.8744202-0.6019592-1.6187744-0.9303284-2.2345886
				C355.8008728,197.0941467,355.4621887,196.8848724,355.0866394,196.8848724z"/>
			<path fill="#FFFFFF" d="M409.4065247,151.0421295c-1.4784851-0.9798279-3.8079224-1.3547211-6.9882812-1.1247101
				c-1.4002991,0.1012726-2.840271,0.3178406-4.3189392,0.6472778c-1.0100403,0.2265472-1.8502197,0.4178772-2.5219116,0.5744781
				c-0.4786377,0.1115723-0.8019104,0.5549774-0.766449,1.045166l2.1818237,30.167038l0.2001953,2.7679749l0.2001038,2.7668152
				c0.2163391,2.9916534-0.455719,5.4222107-2.0137939,7.2926636c-1.5602417,1.8729553-3.6755676,2.9042511-6.3480225,3.0975189
				c-2.6724548,0.1932831-4.9152832-0.5227966-6.7270813-2.151886c-1.813324-1.6266174-2.8269958-3.935257-3.043335-6.9269104
				l-0.2139282-2.9578705l-0.1863708-2.5769196l-1.7324524-23.9541931
				c-0.2253723-3.1163025-1.0779419-5.1649017-2.5548401-6.1471863c-1.4784851-0.9798279-3.8079224-1.3547211-6.9888916-1.1246643
				c-1.4002991,0.1012726-2.8396912,0.3177948-4.3183289,0.6472321c-0.9240417,0.2073059-1.7064209,0.3851624-2.3474731,0.5338745
				c-0.5803528,0.1346436-0.9709778,0.6700592-0.9279785,1.2642822l2.1688843,29.9885254l0.1863708,2.5769196l0.2346497,3.2444458
				c0.3312988,4.5806885,1.654541,8.5146179,3.9714355,11.8005371c2.3151245,3.2860413,5.4668579,5.7445221,9.4551086,7.3742828
				c3.9865723,1.6310577,8.6531372,2.2526703,13.997467,1.8661499c5.3449097-0.3865662,9.8705444-1.6729736,13.5838623-3.8609161
				c3.7098999-2.1865234,6.4744873-5.0728912,8.2950134-8.6580353c1.8182068-3.5849762,2.5627747-7.6684723,2.2314758-12.2491455
				l-0.2208252-3.0533905l-0.2001953-2.7679749l-1.7324524-23.9541931
				C411.7359924,154.0730133,410.882843,152.0244446,409.4065247,151.0421295z"/>
			<path fill="#FFFFFF" d="M467.3081055,201.4936371c-0.4285583-1.1969452-1.0557251-2.2428589-1.8807068-3.1376495
				c-0.2723389-0.2953796-0.706543-0.3699493-1.0796204-0.2208862c-1.6603088,0.6633453-3.3790894,1.2396545-5.156311,1.7280579
				c-1.99823,0.5510712-4.380249,0.6855927-7.1466064,0.4084625c-5.3312988-0.5340576-9.342041-2.5032196-12.0334473-5.9076233
				c-2.6914368-3.4044037-3.7397156-8.0755768-3.1447754-14.01474c0.3851624-3.8449707,1.3374634-7.0727997,2.8603516-9.6806488
				c1.5216675-2.6079712,3.5534973-4.5159302,6.0946045-5.7276917c2.5397644-1.2106323,5.5319519-1.6434326,8.9729004-1.2987366
				c2.6316528,0.2636261,4.9187927,0.9020691,6.8627625,1.9141846c1.7289429,0.90065,3.3103027,1.9228973,4.7460632,3.0643311
				c0.3212585,0.2554016,0.7677307,0.310257,1.1177979,0.095993c0.9917908-0.6070557,1.909668-1.4239197,2.7543335-2.4504852
				c1.0078125-1.2280884,1.5980225-2.6851959,1.7669678-4.3716888c0.2094116-2.0904999-0.3817139-4.0253601-1.7700195-5.8004608
				c-1.3908081-1.7753448-3.4902344-3.2785034-6.2951965-4.5154114c-2.8077087-1.2346649-6.2691956-2.0593872-10.3847351-2.4716492
				c-5.8032837-0.5813446-11.2440186,0.1515045-16.3209839,2.1986694
				c-5.0794373,2.0469208-9.2756958,5.3428802-12.5931702,9.8824615c-3.317627,4.540802-5.3278809,10.3194733-6.0307617,17.3360291
				c-0.7503967,7.4909973,0.1022949,13.7786102,2.5580444,18.8628235c2.4544067,5.0853119,6.046936,9.0242462,10.7766113,11.8141937
				c4.7297058,2.7899475,10.1313477,4.4903717,16.203949,5.0986938c3.1716003,0.3177185,5.8983459,0.3175659,8.178833,0.0006714
				c2.2805176-0.3168945,4.0555725-0.6831665,5.3241882-1.1014252c2.0435791-0.680069,3.535675-1.6225281,4.4746399-2.823822
				c0.9376221-1.2001648,1.4847107-2.5754852,1.6402893-4.12854
				C467.9798584,204.4922943,467.8140869,202.9082947,467.3081055,201.4936371z"/>
		</g>
	</g>
	<g>
		<path fill="#8D8D8E" d="M554.1178589,198.108139c21.7817383-22.9642334,40.3529053-54.800415,29.6279297-86.5886841
			C567.5602417,68.9263153,511.7770691,61.4148407,471.9114685,63.7556
			c-50.1604004,3.2471313-99.6131592,19.7120361-141.6708984,47.244873
			c-16.2901611,10.968811-32.0643311,23.9491577-44.039917,39.6888428c1.3516846,0.1421509,3.6574707,0.5819702,6.4885254,1.8579712
			c20.479248-28.2072754,51.7021484-47.9946899,83.2641602-62.0350952
			c45.1757812-19.0814819,96.6733398-28.913269,144.9723816-17.2255859
			c22.2716064,5.6508179,46.3146973,18.0928955,53.5874023,41.300293
			c4.4752197,14.7518921,0.4702148,30.7021484-7.2070312,43.7400513
			c-8.8535156,14.8943481-21.0053711,27.2914429-34.713623,37.8539429l-0.3435059,1.7733765
			c-0.4064941,2.098999,1.4300537,3.9475098,3.5316162,3.5545654l12.5908203-2.3543091
			C548.3713989,199.1545258,550.5145874,198.776474,554.1178589,198.108139z"/>
		<path fill="#8D8D8E" d="M504.0281677,235.4244232c0.6116943-6.9006958,1.5233154-14.4899902,2.5883789-22.0778809
			c-3.6657715,2.1060181-7.3618164,4.1278687-11.0644531,6.0697021
			c-42.394165,21.4721069-91.3225098,35.1810913-139.0570068,33.9127808
			c-23.2114258-1.015625-48.1046143-5.6959229-65.8430176-21.614624
			c-18.902832-17.0922852-18.7056885-42.27771-7.5712891-63.7824097c0.5268555-0.9992065,1.0720215-1.9853516,1.6243896-2.9663696
			c-1.9603271-0.9051514-4.3824463-1.2791138-7.3631592-0.8152466c-2.2128906,3.9608765-4.1826172,8.0754395-5.8632812,12.3566895
			c-8.4377441,21.6368408-4.7730713,45.8470459,11.9934082,62.5231934
			c30.7353516,30.4282684,82.8728027,34.2287445,123.6088867,29.4409637
			c33.8443604-4.4224243,67.1778564-15.062912,96.9226074-31.9319916
			C503.9909363,236.1847992,503.9933777,235.8176727,504.0281677,235.4244232z"/>
	</g>
	<path fill="#FFFFFF" d="M502.5099182,151.0797119c-2.0560303-2.0207825-5.6567993-3.3414459-10.8027039-3.9582214
		c-2.265686-0.2715454-4.6303711-0.3714142-7.0918884-0.3012543c-1.3961182,0.0407104-2.5985107,0.0788422-3.6075134,0.1143646
		c-1.1368408,0.0400085-2.0743408,0.901001-2.2097168,2.0304565l-5.6513672,47.1511078l-1.4251099,11.8902283l-0.1850281,1.5437622
		c-0.4690247,3.913147-1.6999817,6.7655792-3.6898193,8.563385c-1.9917297,1.7975769-4.9923401,2.4570465-9.0072632,1.9758301
		c-1.6474609-0.1974487-3.1574402-0.4568329-4.5281372-0.7779083c-1.0071411-0.2359161-2.1596985-0.5594635-3.4560547-0.9711914
		c-0.9549561-0.3033142-1.9931641,0.0462646-2.5822754,0.856781c-0.4472656,0.6153564-0.8899841,1.3246613-1.3291321,2.1280975
		c-0.8034973,1.4715424-1.3286133,3.2365112-1.5753174,5.2948608c-0.6170044,5.1477814,0.884613,8.9548645,4.504364,11.4250183
		s8.1570435,4.0330963,13.6139526,4.6871338c6.7952271,0.8144531,12.6303101,0.2595367,17.506897-1.6626282
		c4.8763733-1.9202881,8.7696533-5.0023804,11.6821289-9.2498016c2.9104004-4.2457581,4.7294312-9.4043427,5.4575806-15.4795227
		l0.6106567-5.0950012l1.4251099-11.8902283l4.5159607-37.6781464
		C505.2895813,156.634613,504.5619812,153.1019287,502.5099182,151.0797119z"/>
</g>
<g id="spodenki">
	<g>
		<path fill="#FFFFFF" d="M580.6299438,211.2680969c-2.8339233-6.4144897-5.7634888-13.0066071-8.7910156-19.779541
			c-3.0289917-6.7709656-5.9697266-13.2659912-8.8202515-19.4835663
			c-2.8539429-6.2170868-5.4720459-11.6234894-7.8555298-16.2154846c-1.3743286-2.8974609-4.0029907-4.7750549-7.8909912-5.6303101
			c-3.8876953-0.8535156-8.2015991-0.9502411-12.937561-0.2854309c-3.2214966,0.4522095-6.4317017,1.3379974-9.6272583,2.6551361
			c-2.7974854,1.1542206-4.9362183,2.2539062-6.4168091,3.295578c-0.37323,0.2625732-0.6408081,0.6450653-0.7409058,1.0902863
			c-0.4713745,2.097168-1.1245728,5.1444397-1.9572144,9.1401825c-0.9244385,4.42836-1.9370117,9.4263153-3.039856,14.9906311
			c-1.1026306,5.56604-2.1891785,11.2465973-3.2586975,17.0485687c-1.0694885,5.8019867-2.0270386,11.2043762-2.8701477,16.1997681
			c-0.844574,4.9973755-1.4322205,9.0653381-1.7648926,12.2024231c-0.2225647,1.8674316-0.4299011,3.490387-0.6203003,4.8686066
			c-0.1933899,1.3821716-0.1964111,2.7340851-0.010376,4.0594635c0.4125061,2.9387207,1.9180603,5.0695038,4.5203247,6.3935699
			c2.6005554,1.3243256,6.2700195,1.6565552,11.0077515,0.9915161c2.0834351-0.2924652,3.8573608-0.7360687,5.3204956-1.3270874
			c1.0836792-0.4394379,2.0900879-0.868042,3.0193481-1.2843781c0.5820312-0.2607422,0.9871216-0.7950134,1.0614624-1.4284058
			c0.1361084-1.1599579,0.2698364-2.3488159,0.399292-3.5679474c0.1655884-1.5675507,0.3503418-3.1873322,0.5491333-4.8586121
			c0.2008057-1.6697845,0.3881836-3.4349823,0.5621338-5.2955933c0.071167-0.7593079,0.1568604-1.5319519,0.2521362-2.3134155
			c0.0983276-0.8066864,0.7335815-1.4477844,1.5383301-1.5607605l22.9835815-3.2262878
			c0.8110352-0.1138458,1.5966797,0.3344574,1.9112549,1.0906525l3.3956909,8.1625977
			c1.3059692,3.1034241,2.9669189,5.3079071,4.9870605,6.6181793c2.0183716,1.3105164,5.3496704,1.640686,9.9937134,0.9887848
			c3.1260986-0.4388123,5.7655029-1.2444916,7.9202271-2.4155121c1.671936-0.9101105,2.9854126-1.8849487,3.9400024-2.9269562
			c0.4741211-0.5175171,0.592041-1.2607727,0.3171387-1.9065552
			C585.6405029,222.7022247,583.2807007,217.2708435,580.6299438,211.2680969z M535.697998,181.274353
			c0.6035156-3.2741699,1.1452637-6.2955322,1.6262207-9.0695648l0.8517456-0.1195679
			c1.1173096,2.4523926,2.3199463,5.1599121,3.6036987,8.1178436c1.2857666,2.9594421,2.6397705,6.0773468,4.0674438,9.3547211
			c1.0408936,2.3955994,2.0944824,4.8744354,3.1589966,7.4249878c0.4536133,1.0866699-0.244751,2.3109589-1.4108887,2.4746552
			l-12.9903564,1.8235016c-1.1883545,0.1668091-2.2098389-0.8604736-2.0336914-2.0474701
			c0.3848877-2.5936279,0.7979126-5.1389313,1.244812-7.6241913
			C534.468689,187.9920959,535.0941772,184.5467987,535.697998,181.274353z"/>
	</g>
	<g>
		<g>
			<path fill="#FFFFFF" d="M168.3159332,197.1563568l-26.5180054,2.7748871
				c-0.5492859,0.0574799-1.041153-0.341217-1.0986328-0.8905029l-0.1932373-1.8466644l-0.7993011-7.6385193
				c-0.0574799-0.5492859,0.3412018-1.0411682,0.8904877-1.0986481l19.0028076-1.9884644
				c2.0388947-0.2133484,3.5794373-0.9813843,4.6195221-2.3052368c1.0387421-1.3237152,1.4190674-3.3336945,1.1369781-6.029541
				c-0.1601105-1.5299988-0.5069427-2.8921204-1.0361176-4.0895233c-0.4280548-0.9651947-0.877243-1.7841339-1.346344-2.458313
				c-0.2022705-0.2907257-0.5560913-0.436142-0.9083405-0.3992767l-23.0235748,2.4092255
				c-0.5492859,0.0574799-1.0411682-0.341217-1.0986481-0.8905029l-0.6505127-6.216568l-0.2046814-1.9560547
				c-0.0574799-0.5492706,0.341217-1.041153,0.8905029-1.0986328l22.0628052-2.30867
				c2.0382233-0.2132874,3.5768127-1,4.6136475-2.3612671c1.0349731-1.359726,1.4128265-3.3869781,1.1305847-6.0841522
				c-0.1599579-1.5286713-0.5061188-2.8908691-1.0354462-4.0895996c-0.396759-0.8934631-0.8108978-1.6616669-1.2421875-2.3051605
				c-0.2528076-0.3771667-0.6884308-0.5850067-1.1400146-0.5377502l-35.364151,3.7005615
				c-3.1333618,0.3278809-5.5151062,1.4981537-7.1447067,3.5093994c-1.6315918,2.0114594-2.2819824,4.5850677-1.9543839,7.7157593
				l0.8119507,7.7593842l3.2130356,30.705368l0.8118057,7.7580414c0.3278809,3.1333618,1.4969482,5.5165863,3.5094681,7.1453705
				c2.0107956,1.6316681,4.5830612,2.282196,7.716423,1.9543152l31.9078979-3.3388672
				c2.0388947-0.2133484,3.5786285-0.9826508,4.6193848-2.3065643c1.0387421-1.3237152,1.4185333-3.3322906,1.1364441-6.0281372
				c-0.1600952-1.5299988-0.5101776-2.9295349-1.0468903-4.1989746c-0.4344635-1.0249176-0.8875427-1.8790741-1.3580627-2.564682
				C169.0252838,197.2653046,168.6694794,197.1193542,168.3159332,197.1563568z"/>
			<path fill="#FFFFFF" d="M244.7392578,154.6204376c-1.6828918-1.083374-3.7046204-1.6709747-6.0623627-1.759201
				c-2.2416077-0.0838928-4.4299774,0.3265228-6.5666046,1.2319489c-0.6456451,0.2735901-1.1159363,0.8542175-1.2196503,1.5477448
				c-0.629303,4.2079773-1.2551117,8.3473663-1.8783569,12.4181366c-0.6770782,4.412735-1.3722534,8.9182892-2.0861816,13.5189819
				c-0.7151337,4.6018219-1.5524597,9.5018005-2.5125275,14.6987457l-0.4785614-0.0179138
				c-0.5899811-3.0213165-1.2010498-5.8856201-1.8326721-8.5905609c-0.6334381-2.7038422-1.2784119-5.505127-1.9355621-8.40271
				c-0.6577759-2.8964386-1.3993378-6.1151123-2.2240143-9.6583099c-0.3250427-1.5433502-1.3664398-2.7464752-3.120636-3.6116028
				c-1.7554321-0.8628387-3.9710236-1.3454895-6.647995-1.4456787c-1.5301971-0.057251-3.0529938,0.093811-4.5654297,0.4521484
				c-0.8867493,0.2105865-1.636261,0.4090576-2.2481842,0.5961304c-0.6740417,0.2060852-1.1805115,0.7596741-1.3436584,1.4453735
				c-0.6658173,2.7984467-1.2956543,5.3219452-1.8901978,7.5680389c-0.6691132,2.5288544-1.3164825,4.8668518-1.9379578,7.0129547
				c-0.6238708,2.147171-1.2308044,4.2949829-1.8213501,6.4422455c-0.5918121,2.1495361-1.2210846,4.488205-1.8901215,7.0147247
				l-0.4779663-0.0178833c-0.1580505-0.8988953-0.3199005-2.1334076-0.4837646-3.7046051
				c-0.1656952-1.568924-0.3869171-3.731369-0.66716-6.487442c-0.2796936-2.7548981-0.6585388-6.3118134-1.132431-10.6705933
				c-0.475647-4.3588562-1.1336975-9.8092041-1.973526-16.3522034c-0.2892151-2.5004425-1.1958923-4.3051605-2.7176666-5.4152222
				c-1.5235291-1.1101379-3.4950714-1.7110596-5.9170074-1.8016968c-1.8494263-0.0692139-3.5836182,0.2177124-5.2024689,0.858429
				c-1.1472168,0.4551392-2.1195526,0.9478607-2.9170074,1.4785767c-0.5684509,0.3783112-0.8769836,1.0366364-0.8292694,1.717804
				c0.2053375,2.9319305,0.5268402,6.1721649,0.9649353,9.7215118c0.4881744,3.9771118,1.0545502,8.0354614,1.6984863,12.1761932
				c0.6421509,4.1418304,1.3386688,8.1267395,2.0902863,11.9512329c0.7497864,3.8267822,1.4853668,7.2053528,2.2055359,10.1368561
				c0.7195435,2.9326477,1.3726196,5.1112518,1.9580841,6.5357513c0.6478119,1.429184,2.1362152,2.6034546,4.4641571,3.5192871
				c2.326767,0.9157715,4.8924713,1.4279022,7.6984253,1.5328979c2.2947083,0.0858765,4.4099426-0.138855,6.3450775-0.6730652
				c1.5632019-0.4307556,2.8174133-0.9463348,3.7620544-1.547348c0.3887482-0.247345,0.6747131-0.6119995,0.812439-1.051712
				c0.5267334-1.6816101,1.0997009-3.5782471,1.7200317-5.6873474c0.6940613-2.3677979,1.4109497-4.8925476,2.1502533-7.5789032
				c0.0185699-0.0675812,0.0371399-0.1351776,0.0556641-0.202774c0.5419922-1.9764099,3.3551788-1.9189911,3.8070068,0.0799561
				c0.0057526,0.0254517,0.0115051,0.0508881,0.0172577,0.0763245c0.5751343,2.543869,1.1417389,4.8781891,1.7008972,7.0053558
				c0.5574188,2.1271057,1.0595093,4.0615997,1.5063477,5.8011932c0.3927917,1.419632,1.6267395,2.5843811,3.6990662,3.4906464
				c2.0729065,0.9062805,4.5744171,1.4159851,7.5075836,1.5257568c2.2947235,0.0858765,4.5365906-0.1341248,6.7273407-0.6587677
				c1.9222107-0.4597473,3.3818665-1.0233154,4.3777618-1.6915283c0.2638092-0.177002,0.4607697-0.4262238,0.5961609-0.7136078
				c0.6325378-1.3426208,1.3226929-3.1508026,2.0690002-5.4219666c0.8278198-2.521759,1.6530304-5.3954163,2.4773712-8.6209412
				c0.8219604-3.2244415,1.6165771-6.5457611,2.3832703-9.9639587c0.7655182-3.4182434,1.449295-6.744873,2.0494995-9.9776154
				c0.5996094-3.2327576,1.0904236-6.1189423,1.4729919-8.6585388c0.381897-2.537262,0.5994568-4.5091248,0.6519623-5.9121094
				C247.2185059,157.4588165,246.4221191,155.7049866,244.7392578,154.6204376z"/>
			<path fill="#FFFFFF" d="M293.5905457,152.8903351c-4.7357178-2.0572357-9.9371338-2.9032593-15.6018066-2.5359039
				c-5.6663818,0.3674622-10.6980896,1.877121-15.0957642,4.5266571
				c-4.3993835,2.6508331-7.7874298,6.3398132-10.1655579,11.0635529c-2.3786469,4.7249451-3.3533325,10.397049-2.923996,17.0174713
				s2.096817,12.1363983,5.0048981,16.5500946c2.9064026,4.414978,6.7120667,7.6526642,11.4168701,9.7119141
				c4.703064,2.0593414,9.9516907,2.9023132,15.7451477,2.5266113c5.7917175-0.3755951,10.8875122-1.8894043,15.2869263-4.5390625
				c4.3977051-2.6495514,7.7696228-6.3527069,10.1146851-11.1082458c2.3433838-4.7542572,3.3019409-10.4405212,2.8725891-17.0609589
				c-0.4293518-6.6204224-2.1284485-12.1191254-5.0968628-16.4973145
				C302.178772,158.1681824,298.3263245,154.9487457,293.5905457,152.8903351z M290.3669434,193.3717499
				c-2.1698914,3.016571-5.2281189,4.6533966-9.1741333,4.9093018c-3.9477844,0.256012-7.2063599-0.9711761-9.7791748-3.6801605
				c-2.572876-2.7101746-4.0470886-6.9605255-4.42276-12.7534027c-0.371582-5.7299194,0.543335-10.1036072,2.7446289-13.1233826
				c2.2013855-3.0186005,5.2426758-4.6543427,9.1263733-4.9062042c4.0101318-0.2600555,7.2866516,0.9823456,9.8300476,3.7248535
				c2.5423584,2.7449188,3.998291,6.9484711,4.3657227,12.6142883
				C293.4333191,185.9499207,292.5355835,190.3540955,290.3669434,193.3717499z"/>
			<path fill="#FFFFFF" d="M355.0866394,196.8848724l-20.3340454,0.0000153c-0.5522766,0-1-0.4477234-1-1v-5.9847412V167.79776
				v-8.8033295c0-3.1244507-0.7031555-5.2292175-2.1053467-6.3154755c-1.4039612-1.0839081-3.7002869-1.6258698-6.8889771-1.6258698
				c-1.4039612,0-2.8558044,0.1121216-4.3537598,0.3340454c-0.9367676,0.1400757-1.7299805,0.2610168-2.3799133,0.3630981
				c-0.5885315,0.0924377-1.0167236,0.5982666-1.0167236,1.1940308l0.0000305,14.8535004v22.1023865v11.5773773
				c0,2.7436676,0.7966003,4.9138489,2.3920898,6.507019c1.5937805,1.5955048,3.7627869,2.3920898,6.5064392,2.3920898h25.8347778
				c1.784729,0,3.1886902-0.5746613,4.2095337-1.7228241c1.0196838-1.1481476,1.5312805-2.9013519,1.5312805-5.2619019
				c0-1.3397217-0.1915588-2.5836639-0.5740967-3.7318115c-0.2913208-0.8744202-0.6019592-1.6187744-0.9303284-2.2345886
				C355.8008728,197.0941467,355.4621887,196.8848724,355.0866394,196.8848724z"/>
			<path fill="#FFFFFF" d="M409.4065247,151.0421295c-1.4784851-0.9798279-3.8079224-1.3547211-6.9882812-1.1247101
				c-1.4002991,0.1012726-2.840271,0.3178406-4.3189392,0.6472778c-1.0100403,0.2265472-1.8502197,0.4178772-2.5219116,0.5744781
				c-0.4786377,0.1115723-0.8019104,0.5549774-0.766449,1.045166l2.1818237,30.167038l0.2001953,2.7679749l0.2001038,2.7668152
				c0.2163391,2.9916534-0.455719,5.4222107-2.0137939,7.2926636c-1.5602417,1.8729553-3.6755676,2.9042511-6.3480225,3.0975189
				c-2.6724548,0.1932831-4.9152832-0.5227966-6.7270813-2.151886c-1.813324-1.6266174-2.8269958-3.935257-3.043335-6.9269104
				l-0.2139282-2.9578705l-0.1863708-2.5769196l-1.7324524-23.9541931
				c-0.2253723-3.1163025-1.0779419-5.1649017-2.5548401-6.1471863c-1.4784851-0.9798279-3.8079224-1.3547211-6.9888916-1.1246643
				c-1.4002991,0.1012726-2.8396912,0.3177948-4.3183289,0.6472321c-0.9240417,0.2073059-1.7064209,0.3851624-2.3474731,0.5338745
				c-0.5803528,0.1346436-0.9709778,0.6700592-0.9279785,1.2642822l2.1688843,29.9885254l0.1863708,2.5769196l0.2346497,3.2444458
				c0.3312988,4.5806885,1.654541,8.5146179,3.9714355,11.8005371c2.3151245,3.2860413,5.4668579,5.7445221,9.4551086,7.3742828
				c3.9865723,1.6310577,8.6531372,2.2526703,13.997467,1.8661499c5.3449097-0.3865662,9.8705444-1.6729736,13.5838623-3.8609161
				c3.7098999-2.1865234,6.4744873-5.0728912,8.2950134-8.6580353c1.8182068-3.5849762,2.5627747-7.6684723,2.2314758-12.2491455
				l-0.2208252-3.0533905l-0.2001953-2.7679749l-1.7324524-23.9541931
				C411.7359924,154.0730133,410.882843,152.0244446,409.4065247,151.0421295z"/>
			<path fill="#FFFFFF" d="M467.3081055,201.4936371c-0.4285583-1.1969452-1.0557251-2.2428589-1.8807068-3.1376495
				c-0.2723389-0.2953796-0.706543-0.3699493-1.0796204-0.2208862c-1.6603088,0.6633453-3.3790894,1.2396545-5.156311,1.7280579
				c-1.99823,0.5510712-4.380249,0.6855927-7.1466064,0.4084625c-5.3312988-0.5340576-9.342041-2.5032196-12.0334473-5.9076233
				c-2.6914368-3.4044037-3.7397156-8.0755768-3.1447754-14.01474c0.3851624-3.8449707,1.3374634-7.0727997,2.8603516-9.6806488
				c1.5216675-2.6079712,3.5534973-4.5159302,6.0946045-5.7276917c2.5397644-1.2106323,5.5319519-1.6434326,8.9729004-1.2987366
				c2.6316528,0.2636261,4.9187927,0.9020691,6.8627625,1.9141846c1.7289429,0.90065,3.3103027,1.9228973,4.7460632,3.0643311
				c0.3212585,0.2554016,0.7677307,0.310257,1.1177979,0.095993c0.9917908-0.6070557,1.909668-1.4239197,2.7543335-2.4504852
				c1.0078125-1.2280884,1.5980225-2.6851959,1.7669678-4.3716888c0.2094116-2.0904999-0.3817139-4.0253601-1.7700195-5.8004608
				c-1.3908081-1.7753448-3.4902344-3.2785034-6.2951965-4.5154114c-2.8077087-1.2346649-6.2691956-2.0593872-10.3847351-2.4716492
				c-5.8032837-0.5813446-11.2440186,0.1515045-16.3209839,2.1986694
				c-5.0794373,2.0469208-9.2756958,5.3428802-12.5931702,9.8824615c-3.317627,4.540802-5.3278809,10.3194733-6.0307617,17.3360291
				c-0.7503967,7.4909973,0.1022949,13.7786102,2.5580444,18.8628235c2.4544067,5.0853119,6.046936,9.0242462,10.7766113,11.8141937
				c4.7297058,2.7899475,10.1313477,4.4903717,16.203949,5.0986938c3.1716003,0.3177185,5.8983459,0.3175659,8.178833,0.0006714
				c2.2805176-0.3168945,4.0555725-0.6831665,5.3241882-1.1014252c2.0435791-0.680069,3.535675-1.6225281,4.4746399-2.823822
				c0.9376221-1.2001648,1.4847107-2.5754852,1.6402893-4.12854
				C467.9798584,204.4922943,467.8140869,202.9082947,467.3081055,201.4936371z"/>
		</g>
	</g>
</g>
<g id="t_x5F_shirt">
	<g>
		<path fill="#FFFFFF" d="M580.6299438,211.2680969c-2.8339233-6.4144897-5.7634888-13.0066071-8.7910156-19.779541
			c-3.0289917-6.7709656-5.9697266-13.2659912-8.8202515-19.4835663
			c-2.8539429-6.2170868-5.4720459-11.6234894-7.8555298-16.2154846c-1.3743286-2.8974609-4.0029907-4.7750549-7.8909912-5.6303101
			c-3.8876953-0.8535156-8.2015991-0.9502411-12.937561-0.2854309c-3.2214966,0.4522095-6.4317017,1.3379974-9.6272583,2.6551361
			c-2.7974854,1.1542206-4.9362183,2.2539062-6.4168091,3.295578c-0.37323,0.2625732-0.6408081,0.6450653-0.7409058,1.0902863
			c-0.4713745,2.097168-1.1245728,5.1444397-1.9572144,9.1401825c-0.9244385,4.42836-1.9370117,9.4263153-3.039856,14.9906311
			c-1.1026306,5.56604-2.1891785,11.2465973-3.2586975,17.0485687c-1.0694885,5.8019867-2.0270386,11.2043762-2.8701477,16.1997681
			c-0.844574,4.9973755-1.4322205,9.0653381-1.7648926,12.2024231c-0.2225647,1.8674316-0.4299011,3.490387-0.6203003,4.8686066
			c-0.1933899,1.3821716-0.1964111,2.7340851-0.010376,4.0594635c0.4125061,2.9387207,1.9180603,5.0695038,4.5203247,6.3935699
			c2.6005554,1.3243256,6.2700195,1.6565552,11.0077515,0.9915161c2.0834351-0.2924652,3.8573608-0.7360687,5.3204956-1.3270874
			c1.0836792-0.4394379,2.0900879-0.868042,3.0193481-1.2843781c0.5820312-0.2607422,0.9871216-0.7950134,1.0614624-1.4284058
			c0.1361084-1.1599579,0.2698364-2.3488159,0.399292-3.5679474c0.1655884-1.5675507,0.3503418-3.1873322,0.5491333-4.8586121
			c0.2008057-1.6697845,0.3881836-3.4349823,0.5621338-5.2955933c0.071167-0.7593079,0.1568604-1.5319519,0.2521362-2.3134155
			c0.0983276-0.8066864,0.7335815-1.4477844,1.5383301-1.5607605l22.9835815-3.2262878
			c0.8110352-0.1138458,1.5966797,0.3344574,1.9112549,1.0906525l3.3956909,8.1625977
			c1.3059692,3.1034241,2.9669189,5.3079071,4.9870605,6.6181793c2.0183716,1.3105164,5.3496704,1.640686,9.9937134,0.9887848
			c3.1260986-0.4388123,5.7655029-1.2444916,7.9202271-2.4155121c1.671936-0.9101105,2.9854126-1.8849487,3.9400024-2.9269562
			c0.4741211-0.5175171,0.592041-1.2607727,0.3171387-1.9065552
			C585.6405029,222.7022247,583.2807007,217.2708435,580.6299438,211.2680969z M535.697998,181.274353
			c0.6035156-3.2741699,1.1452637-6.2955322,1.6262207-9.0695648l0.8517456-0.1195679
			c1.1173096,2.4523926,2.3199463,5.1599121,3.6036987,8.1178436c1.2857666,2.9594421,2.6397705,6.0773468,4.0674438,9.3547211
			c1.0408936,2.3955994,2.0944824,4.8744354,3.1589966,7.4249878c0.4536133,1.0866699-0.244751,2.3109589-1.4108887,2.4746552
			l-12.9903564,1.8235016c-1.1883545,0.1668091-2.2098389-0.8604736-2.0336914-2.0474701
			c0.3848877-2.5936279,0.7979126-5.1389313,1.244812-7.6241913
			C534.468689,187.9920959,535.0941772,184.5467987,535.697998,181.274353z"/>
	</g>
	<g>
		<g>
			<path fill="#FFFFFF" d="M168.3159332,197.1563568l-26.5180054,2.7748871
				c-0.5492859,0.0574799-1.041153-0.341217-1.0986328-0.8905029l-0.1932373-1.8466644l-0.7993011-7.6385193
				c-0.0574799-0.5492859,0.3412018-1.0411682,0.8904877-1.0986481l19.0028076-1.9884644
				c2.0388947-0.2133484,3.5794373-0.9813843,4.6195221-2.3052368c1.0387421-1.3237152,1.4190674-3.3336945,1.1369781-6.029541
				c-0.1601105-1.5299988-0.5069427-2.8921204-1.0361176-4.0895233c-0.4280548-0.9651947-0.877243-1.7841339-1.346344-2.458313
				c-0.2022705-0.2907257-0.5560913-0.436142-0.9083405-0.3992767l-23.0235748,2.4092255
				c-0.5492859,0.0574799-1.0411682-0.341217-1.0986481-0.8905029l-0.6505127-6.216568l-0.2046814-1.9560547
				c-0.0574799-0.5492706,0.341217-1.041153,0.8905029-1.0986328l22.0628052-2.30867
				c2.0382233-0.2132874,3.5768127-1,4.6136475-2.3612671c1.0349731-1.359726,1.4128265-3.3869781,1.1305847-6.0841522
				c-0.1599579-1.5286713-0.5061188-2.8908691-1.0354462-4.0895996c-0.396759-0.8934631-0.8108978-1.6616669-1.2421875-2.3051605
				c-0.2528076-0.3771667-0.6884308-0.5850067-1.1400146-0.5377502l-35.364151,3.7005615
				c-3.1333618,0.3278809-5.5151062,1.4981537-7.1447067,3.5093994c-1.6315918,2.0114594-2.2819824,4.5850677-1.9543839,7.7157593
				l0.8119507,7.7593842l3.2130356,30.705368l0.8118057,7.7580414c0.3278809,3.1333618,1.4969482,5.5165863,3.5094681,7.1453705
				c2.0107956,1.6316681,4.5830612,2.282196,7.716423,1.9543152l31.9078979-3.3388672
				c2.0388947-0.2133484,3.5786285-0.9826508,4.6193848-2.3065643c1.0387421-1.3237152,1.4185333-3.3322906,1.1364441-6.0281372
				c-0.1600952-1.5299988-0.5101776-2.9295349-1.0468903-4.1989746c-0.4344635-1.0249176-0.8875427-1.8790741-1.3580627-2.564682
				C169.0252838,197.2653046,168.6694794,197.1193542,168.3159332,197.1563568z"/>
			<path fill="#FFFFFF" d="M244.7392578,154.6204376c-1.6828918-1.083374-3.7046204-1.6709747-6.0623627-1.759201
				c-2.2416077-0.0838928-4.4299774,0.3265228-6.5666046,1.2319489c-0.6456451,0.2735901-1.1159363,0.8542175-1.2196503,1.5477448
				c-0.629303,4.2079773-1.2551117,8.3473663-1.8783569,12.4181366c-0.6770782,4.412735-1.3722534,8.9182892-2.0861816,13.5189819
				c-0.7151337,4.6018219-1.5524597,9.5018005-2.5125275,14.6987457l-0.4785614-0.0179138
				c-0.5899811-3.0213165-1.2010498-5.8856201-1.8326721-8.5905609c-0.6334381-2.7038422-1.2784119-5.505127-1.9355621-8.40271
				c-0.6577759-2.8964386-1.3993378-6.1151123-2.2240143-9.6583099c-0.3250427-1.5433502-1.3664398-2.7464752-3.120636-3.6116028
				c-1.7554321-0.8628387-3.9710236-1.3454895-6.647995-1.4456787c-1.5301971-0.057251-3.0529938,0.093811-4.5654297,0.4521484
				c-0.8867493,0.2105865-1.636261,0.4090576-2.2481842,0.5961304c-0.6740417,0.2060852-1.1805115,0.7596741-1.3436584,1.4453735
				c-0.6658173,2.7984467-1.2956543,5.3219452-1.8901978,7.5680389c-0.6691132,2.5288544-1.3164825,4.8668518-1.9379578,7.0129547
				c-0.6238708,2.147171-1.2308044,4.2949829-1.8213501,6.4422455c-0.5918121,2.1495361-1.2210846,4.488205-1.8901215,7.0147247
				l-0.4779663-0.0178833c-0.1580505-0.8988953-0.3199005-2.1334076-0.4837646-3.7046051
				c-0.1656952-1.568924-0.3869171-3.731369-0.66716-6.487442c-0.2796936-2.7548981-0.6585388-6.3118134-1.132431-10.6705933
				c-0.475647-4.3588562-1.1336975-9.8092041-1.973526-16.3522034c-0.2892151-2.5004425-1.1958923-4.3051605-2.7176666-5.4152222
				c-1.5235291-1.1101379-3.4950714-1.7110596-5.9170074-1.8016968c-1.8494263-0.0692139-3.5836182,0.2177124-5.2024689,0.858429
				c-1.1472168,0.4551392-2.1195526,0.9478607-2.9170074,1.4785767c-0.5684509,0.3783112-0.8769836,1.0366364-0.8292694,1.717804
				c0.2053375,2.9319305,0.5268402,6.1721649,0.9649353,9.7215118c0.4881744,3.9771118,1.0545502,8.0354614,1.6984863,12.1761932
				c0.6421509,4.1418304,1.3386688,8.1267395,2.0902863,11.9512329c0.7497864,3.8267822,1.4853668,7.2053528,2.2055359,10.1368561
				c0.7195435,2.9326477,1.3726196,5.1112518,1.9580841,6.5357513c0.6478119,1.429184,2.1362152,2.6034546,4.4641571,3.5192871
				c2.326767,0.9157715,4.8924713,1.4279022,7.6984253,1.5328979c2.2947083,0.0858765,4.4099426-0.138855,6.3450775-0.6730652
				c1.5632019-0.4307556,2.8174133-0.9463348,3.7620544-1.547348c0.3887482-0.247345,0.6747131-0.6119995,0.812439-1.051712
				c0.5267334-1.6816101,1.0997009-3.5782471,1.7200317-5.6873474c0.6940613-2.3677979,1.4109497-4.8925476,2.1502533-7.5789032
				c0.0185699-0.0675812,0.0371399-0.1351776,0.0556641-0.202774c0.5419922-1.9764099,3.3551788-1.9189911,3.8070068,0.0799561
				c0.0057526,0.0254517,0.0115051,0.0508881,0.0172577,0.0763245c0.5751343,2.543869,1.1417389,4.8781891,1.7008972,7.0053558
				c0.5574188,2.1271057,1.0595093,4.0615997,1.5063477,5.8011932c0.3927917,1.419632,1.6267395,2.5843811,3.6990662,3.4906464
				c2.0729065,0.9062805,4.5744171,1.4159851,7.5075836,1.5257568c2.2947235,0.0858765,4.5365906-0.1341248,6.7273407-0.6587677
				c1.9222107-0.4597473,3.3818665-1.0233154,4.3777618-1.6915283c0.2638092-0.177002,0.4607697-0.4262238,0.5961609-0.7136078
				c0.6325378-1.3426208,1.3226929-3.1508026,2.0690002-5.4219666c0.8278198-2.521759,1.6530304-5.3954163,2.4773712-8.6209412
				c0.8219604-3.2244415,1.6165771-6.5457611,2.3832703-9.9639587c0.7655182-3.4182434,1.449295-6.744873,2.0494995-9.9776154
				c0.5996094-3.2327576,1.0904236-6.1189423,1.4729919-8.6585388c0.381897-2.537262,0.5994568-4.5091248,0.6519623-5.9121094
				C247.2185059,157.4588165,246.4221191,155.7049866,244.7392578,154.6204376z"/>
			<path fill="#FFFFFF" d="M293.5905457,152.8903351c-4.7357178-2.0572357-9.9371338-2.9032593-15.6018066-2.5359039
				c-5.6663818,0.3674622-10.6980896,1.877121-15.0957642,4.5266571
				c-4.3993835,2.6508331-7.7874298,6.3398132-10.1655579,11.0635529c-2.3786469,4.7249451-3.3533325,10.397049-2.923996,17.0174713
				s2.096817,12.1363983,5.0048981,16.5500946c2.9064026,4.414978,6.7120667,7.6526642,11.4168701,9.7119141
				c4.703064,2.0593414,9.9516907,2.9023132,15.7451477,2.5266113c5.7917175-0.3755951,10.8875122-1.8894043,15.2869263-4.5390625
				c4.3977051-2.6495514,7.7696228-6.3527069,10.1146851-11.1082458c2.3433838-4.7542572,3.3019409-10.4405212,2.8725891-17.0609589
				c-0.4293518-6.6204224-2.1284485-12.1191254-5.0968628-16.4973145
				C302.178772,158.1681824,298.3263245,154.9487457,293.5905457,152.8903351z M290.3669434,193.3717499
				c-2.1698914,3.016571-5.2281189,4.6533966-9.1741333,4.9093018c-3.9477844,0.256012-7.2063599-0.9711761-9.7791748-3.6801605
				c-2.572876-2.7101746-4.0470886-6.9605255-4.42276-12.7534027c-0.371582-5.7299194,0.543335-10.1036072,2.7446289-13.1233826
				c2.2013855-3.0186005,5.2426758-4.6543427,9.1263733-4.9062042c4.0101318-0.2600555,7.2866516,0.9823456,9.8300476,3.7248535
				c2.5423584,2.7449188,3.998291,6.9484711,4.3657227,12.6142883
				C293.4333191,185.9499207,292.5355835,190.3540955,290.3669434,193.3717499z"/>
			<path fill="#FFFFFF" d="M355.0866394,196.8848724l-20.3340454,0.0000153c-0.5522766,0-1-0.4477234-1-1v-5.9847412V167.79776
				v-8.8033295c0-3.1244507-0.7031555-5.2292175-2.1053467-6.3154755c-1.4039612-1.0839081-3.7002869-1.6258698-6.8889771-1.6258698
				c-1.4039612,0-2.8558044,0.1121216-4.3537598,0.3340454c-0.9367676,0.1400757-1.7299805,0.2610168-2.3799133,0.3630981
				c-0.5885315,0.0924377-1.0167236,0.5982666-1.0167236,1.1940308l0.0000305,14.8535004v22.1023865v11.5773773
				c0,2.7436676,0.7966003,4.9138489,2.3920898,6.507019c1.5937805,1.5955048,3.7627869,2.3920898,6.5064392,2.3920898h25.8347778
				c1.784729,0,3.1886902-0.5746613,4.2095337-1.7228241c1.0196838-1.1481476,1.5312805-2.9013519,1.5312805-5.2619019
				c0-1.3397217-0.1915588-2.5836639-0.5740967-3.7318115c-0.2913208-0.8744202-0.6019592-1.6187744-0.9303284-2.2345886
				C355.8008728,197.0941467,355.4621887,196.8848724,355.0866394,196.8848724z"/>
			<path fill="#FFFFFF" d="M409.4065247,151.0421295c-1.4784851-0.9798279-3.8079224-1.3547211-6.9882812-1.1247101
				c-1.4002991,0.1012726-2.840271,0.3178406-4.3189392,0.6472778c-1.0100403,0.2265472-1.8502197,0.4178772-2.5219116,0.5744781
				c-0.4786377,0.1115723-0.8019104,0.5549774-0.766449,1.045166l2.1818237,30.167038l0.2001953,2.7679749l0.2001038,2.7668152
				c0.2163391,2.9916534-0.455719,5.4222107-2.0137939,7.2926636c-1.5602417,1.8729553-3.6755676,2.9042511-6.3480225,3.0975189
				c-2.6724548,0.1932831-4.9152832-0.5227966-6.7270813-2.151886c-1.813324-1.6266174-2.8269958-3.935257-3.043335-6.9269104
				l-0.2139282-2.9578705l-0.1863708-2.5769196l-1.7324524-23.9541931
				c-0.2253723-3.1163025-1.0779419-5.1649017-2.5548401-6.1471863c-1.4784851-0.9798279-3.8079224-1.3547211-6.9888916-1.1246643
				c-1.4002991,0.1012726-2.8396912,0.3177948-4.3183289,0.6472321c-0.9240417,0.2073059-1.7064209,0.3851624-2.3474731,0.5338745
				c-0.5803528,0.1346436-0.9709778,0.6700592-0.9279785,1.2642822l2.1688843,29.9885254l0.1863708,2.5769196l0.2346497,3.2444458
				c0.3312988,4.5806885,1.654541,8.5146179,3.9714355,11.8005371c2.3151245,3.2860413,5.4668579,5.7445221,9.4551086,7.3742828
				c3.9865723,1.6310577,8.6531372,2.2526703,13.997467,1.8661499c5.3449097-0.3865662,9.8705444-1.6729736,13.5838623-3.8609161
				c3.7098999-2.1865234,6.4744873-5.0728912,8.2950134-8.6580353c1.8182068-3.5849762,2.5627747-7.6684723,2.2314758-12.2491455
				l-0.2208252-3.0533905l-0.2001953-2.7679749l-1.7324524-23.9541931
				C411.7359924,154.0730133,410.882843,152.0244446,409.4065247,151.0421295z"/>
			<path fill="#FFFFFF" d="M467.3081055,201.4936371c-0.4285583-1.1969452-1.0557251-2.2428589-1.8807068-3.1376495
				c-0.2723389-0.2953796-0.706543-0.3699493-1.0796204-0.2208862c-1.6603088,0.6633453-3.3790894,1.2396545-5.156311,1.7280579
				c-1.99823,0.5510712-4.380249,0.6855927-7.1466064,0.4084625c-5.3312988-0.5340576-9.342041-2.5032196-12.0334473-5.9076233
				c-2.6914368-3.4044037-3.7397156-8.0755768-3.1447754-14.01474c0.3851624-3.8449707,1.3374634-7.0727997,2.8603516-9.6806488
				c1.5216675-2.6079712,3.5534973-4.5159302,6.0946045-5.7276917c2.5397644-1.2106323,5.5319519-1.6434326,8.9729004-1.2987366
				c2.6316528,0.2636261,4.9187927,0.9020691,6.8627625,1.9141846c1.7289429,0.90065,3.3103027,1.9228973,4.7460632,3.0643311
				c0.3212585,0.2554016,0.7677307,0.310257,1.1177979,0.095993c0.9917908-0.6070557,1.909668-1.4239197,2.7543335-2.4504852
				c1.0078125-1.2280884,1.5980225-2.6851959,1.7669678-4.3716888c0.2094116-2.0904999-0.3817139-4.0253601-1.7700195-5.8004608
				c-1.3908081-1.7753448-3.4902344-3.2785034-6.2951965-4.5154114c-2.8077087-1.2346649-6.2691956-2.0593872-10.3847351-2.4716492
				c-5.8032837-0.5813446-11.2440186,0.1515045-16.3209839,2.1986694
				c-5.0794373,2.0469208-9.2756958,5.3428802-12.5931702,9.8824615c-3.317627,4.540802-5.3278809,10.3194733-6.0307617,17.3360291
				c-0.7503967,7.4909973,0.1022949,13.7786102,2.5580444,18.8628235c2.4544067,5.0853119,6.046936,9.0242462,10.7766113,11.8141937
				c4.7297058,2.7899475,10.1313477,4.4903717,16.203949,5.0986938c3.1716003,0.3177185,5.8983459,0.3175659,8.178833,0.0006714
				c2.2805176-0.3168945,4.0555725-0.6831665,5.3241882-1.1014252c2.0435791-0.680069,3.535675-1.6225281,4.4746399-2.823822
				c0.9376221-1.2001648,1.4847107-2.5754852,1.6402893-4.12854
				C467.9798584,204.4922943,467.8140869,202.9082947,467.3081055,201.4936371z"/>
		</g>
	</g>
</g>
<g id="shadow_00000049943912020499990380000012798700324095648676_">
</g>
<g id="outline_x5F_ciuchy">
</g>
</svg>
