<?xml version="1.0" encoding="UTF-8"?>
<svg id="Warstwa_1" xmlns="http://www.w3.org/2000/svg" version="1.1" viewBox="0 0 1135.7 1467.1">
  <!-- Generator: Adobe Illustrator 29.1.0, SVG Export Plug-In . SVG Version: 2.1.0 Build 142)  -->
  <defs>
    <style>
      .st0 {
        fill: #7ccaf4;
      }

      .st1 {
        fill: #1a1106;
      }

      .st2 {
        fill: #a8652a;
      }

      .st3 {
        fill: #2b2620;
      }

      .st4 {
        fill: #3a322c;
      }

      .st5 {
        fill: #edd6c0;
      }

      .st6 {
        fill: #2d1c07;
      }

      .st7 {
        fill: #faebdd;
      }

      .st8 {
        fill: #f1e0d2;
      }

      .st9 {
        fill: #faeee1;
      }

      .st10 {
        fill: #352e28;
      }

      .st11 {
        fill: #f9f0ec;
      }

      .st12 {
        fill: #eebf8c;
      }

      .st13 {
        fill: #af91ed;
      }

      .st14 {
        fill: #dc9752;
      }

      .st15 {
        fill: #d59f68;
      }
    </style>
  </defs>
  <path class="st6" d="M770.7,277.5c-.2,1.2-1.9,2.7-2,4-.2,2.7,6.5,6.4,8.6,8.5,6.9,7.1,15.6,16.5,21.1,24.6,1,1.5,2.7,6.1,2.9,6.3,1.2.9,5.1-.9,7-1s3.9,1.1,5.3.9,9.2-6.6,12.7-7.9c13.1-4.9,26.7-3.2,38.1,3.8-1.6.8-2,5.2-2.2,5.4-.8.7-11.3-2.8-13.6-3.1-6.8-.7-17.8.9-23.6,4.5s4.5,6.8,6.3,10.7-2.3,7.4-1.1,9.7,7.1,5.6,9.3,8.2c3.7,4.4,8.2,12.4,6.3,18.3s-3.8,2.6-4.1,3c-.9,1.3,4.8,8.7,5.9,10.8,9.6,17.9,16.6,37.1,22.3,56.6s1.8,3.9,2.2,5.4c.8,3.1,1.4,7.5,2.2,10.9,1.5,6.7,3.3,13.6,4.1,20.4s-.3,13.5.3,15.8,2.1.7,2.2,1.4c.3,1.9-1.1,5.3-1.1,8s1,3.6,1.1,4.4c.7,7.3,1,13.3,1.1,20.7s0,6.5,0,8.7c-.1,7.3-.5,13.5-1.1,20.7s-1,2-1.1,4.4,1.3,6.5,1.1,8-2,.6-2.2,1.4c-.7,3.1-.5,14.6-1.4,20.1-13,79.8-63.5,139.5-141.1,163-3.5,1.1-7.1,1.9-10.7,3s-4.1-.8-3.5,2.5c-4.7-1.5-4.6.5-7.6,1.1-16.5,3-33.3,5.2-49.5,8.7-6.9,21-13.9,42.9-10.3,65.3,1.7.3,2.5-.2,3.8-1,4.9-3.1,10.5-8.4,15.7-12,22.6-15.3,47-28.1,72.9-37,2.1-.7,4.4-1.5,6.5-2.2,3.6-1.1,10-3.8,12-4.4,47.1-12.3,166.4-10.8,166.5,59.3,0,6.1-5.5,17.8-1.6,22.3s17.3,2.5,22.7,3.4c52.9,9.1,53.2,73.2,37.1,113-27,66.7-97.2,108.3-163.7,126.2-7.9,2.1-4.5,5.6-5.4,6.5-2,2-4.7-3-5.4-3.3-3.5-1.1-5.8,2-6.5,2.2-10.4,1.8-26.4,3.7-37,4.4-2.8.2-7.5,0-10.9,0-17.4.2-33.9-1.3-51.1-3.3.5,9,3.2,17.9,4.2,26.8s4,21.4-5.4,28.1c-5.6,4-20.6,8.3-27.7,10.4-25.1,7.6-50.7,11.6-76.7,14.1-4,.4-7.9.8-12,1.1-24.9,1.6-50.1,1.6-75.1,0s-7.4-.8-10.9-1.1c-47-4.1-99.6-14.4-142.5-33.7s-4.5-2.3-6.5-3.3-7.4-4.6-10.9-6.5c-12.9-7-35.6-18.1-37-34.2s2.9-34.9,4.5-47.8c4.2-32.6,10.5-65.3,18-97.3,2.7-11.7,8-39.1,13.4-48.1.7-1.1,1-3.1,1.2-3.2,1.3-1.1,7.9,2.2,8.6,4.2-14.6,53.4-33,130.8-34.8,185.5-.4,11.9,2.1,10.6,9.8,16.9,44,36,124.8,52.3,180.6,56.6-.6,3.4,1.7,2,3.8,2.2,10.8.9,22.7,2.4,33.2,0,5.4,0,10.9.1,16.3,0,6.2,1.8,14.7,1.3,21.3,1.1s4.4,1.1,3.8-2.2c.4,0,.7,0,1.1,0,2.3,1.6,12.2,2.5,10.9-1.1,28.7-2.8,58.6-6.9,86-16.3,3.5-1.2,15.5-4.8,16.9-7.6,3.3-6.9-5.6-37.7-5.1-47.2-.8-2.4-7.1-2.7-9.6-2.9-.7-.3-1.3-.7-2.2-1.1-37.8-16.6-63-28-83.8-66.4-2.1-3.9-4.9-9-6.5-13.1s-3.2-11.8-5.4-17.4-.6-1.4-1.1-2.2c-.1-1.4.2-3,0-4.4l1.1-9.8c1.7,1.3,6.3-.3,6.5,0,.4.5,1.8,8.7,3.3,12s1.5,2.9,2.2,4.4c2.3,16.9,12.7,34.6,24,47.3,94.1,106,355.8,22.9,361.2-119.1,1-27.7-7.8-55.2-38.9-59.5-9.7-1.3-23.3.7-29.5-9.7-5.1-8.6-.9-14.6-.2-22.7,3.9-42.2-50.4-55.9-82.7-58.2.6-3.3-1.7-2.1-3.8-2.2-6-.2-12.6-.2-18.6,0-2.1,0-4.4-1.1-3.8,2.2-96,5.2-197,72.4-213.2,171.9l-2.2,6.5c.9-4.7-3.6-6-4.3-10.4-1.3-7.9,4.1-14,2.1-21.2.5-1.9.5-4.7,1.1-6.5,6.3-19.9,22.3-48.4,35.9-64.2s5.3-5.1,7.6-7.6,7.3-5.2,7.6-8.2c-.6-5.1-1.9-11.3-2.2-16.3-.6-12.2,2.5-32,5.4-44.1s.9.2,1.1-.6c1.1-4.5,3.1-8.8,3.3-13.6-7,2.5-20.9-.7-26.5,1.3s-7,15.8-8.3,19.4-.8,1.3-1.1,2.2c-2.7,7.7-4.2,15.3-6.5,22.8s-2,4.2-2.2,4.4-.9,1-1.1,1.1c-.3.1-.7-.1-1.1,0-2.8.9-5.9.7-8.7,1.1-1.7-1.8-5.9-1.3-8.2-1.1-15.3,1.1-32.3,2.2-47.3,2.2-37.3.1-78.1-9.9-113.2-21.8-7.4-4.9,2.5-20.2,2.2-27.2,1.7-3.5,12.8-27,11.9-28.2-3.3-.2-15.2-6.1-17.4-5s-9.8,15-11.5,18-1.1,4.6-1.6,5.5c-23,43.8-41.8,96.7-55.5,144.7-1.1,1.7-1.1,2.6-3.5,2-6.9-1.7-5.2-6.6-4.1-11.8,5.7-25.4,19.7-63.5,29.4-88.1,4.9-12.5,11.6-28.2,17.4-40.3,2.4-4.9,18.7-31.8,18.5-33.7s-5.4-3.5-7.6-3.3l-.6-1.1c-2-.4-1.7.3-1.6,2.2-1,.3-2.3.7-3.3,1.1-3.9-3-4-12.7.7-14s4.6,2.2,5.8-.1c55.6,27.5,156.6,41.5,218.2,39.2,124-4.6,220.7-48.9,240.8-181.4,10.3-68.4-3.3-160.5-45.5-216.9,2.3-3,10.3,3.9,12,2.2-2-9.2-13-19.3-21.8-22.8l-2.2-4.3h9.8c.7-3.1-.8-3.1-2.2-4.4-6.9-6.6-18.6-7.2-23.9-11.5-10.6-8.5-22-23.6-33.8-33.1,1.1-3.5,2.4-18.1,5.6-19.4s5.8,5.6,5.3,8.5ZM605.3,793.2c.9-2.6,9.6-21,8.7-21.8-38.4.2-76.9-3.6-114.4-11.2-15.5-3.1-30.7-7.4-46-11.5-2.1.5-15.2,35.4-15.8,39.7-1,7.1,2.6,5.1,7.5,6.9,20.2,7.6,44.4,11.5,66,14,29.3,3.4,59.2,4.8,88.6,1.8,1.9-1.3,4.4-15.3,5.4-18Z"/>
  <path class="st6" d="M471.5,228.5c5.7-1.8,10.4-1.7,12,4.9-.3,1.5-14.1,4.8-15.2,6s1.1,1,1.1,1.1c-.2,1.3-21.3,10-24.7,11.8-5,2.6-28.5,18.7-30.3,18.7h-17.4c-.9,0-4.2,2.6-6,2.2-.6,2,.8,1.8,1.1,2.2,1,1.4,6.4,5.1,7.6,5.4-.2.4-1,.8-1.1,1.1-4.5.6-9.1,1.9-13.3,3.5s-18.8,8-15,11.7c2.5,0,5.1-.1,7.6,0s2.7-.3,3.3,1.1c-25.2,18.6-41.4,45.1-59.8,69.6-1.3,1.8-6,9-6.5,9.3-1.4.8-4.2.4-4.4.5-.6.5,1,3.8,1,4.9,0,2-2.8,4-1,4.8-44.9,87.9-62.4,189.4,6.5,269.8,7.3,8.6,10.9,12.3,19.6,19.6s1.3,1.4,2.2,2.2c1.7,1.4,2.3,3.6,4.4,3.3,3.6,4.3,5.3,4.8,9.8,7.6,5.8,6.4,14.3,10.1,21.8,14.1s1.5.7,2.2,1.1c3.8,2.6,8,5.4,12,7.6l4.3,4.3c-3,1-8.5,1.2-8.7,5.5-120.7-61.6-150-170.4-104.2-295.1,2.3-6.4,21.4-51.9,24.7-52s.5,1,1.1,1.1c1.4-4.2,3.4-10.4,5.5-14.2s2.4-4,3.3-5.4c4.9-7.8,14.6-20.1,20.7-27.7,4-5,22-22.4,23.4-25.6s-.8-4.9-.4-7.8c.7-4.6,7.2-9.6,11-11.9,2.5-1.5,10.2-3.7,10.5-4.2s-1.5-5.8-1.1-8.1c.9-5.8,12.5-7.9,17.4-8.2-5.1-15.7-23.2-22.2-38.6-20.7-6.5.7-12,5.7-18,3.3,0,0-.2-1.5.8-2.2,25.3-18.8,56.4-8.5,68.4,19.6,11.6-8.5,23.6-16.3,36.4-22.9,7.7-3.9,18-9.5,26.1-12Z"/>
  <path class="st6" d="M214.7,524.5c1.6-1.1-.4-3.7,0-4.3s5.6-1.6,6.4-1,3.1,11.1,3.7,13.2.2,3.5,2.9,3c1.9,11.8,1.5,20.9-1.9,32.4s-4.9,10-4.5,11.4,2.6,2.6,3.4,4.3c1.8,3.8.7,6.7,1.5,9.4,2.2,7.3,9.3,22,12.7,29.8,7.4,16.8,14.7,34.4,21.5,51.9s3.3,7.2,4.4,9.8,1.5,3.8,2.2,5.4c1.7,4.5,3.3,11.4,5.1,16.1s7,23.2,10.2,27.8,7.1-.4,10.8.7c1.6,1.4-6.1,7.6-7.7,8.2,9,26.4,19.5,52.4,27.5,79,2.7,9.1,6.9,19.8,7.3,29.1.3,5.7.7,8.4-2.7,13.1-3.5,4.8-9.8,7.9-15.8,6.5-9.7-2.3-23.7-34.1-28.3-43.5s-10.7-22.3-15.2-33.7c1.7-1.9,1-8.8,7.6-5.4,5.8,15.3,22.8,54.2,32.2,66.3,8.4,10.9,13.8,8.3,12.2-5.6-1.9-16.2-12.6-42.8-18.2-59-10.4-30.4-21.5-61.1-32.9-91.1-6.9-18.1-15.1-35.8-21.6-54-1.4-1.2-22.6,7.4-23.4,8.6-2,3.3,2,12,2.7,16.3s-.9.7-.8,1.4c.7,5.4,4.4,8.5-2,12.7-3.5.8-2.9-8.5-3.8-10.9-.6,0-1,1.1-1.1,1.1-3.2,0-5.8-16.7-7.1-19.5-7-14.6-9.5-28.5-15.7-43.1-1.2-2.8-4.2-5-5-8.1s-.3-8.3-.6-8.6-5.4-1.3-7.2-2.1c-12.5-5.5-19.6-12.8-26.5-24.1.2-4,4.7-4.6,6.5-7.6.8,1.4,1.5,2.2,2.2,3.3,4.1,6.5,5.5,7.4,10.9,12s.7.8,1.1,1.1.7.8,1.1,1.1c6.1,4.3,11.4,7.6,19.1,8.6,5.5-4.1,18.4-6,22.8-9.6s10.5-31.7,5.9-39.2c0-4-.7-9.5-2.2-13.1ZM208.2,586.5c-3.9,1-12.1,4.2-15.2,6.5s-3,3.6-2,6.9,1.8,1.5,2,1.8c.8,1.2,3.1,3.8,3.3,4.4,3.7,9.5,4.1,18.1,9.8,28.3s.1,2.9,2.2,3.3c-4.4,4.9-.5,11.2,5.7,7.6s.7-2.1.8-2.1c1.3-.7,8.6-2.9,12-4.4s7.4,0,7.7-3.8-4.3-7.6-5.5-10.3c-3.7-8.6-8.7-19.1-12-27.2s-.9-2.4-1.1-3.3c-1.4-5.7,2.1-10.1-7.6-7.6Z"/>
  <path class="st1" d="M826.2,1102.2c-.2,24.9-24.8,43.9-49,42.4,1.9,8.1,3.1,16.4,4.2,24.6,1.6,12.6,2.2,37.9,5.9,48.5s7.3,9.6,10,14c5.7,9.6,9.7,21.2,9.3,32.6-1.1,31.8-32.7,41.4-58.8,46.8-8.3-1.2-17.7,1.2-25.6,1.2s-10.2-.8-14.7-1.2c-44-3.5-68.5-13-86-54.4-.6-1.4-.5-4.8-1.7-7.6-8.7-20.2-19.8-39.4-27.7-59.9,4.1-.3,7.9-.7,12-1.1,2.8,9.2,8,17.5,12,26.1s10.4,21.4,14.7,31.6c9.8,23.4,7.6,32.3,34.3,43.5,15.7,6.6,36.7,10.7,53.9,11,5.8,0,6.7-1.3,8.2-6.6,3.1-.9,1.7,2.6,3.2,3.8s2.5.3,3.3.5c7.9,2.4,17-.4,25-2.2.5-1.8-2.1-.5-2.3-1.7s.9-4.7,1.9-4.9c1.5,0,2.9.4,4.2,1.3s1.4,4,3.3,3.1c4.5-2,4.8-18.5,3.8-22.8,2.1,0,4.3-.3,5.4-2.2,2.7,5.3,4.4,7,7,10.9s.4,3.5,1.7,4.9c2.5,2.6,2.1-1.5,2.2-1.7,12.1-12.3,10.9-26.2,3.7-41.2-3.1-6.5-12.9-16.6-14.1-21.8-3.6-15.6-3.7-38.2-6.1-54.9-1.1-7.8-3-15.8-4.2-23.5s-2.9-19.6-4.4-29.4c3.3,0,8.1.2,10.9,0-.2,3.8,1.5,7.3,2.2,10.9s.9,6.7,1.1,9.8c19,2.5,36.1-8.3,40.2-27.2.7.2,3.5,5.3,5.4,3.3s-2.5-4.4,5.4-6.5ZM780.5,1286.1c-1.2-1.2-3.4,1-2.2,2.2s3.4-1,2.2-2.2Z"/>
  <path class="st1" d="M265.9,787.7c-6.7-3.3-5.9,3.6-7.6,5.4s-12.9,9.4-14.1,9.8c-3.2,1.1-9.3,2.5-8.7-2.7.3-3.4,7-5.5,9.7-7.8,9.8-7.8,14.5-21.5,4.4-30.9-4.9-4.6-6.2-3.2-12-6,1.1-6.7,12.5-2.2,13-2.7.9-.8,1.3-10.6,1.1-12.5-.9-8.8-6.6-15-14.6-18-2.6-1-9.7-.8-4.9-4.8s8.3-1.4,8.7-1.7c.9-.9-.5-8.4-1-10.4-1.2-4.1-3.7-7.4-6.6-10.3-14.5-14.8-38.2-3.7-47.7,11.6-17.8,28.7-10.8,66.3,4.2,93.9,6.6,12.3,10.8,18.1,21.7,27.8,6.9,6,6.5,4.1,12,12,26.3,37.7,74.6,58.2,119.7,58.2h6.5c-1.2,5.2-2.8,10.1,4.1,11.8s2.5-.3,3.5-2c-.7,2.6-1.3,6.5-2.2,9.8-.7-2.1-7.3-5.4-8.6-4.2s-.5,2-1.2,3.2v-6.5c-50.5,1.2-92.8-21.1-126.2-57.1-3.7-4-6.6-10-10.3-13.6-5.3-5.2-11.9-8.9-17.4-15.2-33.1-37.8-43.7-120.5,10-144.5,4-1.8,9.1,0,7.9-6.8,0,0,.5-1,1.1-1.1.9,2.4.3,11.6,3.8,10.9,6.4-4.2,2.7-7.3,2-12.7s.8-1.3.8-1.4c3.3,10.9,4.7,8,12.7,11.8s19.4,13.7,20.9,25.9c.5,4.2-.8,10.2.3,13.8s5.6,6.1,7.2,9.1c3.5,6.6,4.1,14.1,3.4,21.5-.2,2-2,3.7-2.1,5.5s4.5,9.4,5.1,13.3c1.2,7.5-1.7,9.5,1.4,17.7Z"/>
  <path class="st1" d="M305,375.4c.6-3-.2-2.6-2-4-20.6-15.4-31.7-24-40.5-49.9-32.1-94.4,67.2-196,162.1-158.8,21.5,8.4,51.3,33.5,56.1,57.1.3,1.6-.8,4.2-.6,4.3,1.2,1.1,14.4-4.1,17.4-3.3-.3.1-1.1,1.1-2.1,1.6-5.4,2.4-9-.6-4.8,8.2,14.5-2.6,28.8-6.9,43.4-8.8,39.4-5,85.3-1.1,123.2,10.6,3.2,1,8,1.8,10,4.6-10.1-1.3-21.2-6-31.5-8.2-55.7-12-113.2-8.5-166.5,11.5,0,0-1.7-.4-1.1-1.1,1.2-1.3,14.9-4.5,15.2-6-1.6-6.6-6.3-6.6-12-4.9-.8-3.6-2.9-6.7-4.4-9.8-9.3-20.4-27.1-40.4-50-44.6-21.3-10.6-50.3-7.8-72.1.3-57.8,21.3-93.7,93-68.3,151,6.9,15.6,19.1,30,34.8,37-2.1,3.7-4.1,10-5.5,14.2-.5-.1-.9-1.1-1.1-1.1Z"/>
  <path class="st1" d="M357.2,1151.1c.3,5.4.7,10.9,1.1,16.3,1.1,15.8,2.4,31.5,2.2,47.3-.5,2.8-6.4,5.4-8.7,7.6-14.6,13.6-26.8,32.4-14.1,51.7,1.9-.1,1.2-5.2,1.1-6.5,1.5-.3,4.6.9,5.5-.7,1.5-2.8,1.9-7.7,4.5-11.6,4-5.9,14.8-12.8,8.5-.7-2.8,5.4-6.1,8.8-6.5,15.8s1.3,12.8,3.7,14.7,26.5,6.6,27.8,5.4c-1.7-4.9-.6-7.6,0-12l6.5-2.2c-.4,3.1.8,3.8,1.1,5.4.6,3.6-.6,7.7,4.3,9.3s19.6.8,24.6.5c13.4-.8,39.4-5.2,50.5-12,28-9.5,28.4-39.8,32.6-64.2,1.5-8.9,4.8-17.9,4.4-27.2,3.5.3,7.8.9,10.9,1.1.8,1.9.7,3.3.4,5.2-2.2,17.1-6.2,46.5-11.3,62.2-6.3,19.3-22.7,31.3-41.1,37.8-33.2,11.8-137.2,20.4-143.9-29.1-3-22.2,11-42.9,28.1-55.1.5-21.9-3.2-43.7-3.1-65.6,3.5,1.9,8,5.2,10.9,6.5ZM342.6,1277.3v1.1c.7-.4.7-.7,0-1.1Z"/>
  <path class="st1" d="M874,457c-.8-3.4-1.3-7.7-2.2-10.9,1.9.5,3.6-1.9,4.4-2.2s1.6.2,2.2,0c97.2-30.6,76.7-183.9-21.8-196.9-32.1-4.2-56.3,3.1-79.4,25-1.8,1.7-4.9,2.9-6.5,5.4.5-2.9-2.1-9.8-5.3-8.5s-4.5,15.9-5.6,19.4c-2.5-2-6-4.5-8.7-6.5.7-3.1,4.7-1.5,6.6-2.7s1.3-3.7,2.1-4.9c30.1-43,92-51.4,136.3-25.9,82.6,47.5,76.4,186.7-22.1,208.7Z"/>
  <path class="st6" d="M759.8,274.2c-.9,1.3-.9,4.1-2.1,4.9-1.8,1.2-5.8-.4-6.6,2.7-.6-.5-1.6-.6-2.2-1.1-3.2-2.3-6.6-4.3-9.8-6.5s-4.6-3.6-7.6-5.4c-13.7-8.6-31.8-15.7-43.5-23.9-2.1-1.5-1.9.1-2.2,0-1.5-.6-3.1-1.7-4.4-2.2-1.6-2.9-5.9-4-9.1-4.2l-.7.9c-.5-.1-2.3-.4-2.2-1.1s1.3.2,1.1-1.1c-.7,0-1.5,0-2.2,0s-.7,0-1.1,0c-2-2.8-6.8-3.7-10-4.6-38-11.7-83.8-15.6-123.2-10.6-14.7,1.9-28.9,6.1-43.4,8.8-4.2-8.9-.5-5.8,4.8-8.2s1.8-1.5,2.1-1.6c.5-.2,1.1-.7,2.2-1.1,5.3,4.1,4.4,1.5,7.6-1.1s.8-1.7,2-2.1c5.3-1.9,20.7-3.6,27-4.3,43.7-4.9,88.6-.3,130.4,12.9,33.8,10.7,64.9,27.6,93,49Z"/>
  <path class="st1" d="M260.4,674.6c32.2-9.1,54.6,15.9,62.8,44.4.9,3.1,2.3,14.6,2.7,15.3.5,1,16.4,9.2,17.9,13.1,17.9-3.3,33.4-13.3,50.4-19.4l-9.8-5.4c.2-4.2,5.7-4.5,8.7-5.5l-4.3-4.3c2.1,1.1,4,2.3,6.5,2.2.7.4,1.5.7,2.2,1.1,3.1,1.8,6.2,3.7,9.8,4.4.4.2.7.9,1.1,1.1-1.2,2.3-4.1-.4-5.8.1-4.7,1.3-4.6,11-.7,14-5.5,2.1-12.1,6.5-17.4,8.7-10.3,4.4-20.8,8.6-31.5,12,.6,2.7,1.6,5.4,4.4,5.4l1.1,9.8c-2.9-.3-4.6-2.2-7.6-3.3-7.2-9-16.6-15.8-25.6-22.8-.8,1.2-2,5.5-1.6,6.5-4.8,2.3-4.6.2-6.5-4.4.1-13.3-3.1-25.1-8.7-37-8.7-18.3-21.8-30.3-43.5-26.1-1-2.6-3-6.3-4.4-9.8Z"/>
  <path class="st14" d="M933.5,645.3c5.4-1.4,6.1,10.6,7.4,14,2.9,7.5,5.4,9.3,12.5,12.5s15.1,3,7.6,8.7c-7.9,6-14.3,1-19.6,15.2-1,2.8-3.6,20.6-9.7,11.9-4.2-6.1-1-16.8-11.3-22.4-3.1-1.7-19.1-4-12.8-10.1s12.3-3.3,16.4-7.6c4.6-5,6-21.4,9.4-22.2Z"/>
  <path class="st14" d="M282,982.6c4.5,7-12.6,8-16.7,14.1-2.1,3.1-5.2,24.8-11.4,15.6-3.8-5.6-.5-15-10.2-20.3-3-1.6-16.6-3.3-10.6-9.1s13.6.3,18.6-14.1,2.5-17.2,8.1-10.4,2.5,14,7.6,18.5c2.9,2.6,14.2,4.9,14.6,5.5Z"/>
  <path class="st4" d="M171.2,443.9c-.1,3.3,5.2,4.9,4.4,8.1-1.3,4.9-7.1-2.5-9.8-1.6-1.1-1-7.8-6.3-8.7-5.4,5,9.2,2.5,19.5,3.3,29.4-2.6,4.8-2.6,12.6-4.4,17.4s-2.9,3.6-3.3,4.4c-3,6-3.3,14.3-10.9,13-1.6-1.5,6.1-13.5,3.3-16.3.3-1,1-1.7,1.1-2.2l1.1-.5-1.1-.6c.3-1.1,1-1.9,1.1-2.2l1.1-.5-1.1-.6c3.2-11.7,4.9-20.6,2.8-32.7-.9-5-5.3-13.2-2.2-17.3,5.1-6.7,20,1.9,23.3,7.6Z"/>
  <path class="st14" d="M967.5,592.1c3.9,6.1-6,6.5-9.3,8.3-8.3,4.5-5.6,16.5-10.7,17.7s-4.2-7.2-5.7-10.7c-3.7-9.1-6.5-6.1-13.1-9.8s3.1-6.4,5.9-7.6c9.4-4.2,6.6-11.5,11.8-18.7,3.7-.8,4.7,8.3,5.7,10.6,4.3,9.8,14.4,8.9,15.3,10.3Z"/>
  <path class="st6" d="M209.3,498.3c-1.4.6.6,2.1-.6,3.3-4.6,4.5-5.4,1.2-8.1-1.2s-5.9-5.7-8.7-9.8-1.5-2.2-2.2-3.3-1.1-3.7-2.2-5.4c-6.6-10.8-12.3-22.9-21.8-31.6,2.7-.9,8.5,6.5,9.8,1.6s-4.5-4.9-4.4-8.1c2.7.2,4.3,2.5,6,4.3,13.1,14.3,20.8,33.8,32.1,50.1Z"/>
  <path class="st1" d="M735.9,754l29.4,23.9c-2,.5-8.3,3.2-12,4.4-3.8-5.4-10.1-8.4-15.2-12s-11.8-9.4-16.3-10.9c-.7-3.2,1.6-1.9,3.5-2.5,3.5-1.1,7.2-1.9,10.7-3Z"/>
  <path class="st6" d="M145.1,492.9c2.9,2.9-4.9,14.8-3.3,16.3,7.6,1.3,7.8-7,10.9-13l-3.3,15.2c-3.3,7-2.1,14.7-3.3,21.8s-3.1,7.7-8.7,8.7c-3.2-22.2,1.8-29.3,7.6-49Z"/>
  <path class="st10" d="M147.3,533.2c-.6,3.9.6,6.4,1.1,9.8,1.1,7.4,1.9,10.7,5.4,17.4-1.8,3-6.3,3.6-6.5,7.6-5.5-9.2-8.2-15.3-9.8-26.1,5.6-1,7.8-3.2,8.7-8.7h1.1Z"/>
  <path class="st3" d="M227.8,535.3c-2.7.5-2.4-1.2-2.9-3s-2.7-12.5-3.7-13.2-6.3.8-6.4,1c-.3.6,1.6,3.2,0,4.3-.4-1-1.2-1.7-2.2-2.2.2-5.3-3.6-6.7-5.4-9.8s-2.5-4.7-4.4-7.6-1.4-3-2.2-4.4c2.7,2.4,3.5,5.6,8.1,1.2s-.8-2.8.6-3.3c9.2,13.3,15.7,19.3,18.5,37Z"/>
  <path class="st14" d="M995.6,629.2c5.4,5.2-.3,15.4-7.3,12.2-10.1-4.7,0-19.2,7.3-12.2Z"/>
  <path class="st12" d="M219.8,1054.5c7.4-.7,10.1,13.3.8,13.9-9.7.6-8.7-13.2-.8-13.9Z"/>
  <path class="st12" d="M210,390.9c6.5-.6,9.8,11.5,2,12.8s-10.2-12.1-2-12.8Z"/>
  <path class="st4" d="M881.7,536.4c0-2.2,0-6.5,0-8.7,1.8,2.3,1.8,6.3,0,8.7Z"/>
  <path class="st1" d="M507.4,218.7c-3.2,2.6-2.3,5.1-7.6,1.1,2.4-.9,5-1.2,7.6-1.1Z"/>
  <path class="st4" d="M879.5,502.7c2.9-.9,3.2,2.5,1.1,4.4,0-.7-1.1-1.9-1.1-4.4Z"/>
  <path class="st4" d="M880.6,557.1c2.1,1.9,1.8,5.3-1.1,4.4,0-2.4,1-3.7,1.1-4.4Z"/>
  <path class="st6" d="M146.2,490.7c.1-.3-.1-.8,0-1.1l1.1.6-1.1.5Z"/>
  <path class="st6" d="M147.3,487.5c0-.3,0-.8,0-1.1l1.1.6-1.1.5Z"/>
  <path class="st7" d="M727.2,274.2c1.5.7,2.3,1.4,4.4,2.2.9,1.7,3.9,4.3,5.5,4.9s2.9-.6,3.2-.6c-1.8,2.7,4.7,6.2,5.4,5.4v-4.3c.1,0,1-1,2.2-1.1s.4,2.3,1.1,0c.6.5,1.6.6,2.2,1.1,2.7,2.1,6.2,4.5,8.7,6.5,11.8,9.5,23.2,24.6,33.8,33.1,5.3,4.2,17,4.9,23.9,11.5-2.7,1.8-16.5-2-17.4-1.1s-.1,2.3.7,3.3,5.9,5.2,6.3,5.5c2.3,1.4,4,.6,4.9,1,8.7,3.6,19.7,13.7,21.8,22.8-1.7,1.8-9.7-5.1-12-2.2-1.9-2.6,1.1-2.1,2.2-4.3-7.5,0-14.2-9-20.1-10.9s-2,.2-1.6,1.6c1,3.2,8.3,13.2,10.6,17.7,43.4,89.3,52.7,228.3-16.5,307.1-92.2,104.7-306.7,82.3-416.2,17.4-.4-3.5-4.9-7.5-7.6-4.4-7.1-4.5-11.8-7.8-18.5-13.1l1.1-.6c.1-3.3-3.1-2.2-4.3-2.7-7.4-3.2-13.6-10.6-19.1-16.3s-10.9-14.2-13-14.2-3.6,2.9-6,2.2c-.8-1.1-1.4-2.1-2.2-3.3,4.8-5.4,1.4-15.3-6.5-10.9-14-24.9-18.5-36.4-21.8-65.3,6.5,1.2,7.7-1.6,10.4-6.6,3.4-.8,7.7,8,6.9,10.3s-2.3,1.4-2.8,2.1c-1.2,1.8-3.1,7.6-6.1,7.1s-5.9-4.5-5.1-.4,3.8,2.8,5.1,4.1c3.8,4,6.2,13,13.4,5.7,1.9-1.9,3.8-8.9,4.3-9.3,2-1.9,2.8,3.1,3.8,4.3,5,5.6,9.7,1.2,11.3,2.3s4,11.1,3.3,11.9l-13-7.6c.3,4.6-5,5.9-5.5,10.4s8.6,14.9-6.5,14.6c-.9.8,5,10.7,6.5,11.5,3.1,1.6,6.8-4.6,7.4-6.9.9-3.2-1.8-5.9-.4-8.9,2.1-4.5,9.8-10,14.7-10.9,7.9,13.1,26.8,27.6,41.3,32.1,38.2,11.8,65.2-2.7,92.5-27.8.4,6.5-5.1,9.3-9.9,12.5s-11.4,8.1-17,11.2-6.6,2.2-6.9,2.5c-.3.5,1.4,3.9,1.1,5.8s-1.6,2.8-2.1,4.5.4,3.7-.2,4.7-6.1,1.6-8.1,3.4c-3.3,3-2.1,9.6-9.7,8.8s-3.6-3.1-4.4-3.1c-2.5,0-5.5,7.9-10.3,5.2.4,6.4,12.8-.1,17.2,2.4s2.1,9.7,7.8,7.4l-1.1,6.5c.4.4,6-3,9.8,1.7s.6,7.7,1.1,8.1,3.8-.5,4.3,0-1.4,4.6,2.8,5.4,7-3.1,9.8-3.3c3.1-.3,8.4,3,9.2-3.3-.5-.4-13.5,1.2-9.8-2.2s3,0,4.1-.8,1.2-1.9,2.2-2.4c1.8-.9,6.2-.8,7.9-2.8s0-7.9,4.8-7.1.3,4.7.7,5.3,3.1.2,3,2.7c-.1,4.8-6.9,1.3-9.1,6.2-2.4,5.2,3.3,3.6,5.9,4.9s3.3,3.5,5.1,3.6c3.1.2,2.2-3.9,2.6-4.2s4.2,1.2,5.9,1.2,3.8-1.3,5.5-1.2,2.9,2.4,4.6,3c5.4,1.9,10.4-.4,11.2,7.3-5.7-.4-5.1,9.1-3.3,10.4,2.6,1.9,5-7.3,5.4-7.6.9-.6,3.4,1.9,4.9,2.1,4.5.8,9-1.5,13.6,0-1.1-4.6,4.2-4,7.6-4.3,1.1,3.3-3.3,4.8-3.3,7.1,0,6.5,13-1.4,14.8-1.6,3.6-.5,5.7,2.5,8.5,2.2s10.3-4,11-5.4c2.8-5.7-2.8-6.6-3.6-9.5s3.8-7.7-3-7.8-4.1,1.3-6.4,1l-5-3.2c8.7,2.4,17.9.8,26.4-1.4s4.6-2.7,6.3-3c0,3.7-3.8,3-4.2,3.4-.5.6-.1,4.3-.9,6.2s-4.4,1.6-3.5,5c.9,3.4,5.6,3.2,7.7,4.1s.8,1.8,1.7,2c8.3,2.4,7.7.4,12.9-3.1,1.4-.9,3.7-.8,4.5-1.5,1.5-1.2.9-6.7,3.5-9s13.5-4.3,15.8-8.2-.4-5.5,1.5-8.2,6.4-2.1,8.3-3.6,1.7-3.9,3.1-5.6,4.5-2.7,5-3.7c.9-2.2-2-1.5-2.7-2.7s-.3-4.3-1.1-6.5c-2.2-6-5.8-6.7-7-15.3,2.6-.6,2.3,1.3,3.1,2.9,52.1,98.7,186.5,51.4,154.4-62.9-1.6-5.6-7.2-17-7.3-21.5,5.7.6,1.1,11.3,9.8,7.1,4.3-2.1.8-11,2.5-14.4s3.5-3.4,3.8-3.5c1.4-.4,3.3.3,4.9-.3,3.3-1.2,8.3-7.3,7.3,1.3,3.1.9,2-2.6,3.9-3.2,8-2.5,8.7,24,14.7,5.4,3.7-1.5,6.1,4.9,8.3,5.3s6.4-2.8,6.8-3.8c.8-2.4-.2-6.4.1-9.1l-4.3,1.1c-1.8-3.6,2.7-10.5,2.2-12.5-1-4-5.7,1.5-6.5.5l1.1-10.9c-3.6-1.2-2.7,5-3.3,5.4-3.1,2.6-3.2-2.8-3.4-3-.9-1-7.1-.6-6.3-4.6,2.6-2.1,9.2,1.1,9.8-1.7s-4.6-4.9,4.4-2.7c.4-3.1-1.9-5.6-.5-8.6,3.4-7.7,6.6-2.1,9.3-3.8,4.5-2.9-1.5-4.9-4.9-5s-14.1,3.8-14.7-2.7,1.5-11,1.1-11.4h-4.4c7.2-15-8.6-2.1-10.9-4.4-3.3-3.2,6.3-4.8,6.5-6-2.6-5.5-4.2-9.6-2.2-15.7l6.5,3.3c-4.9-8.4,7.5-12,8.7-14.7,1.8-4.2-3.2-1.7-4.4-3.3s.4-5.6-.4-7-3.1-1.6-3.6-2.4,0-3.1-1.3-4.6c-3-3.3-9.2,1.3-10.5-5.9-.3-1.5,1.5-8.8,2-9.6,1-1.4,6.6-1.4,8.5-1.3-.1-.9.2-3,0-3.3-.3-.4-9.4.3-9.9.4-3.2.8-1.9,4.3-4.3,5.6-9.1-1.7-24.5,9.1-32.4,4.6s-3.5-5-3.5-5.7c-.2-4.6,7.5-8-6.6-6.5-2.1-1.4,2.2-10.5-5.4-8.2-1.1,2.2,4.6,5.7,2.2,7.1-7.4,4.1-7.4-5.7-6.1-10.5s3.1-2.5,4.4-4.3c5.5-7.6-3.1-6-3.7-6.6s0-7-1.1-8.7c2-1.7,8.3,7.1,9.8.6-2.2-.7-3.2-5.9-3.9-6.1-3.4-.9-6.1,2-9.1,2.3-.8-3.9,5.2-8.5-.7-10.7s-3.7,3.8-3.6,5.9,4.5,4.7,3.2,5.9c-3.3,3-4.6-5.4-5.5-6s-2.8-.3-3.1-.6c-1.4-1.4,2.5-8.5,2.1-10.8.8-.7,11.1,5.2,9.8.6s-4.3-6.1-5.5-6.6c-1.8-.7-4.9,1.1-5.4.6s.6-3.6-1.6-5.5-3.8-1.3-5.4-2.3c-3.6-2.2-7.1-4.2-10.2-6.3s-3.4-1.1-4.2-2.2c-2.6-3.9,7.1-11,2.2-12s-2,8.9-6.7,9.7c-1.2.2-5.2-3.7-5.9-4.8-3-4.6.6-3.4,1.6-5s4.2-8.3,3.9-8.6-2.4.2-3.8-1.1-1.4-4.3-3.3-5.4c-3.3-.4.8,6-2.3,6.6s-7-1.7-9.8-1.9-11.6.9-12.1.5-2.3-4.1-2.3-4.6c.3-1.6,4.5-2.9,2.6-5.1-1.2-1.9-4.2.1-6.4,0-7.4-.5-5.1-4.4-7.5-7.3s-7.5-5.5-8-5.6c-1.4-.2-3.5,2.9-5.8,2.1,0-3.3-.5-7.7-1.9-10.6s.2-1.7-1.9-1.4c-2.6,0-2.7,3.8-4.5,4.3s-4.3-1.8-5.9-.5-.8,3.5-1.1,3.8c-1.1,1-4.7-1.2-5.8-.9-1.8.4-1.4,3.7-1.8,4.1-.9.8-4.2-.5-5.2.3s-2.1,5.8-3.5,6.9c0,3.3,5.5,3.6,5.3,6.3s-3.2,6.2-2,9.5c-10.2.9-5.3-11-7.5-13.7s-7.7.7-11-.9c-2.7-1.4-1.7-5.2-3.2-7.7s-8.1-5.9-10.5-5.8-7.9,5.5-9.2,4.3.2-3.1-1.5-4.5-3.5-.8-4.9-1.6c-5.9-3.3-1.8-11-2.2-11.4-2.2-1.8-3.5,1.9-4,2.2-5.1,3-16.4-4.8-23.2-2.2v3.3c6.9-2.6,11.5,5.6,10.9,12-1,1-10.9-4.5-11.5-5.4-2.3-3.7,5.7-4.3-5.4-3.5s-3.4-1.2-3.8-.9-.1,2.8-.8,4.1-3.6,3.5-3.6,5.2,6,5.9,1.7,7.1-3.5-3.5-5.6-4.2-4.6.3-5.9-.7-.7-6.8-6.2-3.6-.8,2.8-2.4,3.6-5.8,0-6.5,2.3,3.6,7.1,2.1,10.2c-16.7-7.3-.5-14.1,0-19.1,1.1-10.2-9.2-7-15.2-8.1-.9.9,2.9,8.5-.3,11.7s-6.9-1.7-10.6-.8l1.1,10.9c-4.3-1.9-10.2,3.5-13.1,1.7s-2-5.2-6-6-18.8-1.5-19.9,1.8.9,5.4-3.5,3-2.3-3.3-4-3.7-3.2,1-4.1.8c-3-.6.4-8-.6-10.8,79.7-47.5,178.3-49.8,262.9-13.2,12.3,5.3,23.3,12,35.2,17.6ZM827.8,360.2v1.1c.7-.4.7-.7,0-1.1ZM419.3,632.2c-.4-.4-7.6,1.2-8.3,2.1s.9,3.2.2,4.4-4.7,1.5-5,2.9c-.5,2.1.4,5.6,0,8,6.1-.9,7.7,0,5.4-6.5l4.3,1.1c-3.1-5.9,2.7-6.7,3.3-12ZM399.7,635.4c-2.1.3-12.5-.5-13,0s.2,2.5-.3,3.4c-1.2,2.4-6.2,6.3-.3,7.4,10.6,2,5.5-6.1,6-6.5,3.4.4,7.5-.1,7.6-4.4ZM368.1,657.2c-2.3-2.3-6.6,2.1-4.3,4.3,1.8,1.8,6.1-2.6,4.3-4.3ZM389.9,657.2h-3.3v2.2h3.3v-2.2ZM356.2,664.8c2,.4,3-1.4,4.3-2.7-1.6-5.4-5.3-1.8-4.3,2.7ZM463.9,690.9c-1.7-1.7-5,1.5-3.3,3.3s5-1.5,3.3-3.3ZM571.6,696.4c-1.2-1.2-3.4,1-2.2,2.2s3.4-1,2.2-2.2ZM570.5,705.1c-2-2.7-9.4.7-8.7,3.8s10.2-1.7,8.7-3.8ZM540,705.1c-1.2-1.2-3.4,1-2.2,2.2s3.4-1,2.2-2.2Z"/>
  <path class="st12" d="M431.2,773.6c.3,7-9.6,22.3-2.2,27.2.5,1.8-1.2,4.6-.9,5.9.6,2.7,19.3,8.6,22.9,9.7,34.8,10.5,82.7,15.8,118.9,13.8s16-1.1,20.5-2.1,1.5-4.9,4.1-2.8-.3,2.9,3.7,2.8c6.9-.2,7.5-1.2,8.3-7.7.4-.1.8.1,1.1,0l1.1-1.1c.2-.2,2.1-4.1,2.2-4.4,2.3-.4,4.5.9,6.5,1.1,1.2-5.9,2.8-11.6,4.4-17.4l12,2.2c-.8,3.6-.3,10.5-1.2,13.4s-12.2,2-15.1,1.8c-.3,1.5-1.1,2.8-1.1,4.3,2.3.7,14.7.6,15.2,1.1s-.3,9.1,0,10.9c-2.9.4-4.5-3-7.1-3.2-10.6-.9-20.3,2.3-30.4,3.2-4.6.4-31.5.5-32.7,2.1s-.5,2.2-.5,3.3c12.5,0,25,.3,37.4-1.2,9-1.1,12.4-4.8,22.7-.7,5.5,2.2,6.5,14.6,7.3,19.9s-1.2,4.4,2.2,3.7c-13.6,15.8-29.6,44.3-35.9,64.2-2.6-1.8-1.7-1.2-2.8.9-5.4,10-9.4,20.3-14,30.7-.5,1.2-.2,3.3-.8,4.1-.8,1.2-10.4,3.1-3,8.9-2.5.2-9.2,2.2-11.4,2.2h-42.4c-3.8,0-11.8-1.9-15.8-2.2l2-48.4c-2-5.9,1.5-12.7-5.2-15.8l-2.2,7.6c.8-10.1,3.8-30-11.5-31.5-19.7-1.9-17.3,30.9-19,42.9s-2.4,10.3-3.2,15.8,0,1,0,1.1c-.1.7,0,1.5,0,2.2l-8.4-14.9c-5.4-14.3-9.1-29.1-13.3-43.8-2.5.2-.4,5.6-1.1,6.5s-2-.2-2.2,0c1.3-15.4-8.2-29.3-17.9-40.3-4.5-5.1-16.8-19.6-23.3-10.2-5.5,8.1-7.6,34.5-6.4,44.2.8,5.9,6.3,15.5,6.2,19.3-.1,11.1,1.3,18.4,4.7,29.6,1.8,5.8,4.9,11.3,6.2,17.2-7.1-.5-10.4,2.7-11.7,9.5-2.8,14.6-1.9,29.7-2.4,44.4s-3,13.2,0,19c0,1.4,0,2.9,0,4.4-.1,7.5.3,15.5,2.2,22.8,13.1,50.2,83,57.6,125.7,56.6,31-.7,59.4-4.1,72.3-35.9.1-.3-.1-.8,0-1.1,4.5,1.7,6.6,8.9,9.3,13,12.6,19,30.1,34.2,49.2,46.5.9,8.1-.4,16.1-1.1,24.2-10.2,2.7-20.5,5.1-31,6.5-81.5,11.2-195.2,1.4-267.7-39.9-8.8-5-16.6-11.6-25.4-16.5,6.7-96.7,39.7-219.3,76.2-309,7.5,1.3,12.7,1.6,10.9,10.9-4.7-1.1-10.7-5.1-12,2.2,10.9-1.8,17.3,7.6,27.2,7.6l-11.7-13.7c-.2-3.7,4.5-26.3,6.4-27.6s3.9,1.4,5.4,0ZM548.7,837.8c1.6-6.2-12.4-4.7-16.9-4.4s-11.8,2.5-5.4,3.3c6.8.9,15.4.6,22.3,1.1ZM441.6,881.3v1.1c.7-.4.7-.7,0-1.1Z"/>
  <path class="st5" d="M380.1,690.9c109.4,64.9,324,87.3,416.2-17.4,69.3-78.7,60-217.7,16.5-307.1-2.2-4.6-9.6-14.5-10.6-17.7s.2-2,1.6-1.6c5.9,1.8,12.7,10.9,20.1,10.9-1,2.2-4.1,1.8-2.2,4.3,42.2,56.3,55.9,148.5,45.5,216.9-20,132.4-116.8,176.8-240.8,181.4-61.6,2.3-162.6-11.7-218.2-39.2-.4-.2-.7-.9-1.1-1.1-3.1-1.6-6.3-3.5-9.3-5.4l-.5,1.1c-.7-.4-1.4-.7-2.2-1.1-5.8-3.2-12.4-6.5-18.5-9.8s-1.4-.7-2.2-1.1c-3.2-2.1-6.4-5.6-9.5-7.6-3.2-2.1-8.9-4.4-12.3-6.5s-6.1-3.3-9.8-7.6.2-3.5-4.4-3.3c-.9-.8-1.6-1.7-2.2-2.2.4-5.6-5.2-10.6-8.7-14.7s-5.7-5.3-8.7-9.2-4.5-7.8-6.5-10.9c2.4.7,4.3-2.2,6-2.2s10.7,11.7,13,14.2c5.4,5.7,11.7,13.1,19.1,16.3-.8,2.9,2,2.3,3.3,3.3,6.7,5.2,11.4,8.6,18.5,13.1s5.1,2.9,7.6,4.4Z"/>
  <path class="st4" d="M878.4,443.9c.5-1.5-1.2-4.7-.6-5.5s13.5-6.1,16.2-7.8c37.7-23.1,53.3-81.7,31.5-120.2-.7-1.2.1-1.9-2.4-1.4,1.7,3.4-2,8.6-2,10.1s2.6,5.9,2.9,9,.7,11.4.2,14-3.2-.2-3.4,1.2c-2.1,11.2-3.2,20.4-7.8,31.2s-6.7,11.9-8.1,12.9-9.2,0-11.2-.6-9-8.9-9.5-11.2,3.1-12.7,3.1-17.1c0-17.6-8.2-32.9-22.9-41.9s-25-8.7-38.1-3.8-11.9,7.8-12.7,7.9c-1.3.2-3.4-1-5.3-.9s-5.8,1.9-7,1-1.9-4.8-2.9-6.3c-5.5-8.1-14.2-17.5-21.1-24.6s-8.8-5.8-8.6-8.5,1.8-2.8,2-4c1.6-2.6,4.8-3.8,6.5-5.4,3,0,3.6,3.6,6.8,3.1s17.6-11.4,22.6-13.5c23.2-9.4,45.9-8.3,69.6-1.7l-12.5-8.8c-4.2-.8-7.4-.2-11.5-2.1l4.3-2.2c98.5,13,118.9,166.4,21.8,196.9ZM923,303.6c-1.2-1.2-3.4,1-2.2,2.2s3.4-1,2.2-2.2Z"/>
  <path class="st10" d="M286.5,694.2c-1.4-1.7-12.1-3.2-12,2.7.7,3.1,8.9.5,10.6-.3s2.7-.9,1.4-2.4c7.5,4.3,13.3,9.8,17.4,17.4s8.3,24.8,13.1,35.9c1.9,4.5,1.7,6.6,6.5,4.4.7,2.1,19.5,14.4,22.9,15.8s3.4.2,4.3.5c3,1,4.7,2.9,7.6,3.3l-1.1-9.8c3.1,0,5.8-1.7,8.7-2.2-2.5,1.8-3.3,7.6-2.2,8.7s10.1.9,11.2.8c6.4-.5,11.6-7.4,13.9-12.8,2.2,4.7,5.2,9.5,7.6,14.1-5.8,12-12.5,27.8-17.4,40.3l-4.3-2.2c-1.6,18.8-26.9,52.3-48,46.3s-2.5-4.8-6.4-3.9c-.4-9.3-4.6-20.1-7.3-29.1-8.1-26.7-18.5-52.7-27.5-79,1.5-.7,9.2-6.9,7.7-8.2-3.7-1.1-8.4,2.9-10.8-.7s-7.7-21.2-10.2-27.8-3.4-11.6-5.1-16.1c8.7-.9,12.4.3,19.6,4.4Z"/>
  <path class="st3" d="M760.9,1112c1.5,9.8,2.8,19.6,4.4,29.4-2.8-.2-5.4,5-5.4,6.9,2.9,17.4,5.6,34.9,7.6,52.4,1,8.6-1,18.7,4.4,26.6-1.4-.4-3.4.3-5.5-.5-5.1-2.1-10.1-6-16.3-5-.9-3.4,3.6-2.1,4.9-4.3,2.6-4.3-5.4-22-9.2-25.6-5.7-5.4-13-4.3-20-6.7l-86.2,27.9c-3.7,3.3-3.3,21.6-2.6,26.7s4.2,6.7,2.1,9.3c-5.3-12-12-23.6-16.9-35.9-1.4-2-4.4-.3-6,1.1-4-8.6-9.2-16.9-12-26.1,26-2.5,51.7-6.6,76.7-14.1,7.1-2.1,22.1-6.5,27.7-10.4,9.4-6.6,6.5-18.2,5.4-28.1s-3.7-17.8-4.2-26.8c17.2,2,33.8,3.5,51.1,3.3Z"/>
  <path class="st3" d="M864.2,316.6c14.7,9,22.8,24.3,22.9,41.9,0,4.4-3.8,14.3-3.1,17.1s6.8,10.3,9.5,11.2,9.6,1.6,11.2.6,7.2-10.6,8.1-12.9c4.7-10.8,5.7-20,7.8-31.2s3.2,0,3.4-1.2c.5-2.5.2-11.1-.2-14s-2.9-7.5-2.9-9,3.7-6.7,2-10.1c2.5-.5,1.7.2,2.4,1.4,21.9,38.5,6.2,97.2-31.5,120.2-2.7,1.6-15.7,7-16.2,7.8s1.1,4,.6,5.5c-.6.2-1.6-.2-2.2,0-.9-.8-.9-4.2-1.1-4.3-.6-.5-4.2.9-5.4,1.1-5.7-19.5-12.7-38.7-22.3-56.6-1.1-2.1-6.8-9.5-5.9-10.8s3.3-.4,4.1-3c1.8-5.9-2.7-13.8-6.3-18.3s-8.5-6.6-9.3-8.2,3.3-5.2,1.1-9.7-12.2-7-6.3-10.7,16.8-5.2,23.6-4.5,12.9,3.8,13.6,3.1.7-4.5,2.2-5.4Z"/>
  <path class="st12" d="M837,783.4c32.3,2.3,86.6,16,82.7,58.2-.8,8.1-4.9,14,.2,22.7,6.1,10.4,19.7,8.4,29.5,9.7,31.2,4.3,40,31.8,38.9,59.5-3.6,9.1-5.9,18.6-9.9,27.6-57.3,126.2-306,187.7-375.2,44.2-.7-1.4-1.6-3-2.2-4.4-2.4-15.2-4.1-30.2-3.3-45.7,16.2-99.5,117.2-166.7,213.2-171.9,9.3-.5,16.7-.7,26.1,0ZM643.8,1049.5c88,66.5,234.4,24.2,304.2-51.2,25.1-27.1,59.1-93.9,10.7-115.2-13.5-6-42.5-4.7-45.5-23-1.4-8.6,3-10.1,3.1-12.9,2.9-51-69.3-58.2-106-56.2-85.7,4.7-182.8,65.9-202.5,153.2-9.3,40.9,2.3,79.8,36,105.3Z"/>
  <path class="st15" d="M686.9,1102.2c-.9,1.4-3.4.1-3.2,2.6.9,11.9,6.4,25.7,6.6,38.1-.4,1.4-13.5,4.3-15.3,5.5-3.5,2.4,4.6,1.8,3.3,4.9-90.4,28.9-237.8,20-321.7-25.9-9.6-5.2-18.6-11.5-27.6-17.6,0-2.2-.1-4.4,0-6.5,8.8,4.9,16.6,11.5,25.4,16.5,72.5,41.3,186.2,51.1,267.7,39.9,10.5-1.4,20.8-3.9,31-6.5.6-8.1,2-16,1.1-24.2-19.1-12.3-36.6-27.5-49.2-46.5-2.7-4.1-4.8-11.3-9.3-13,.3-.9,1.4-1.8,1.8-3,3.3-9.9,5.4-20.4,5.8-30.7,20.7,38.4,46,49.7,83.8,66.4Z"/>
  <path class="st3" d="M506.3,1188.1c.4,9.3-2.8,18.3-4.4,27.2l-5.4-1.1c-3.8,20.8-7.5,53.3-27.2,65.3-11.2,6.8-37.2,11.2-50.5,12-5,.3-20.7.7-24.6-.5s-3.7-5.7-4.3-9.3c3.7-1,6,1.8,9.2,2.2,23.6,3.3,57-6.4,63.5-32.4,1.9-7.8.9-39.1-6.3-43.2-30.4-8.4-59.7-19.8-87.7-34.2-2.1-.5-1.3,0-1.5,1.5s-1,5.1-1.1,6c-.5-3.5-2-8.7-2.2-12s1.3-1.7,1.2-3.7c-.2-3.8-1.9-7.5-1.2-11.5,42.9,19.3,95.5,29.6,142.5,33.7Z"/>
  <path class="st2" d="M603.1,1005.3c69.2,143.4,317.9,82,375.2-44.2,4.1-8.9,6.4-18.5,9.9-27.6-5.4,142.1-267.1,225.1-361.2,119.1-11.2-12.7-21.6-30.4-24-47.3Z"/>
  <path class="st3" d="M445.4,795.4c-4.9-1.8-8.5.2-7.5-6.9.6-4.3,13.7-39.2,15.8-39.7,15.2,4.1,30.5,8.4,46,11.5,37.6,7.6,76,11.4,114.4,11.2.9.8-7.8,19.2-8.7,21.8-52.1,11-106.1,1.6-152.8-22.9-1.3,0-7.2,22.1-7.1,25Z"/>
  <path class="st12" d="M678.2,1153.3c.6-.2,1.6.2,2.2,0,.4,4.4,3.1,5.8,6.5,7.6-27.3,9.4-57.2,13.5-86,16.3s-7.2.8-10.9,1.1-.7,0-1.1,0c-2.5.2-5.1-.1-7.6,0l-1.1,1.1c-5.4.2-10.9-.1-16.3,0-5.4.1-10.9,0-16.3,0s-8.7,0-13.1,0c-.9-1.7-3.7-1.1-5.4-1.1-6.6-.1-12.1-.6-18.5-1.1-55.8-4.3-136.6-20.5-180.6-56.6-1.7-3.2-1.2-7.3-1.1-10.9,9,6.1,18,12.4,27.6,17.6,83.9,45.9,231.3,54.9,321.7,25.9Z"/>
  <path class="st5" d="M412.7,763.8v1.4c2.1.5,3,3.9,3.3,4-4.5,5.2-5.1,13.5-7.6,19.6s-2.2,2.7-3.3,5.4c-36.4,89.7-69.4,212.3-76.2,309-.1,2.2,0,4.4,0,6.5,0,3.6-.6,7.7,1.1,10.9-7.7-6.3-10.2-4.9-9.8-16.9,1.8-54.7,20.2-132.2,34.8-185.5s1.4-7.2,2.2-9.8c13.6-48,32.5-100.9,55.5-144.7Z"/>
  <path class="st10" d="M605.3,793.2c-.9,2.7-3.5,16.7-5.4,18-29.4,3-59.3,1.6-88.6-1.8-21.5-2.5-45.8-6.4-66-14-.1-2.9,5.8-25.1,7.1-25,46.8,24.5,100.8,33.9,152.8,22.9Z"/>
  <path class="st3" d="M379,810.6c-9.6,24.6-23.7,62.7-29.4,88.1h-6.5c-.3-1.3.7-5.3-.6-5.5-17.2-2.4-31.8-2.9-48.6-9-5.5-2-9.9-4.8-15-7.3,6.8-6.6,6.9,1.9,10.9,3.8,5.8,2.7,11.4-5.1,11.9-10.3,6,1.4,12.3-1.8,15.8-6.5,3.4-4.7,3-7.4,2.7-13.1,3.9-.9,3.7,3.1,6.4,3.9,21.1,6,46.4-27.5,48-46.3l4.3,2.2Z"/>
  <path class="st15" d="M596.6,1022.8c-3.4,6.8-2.3,15.7-3.6,23.1s-3.5,17.2-5.1,21.5c-16.9,43.9-112.8,30.5-146.9,16.3-1-4.8-10.9-4.1-9.2-10.9,33.1,16.9,88.4,26.8,122.1,7.8,13.4-7.6,20.5-20,24-34.8,3.3-14.1-3-23.5-4-37.2,5.7-.6,11.9-1.6,17.4-3.3,2.2,5.6,3.2,11.8,5.4,17.4Z"/>
  <path class="st3" d="M714.1,760.5l19.6,13.6c-1.3,2.9-4.7,2.1-6.2,3s-.9,3.1-3.2,3.9c-4.1,1.3-8.4-1-12.3-.4-10.9,1.4-27.3,9.3-37.8,13.4-2.3.9-13.5,3.9-13.9,4.6-2.1,2.9,1.7,17,4,20s1.1,2.2,3.1,1.8c-.4-2.8.7-6.7,4.4-6.5l2.2,7.6c-5.3,3.6-10.8,8.9-15.7,12s-2.1,1.4-3.8,1c-3.6-22.3,3.4-44.3,10.3-65.3,16.2-3.5,33-5.7,49.5-8.7Z"/>
  <path class="st10" d="M721.7,759.5c4.5,1.5,12.1,7.9,16.3,10.9-.2,1.3-3.2,3.4-3.2,3.8,0,1.7,11,7.5,11.9,10.3-25.9,8.9-50.3,21.6-72.9,37l-2.2-7.6c-3.7-.1-4.7,3.7-4.4,6.5-1.9.4-2.1-.6-3.1-1.8-2.3-3-6.1-17.1-4-20s11.6-3.6,13.9-4.6c10.5-4.1,26.9-12,37.8-13.4s8.2,1.7,12.3.4,2.3-3.3,3.2-3.9c1.5-.9,4.9-.1,6.2-3l-19.6-13.6c3-.6,3-2.6,7.6-1.1Z"/>
  <path class="st15" d="M618.4,789.9c1.4-3.6,4.7-18.2,8.3-19.4,5.6-1.9,19.5,1.3,26.5-1.3-.1,4.7-2.1,9-3.3,13.6s-1.1.5-1.1.6c-1.5-2.4-1.3,1.1-1.6,2.2-.9,4-1.9,7.9-2.8,11.9-2.4,1-2.4-1.9-3.2-2.2-.3-8.4,3.7-15.5,5.5-23.4,0-.9-3.9-.8-4.8-.6s-6,20.8-6.1,22.4c-.2,3,2.4,1.2,4.4,1.6.7,3.7-5.3,19.9-3.3,21.8s6-2.9,4.4,5.4l-5.4-1.1,2.2,30.5c-2.3,2.5-5.7,5.4-7.6,7.6-3.4.6-1.9-1.7-2.2-3.7-.9-5.3-1.8-17.7-7.3-19.9-10.3-4.1-13.7-.4-22.7.7-12.4,1.5-24.9,1.2-37.4,1.2,0-1.2-.3-2.3.5-3.3,1.2-1.6,28-1.7,32.7-2.1,10.1-.9,19.9-4.1,30.4-3.2s4.2,3.6,7.1,3.2c-.3-1.8.4-10.5,0-10.9s-12.9-.4-15.2-1.1c0-1.5.8-2.9,1.1-4.3,2.9.2,14.2,1,15.1-1.8s.4-9.9,1.2-13.4l-12-2.2c0-.3,0-.7,0-1.1.6-2.3,2.1-3.2,2.2-5.4-2.9-.3-6.2,1.3-5.4-2.2Z"/>
  <path class="st5" d="M542.2,822.6c1.8,1.2,3.9,1.1,5.9,1.1,16.6.6,33.4,0,49.6-2.2,2.8-.4,5.9-.2,8.7-1.1-.8,6.4-1.4,7.5-8.3,7.7s-2.3-1.6-3.7-2.8c-2.6-2.1-2.6,2.4-4.1,2.8-4.5,1-15.5,1.9-20.5,2.1-36.2,2-84.1-3.3-118.9-13.8-3.6-1.1-22.3-7-22.9-9.7s1.4-4.1.9-5.9c35.1,11.8,75.9,21.9,113.2,21.8ZM603.1,823.7h-5.4v1.1h5.4v-1.1Z"/>
  <path class="st15" d="M412.7,763.8c.5-.9.4-3.4,1.6-5.5,1.7-3,9.6-17,11.5-18s14,4.8,17.4,5c.9,1.3-10.2,24.7-11.9,28.2-1.4,1.4-4.5-.6-5.4,0-1.9,1.3-6.6,23.8-6.4,27.6l11.7,13.7c-9.9,0-16.3-9.5-27.2-7.6,1.2-7.3,7.3-3.2,12-2.2,1.8-9.2-3.3-9.6-10.9-10.9,1.1-2.7,3-4.8,3.3-5.4l8.7,2.2c-1.1-5.5,4.9-14.8,4.4-19s-4.4-2.1-5.5-2.8-1.1-3.5-3.3-4v-1.4Z"/>
  <path class="st15" d="M686.9,1160.9c-3.4-1.8-6.2-3.2-6.5-7.6.4-.1,1.5-1.5,2.9-2,8.9-3.1,13-.4,12.2-12.6s-6.6-29.8-4.1-32.2,3.5,1,3.2-1.1c-2.6.6-4-1.5-5.4-2.2,2.5.2,8.8.5,9.6,2.9-.6,9.5,8.4,40.3,5.1,47.2s-13.3,6.4-16.9,7.6Z"/>
  <path class="st3" d="M808.8,1107.6c-1.6,3.8-4.2,9.1-7,12-.9,1-9.3,7.2-10.1,7.4-8.2,2.4-4.3-4.9-4.7-5.2s-10.9,2.4-13.1,1.1c-.7-3.6-2.4-7.1-2.2-10.9,10.6-.7,26.6-2.5,37-4.4Z"/>
  <path class="st15" d="M587.9,978.1c.5,7.8,1.2,13.1,2.2,20.7.2,1.4-.1,2.9,0,4.4-.5-1-1-1.9-1.3-3-1.7-1.1-15.7,1.6-19.4,1.9,2.6-6.1,2.2-10.9,2.2-17.4s0-2.9,0-4.4c4.1-.3,10.6-4,16.3-2.2Z"/>
  <path class="st3" d="M414.9,736.6c.2,1.9-16.1,28.8-18.5,33.7-2.4-4.7-5.4-9.4-7.6-14.1s.9-5.4-3.3-5.4c.2-.7,1.1-1.7,1.1-2.2l28.3-12Z"/>
  <path class="st12" d="M648.8,783.4c-2.9,12-6,31.9-5.4,44.1s1.6,11.2,2.2,16.3c-.3,3-5.7,6.1-7.6,8.2l-2.2-30.5,5.4,1.1c1.6-8.4-3.3-4.4-4.4-5.4-2-1.9,3.9-18,3.3-21.8.4,0,.8-.1,1.1,0,.8.3.9,3.2,3.2,2.2.8-4,1.8-8,2.8-11.9s0-4.6,1.6-2.2Z"/>
  <path class="st2" d="M603.1,1035.8c-.4,10.3-2.5,20.8-5.8,30.7s-1.5,2.1-1.8,3,.1.8,0,1.1c-1.6-2.9-4.4-3.4-7.6-3.3,1.7-4.3,4.3-16.5,5.1-21.5,1.3-7.4.2-16.3,3.6-23.1,1.6,4,4.4,9.1,6.5,13.1Z"/>
  <path class="st15" d="M594.4,923.7c-.6,1.9-.6,4.6-1.1,6.5-3.4,12.5-6.3,23.8-6.5,37,0,.4,0,.7,0,1.1-4.3.3-8.8-.4-13.1,0-7.3-5.9,2.2-7.8,3-8.9s.2-2.9.8-4.1c4.6-10.3,8.7-20.7,14-30.7s.2-2.7,2.8-.9Z"/>
  <path class="st14" d="M689.1,1103.3c1.5.7,2.8,2.8,5.4,2.2.4,2.1-2.5.5-3.2,1.1-2.5,2.4,3.8,27.1,4.1,32.2.8,12.2-3.3,9.5-12.2,12.6-1.4.5-2.5,1.8-2.9,2s-1.6-.2-2.2,0c1.3-3.1-6.8-2.6-3.3-4.9s14.9-4.1,15.3-5.5c-.2-12.4-5.6-26.2-6.6-38.1-.2-2.5,2.3-1.2,3.2-2.6.9.4,1.5.8,2.2,1.1Z"/>
  <path class="st1" d="M593.3,930.3c2,7.1-3.4,13.3-2.1,21.2s5.2,5.7,4.3,10.4l2.2-6.5c-.9,15.5.9,30.5,3.3,45.7-1.5-3.3-2.9-11.5-3.3-12s-4.8,1.3-6.5,0l-1.1,9.8c-1-7.5-1.7-12.9-2.2-20.7s0-2.9,0-4.4c1.7.8,1.9,5.2,2.2,5.4.5.4,4.7-1.8,5.4-1.1s-1.2,4.6,1.1,4.4c-.2-6.6,1.4-19.4-7.6-19.6l-2.2,4.4c.2-13.2,3.1-24.5,6.5-37Z"/>
  <path class="st4" d="M815.3,1105.4c-4.2,18.9-21.3,29.7-40.2,27.2-.2-3.1-.5-6.7-1.1-9.8,2.1,1.3,12.6-1.6,13.1-1.1s-3.5,7.7,4.7,5.2c.7-.2,9.1-6.4,10.1-7.4,2.8-2.9,5.4-8.2,7-12,.7-.1,3-3.3,6.5-2.2Z"/>
  <path class="st14" d="M569.4,1002.1c3.7-.3,17.7-3.1,19.4-1.9.2,1.1.7,2,1.3,3s.7,1.3,1.1,2.2c-5.5,1.6-11.7,2.7-17.4,3.3s-12.8.8-18.5,1.1c-.3-4.5,5.5.6,2.2-6.5,4-.3,8-.7,12-1.1ZM561.2,1006.4v1.1c.7-.4.7-.7,0-1.1Z"/>
  <path class="st4" d="M414.9,736.6l-28.3,12c0-1.6-1.3-3.1-2.2-4.4,5.3-2.2,11.9-6.6,17.4-8.7s2.2-.8,3.3-1.1,2.1-1.1,2.2-1.1c2.3-.2,7.3.7,7.6,3.3Z"/>
  <path class="st5" d="M617.3,792.1c2.7.8-.2,5.2,0,5.4h4.4c0,.3,0,.8,0,1.1-1.6,5.8-3.2,11.5-4.4,17.4-2-.1-4.3-1.5-6.5-1.1,2.3-7.6,3.8-15.1,6.5-22.8Z"/>
  <path class="st3" d="M597.7,821.5c-16.2,2.2-32.9,2.8-49.6,2.2s-4.1.1-5.9-1.1c15,0,32-1.1,47.3-2.2,2.3-.2,6.5-.7,8.2,1.1Z"/>
  <path class="st4" d="M753.3,782.3c-2.1.7-4.4,1.5-6.5,2.2-.9-2.8-12-8.7-11.9-10.3s3-2.6,3.2-3.8c5.2,3.6,11.4,6.6,15.2,12Z"/>
  <path class="st4" d="M363.8,1154.4c-.7,4,1,7.7,1.2,11.5s-1.2,3.5-1.2,3.7l-5.4-2.2c-.4-5.4-.8-10.9-1.1-16.3,2.1,1,5,2.6,6.5,3.3Z"/>
  <path class="st5" d="M817.5,333c1.3,1.3,2.8,1.3,2.2,4.3h-9.8s2.2,4.4,2.2,4.4c-1-.4-2.6.4-4.9-1s-6-5.1-6.3-5.5c-.8-1-1.2-2.9-.7-3.3,1-1,14.7,2.9,17.4,1.1Z"/>
  <path class="st1" d="M529.1,1178.3c.9,1.7,3.7,1.1,5.4,1.1,4.3,0,8.7,0,13.1,0-10.6,2.4-22.5.9-33.2,0-2.1-.2-4.4,1.2-3.8-2.2,6.4.5,11.9,1,18.5,1.1Z"/>
  <path class="st1" d="M810.9,783.4c-.6-3.3,1.7-2.1,3.8-2.2,6-.2,12.6-.2,18.6,0s4.4-1.1,3.8,2.2c-9.4-.7-16.8-.5-26.1,0Z"/>
  <path class="st1" d="M589,1178.3c.6,3.3-1.7,2.1-3.8,2.2-6.6.3-15,.7-21.3-1.1,5.4-.1,10.9.2,16.3,0s.8-1.1,1.1-1.1c2.5-.1,5.1.2,7.6,0Z"/>
  <path class="st4" d="M869.7,440.7c1.2-.2,4.8-1.6,5.4-1.1s.2,3.5,1.1,4.3c-.7.2-2.4,2.7-4.4,2.2-.4-1.5-1.6-3.4-2.2-5.4Z"/>
  <path class="st1" d="M601,1177.2c1.3,3.6-8.5,2.7-10.9,1.1,3.7-.3,7.2-.7,10.9-1.1Z"/>
  <path class="st1" d="M407.3,733.3c-.1,0-1.3.8-2.2,1.1-.1-1.9-.4-2.5,1.6-2.2l.6,1.1Z"/>
  <path class="st12" d="M618.4,789.9c-.8,3.5,2.5,1.9,5.4,2.2,0,2.2-1.5,3.1-2.2,5.4h-4.4c-.2-.2,2.7-4.7,0-5.4.3-.9.9-1.6,1.1-2.2Z"/>
  <path class="st5" d="M607.5,820.4c.1,0,.9-.8,1.1-1.1l-1.1,1.1Z"/>
  <path class="st4" d="M417.1,174.1c22.9,4.2,40.7,24.2,50,44.6l-8.6-3.9c-1.2-1.1-10.9-17.1-13.1-14.6-.2,4.9,2.8,7.4,3.3,12.5s0,13-1.5,18.2-4.6,4.9-1.9,9.6c-12.9,6.6-24.8,14.3-36.4,22.9-11.9-28.1-43-38.4-68.4-19.6-1,.7-.7,2.1-.8,2.2-20.4,16.7-30.6,41.7-14.8,66.5s11.9,9.9,7.8,16.2-5-1.4-6.5-1.1-7.3,10.8-13.3,11.6-9.8-.9-11.6-1.1-3-2.4-4-1.8-2.2,4.6-2.2,4.9c0,3.6,15.4,14.8,19.6,15.8-.9,1.4-2.5,4.1-3.3,5.4-15.7-7-28-21.4-34.8-37l2.2-4.3,4.3,3.3c-12.8-33.9-6.2-71.2,14.4-100.4,17.6-25,51-45.4,82-47.5,7.4-.5,20.5,2.4,25.9,1.1,1.7-.4.9-4.1,2.5-4.5s6.7.7,9.1,1.2ZM293.6,338.4v1.1c.7-.4.7-.7,0-1.1Z"/>
  <path class="st3" d="M339.8,245.9c5.9,2.5,11.4-2.6,18-3.3,15.5-1.6,33.5,5,38.6,20.7-4.9.3-16.5,2.4-17.4,8.2s1.6,7.6,1.1,8.1-8.1,2.7-10.5,4.2c-3.9,2.3-10.3,7.3-11,11.9s1.7,5,.4,7.8-19.4,20.6-23.4,25.6c-6.1,7.7-15.8,19.9-20.7,27.7-4.2-1-19.7-12.1-19.6-15.8s2-4.8,2.2-4.9c1-.7,2.9,1.6,4,1.8,1.8.3,10.8,1.2,11.6,1.1,6.1-.8,12.4-11.4,13.3-11.6,1.4-.3,4.4,4.3,6.5,1.1,4.1-6.3-5-11.7-7.8-16.2-15.7-24.8-5.6-49.8,14.8-66.5Z"/>
  <path class="st11" d="M381.2,298.2l14.1-4.3c-2.7,4.1-6.4,7.5-9.8,10.9-68.9,68.4-114.6,158.3-103.4,257.9,3.3,28.9,7.8,40.4,21.8,65.3s3.9,6.7,6.5,10.9,1.4,2.1,2.2,3.3c2.1,3.1,4.1,7.8,6.5,10.9l-2.2,4.4c-68.9-80.4-51.4-182-6.5-269.8,3.4-6.7,7-13.2,10.9-19.6,18.5-24.5,34.6-51,59.8-69.6Z"/>
  <path class="st11" d="M667.3,237.2c.4,0,.7,0,1.1,0l1.1,1.1c-.2.7,1.6.9,2.2,1.1,3.7,1,6.2,1.9,9.8,3.3s2.9,1.5,4.4,2.2h2.2c11.7,8.3,29.8,15.3,43.5,23.9l-4.4,5.4c-11.9-5.6-22.9-12.3-35.2-17.6-84.7-36.6-183.2-34.3-262.9,13.2-1.9,1.2-3.2,2.6-4.4,3.3-3,1.9-6.5,3.3-9.8,5.4-4-2.3-1.9-6.3-2.2-6.5-.6-.4-5.1.3-6.5,0l3.3,3.8c-.2,1-2.2.5-3.3.5-5.5.3-9.6-2.5-14.1-1.1-.3-.4-1.7-.1-1.1-2.2,1.8.4,5.1-2.2,6-2.2h17.4c1.8,0,25.3-16.1,30.3-18.7s24.4-10.4,24.7-11.8c53.3-19.9,110.8-23.5,166.5-11.5,10.3,2.2,21.4,6.9,31.5,8.2Z"/>
  <path class="st7" d="M424.7,273.1c-1.1,3.9-2.5,8.3-1.8,12.4s7.4,7.5-3.3,8c-7,.4-11.1-4.8-12.2,6.8,3.9,1.1,2.7-3.1,6-2.2,3.3.9-1.3,8.7-.5,10.9l-3.8-4.4c-2.9.9-15.4,6-17.3,5.4-2.2-.8-1.3-6.7-6.1-5.4,3.4-3.4,7.1-6.8,9.8-10.9l-14.1,4.3c-.5-1.4-2.1-1-3.3-1.1-1.2-4.7,5.2-3.9,8.4-5.2s5.8-3,6.2-3.4c1.5-1.7.3-4,.7-4.5s4.3.6,5.3-.1,0-1.6.1-2,.9-.7,1.1-1.1c.5.1,2.8.1,3.3,0,1.8,8.8,8.1.3,12-2.2s6.8-3.6,9.8-5.4Z"/>
  <path class="st10" d="M467.1,218.7c1.4,3.1,3.5,6.2,4.4,9.8-8.1,2.5-18.4,8-26.1,12-2.8-4.7,1-6.5,1.9-9.6,1.4-5.3,2-12.8,1.5-18.2s-3.5-7.5-3.3-12.5c2.2-2.5,12,13.5,13.1,14.6l8.6,3.9Z"/>
  <path class="st11" d="M398.6,281.8c-.2.4.4,1.7-.1,2-1,.8-5-.3-5.3.1s.8,2.8-.7,4.5-5.2,3-6.2,3.4c-3.1,1.3-9.6.5-8.4,5.2-2.5-.1-5.1,0-7.6,0-3.9-3.7,12.7-10.8,15-11.7,4.3-1.7,8.8-3,13.3-3.5Z"/>
  <path class="st7" d="M319.2,652.8c3,3.9,5.8,5.8,8.7,9.2s9.1,9.1,8.7,14.7c-8.7-7.3-12.2-11-19.6-19.6l2.2-4.4Z"/>
  <path class="st5" d="M406.2,276.4c-.1,1.9-1.4,3.8-3.3,4.4s-2.8.1-3.3,0c-1.2-.4-6.6-4.1-7.6-5.4,4.5-1.4,8.7,1.4,14.1,1.1Z"/>
  <path class="st1" d="M310.5,387.4c-1.9-.8.9-2.8,1-4.8s-1.5-4.4-1-4.9,2.9.3,4.4-.5,5.2-7.5,6.5-9.3c-3.9,6.4-7.5,12.9-10.9,19.6Z"/>
  <path class="st7" d="M395.3,714.9c-2.5,0-4.5-1.1-6.5-2.2-4-2.2-8.2-5-12-7.6,6.1,3.3,12.6,6.6,18.5,9.8Z"/>
  <path class="st7" d="M352.9,689.8c3.4,2.1,9.1,4.5,12.3,6.5,3.1,2,6.3,5.5,9.5,7.6-7.5-4-15.9-7.8-21.8-14.1Z"/>
  <path class="st7" d="M338.7,678.9c4.5-.2,3.8,2.6,4.4,3.3-2.1.3-2.6-1.8-4.4-3.3Z"/>
  <path class="st2" d="M216.9,669.2c-.8-4.4-4.8-13-2.7-16.3s22-9.8,23.4-8.6c6.5,18.3,14.7,35.9,21.6,54,11.4,30,22.5,60.8,32.9,91.1,5.6,16.2,16.3,42.9,18.2,59,1.6,13.9-3.8,16.5-12.2,5.6-9.3-12-26.4-51-32.2-66.3-3.1-8.2-.2-10.2-1.4-17.7s-5.1-11.1-5.1-13.3,1.9-3.5,2.1-5.5c.7-7.4,0-14.9-3.4-21.5s-6.7-7.5-7.2-9.1c-1.1-3.6.2-9.6-.3-13.8-1.6-12.2-10.3-20.9-20.9-25.9s-9.4-.8-12.7-11.8Z"/>
  <path class="st10" d="M244.1,803c-5,9.2,11,9.5,13.9,12.2s6.9,15.7,10.5,14.9,2.7-3.6,5-3.2c4.6,9.4,18.6,41.2,28.3,43.5-.6,5.2-6.1,13-11.9,10.3s-4.1-10.4-10.9-3.8c-19.9-10.1-32-19.8-47.4-35.9-7.4-7.7-10.3-10.4-18.4-17.5-12-10.5-1.5-6,.3-13.8,1-4.3-.3-8.1-.8-12.3,3.9-1.3,6.6,2.9,9.3,3.3,7,.9,5-3,6.9-6,4.6-7.4,19.2-13.3,20.7-22.9s-.2-6.9,0-10.3c10,9.5,5.3,23.1-4.4,30.9s-9.4,4.4-9.7,7.8c-.5,5.2,5.6,3.8,8.7,2.7ZM284.3,862.8c-2.2-1.1-5.6,1.9-4.3,3.3s6-1.2,4.3-3.3Z"/>
  <path class="st15" d="M216.9,537.5c4.6,7.5,0,34.3-5.9,39.2s-17.4,5.5-22.8,9.6c-7.7-1-13-4.3-19.1-8.6l1.1-1.1h-2.2c-.4-.3-.7-.8-1.1-1.1,0-2.5-1.3-6.8-2.3-9s-3.8-1.1-2.1-3,5.7,7,7.9,6.8l6.2.8c-2.3-6-6.4-11.5-8.7-17.4s.1-.8,0-1.1c2.3.3,2.4.1,2.2-2.2,1.2.8,1.4.9,2.2,2.2,2.5,4.2,4.6,10.8,7.6,15.2,2.8.9,1.9-1.6,2.3-2,1.6-1.3,4.7,3.6,6.9,3s.4-5.2,6-2.2l1.1-6.5,5.4,1.1c2.2-6-5.4-18.5,3.3-18.5.7,4,1.3,8.3,2.5,12.2s1.3,5,2.9,5.2l-1.1-8.7,4.3,4.3c-.9-8.3-2.1-16.8,0-25l3.3,6.5Z"/>
  <path class="st0" d="M212.5,522.3c-.1,3-2.8,6.4-2.2,9.8l-7.6-4.3v15.2c-1.5,0-2.1.3-3.3-.7-1.9-1.7-8.2-12.8-10.6-7.2s0,6.1-3,7.9c-2.4.5-5.5-6.9-9.2-5.4-1.6,1.6,3.6,16.7-4.4,15.2-.7-1.3-1-1.4-2.2-2.2-4.5-2.8-3.2-.8-2.2,2.2s-.1.8,0,1.1c-2.1.9-4.3,3.1-6.6,1.7s-1.9-4.9-4.3-2.7,5.7,9-1.1,10.9c-.7-1.1-1.4-1.8-2.2-3.3-3.6-6.7-4.3-10-5.4-17.4,5.4.7,5.9-1.8,5.4-6.5,1.3-1.6,7,6.8,9.6,5.3s4.2-4.7,4.3-5c.9-2.1,2.9-11.5,3.5-14.5s-.1-1.5,0-2.2h3.3c.1.3-.1.8,0,1.1,1.1,2.4,4.3,8.7,7.1,8.8s2.6-6.1,2.7-8.8,0-2.9,0-4.4c1.1,0,2.2,0,3.3,0s.7,0,1.1,0c1.5,3.2,3.4,13.1,7.6,10.3.5-5.2-4.8-8.9,3.3-10.3.5.5,4.2,1.2,4.9,3.3,1.1,0,.3-1.6.5-2.2.8-1.7,2.2-3.2,2.2-5.4,1.8,3.1,5.6,4.5,5.4,9.8Z"/>
  <path class="st3" d="M258.2,793.2c4.5,11.4,9.8,22.7,15.2,33.7-2.4-.4-3.8,2.9-5,3.2-3.5.9-8.7-13.3-10.5-14.9-2.9-2.7-18.9-3-13.9-12.2,1.2-.4,13.3-8.9,14.1-9.8Z"/>
  <path class="st2" d="M308.3,710.5l-4.4,1.1c-4.1-7.6-9.9-13.2-17.4-17.4-7.1-4.1-10.9-5.3-19.6-4.4-.6-1.7-1.5-3.7-2.2-5.4,21.7-4.2,34.9,7.8,43.5,26.1Z"/>
  <path class="st12" d="M214.7,524.5c1.5,3.6,2.3,9.1,2.2,13.1l-3.3-6.5c-2.1,8.3-.9,16.7,0,25l-4.3-4.3,1.1,8.7c-1.6-.2-2.5-3.8-2.9-5.2-1.2-3.9-1.8-8.2-2.5-12.2-8.7,0-1.1,12.5-3.3,18.5l-5.4-1.1-1.1,6.5c-5.6-3-4.3,1.7-6,2.2s-5.2-4.3-6.9-3,.4,2.9-2.3,2c-3.1-4.4-5.1-11-7.6-15.2,8,1.4,2.8-13.6,4.4-15.2,3.7-1.5,6.8,6,9.2,5.4,3-1.8,2-5.7,3-7.9,2.4-5.6,8.7,5.5,10.6,7.2s1.8.8,3.3.7v-15.2l7.6,4.3c-.6-3.4,2.1-6.8,2.2-9.8,1,.5,1.8,1.2,2.2,2.2Z"/>
  <path class="st12" d="M156,563.6c6.8-1.8.3-10.2,1.1-10.9,2.4-2.2,3.5,2.2,4.3,2.7,2.3,1.4,4.5-.7,6.6-1.7,2.3,5.9,6.4,11.4,8.7,17.4l-6.2-.8c-2.2.2-6.3-8.5-7.9-6.8s1.7,2.1,2.1,3c1,2.1,2.2,6.5,2.3,9-5.3-4.6-6.8-5.5-10.9-12Z"/>
  <path class="st12" d="M228.9,624.5c-1.6,2.2-4.7,1.5-6.5,2.2l-9.8-26.1c1-.4,3.3-2.5,4.4-3.3,3.2,8.1,8.2,18.6,12,27.2Z"/>
  <path class="st15" d="M226.7,638.7v-6.5c-1.1-1.2-13.2,4.5-15.2,5.4s-2.1.7-3.3,0c-2.1-.4-1.6-2.3-2.2-3.3.4-.5.8-2,1.1-2.2.6-.3,2.9-.6,4.4-1.1,3.9-1.4,7.3-3,10.9-4.4s4.9,0,6.5-2.2c1.2,2.8,5.7,8.7,5.5,10.3-.3,3.9-5.6,2.9-7.7,3.8Z"/>
  <path class="st15" d="M215.8,594.1c.2.8.8,2.4,1.1,3.3-1.1.8-3.4,2.9-4.4,3.3-1.9.7-4,1.2-6.5,2.2s-2.1.6-3.3,1.1c-2.1.9-4.4,1.5-6.5,2.2-.2-.5-2.5-3.2-3.3-4.4,2.6.7,4.9-3,5.4-3.3,2.4-1,7.4-1.2,10.6-2.9s1.2-2.4,1.3-2.5c.9-.5,4.1.9,5.4,1.1Z"/>
  <path class="st5" d="M208.2,586.5l2.2,6.5c-.1,0,.5,1.5-1.3,2.5-3.2,1.7-8.2,1.9-10.6,2.9l1.1-3.3c-2.4,0-5.1,0-6.5-2.2,3.2-2.3,11.3-5.5,15.2-6.5Z"/>
  <path class="st5" d="M202.7,603.9c.1.7-.2,1.6,0,2.2l-1.1.6,1.1.5c.2.3,1.2.9,2.2,3.3-3.2,0-3.4-.8-3.3,2.7.2,5.3,3.4,14,5.5,19-.3.1-.7,1.7-1.1,2.2-5.7-10.2-6.1-18.8-9.8-28.3,2.1-.7,4.5-1.3,6.5-2.2Z"/>
  <path class="st5" d="M211.5,637.6c2-.9,14.2-6.6,15.2-5.4v6.5c-3.3,1.5-10.6,3.7-12,4.4l-3.3-5.4Z"/>
  <path class="st12" d="M211.5,637.6l3.3,5.4c-.1,0,.4,1.4-.8,2.1-6.2,3.7-10.2-2.7-5.7-7.6,1.2.7,2.1.5,3.3,0Z"/>
  <path class="st12" d="M193,593c1.4,2.2,4.2,2.2,6.5,2.2l-1.1,3.3c-.6.2-2.8,3.9-5.4,3.3-.2-.3-1.6-.4-2-1.8-1-3.3-.6-5.1,2-6.9Z"/>
  <path class="st12" d="M215.8,594.1c-1.3-.2-4.6-1.6-5.4-1.1l-2.2-6.5c9.7-2.5,6.2,1.9,7.6,7.6Z"/>
  <path class="st12" d="M167.9,576.7h2.2s-1.1,1.1-1.1,1.1c-.4-.3-.7-.8-1.1-1.1Z"/>
  <path class="st10" d="M639,1249.1c2.1-2.6-1.7-6.4-2.1-9.3-.8-5-1.1-23.4,2.6-26.7l86.2-27.9c7,2.4,14.3,1.4,20,6.7,3.8,3.6,11.9,21.4,9.2,25.6s-5.9.9-4.9,4.3c6.2-1.1,11.1,2.9,16.3,5s4.1.1,5.5.5.8.9,1.1,1.1l1.1,1.1c7.8,7.5,17.2,27.7,16.1,38.3-.5,4.5-3.3,10.2-4.1,15-.1.1.3,4.3-2.2,1.7s-.8-3.4-1.7-4.9c-2.6-4-4.3-5.7-7-10.9s-4.1-11.9-12-12c1.6,4.9,5.4,9.1,6.5,14.1s.7,20.9-3.8,22.8c-1.9.8-1.8-2.1-3.3-3.1s-2.7-1.2-4.2-1.3c-.9.2-2,3.9-1.9,4.9s2.8-.1,2.3,1.7c-8,1.8-17.1,4.6-25,2.2,6.4-7.2-1.3-32.2-10.3-32.7-4-.2.4,3.7,1.1,5.4,3.3,7.2,4.8,15.1,2.7,22.9s-2.3,6.7-8.2,6.6c-17.1-.3-38.1-4.4-53.9-11l-11.5-10.8c-9-8.1-10.4-19.8-14.6-29.4Z"/>
  <path class="st4" d="M765.2,1141.3c1.2,7.8,3.1,15.7,4.2,23.5,2.3,16.7,2.5,39.3,6.1,54.9,1.2,5.2,10.9,15.4,14.1,21.8,7.3,15,8.4,28.9-3.7,41.2.8-4.7,3.6-10.5,4.1-15,1.1-10.6-8.3-30.8-16.1-38.3-.4-.3-.7-.8-1.1-1.1s-.6-1-1.1-1.1c-5.4-8-3.4-18.1-4.4-26.6-2-17.5-4.6-35-7.6-52.4,0-1.9,2.6-7.1,5.4-6.9Z"/>
  <path class="st4" d="M639,1249.1c4.2,9.6,5.7,21.3,14.6,29.4l11.5,10.8c-26.7-11.2-24.5-20.1-34.3-43.5s-9.9-21.4-14.7-31.6c1.6-1.4,4.6-3.1,6-1.1,4.9,12.3,11.6,23.9,16.9,35.9Z"/>
  <path class="st6" d="M733.7,1298c-.8-.2-2.3.3-3.3-.5-1.6-1.3-.1-4.8-3.2-3.8,2.1-7.8.6-15.7-2.7-22.9-.8-1.7-5.1-5.6-1.1-5.4,9.1.5,16.7,25.5,10.3,32.7Z"/>
  <path class="st3" d="M775,1268.6c-1.2,1.9-3.4,2.2-5.4,2.2-1.1-5.1-4.9-9.3-6.5-14.1,7.9,0,9.2,6.6,12,12Z"/>
  <path class="st10" d="M780.5,1286.1c1.2,1.2-1,3.4-2.2,2.2s1-3.4,2.2-2.2Z"/>
  <path class="st4" d="M233.2,695.3c2.9,2.9,5.4,6.2,6.6,10.3s1.9,9.5,1,10.4-6.4-.2-8.7,1.7c-4.8,4,2.3,3.8,4.9,4.8,8,3,13.7,9.2,14.6,18s-.2,11.7-1.1,12.5-12-4-13,2.7c5.8,2.8,7.1,1.4,12,6-.2,3.3.4,7,0,10.3-1.5,9.5-16.1,15.4-20.7,22.9s0,7-6.9,6c-2.7-.4-5.5-4.6-9.3-3.3.6,4.1,1.8,8,.8,12.3-1.8,7.8-12.3,3.3-.3,13.8,8.1,7.1,11.1,9.8,18.4,17.5,15.4,16.1,27.4,25.8,47.4,35.9,5.1,2.6,9.5,5.4,15,7.3,16.8,6.1,31.4,6.6,48.6,9,1.4.2.3,4.2.6,5.5-45.1,0-93.4-20.5-119.7-58.2-5.5-7.9-5.1-5.9-12-12-10.9-9.6-15.1-15.5-21.7-27.8.6-2.4,4.9,2,4.4-1.6s-7-14.9-8.7-20.8c-5.9-20.4-5.4-47.2,5.6-66s24.8-24,42.2-17.1Z"/>
  <path class="st2" d="M233.2,695.3c-17.4-6.9-33.3,1.8-42.2,17.1s-11.6,45.6-5.6,66,8.1,16.6,8.7,20.8-3.8-.8-4.4,1.6c-15-27.6-21.9-65.2-4.2-93.9,9.5-15.3,33.1-26.4,47.7-11.6Z"/>
  <path class="st2" d="M417.1,174.1c-2.4-.4-7-1.7-9.1-1.2s-.9,4.1-2.5,4.5c-5.4,1.3-18.5-1.6-25.9-1.1-30.9,2.1-64.3,22.5-82,47.5-20.6,29.2-27.1,66.6-14.4,100.4l-4.3-3.3-2.2,4.3c-25.4-58,10.4-129.6,68.3-151s50.8-10.9,72.1-.3Z"/>
  <path class="st10" d="M389.9,1281.7c-.3-1.6-1.4-2.3-1.1-5.4s2.6-8.8,3.6-11.1,6.7-8.6,2.4-7.3c-8.5,2.5-11.5,13.1-12.5,20.7s-1.7,7.1,0,12c-1.3,1.2-25.5-3.5-27.8-5.4s-3.9-11.5-3.7-14.7c.4-7,3.7-10.5,6.5-15.8,4.1.4,17.5,9,19.5,2.6s-10.7-2-12.5-4.7c.7-3.1-3-9.5-2.5-11.3s7-7.4,7.5-7.8c2.6-1.9,5.2-1.1,7.6-2.2s10.3-8.5,7.6-11.3-15.3-1.6-17.4-1.1c-.1-8.2.2-16.4,0-24.5,0-4.1-1.5-7.7-1.1-12.5s.9-4.1,1.1-6-.7-2,1.5-1.5c27.9,14.4,57.3,25.8,87.7,34.2,7.3,4.2,8.3,35.5,6.3,43.2-6.4,26-39.8,35.7-63.5,32.4-3.2-.4-5.5-3.2-9.2-2.2Z"/>
  <path class="st4" d="M367,1218.6c2-.4,16.6.3,17.4,1.1,2.6,2.8-5.3,10.2-7.6,11.3s-5,.4-7.6,2.2-7.4,7.3-7.5,7.8c-.5,1.8,3.2,8.2,2.5,11.3,1.8,2.7,14.4-1.6,12.5,4.7s-15.4-2.2-19.5-2.6c6.3-12.1-4.5-5.2-8.5.7s-2.9,8.8-4.5,11.6-4,.4-5.5.7c-.8-11-.5-15.7,5.3-25.8s17.3-22,23-23.2Z"/>
  <path class="st2" d="M363.8,1169.6c.2,3.3,1.7,8.5,2.2,12-.3,4.8,1.1,8.4,1.1,12.5.1,8.2-.2,16.4,0,24.5-5.7,1.2-19.9,17.7-23,23.2-5.7,10-6,14.8-5.3,25.8s.8,6.4-1.1,6.5c-12.6-19.3-.5-38.1,14.1-51.7s8.2-4.8,8.7-7.6c.2-15.8-1.1-31.6-2.2-47.3l5.4,2.2Z"/>
  <path class="st4" d="M501.9,1215.3c-4.2,24.4-4.7,54.7-32.6,64.2,19.7-12,23.4-44.5,27.2-65.3l5.4,1.1Z"/>
  <path class="st6" d="M382.3,1278.4c1-7.6,4-18.2,12.5-20.7s-2,6.2-2.4,7.3c-1,2.3-3.3,9-3.6,11.1l-6.5,2.2Z"/>
  <path class="st4" d="M342.6,1277.3c.7.4.7.7,0,1.1v-1.1Z"/>
  <path class="st2" d="M856.6,247l-4.3,2.2c4.1,1.8,7.3,1.2,11.5,2.1l12.5,8.8c-23.7-6.6-46.4-7.8-69.6,1.7s-21.3,13.3-22.6,13.5c-3.2.5-3.8-3.1-6.8-3.1,23.1-21.9,47.3-29.3,79.4-25Z"/>
  <path class="st9" d="M731.5,268.8c3,1.9,5.1,3.7,7.6,5.4v5.4c-2.4-2.1-5.3-2.3-7.6-3.3s-2.9-1.5-4.4-2.2l4.4-5.4Z"/>
  <path class="st11" d="M748.9,280.7h-1.1c-1.2.1-2.1,1.1-2.2,1.1-2.1,0-3.6-.9-5.4-1.1s-1.2,1.2-3.2.6-4.6-3.2-5.5-4.9c2.3.9,5.2,1.1,7.6,3.3v-5.4c3.3,2.2,6.7,4.2,9.8,6.5Z"/>
  <path class="st1" d="M681.5,242.7c-3.5-1.4-6.1-2.3-9.8-3.3l.7-.9c3.1.1,7.5,1.3,9.1,4.2Z"/>
  <path class="st1" d="M688,244.8h-2.2c.2.1,0-1.5,2.2,0Z"/>
  <path class="st1" d="M668.4,237.2c.7,0,1.5,0,2.2,0,.2,1.2-1.1,1-1.1,1.1l-1.1-1.1Z"/>
  <path class="st2" d="M384.4,744.2c.9,1.3,2.1,2.7,2.2,4.4s-.9,1.5-1.1,2.2c-2.9,0-16.9,6.7-19.6,8.7-3,.5-5.6,2.2-8.7,2.2s-3.8-2.8-4.4-5.4c10.7-3.4,21.2-7.6,31.5-12Z"/>
  <path class="st2" d="M350.7,768.2c-.9-.3-2.7.2-4.3-.5-3.4-1.4-22.1-13.7-22.9-15.8s.9-5.3,1.6-6.5c9,7.1,18.4,13.8,25.6,22.8Z"/>
  <path class="st4" d="M317,747.5c-4.8-11.1-7.3-25.2-13.1-35.9l4.4-1.1c5.6,11.9,8.8,23.7,8.7,37Z"/>
  <path class="st7" d="M407.3,720.3c-3.6-.7-6.6-2.6-9.8-4.4l.5-1.1c2.9,1.9,6.2,3.8,9.3,5.4Z"/>
  <path class="st14" d="M160.3,474.4c.2,1.9,2.2,5.7,1.1,8.7,4-2.1,1.6-8.3,2.2-12,2,.4,2.3,7,5.4,4.3s-4.1-12.4-3.3-15.5,4.8-3.4,5.5-2.9,5.5,8.1,6.3,9.4c3.3,5.1,7.4,11.6,10,15.6s1.5,4.5,2.2,5.4l-4.9,4.4c-2.5-2.3-2.8-5.9-4.4-8.8s0-2.7-2.7-2.1c-1.1,2.8,1.2,8.3.8,10.2s-2.3,2.3-2.8,3.6c-1.1,3.1-.7,6.6-3,9-3,.6-7.3-11.3-6-14.1-2.9-.4-1.7.2-2.2,1.6-1.4,3.7-1.1,8.8-4.9,11.4l-3.8-10.9c1.7-4.8,1.7-12.6,4.4-17.4Z"/>
  <path class="st15" d="M156,491.8l3.8,10.9c3.8-2.6,3.5-7.7,4.9-11.4s-.8-2,2.2-1.6c-1.3,2.8,2.9,14.8,6,14.1,2.2-2.4,1.9-5.9,3-9s2.5-2.4,2.8-3.6c.4-1.9-1.9-7.4-.8-10.2,2.8-.6,1.9.6,2.7,2.1,1.6,2.9,1.8,6.5,4.4,8.8l4.9-4.4c.7,1.1,1.4,2.2,2.2,3.3,2.4,5.6-4.1,8.6-4.4,11.5s3.8,7.2,4.4,9.2-.2,3.8,0,5.4c-1.1,0-2.2,0-3.3,0s-.7,0-1.1,0c-.6-2.2-1.4-4.4-2.2-6.5s-2.3-8-4-8.5c-7.5-2.5-5.3,3.4-7.6,4.1s-4.7-1.4-6.3-1c-2.5.8-1.3,4.7-1.9,5.3s-3.3-.5-4.8,1.2-1.7,7.4-1.6,9.8c-3,3.7-5.4-13.7-4.4-15.2-1.3-1.5-5,4.5-5.4,5.4l3.3-15.2c.4-.7,2.6-2.4,3.3-4.4Z"/>
  <path class="st12" d="M165.8,450.5c9.4,8.7,15.2,20.8,21.8,31.6-2.6-4-6.7-10.4-10-15.6s-5.9-9.1-6.3-9.4c-.7-.5-5.3,2.1-5.5,2.9-.7,3.2,3.9,15,3.3,15.5-3.1,2.7-3.4-4-5.4-4.3-.6,3.7,1.8,9.8-2.2,12,1.1-3-.9-6.9-1.1-8.7-.8-9.8,1.7-20.2-3.3-29.4.9-.9,7.6,4.4,8.7,5.4Z"/>
  <path class="st12" d="M200.6,500.5c.8,1.4,1.3,3,2.2,4.4-4.2,4.7-1.2,9.1,2.2,13.1-.3.5.6,2.2-.5,2.2-.7-2.1-4.4-2.8-4.9-3.3-1.3-1.3-3.1-8.8-7.6-5.4-.5-2-4.8-5.5-4.4-9.2s6.8-5.9,4.4-11.5c2.8,4.1,5,6.5,8.7,9.8Z"/>
  <path class="st12" d="M185.3,510.3c-1.8,1.2-1.1,4.5-1.1,6.5s0,2.9,0,4.4h-9.8c-.1-.3.1-.8,0-1.1-1.8-5.1-2.5-5-3.3,0s.1,1.5,0,2.2c-3.2-1.6-1.5,5.7-4.3,3.3s-2.2-9.6-5.5-6.5-.9,6.9-1.1,8.1.8,3.7-1.6,2.7c-4.3-1.7-2-11.8-6.5-9.8-1,.4-4.6,11.3-4.9,13h-1.1c1.2-7,0-14.8,3.3-21.8s4.2-6.9,5.4-5.4c-1,1.5,1.3,18.9,4.4,15.2,0-2.4,0-8.1,1.6-9.8s4.3-.7,4.8-1.2-.6-4.5,1.9-5.3,4.3,1.6,6.3,1,0-6.6,7.6-4.1c1.7.6,3.2,6.4,4,8.5Z"/>
  <path class="st13" d="M147.3,533.2c.3-1.8,4-12.6,4.9-13,4.6-2,2.2,8,6.5,9.8,2.4.9,1.4-1.6,1.6-2.7s.8-7.9,1.1-8.1c3.2-3,4.5,5.7,5.5,6.5,2.9,2.4,1.1-4.9,4.3-3.3-.6,3-2.6,12.4-3.5,14.5s-4,4.8-4.3,5c-2.6,1.5-8.3-6.9-9.6-5.3.5,4.7,0,7.3-5.4,6.5-.5-3.3-1.7-5.9-1.1-9.8Z"/>
  <path class="st13" d="M207.1,512.5c0,2.3-1.4,3.7-2.2,5.4-3.4-4-6.4-8.4-2.2-13.1,1.9,2.9,2.8,5,4.4,7.6Z"/>
  <path class="st9" d="M429,269.9c1,2.8-2.4,10.2.6,10.8s2.6-1.2,4.1-.8,2.6,2.9,4,3.7c4.4,2.3,2.7-.9,3.5-3,1.1-3.3,16.4-2.5,19.9-1.8s4.2,4.8,6,6c2.9,1.8,8.7-3.5,13.1-1.7l-1.1-10.9c3.7-.9,7.2,4.2,10.6.8s-.6-10.8.3-11.7c6,1.2,16.3-2.1,15.2,8.1s-16.7,11.8,0,19.1c1.4-3.1-2.8-8.2-2.1-10.2s4.7-1.3,6.5-2.3,1.8-3.2,2.4-3.6c5.5-3.2,5.3,3,6.2,3.6,1.3,1,4.2.1,5.9.7s2,5.1,5.6,4.2-1.7-5.2-1.7-7.1,2.6-3.5,3.6-5.2.7-3.9.8-4.1c.4-.4,2.6,1,3.8.9,11.1-.8,3-.2,5.4,3.5s10.5,6.4,11.5,5.4c.6-6.4-4-14.5-10.9-12v-3.3c6.8-2.6,18.1,5.1,23.2,2.2s1.8-4,4-2.2-3.6,8,2.2,11.4,3.6.5,4.9,1.6,1.4,4.3,1.5,4.5c1.3,1.2,7.2-4.2,9.2-4.3s9.3,3.9,10.5,5.8.5,6.3,3.2,7.7c3.3,1.7,8-2.8,11,.9s-2.7,14.6,7.5,13.7c-1.1-3.3,1.9-7.2,2-9.5s-5.4-3-5.3-6.3c1.4-1.1,3.2-6.7,3.5-6.9,1-.8,4.2.5,5.2-.3s0-3.7,1.8-4.1,4.8,1.9,5.8.9,0-2.9,1.1-3.8c1.6-1.3,4.2,1,5.9.5s1.9-4.4,4.5-4.3c2.1-.3,1.4.3,1.9,1.4,1.4,2.9,1.9,7.3,1.9,10.6,2.3.9,4.4-2.3,5.8-2.1s7.7,5.2,8,5.6c2.4,2.9.2,6.8,7.5,7.3s5.2-1.8,6.4,0c1.9,2.2-2.4,3.4-2.6,5.1s2,4.5,2.3,4.6c.5.3,10.4-.6,12.1-.5,2.8.2,7.7,2.3,9.8,1.9,3.1-.6-1-7,2.3-6.6,1.8,1.1,2.1,4.3,3.3,5.4s3.7.9,3.8,1.1c.3.3-3.4,7.9-3.9,8.6-1,1.6-4.6.4-1.6,5s4.7,4.9,5.9,4.8c4.7-.8,3.1-10.4,6.7-9.7s-4.8,8.1-2.2,12,3,1.4,4.2,2.2c3.1,2.1,6.7,4.2,10.2,6.3s4.1,1.2,5.4,2.3c2.2,1.9,1.3,5.3,1.6,5.5.5.5,3.6-1.3,5.4-.6s5.1,5.3,5.5,6.6c1.3,4.6-8.9-1.3-9.8-.6.4,2.3-3.4,9.4-2.1,10.8s2.3,0,3.1.6,2.2,9.1,5.5,6-3.1-3.8-3.2-5.9.5-7.1,3.6-5.9c5.9,2.3,0,6.8.7,10.7,3.1-.3,5.8-3.2,9.1-2.3s1.7,5.4,3.9,6.1c-1.5,6.5-7.8-2.3-9.8-.6,1.1,1.7.8,8.3,1.1,8.7.6.6,9.2-1,3.7,6.6-1.3,1.8-3.7,1.7-4.4,4.3-1.3,4.7-1.3,14.6,6.1,10.5s-3.3-4.9-2.2-7.1c7.6-2.3,3.3,6.8,5.4,8.2,14-1.5,6.4,1.9,6.6,6.5s3.2,5.5,3.5,5.7c7.9,4.5,23.2-6.2,32.4-4.6,2.4-1.3,1.1-4.8,4.3-5.6s9.5-.8,9.9-.4-.1,2.4,0,3.3c-1.9,0-7.5-.1-8.5,1.3s-2.2,8.1-2,9.6c1.3,7.2,7.5,2.6,10.5,5.9s.6,3.5,1.3,4.6,2.9,1.1,3.6,2.4-1.3,4.8.4,7,6.2-.9,4.4,3.3-13.6,6.3-8.7,14.7l-6.5-3.3c-2.1,6.1-.4,10.2,2.2,15.7-.2,1.2-9.8,2.8-6.5,6s18.1-10.7,10.9,4.4h4.4c.4.4-1.2,9.8-1.1,11.4.5,6.5,10.4,2.5,14.7,2.7s9.4,2.1,4.9,5c-2.6,1.7-5.9-3.8-9.3,3.8s1,5.6.5,8.6c-9-2.2-3.8-.1-4.4,2.7s-7.1-.4-9.8,1.7c-.8,4,5.4,3.6,6.3,4.6s.3,5.6,3.4,3-.3-6.7,3.3-5.4l-1.1,10.9c.9,1,5.5-4.5,6.5-.5s-4,8.9-2.2,12.5l4.3-1.1c-.4,2.7.7,6.7-.1,9.1s-6,3.9-6.8,3.8c-2.1-.3-4.6-6.7-8.3-5.3-5.9,18.6-6.7-8-14.7-5.4-1.9.6-.8,4.1-3.9,3.2.9-8.7-4.1-2.5-7.3-1.3s-3.5-.1-4.9.3-3.7,3.3-3.8,3.5c-1.6,3.4,1.9,12.3-2.5,14.4-8.7,4.3-4.1-6.4-9.8-7.1,0-.3,0-.8,0-1.1.7-3.7,6.5-4.6,5.4-8.1s-4.9-.4-7.3-1.3-5.4-4.1-6.9-5.8c-.1-.3,0-.7,0-1.1-2.4-9.5-22.2-30.6-31.6-33.7-.3-.1-.8.1-1.1,0-1.6-.5-4.6-4.1-5.1-4.3-.8-.4-2,.2-2.5,0-.8-.4-1.6-.9-2.2-1.1.5-2.5-1.2-2.4-2.8-3.1-6.6-2.9-13.4-3.5-19.2-5.6s-1.1-2.2-1.9-2.7-16.3,1.5-18.8,1.9c-7.5,1.2-17.1,5.2-23.6,9s-6.7,3.3-6.6,5.9c-.4.3-.7.8-1.1,1.1-7.2.8-11.2,7.4-14.1,13.1s.2.8,0,1.1c-2.3,0-3,1.3-4.2,2.9-8,10.7-11.7,24.9-15.7,37.6s-2.5,2.5-2.7,3.7c-.4,2.2,2,7.3,1.8,9.7s-2,2.9-2.1,5.3c-1,17.4,2,38.2,9.1,54.2s.2,3.6,3,3c0,.4,0,.7,0,1.1,1.2,8.6,4.8,9.3,7,15.3s.2,5,1.1,6.5,3.7.4,2.7,2.7-3.8,2.3-5,3.7-1.7,4.5-3.1,5.6c-1.9,1.6-6.5,1-8.3,3.6s-.2,6-1.5,8.2c-2.3,3.9-13.4,6.2-15.8,8.2s-2.1,7.8-3.5,9-3.1.6-4.5,1.5c-5.3,3.5-4.7,5.4-12.9,3.1s-.7-1.6-1.7-2c-2.1-.9-6.8-.7-7.7-4.1-.9-3.4,2.7-2.9,3.5-5s.4-5.6.9-6.2,4.2.3,4.2-3.4c.3,0,.8,0,1.1,0,2.5.2,4.5,2.4,7,2.2s9.2-4.4,9.3-4.9c.3-1.5-2.8-3.5-3.1-5.6s1.7-5.7.8-6.8-1.8.1-2.1,0c-.6-.4-.9-1.9-1.9-2.2-5.5-1.2-9.9,6.8-15.2,9.6-8.5,4.5-19.4,4.6-28.4,1.6-15.8-5.3-8.6-13.4-7.8-26.4,29.5,1.7,60-31.8,20.1-46.9-16.7-6.3-57.3-10.6-53.6,17.7,1.2,9.2,8.2,15,13.9,21.5,3,3.4,3.9,8.7,10.9,7.6.2,2.3-1.2,8.5-2.2,10.9,0-1.6,1.1-4.9-1.6-4.3-3.9,1.1-4.5,10.4-4.9,10.8-.6.6-10.7-1.3-13,0,.8-9.3-7.5-1.9-12.5-9.9-2.5-4,.5-9.3-3.9-11.4s-7.2-.9-7.6-.5.3,3.4,0,4.4-1.4,1.1-2.2,2.2c-1.2,1.8-5.2,4.2,0,4.4,0,.7,0,1.5,0,2.2.8,8.3,2.5,7.8,8.7,12,.7,2,.3,6.9,1.2,7.5s12.7,1.5,15.4,2.3.7,2.1.8,2.2c2.6,12.3,4.1,4.4,7.7,1.7s2.7-.5,4.3-1.7,1.1-1.1,1.1-2.2c3.1-.2,8.6-2.1,10.2-1.9s10.6,7.3,14.9,8.4l5,3.2c2.2.3,4.2-1,6.4-1,6.8.1,1.8,3.9,3,7.8s6.4,3.8,3.6,9.5-9.5,5.3-11,5.4c-2.8.3-5-2.7-8.5-2.2s-14.9,8.1-14.8,1.6c0-2.3,4.4-3.8,3.3-7.1-3.4.3-8.7-.3-7.6,4.3-4.6-1.5-9.1.8-13.6,0s-4-2.8-4.9-2.1-2.8,9.5-5.4,7.6-2.4-10.8,3.3-10.4c-.8-7.8-5.8-5.4-11.2-7.3s-2.6-2.8-4.6-3-3.7,1.1-5.5,1.2-5.7-1.4-5.9-1.2c-.4.4.5,4.5-2.6,4.2s-3.6-2.9-5.1-3.6c-2.6-1.3-8.3.3-5.9-4.9,2.2-4.9,9-1.4,9.1-6.2s-2.5-2-3-2.7,2.2-4.8-.7-5.3c-4.9-.8-3,5-4.8,7.1s-6.1,1.9-7.9,2.8-1,1.7-2.2,2.4-3.9.6-4.1.8c-3.7,3.3,9.3,1.8,9.8,2.2-.8,6.3-6.2,3-9.2,3.3-2.8.2-4.7,4.3-9.8,3.3s-2.1-4.8-2.8-5.4-3.9.4-4.3,0,1.1-5.5-1.1-8.1c-3.8-4.6-9.4-1.3-9.8-1.7l1.1-6.5c-5.8,2.3-5.5-6-7.8-7.4-4.4-2.6-16.8,4-17.2-2.4,4.8,2.7,7.9-5.3,10.3-5.2s2,2.8,4.4,3.1c7.7.9,6.5-5.8,9.7-8.8s7.8-2.9,8.1-3.4c.6-.9-.2-3.3.2-4.7s1.9-3.2,2.1-4.5c.3-2-1.4-5.4-1.1-5.8s5.6-1.8,6.9-2.5c5.6-3.1,11.7-7.7,17-11.2s10.3-5.9,9.9-12.5c.7-.7,1.4-1.5,2.2-2.2s.7-.8,1.1-1.1c1.3-1.1,4.4-.1,3.3-5.4.4-.4.8-.7,1.1-1.1,4.5.5,2.9-.2,3.3-3.3s0-.7,0-1.1l5.1-5.8c5.1-10.1,8.8-18.7,10.1-30.6,0-.8,2.2-.6,2.2-1.3.2-1.4-1.3-3.1-1.2-4.2s1-1,1.6-5.5c1.2-8,4-19.9,2.8-28.4s-2.3-1.5-2.3-2.2c0-6.6,1.7-6-1.9-12.6s3.5-5.2-2.4-4.1c-8.6-35.2-36.6-55.9-73.1-49.7-60.7,10.3-120.3,96.5-85.7,154.2-4.9,1-12.6,6.4-14.7,10.9s1.2,5.7.4,8.9-4.3,8.5-7.4,6.9-7.4-10.7-6.5-11.5c15.1.3,5.9-8.5,6.5-14.6s5.8-5.8,5.5-10.4l13,7.6c.7-.8-2.8-11.5-3.3-11.9-1.5-1.1-6.3,3.3-11.3-2.3s-1.8-6.2-3.8-4.3-2.4,7.4-4.3,9.3c-7.2,7.3-9.6-1.7-13.4-5.7s-4.4-.6-5.1-4.1,4.6.3,5.1.4c3,.5,5-5.3,6.1-7.1s2.4-.9,2.8-2.1c.8-2.3-3.5-11-6.9-10.3-2.7,5-3.8,7.7-10.4,6.6-11.2-99.5,34.5-189.4,103.4-257.9,4.8-1.3,3.9,4.6,6.1,5.4,1.9.7,14.4-4.5,17.3-5.4l3.8,4.4c-.7-2.2,3.8-10,.5-10.9-3.3-.9-2.1,3.3-6,2.2,1.1-11.5,5.2-6.4,12.2-6.8,10.7-.5,3.9-4.7,3.3-8s.7-8.5,1.8-12.4c1.1-.7,2.4-2.1,4.4-3.3ZM630.3,277.5h-3.3v2.2h3.3v-2.2ZM456.2,280.8c-1.2-1.2-3.4,1-2.2,2.2s3.4-1,2.2-2.2ZM595.5,285.1c2.2-2.2-3.8-7.1-5.4-2.7s5.1,3,5.4,2.7ZM628.1,287.3c-.3-.2-3.7-1-3.1,1.5s1.7,7.1,4.2,6.1c0-1.2-.8-7.3-1.1-7.6ZM662.8,295c-.2-.4-5.2-2.8-6.4-2.3-.1,3.4,4.4,2.6,3.3,6.5,2.4.5,4.2-2.3,3.1-4.2ZM451.9,294.9h-5.4v2.2h5.4v-2.2ZM602.8,302.8c2.9,3.2,2.7,11.1,10.1,2.4l-10.4-7.1c-2.5-.4-5.2.3-4.8,3.3,1.5.2,4.1.3,5.2,1.4ZM426.9,300.4c-1.1-1.4-10-1.3-7.6,2.1s7.1,1.6,7.6,1.1,0-3.1,0-3.2ZM624.9,308h-3.3v2.2h3.3v-2.2ZM396.4,318.8c.3-2,0-3.2-1.6-4.3h-1.6s0,4.3,0,4.3h3.3ZM406.2,327.5h-3.3v2.2h3.3v-2.2ZM722.8,329.7c-2.3-2.3-7.7,5.7-3.8,6.5s4.9-5.4,3.8-6.5ZM404,335.1h-2.2v3.3h2.2v-3.3ZM717.4,344.9c-1.1-1.1-4.4,2.2-3.3,3.3s4.4-2.2,3.3-3.3ZM722.8,358h-3.3s0,4.3,0,4.3h1.6c1.7-1.1,1.9-2.3,1.6-4.3ZM732.6,368.9h-1.6c-1.7,1.1-1.9,2.3-1.6,4.3h3.3s0-4.3,0-4.3ZM444,387.6c-5.8.9-18.7,8.1-19.3,14.5s13.1,1.9,17.9,1.5,9,0,13.1,0,15.8,4.1,12-7.7c-2.6-8.1-16.7-9.5-23.7-8.4ZM782.6,410.2c-7.4-2.1-9,11.7-2.6,6.6s3.2-6.1,2.6-6.6ZM747.8,415.7c-1.2-1.2-3.4,1-2.2,2.2s3.4-1,2.2-2.2ZM755.4,417.8c-.9-1.1-6.5,4.5-5.4,5.4,2.4,1.9,6.5-4.1,5.4-5.4ZM810.9,421.1c-1.9-1.9-5.6,1.7-1.6,3.2s1.9-2.9,1.6-3.2ZM677.4,435c1.9,2.1,18.1,3.9,23.6,6.3s16.2,13.2,18.4,5.2c3.4-12.7-24.1-29.9-37.6-22.3-3.6,2-7.9,7-4.4,10.8ZM750,426.5h-7.6s0,3.3,0,3.3c3,0,7.8,1,7.6-3.3ZM801.1,459.2c2.2-2.1-5.8-5.4-4.3-1.6s3.6,2.3,4.3,1.6ZM799,464.6l-12,4.9c-1.1,5.3,6.8,2.2,6.5,7.1-8.2.1-9.9,3.3-10.9,10.9,6.9,1.6,3-3.6,6-6.6,4.8-4.9,6.2,1.7,2.7,6,6.8,2.2,3,3.8,4.9,8.2s5.7,4.2,6.1,7.5c4.2,2,7.5-5.4,8-5.4,1.9,0,4.7,3.3,6.8,2.1s2.5-4.4,2.2-5.6c-.7-3.2-6.4-7.3-7.2-8.7s-.7-13.1-4.7-10.1-2,10.7-5.4,8.2-1.2-6.8-2.1-8.1-3.1-.4-3.3-.7c-1.6-1.6,3.3-8.6,2.1-9.7ZM754.4,470.1c-2.7-2.4-5.8,3.2-6.2,3.3-3.7,1-8.5-1.3-12.3-1.1,1.2,5.1,0,10.2-1.1,15.2,1.8,1.5,7.2-3.4,5.4,5.4.3.3,6-.6,6.9-1.1s.3-2.4,1.4-3.4,10.2-2.8,4.8-6-4.6,2.4-5.5-2.1,4.4.6,5.5-.6c-2.3-2.7,1.5-9.4,1.1-9.8ZM766.3,477.7c-3.3-.3-3.5,2.7-3.3,5.4,3.3.3,3.5-2.7,3.3-5.4ZM732.6,485.3c-1.2-1.2-3.4,1-2.2,2.2s3.4-1,2.2-2.2ZM767.4,491.8h-2.2v3.3h2.2v-3.3ZM770.7,508.1c-2.8-3-2.3,6.8-2.2,7.6,4.9,2.8,2.9-6.8,2.2-7.6ZM796.8,508.1c-2.7-.3-5.7,0-5.4,3.3,2.7.3,5.7,0,5.4-3.3ZM816.4,519c1.4-1.2-8.2-11.2-10.9-8.7s7.1,11.3,10.9,8.7ZM791.3,525.5c.5-3.4-2-5.9-5.4-5.4v5.4s5.4,0,5.4,0ZM804.4,524.5c-1.2-1.2-3.4,1-2.2,2.2s3.4-1,2.2-2.2ZM776.1,528.8c-1-1.2-4.4,2.2-3.3,3.3,1.9,1.6,4.9-1.4,3.3-3.3ZM319.2,545.1c-7.2-.8-3.3,11.5-4.6,16.6s-13.4,13.3,4.6,6.2v-22.8ZM523.7,672.4c-1.5-.8-2.9.7-2.2,1.1,1.5.8,2.9-.7,2.2-1.1Z"/>
  <path class="st10" d="M719.5,488.6c.6.2,1.3.7,2.2,1.1,1.4,2.9,4.9,3.3,7.6,4.4s.8-.1,1.1,0l31.6,33.7c0,.4-.1.8,0,1.1,1.2,3.7,3.5,8.3,5.6,12.4.8,1.5.4,3.4,3.1,2.9,0,.3,0,.7,0,1.1,0,4.5,5.7,15.9,7.3,21.5,32.1,114.3-102.3,161.7-154.4,62.9-.8-1.5-.4-3.4-3.1-2.9,0-.4,0-.7,0-1.1-1.6-11.9-7.5-23-8.6-36.6-2.5-32.5,4.5-52.3,19.4-79.8.2-.3-.1-.8,0-1.1,5.7-2.8,9-8.6,14.1-13.1s.7-.8,1.1-1.1c22.2-17.2,48.1-15.6,72.9-5.4ZM721.7,613.7c.5,2.1,3.4-1.7,3.8-2.2,34-38.4-5.5-118.3-60.7-98.8s-38.7,45.3-37.8,74.3c0,2.1-1.1,4.4,2.2,3.8,6.2,51.6,67.9,67.9,92.5,22.8Z"/>
  <path class="st10" d="M488.9,491.8c7.7,31.7,1.5,60.9-11.7,90-.9,2.1-1.8,0-2.5,4.6s0,.7,0,1.1c-3.3-.5-2.8,2.7-3.3,3.3s-.7.6-1.1,1.1c-1.3,1.6-3.5,3.1-4.4,5.4v1.1c-.8.7-1.4,1.5-2.2,2.2-27.3,25.1-54.3,39.6-92.5,27.8s-33.5-19-41.3-32.1c-34.6-57.6,25-143.9,85.7-154.2,36.5-6.2,64.6,14.5,73.1,49.7ZM444.3,593c27.5-14.7,38.7-47.3,33.2-77.3-11.1-60.7-82.4-55.1-101.5-2.4s-4.8,26.5.6,42.5-.8,4.1,2.5,3.5c5.6,31,36.8,49,65.3,33.7Z"/>
  <path class="st1" d="M516.1,633.3c-5.7-6.5-12.7-12.3-13.9-21.5-3.7-28.3,36.8-24,53.6-17.7,39.9,15,9.4,48.6-20.1,46.9-.8,13-8,21,7.8,26.4,9,3,19.9,2.9,28.4-1.6,5.3-2.8,9.7-10.8,15.2-9.6s1.3,1.7,1.9,2.2c.4,7.7-7.3,10.9-12,15.2-.3,0-.8,0-1.1,0-1.7.3-4.1,2.4-6.3,3-8.5,2.2-17.7,3.8-26.4,1.4s-12.8-8.1-14.9-8.4-7.1,1.7-10.2,1.9c-12.6.7-20.2-3-30.5-9.8-1.1-3.3-3.7-6.1-5.6-9.1s-.4-3.5-3.1-2.9c0-.7,0-1.5,0-2.2,0-1.5,0-2.9,0-4.4.7-1.1,2.1-2,2.2-2.2,6.6-1.1,5.6,3.7,7.8,6.9,6.8,9.8,16.2,16.1,28.7,14.8,8.4-.8,7.4-3.4,7.1-10.9,1-2.3,2.4-8.6,2.2-10.9-.4-4.3-7.7-5.3-10.9-7.6ZM524.8,598.4c-2-.5-5.3.3-7.6,0-1.5-.8-6.4,5.8-6.5,6.2s-.1,8.6,0,9c.2.8,1.9,1.2,2.2,1.9,3.7,8.6,7.8,13,17.2,16.3,7.4,2.6,5.9.3,10.7-.4s3.9,1.2,6.1.8.7-1.8,1.6-2.1c4.7-1.6,8.5-2.8,12.8-5.5s5.8-8.9,3.8-14.2-2.7-4.2-6.2-6.3c-8.5-5.2-20.4-7.1-30.3-7.8-2.1-.2-4.4-1-3.8,2.2Z"/>
  <path class="st9" d="M419.3,632.2c-.6,5.3-6.4,6.1-3.3,12l-4.3-1.1c2.3,6.5.7,5.7-5.4,6.5.4-2.4-.6-5.8,0-8s4.1-1.3,5-2.9-1-3.3-.2-4.4,7.9-2.5,8.3-2.1Z"/>
  <path class="st9" d="M399.7,635.4c0,4.2-4.2,4.7-7.6,4.4-.5.4,4.7,8.5-6,6.5-5.9-1.1-1-4.9.3-7.4s0-3.1.3-3.4c.5-.6,10.9.3,13,0Z"/>
  <path class="st5" d="M310.5,638.7c-2.6-4.1-4.1-6.6-6.5-10.9,8-4.4,11.3,5.5,6.5,10.9Z"/>
  <path class="st9" d="M570.5,705.1c1.5,2.1-7.8,8.1-8.7,3.8s6.7-6.5,8.7-3.8Z"/>
  <path class="st9" d="M380.1,690.9c-2.5-1.5-4.8-2.6-7.6-4.4,2.8-3.1,7.2.8,7.6,4.4Z"/>
  <path class="st9" d="M745.7,281.8v4.3c-.8.8-7.2-2.7-5.4-5.4,1.8.2,3.4,1.1,5.4,1.1Z"/>
  <path class="st9" d="M368.1,657.2c1.8,1.7-2.6,6.1-4.3,4.3-2.3-2.3,2-6.6,4.3-4.3Z"/>
  <path class="st9" d="M356.2,664.8c-.9-4.5,2.7-8.1,4.3-2.7-1.4,1.3-2.3,3.1-4.3,2.7Z"/>
  <path class="st9" d="M354,673.5c-1.3-1-4-.4-3.3-3.3,1.2.5,4.5-.6,4.3,2.7l-1.1.6Z"/>
  <path class="st9" d="M463.9,690.9c1.7,1.7-1.5,5-3.3,3.3s1.5-5,3.3-3.3Z"/>
  <rect class="st9" x="386.6" y="657.2" width="3.3" height="2.2"/>
  <path class="st9" d="M540,705.1c1.2,1.2-1,3.4-2.2,2.2s1-3.4,2.2-2.2Z"/>
  <path class="st9" d="M571.6,696.4c1.2,1.2-1,3.4-2.2,2.2s1-3.4,2.2-2.2Z"/>
  <path class="st5" d="M827.8,360.2c.7.4.7.7,0,1.1v-1.1Z"/>
  <path class="st9" d="M747.8,280.7h1.1c-.6,2.3-1,0-1.1,0Z"/>
  <path class="st6" d="M439.9,890c-.2.3-.2,5.6-.8,6.9l21.5,62.7c2.9.3,1.7,0,2.1-1.6,1.1-4.7,1.6-10.8,2.2-15.8s-.1-1.5,0-2.2v-1.1c.8-5.5,2.5-11.1,3.2-15.8,1.7-12-.7-44.8,19-42.9,15.4,1.5,12.3,21.5,11.5,31.5-1.5,18.9-3,37.5-5.4,56.6-.4,2.9-.3,5.9-1.1,8.7-27-2.9-44.9-6.3-70.7-14.1-.6-3.8-3.3-7.4-4.4-10.9-3.4-10.7-6.7-22-10.1-32.9-2.1-6.7-.6-13.6-8.4-16.1,0-3.8-5.5-13.4-6.2-19.3-1.2-9.7.8-36.1,6.4-44.2,6.5-9.4,18.7,5.1,23.3,10.2,9.7,11,19.2,24.9,17.9,40.3ZM400.8,880.2c-.5,6.1,4.2,18.5,9.8,21.3,2,1,15-6.1,18.8-5.2l1.7-1.6c3.2-20.1-10.2-34.7-23.8-47.2-.4-.3,1.2-3.2-3.3-2.2-.7,11.5-7.2,23.3-3.3,34.8ZM475.8,920.5c2.6,4.9,9.7,5.4,14.2,2.6-1.4-7.9,5.2-26.6,0-32.6s-2.5-1.6-4.4-1.6c-10.3,0-7.5,24.4-9.8,31.6ZM433.4,905.3c-.2-.5.2-1.5,0-2.2l-19.7,6.1c-1,4.2,6.9,22.4,8.8,27.6s1.9,3.5,2.2,4.4c1.8,5-.1,9.5,4.4,14.1s1.7,1.3,4.4,2.2,16.1,4.4,17.4,3.3c.2-3-2.6-6.3-3.3-8.7s-.5-3.6-1.1-5.4c-1.3-4.3-3.2-8.3-4.4-12-3-9.6-5-19.8-8.7-29.4ZM470.4,961.8c0,1.4,0,2.9,0,4.3,3.6-.5,11.3,2.7,14.2.6s3.8-30.7,4.3-35.4c-.4-.4-7.9.3-9.8,0s-3.7-2.6-4.3-2.2c-1,10.4-4.2,22.3-4.4,32.6ZM462.8,961.8c-2.3-.3-2.5-.1-2.2,2.2l2.2-2.2Z"/>
  <path class="st14" d="M402.9,1007.5c-.2,4.7,0,9.5,0,14.1s-1.1.1-1.1,2.7,1.2,8,2.2,10.4c0,.7,0,1.5,0,2.2,0,1.2-1.8,3.5,1.1,5.4,0,.4,0,.7,0,1.1l1.1,3.3c2.5,7.9,6.7,14.5,12,20.7,7.3,8.6,12.2,11.9,22.8,16.3,34,14.2,130,27.6,146.9-16.3,3.2-.2,6,.3,7.6,3.3-13,31.8-41.3,35.2-72.3,35.9-42.6,1-112.6-6.4-125.7-56.6,3.3.6,2.2-1.5,2-3.6-.5-5.1-1.6-10-2.1-15.4s1.2-4.4-2.2-3.8c0-1.4,0-2.9,0-4.4s1-1.2,1.1-2.6c.6-7.4-3.4-12.7,6.5-12.6Z"/>
  <path class="st2" d="M504.1,968.4c4,.3,11.9,2.2,15.8,2.2h42.4c2.3,0,8.9-2,11.4-2.2,4.3-.4,8.8.3,13.1,0,0,2.7,1.1,4.7,1.1,5.4,0,1.4,0,2.9,0,4.4-5.7-1.8-12.2,1.8-16.3,2.2s-5.8,0-7.1,0h-45.7c-8.1,0-18.6-2.4-26.7-3.3.8-2.9.7-5.8,1.1-8.7,3.6.2,7.3-.3,10.9,0Z"/>
  <path class="st2" d="M409.5,949.9c3.1.2,4.8,1.5,7.6,2.2,1.1,3.5,3.7,7.1,4.4,10.9-2.1-.6-13.1-3.8-14-3.2-2.4,7-1.8,14.5-2.3,21.7s.1,3.6,0,5.4c-.5,6.4-1.9,14.3-2.2,20.7-9.9-.1-5.9,5.2-6.5,12.6s-1.1,2.5-1.1,2.6c-3-5.8-.2-13.2,0-19,.5-14.7-.5-29.8,2.4-44.4,1.3-6.8,4.6-10,11.7-9.5Z"/>
  <path class="st15" d="M504.1,968.4c-3.6-.3-7.3.2-10.9,0,2.4-19,4-37.7,5.4-56.6l2.2-7.6c6.7,3,3.3,9.9,5.2,15.8l-2,48.4Z"/>
  <path class="st15" d="M439.9,890c.2-.2,2,.2,2.2,0,.7-.9-1.4-6.3,1.1-6.5,4.3,14.7,7.9,29.5,13.3,43.8l8.4,14.9c-.6,5-1.1,11.1-2.2,15.8-.4,1.6.8,1.9-2.1,1.6l-21.5-62.7c.6-1.3.6-6.6.8-6.9Z"/>
  <path class="st15" d="M417.1,952c-2.8-.7-4.6-2-7.6-2.2-1.3-5.9-4.5-11.4-6.2-17.2-3.4-11.2-4.8-18.5-4.7-29.6,7.9,2.4,6.4,9.4,8.4,16.1,3.4,10.9,6.7,22.2,10.1,32.9Z"/>
  <path class="st15" d="M548.7,837.8c-7-.5-15.5-.2-22.3-1.1-6.4-.8,2.9-3.1,5.4-3.3,4.5-.4,18.5-1.9,16.9,4.4Z"/>
  <path class="st2" d="M395.3,1027.1c3.4-.6,2,1.7,2.2,3.8.4,5.5,1.6,10.3,2.1,15.4s1.2,4.2-2,3.6c-1.9-7.3-2.3-15.3-2.2-22.8Z"/>
  <path class="st15" d="M441.6,881.3c.7.4.7.7,0,1.1v-1.1Z"/>
  <path class="st15" d="M465,940.1c0,0-.1-.3,0-1.1v1.1Z"/>
  <path class="st3" d="M923,303.6c1.2,1.2-1,3.4-2.2,2.2s1-3.4,2.2-2.2Z"/>
  <path class="st4" d="M385.5,750.8c4.2,0,2.3,3.3,3.3,5.4-2.3,5.4-7.5,12.3-13.9,12.8s-10.8-.4-11.2-.8c-1.1-1.2-.3-6.9,2.2-8.7s16.7-8.7,19.6-8.7Z"/>
  <path class="st4" d="M286.5,694.2c1.3,1.6-.2,1.9-1.4,2.4-1.7.8-9.9,3.4-10.6.3-.1-5.9,10.5-4.4,12-2.7Z"/>
  <path class="st14" d="M643.8,1049.5c-33.7-25.5-45.3-64.4-36-105.3,19.8-87.4,116.9-148.5,202.5-153.2,36.7-2,108.9,5.2,106,56.2-.2,2.8-4.5,4.4-3.1,12.9,3,18.3,32,17.1,45.5,23,48.3,21.3,14.4,88.1-10.7,115.2-69.8,75.4-216.2,117.7-304.2,51.2ZM800,847.6c1.6-16.1-12.6-13.1-20.6-16.9-5.2-2.5-3.4-6.5-13.6-7.1-11-.6-11.9,3.1-19.9,6.2s-12,1.4-17.6,7.4c-4.1,4.4-2.9,9.2-5,12.4s-5.9,3.2-6.8,6.3,0,4.1-.5,6c-1.8,6.5-5.6,11.9.9,18.1,5.9,5.6,8.6-1.3,14.6-2.1-3.1,7.3,4.9,16,12.4,15.2s3.6-1.9,5.6-2.1c3.5-.4,7.2.5,10.6-.3,5-1.1,7-7.6,9.1-8.3,3.2-1.1,6.8,1.4,10.4.7s7.6-3.6,9-5.2c7.6-8.4-1.5-16.3-.5-20s11.4-8.7,9.7-14.9l2.2,4.3ZM837,837.8c-.4.5-5.3,9.3-5.4,9.8l-3.2,7.2c1.9,19.7,20.4,30.7,38.8,22.5,3.2-1.4,15.1-13.7,16.8-17,11.5-21.8-9-39.6-30.7-35.1s-12.4,7-16.3,12.6ZM910.7,893.5c-8.4,1.3-12.8,7.5-17.9,9.3s-6.3.8-10.5,2.6c-16.9,7.1-30.4,34.2-17.6,49.9s8.4,5.8,8.8,6.5c.7,1.2-.6,3.1-.3,4.6,4.2,21.3,28.5,22.2,44.3,12.2,7.9-5,4.4-1.9,13.4-2.9,11.2-1.3,23-11,22.6-23.1s-2-6.2-1.8-7.7,6.1-7,7-11.1c2-9.8-1.8-20-11-24.5s-6.7-1.5-8.3-2.5-2.2-4.2-3.8-6c-6.3-6.8-15.9-8.7-24.8-7.3ZM677.9,906.6c-7,1.2-9.4,6.4-14.2,8.7s-10.1,1.5-16.5,6.3c-10.9,8.3-17.6,21.2-14.5,35.1s4.8,6.1,5.2,9-2,11.4-1,17.3c1.7,11,18.7,19.8,28.9,20.1,3.3.1,11-1.7,14.2-3s6.9-6.1,8.7-6.6c2.7-.8,10.1,1.5,14.9.8,14-1.9,28.9-18.2,26.5-32.8s-4.3-7.9-4.1-11.1,3.2-6.1,3.9-9.3c2.5-11.9-8-27-19.9-29.2-4.4-.8-7.7,1-10.4.6s-6.2-5.2-10.3-6.1-8.3-.5-11.5,0ZM748.7,1041.5c.5.5,1.4,4.8,2.6,6.6,7.5,11.6,24.4,12.2,36,7,3.2-1.4,8.2-6.5,10.3-7.1,3.7-1.1,10.5,1,16.7-.7,14.1-3.9,26.2-20.7,18.7-35.1-1.2-2.3-5.2-5.2-5.5-6.5s2.4-4.5,2.8-6.6c3.3-15.7-9.9-29.6-25.3-29.7-8.9,0-4.6,1.6-14.2-1-14.7-4-36.7,4.5-43.1,18.8-1.8,3.9-1.6,8.4-3.7,11.6s-6.5,4.5-9,8.4c-6.2,9.4-4.7,24.2,4.9,30.6,2.1,1.4,8.4,3.3,8.8,3.7Z"/>
  <path class="st15" d="M534.6,1179.4c-1.7,0-4.5.6-5.4-1.1,1.7,0,4.5-.7,5.4,1.1Z"/>
  <path class="st15" d="M580.3,1179.4l1.1-1.1c-.3,0-.8,1.1-1.1,1.1Z"/>
  <path class="st12" d="M416,769.3c1.1.7,5-1.4,5.5,2.8s-5.6,13.6-4.4,19l-8.7-2.2c2.5-6.1,3.2-14.4,7.6-19.6Z"/>
  <path class="st12" d="M540,1009.7c3.3,0,6.5.1,9.8,0s3.6,0,5.4,0c5.7-.2,13-.5,18.5-1.1,1,13.7,7.3,23.1,4,37.2-3.5,14.8-10.5,27.3-24,34.8-33.6,18.9-89,9.1-122.1-7.8-1.7,6.8,8.2,6.1,9.2,10.9-10.7-4.4-15.5-7.7-22.8-16.3,2.7-6-1.3-8.4-2.7-13.1-6.1-20.1-5.3-42.3-3.8-63.1,35.1,14.5,90.5,18.7,128.4,18.5ZM420.9,1065.2c-1.1.8.6,1.5,1.1,2.1,1.1-.7-.5-1.4-1.1-2.1Z"/>
  <path class="st14" d="M640.1,795.4c-2-.4-4.5,1.4-4.4-1.6s4.9-22.2,6.1-22.4,4.8-.3,4.8.6c-1.8,7.9-5.8,15-5.5,23.4-.3-.1-.7,0-1.1,0Z"/>
  <rect class="st12" x="597.7" y="823.7" width="5.4" height="1.1"/>
  <path class="st12" d="M417.1,985.8c-2.2-6.3,8.2-9,2.8-14.2-2.1-2-7.6-1.3-5.5-4.3,11.4,3.7,22.5,7.8,34.2,10.4,23,5.1,51,8.4,74.5,9.3,11.2.4,22.1-.9,33.2-1.1l-1.1-4.3c3.2.6,8.6-.8,11.4,0s-.5,5.2,4.9,3.3c0,6.5.4,11.3-2.2,17.4-4,.4-7.9.8-12,1.1-44.5,3.2-98.5-1.7-140.4-17.4Z"/>
  <path class="st5" d="M421.4,962.9c25.8,7.9,43.7,11.2,70.7,14.1,8,.9,18.6,3.3,26.7,3.3h45.7c1.3,0,6.7,0,7.1,0,0,1.5,0,2.9,0,4.4-5.5,1.9-3.9-3.1-4.9-3.3-2.8-.7-8.1.6-11.4,0l1.1,4.3c-11.1.2-22,1.6-33.2,1.1-23.5-.9-51.5-4.2-74.5-9.3-11.7-2.6-22.8-6.7-34.2-10.4-2.2,3,3.4,2.3,5.5,4.3,5.4,5.2-5,7.9-2.8,14.2-4-1.5-8-2.8-12-4.4.5-7.2-.1-14.6,2.3-21.7,1-.7,12,2.5,14,3.2Z"/>
  <path class="st6" d="M586.8,967.3l2.2-4.4c9,.2,7.4,13,7.6,19.6-2.3.3-.5-3.8-1.1-4.4s-4.9,1.5-5.4,1.1-.5-4.7-2.2-5.4c0-.7-1.1-2.8-1.1-5.4s0-.7,0-1.1Z"/>
  <path class="st15" d="M417.1,985.8c41.9,15.7,95.9,20.6,140.4,17.4,3.3,7.1-2.5,2.1-2.2,6.5-1.8,0-3.6,0-5.4,0l-9.2-2.2-.6,2.2c-37.9.2-93.3-4-128.4-18.5-1.7-.7-4.5-3.5-6.5-4.4.1-1.8-.1-3.6,0-5.4,3.9,1.5,8,2.9,12,4.4Z"/>
  <path class="st15" d="M561.2,1006.4c.7.4.7.7,0,1.1v-1.1Z"/>
  <path class="st3" d="M293.6,338.4c.7.4.7.7,0,1.1v-1.1Z"/>
  <path class="st9" d="M406.2,276.4c1,0,3,.5,3.3-.5l-3.3-3.8c1.4.3,6-.4,6.5,0s-1.8,4.2,2.2,6.5c-3.9,2.5-10.2,11-12,2.2,1.9-.5,3.1-2.5,3.3-4.4Z"/>
  <path class="st3" d="M284.3,862.8c1.6,2.1-3.8,3.8-4.3,3.3-1.3-1.3,2.2-4.3,4.3-3.3Z"/>
  <path class="st12" d="M170.1,550.6c.3,2.3.1,2.4-2.2,2.2-1-2.9-2.3-5,2.2-2.2Z"/>
  <path class="st13" d="M199.5,516.8c-8.1,1.5-2.7,5.1-3.3,10.3-4.2,2.7-6.1-7.1-7.6-10.3,1.1,0,2.2,0,3.3,0-.2-1.6.4-4,0-5.4,4.5-3.4,6.3,4.1,7.6,5.4Z"/>
  <path class="st13" d="M184.3,521.2c-.1,2.7,1.1,8.8-2.7,8.8s-5.9-6.4-7.1-8.8h9.8Z"/>
  <path class="st13" d="M187.5,516.8c-1.1,0-2.2,0-3.3,0,0-2.1-.7-5.3,1.1-6.5.8,2.2,1.6,4.3,2.2,6.5Z"/>
  <path class="st13" d="M174.5,520.1h-3.3c.7-5,1.4-5.1,3.3,0Z"/>
  <path class="st5" d="M212.5,600.6l9.8,26.1c-3.6,1.3-6.9,3-10.9,4.4-.2-3.9-2.1-7.3-3.3-10.9,3.3.5,2.2-1.2,1.7-3.3-.8-3.4-2.9-7.1-3.7-10.5s4.8-2.9-.2-3.5c2.5-1,4.6-1.5,6.5-2.2Z"/>
  <path class="st12" d="M204.9,610.4c1.3,3.2,2.2,6.5,3.3,9.8s3,7,3.3,10.9c-1.4.5-3.7.8-4.4,1.1-2-5.1-5.3-13.8-5.5-19s0-2.8,3.3-2.7Z"/>
  <path class="st9" d="M206,602.8c5,.6-.6,0,.2,3.5s2.9,7.1,3.7,10.5,1.6,3.8-1.7,3.3c-1.1-3.3-2-6.6-3.3-9.8s-2-2.9-2.2-3.3,0-.7,0-1.1c-.2-.6.1-1.5,0-2.2,1.1-.5,2.3-.7,3.3-1.1Z"/>
  <path class="st12" d="M202.7,607.1l-1.1-.5,1.1-.6c0,.4-.1.8,0,1.1Z"/>
  <path class="st3" d="M773.9,1229.5l-1.1-1.1c.4.3.7.7,1.1,1.1Z"/>
  <path class="st10" d="M677.4,435c-3.5-3.9.8-8.8,4.4-10.8,13.5-7.6,41,9.6,37.6,22.3-2.2,8-14-3.3-18.4-5.2s-21.7-4.2-23.6-6.3Z"/>
  <path class="st10" d="M444,387.6c7.1-1.1,21.1.3,23.7,8.4,3.8,11.8-6.4,7.8-12,7.7s-9.1-.4-13.1,0-18.7,7.1-17.9-1.5,13.5-13.6,19.3-14.5Z"/>
  <path class="st7" d="M799,464.6c1.1,1.1-3.7,8.1-2.1,9.7s2.5-.5,3.3.7,1.6,7.7,2.1,8.1c3.4,2.5,4.6-7.6,5.4-8.2,4-3.1,3.9,8.7,4.7,10.1s6.4,5.5,7.2,8.7-1.7,5.3-2.2,5.6c-2.1,1.2-5-2.1-6.8-2.1s-3.9,7.4-8,5.4c-.5-3.3-5.2-5.3-6.1-7.5-1.9-4.3,1.9-6-4.9-8.2,3.5-4.3,2.1-10.9-2.7-6-2.9,3,.9,8.2-6,6.6,1-7.6,2.7-10.7,10.9-10.9.3-4.9-7.6-1.8-6.5-7.1l12-4.9Z"/>
  <path class="st7" d="M631.4,509.2c-14.9,27.6-22,47.4-19.4,79.8,1.1,13.6,6.9,24.7,8.6,36.6-2.8.6-2.2-1.3-3-3-7.1-16-10.1-36.8-9.1-54.2s2-3.6,2.1-5.3-2.2-7.6-1.8-9.7,2.3-2.1,2.7-3.7c4-12.7,7.7-26.9,15.7-37.6,1.2-1.6,1.8-2.9,4.2-2.9Z"/>
  <path class="st7" d="M754.4,470.1c.4.3-3.4,7.1-1.1,9.8-1,1.1-6.7-5.7-5.5.6s3.8,1.1,5.5,2.1c5.5,3.2-3.8,5.1-4.8,6s-.2,2.7-1.4,3.4-6.6,1.4-6.9,1.1c1.8-8.8-3.6-4-5.4-5.4,1.1-5,2.3-10.2,1.1-15.2,3.8-.2,8.6,2.1,12.3,1.1s3.5-5.7,6.2-3.3Z"/>
  <path class="st7" d="M481.3,640.9c.3-1-.4-4,0-4.4s6.3,0,7.6.5c4.3,2.1,1.4,7.4,3.9,11.4,4.9,7.9,13.2.5,12.5,9.9,2.3-1.4,12.4.6,13,0s1.1-9.7,4.9-10.8c2.7-.6,1.6,2.7,1.6,4.3.3,7.5,1.3,10-7.1,10.9-12.4,1.3-21.9-5.1-28.7-14.8s-1.2-8-7.8-6.9Z"/>
  <path class="st8" d="M488.9,491.8c6-1,1.8,2.9,2.4,4.1,3.6,6.6,1.8,6,1.9,12.6s2,0,2.3,2.2c1.1,8.5-1.6,20.3-2.8,28.4-.7,4.5-1.6,5.2-1.6,5.5,0,1.1,1.4,2.8,1.2,4.2s-2.2.5-2.2,1.3c-1.3,11.9-5,20.5-10.1,30.6l-5.1,5.8c.7-4.7,1.6-2.6,2.5-4.6,13.1-29.1,19.4-58.3,11.7-90Z"/>
  <path class="st7" d="M646.6,494c0-2.6,4.7-4.8,6.6-5.9,6.5-3.8,16.1-7.8,23.6-9s18-2.4,18.8-1.9.6,2.2,1.9,2.7c5.8,2.1,12.6,2.7,19.2,5.6s3.4.6,2.8,3.1c-24.8-10.2-50.7-11.7-72.9,5.4Z"/>
  <path class="st7" d="M762,527.7l-31.6-33.7c9.4,3.1,29.2,24.2,31.6,33.7Z"/>
  <path class="st7" d="M319.2,545.1v22.8c-18,7-5.9-1-4.6-6.2s-2.6-17.4,4.6-16.6Z"/>
  <path class="st7" d="M589,658.3c.3.2,1.8-.3,2.1,0,.9,1.1-1.1,4.8-.8,6.8s3.4,4.2,3.1,5.6-8.7,4.9-9.3,4.9c-2.5.2-4.5-2-7-2.2,4.7-4.4,12.4-7.6,12-15.2Z"/>
  <path class="st7" d="M762,528.8c1.5,1.7,5,5,6.9,5.8s6.5-1.4,7.3,1.3-4.8,4.4-5.4,8.1c-2.6.6-2.3-1.3-3.1-2.9-2.2-4.1-4.4-8.7-5.6-12.4Z"/>
  <path class="st7" d="M602.8,302.8c-1-1.1-3.6-1.2-5.2-1.4-.3-3,2.4-3.6,4.8-3.3l10.4,7.1c-7.4,8.7-7.1.8-10.1-2.4Z"/>
  <path class="st8" d="M518.3,671.3c0,1.1-.3,1.5-1.1,2.2-2.1-1-11.3.4-12,0s.5-1.8-.8-2.2c-2.7-.9-14.8-1.9-15.4-2.3s-.5-5.5-1.2-7.5c10.3,6.8,17.9,10.5,30.5,9.8Z"/>
  <path class="st7" d="M816.4,519c-3.8,2.6-13-6.6-10.9-8.7s12.3,7.5,10.9,8.7Z"/>
  <path class="st7" d="M517.2,673.5c-1.6,1.2-3.3,1-4.3,1.7-3.6,2.7-5.1,10.6-7.7-1.7.7.4,9.9-1,12,0Z"/>
  <path class="st7" d="M645.6,495.1c-5.2,4.4-8.5,10.2-14.1,13.1,2.9-5.6,6.9-12.3,14.1-13.1Z"/>
  <path class="st7" d="M479.1,649.6c2.7-.6,2.2,1.5,3.1,2.9,1.9,3,4.5,5.8,5.6,9.1-6.2-4.2-7.9-3.6-8.7-12Z"/>
  <path class="st7" d="M782.6,410.2c.5.5-1.6,5.8-2.6,6.6-6.3,5.1-4.8-8.8,2.6-6.6Z"/>
  <path class="st8" d="M527,640.9c-7,1-7.8-4.2-10.9-7.6,3.2,2.3,10.5,3.3,10.9,7.6Z"/>
  <path class="st7" d="M791.3,525.5h-5.4s0-5.4,0-5.4c3.5-.5,5.9,2,5.4,5.4Z"/>
  <path class="st7" d="M426.9,300.4c.1.1.1,3.1,0,3.2-.5.5-7.3-.7-7.6-1.1-2.4-3.4,6.5-3.5,7.6-2.1Z"/>
  <path class="st7" d="M722.8,329.7c1.1,1.1-1.1,7.1-3.8,6.5-3.9-.8,1.4-8.9,3.8-6.5Z"/>
  <path class="st7" d="M750,426.5c.2,4.3-4.6,3.3-7.6,3.3v-3.3s7.6,0,7.6,0Z"/>
  <path class="st7" d="M662.8,295c1.1,2-.8,4.7-3.1,4.2,1.2-4-3.4-3.1-3.3-6.5,1.2-.5,6.2,1.9,6.4,2.3Z"/>
  <path class="st7" d="M770.7,508.1c.8.8,2.8,10.4-2.2,7.6-.2-.8-.7-10.6,2.2-7.6Z"/>
  <path class="st7" d="M595.5,285.1c-.3.3-6.9,1.3-5.4-2.7s7.6.5,5.4,2.7Z"/>
  <path class="st7" d="M628.1,287.3c.3.3,1.2,6.4,1.1,7.6-2.5,1-3.9-4.6-4.2-6.1-.5-2.5,2.9-1.7,3.1-1.5Z"/>
  <path class="st7" d="M766.3,477.7c.3,2.7,0,5.7-3.3,5.4-.3-2.7,0-5.7,3.3-5.4Z"/>
  <path class="st7" d="M796.8,508.1c.3,3.3-2.7,3.5-5.4,3.3-.3-3.3,2.7-3.5,5.4-3.3Z"/>
  <path class="st7" d="M755.4,417.8c1,1.3-3,7.3-5.4,5.4s4.5-6.5,5.4-5.4Z"/>
  <path class="st7" d="M396.4,318.8h-3.3s0-4.3,0-4.3h1.6c1.7,1.1,1.9,2.3,1.6,4.3Z"/>
  <path class="st7" d="M732.6,368.9v4.3s-3.3,0-3.3,0c-.3-2,0-3.2,1.6-4.3h1.6Z"/>
  <path class="st8" d="M467.1,597.3h-1.1c.8-2.3,3.1-3.8,4.4-5.4,1.2,5.3-2,4.3-3.3,5.4Z"/>
  <path class="st7" d="M722.8,358c.3,2,0,3.2-1.6,4.3h-1.6s0-4.3,0-4.3h3.3Z"/>
  <path class="st7" d="M801.1,459.2c-.7.7-3.8-.2-4.3-1.6-1.4-3.8,6.5-.4,4.3,1.6Z"/>
  <rect class="st7" x="446.5" y="294.9" width="5.4" height="2.2"/>
  <path class="st8" d="M474.7,587.6c-.4,3.1,1.2,3.7-3.3,3.3.5-.6,0-3.7,3.3-3.3Z"/>
  <path class="st7" d="M810.9,421.1c.3.3.7,4.1-1.6,3.2-3.9-1.5-.3-5.1,1.6-3.2Z"/>
  <path class="st7" d="M776.1,528.8c1.6,1.8-1.4,4.9-3.3,3.3s2.2-4.4,3.3-3.3Z"/>
  <path class="st7" d="M479.1,647.4c-5.2-.1-1.2-2.6,0-4.4,0,1.5,0,2.9,0,4.4Z"/>
  <path class="st7" d="M717.4,344.9c1.1,1.1-2.1,4.4-3.3,3.3s2.1-4.4,3.3-3.3Z"/>
  <rect class="st7" x="402.9" y="327.5" width="3.3" height="2.2"/>
  <rect class="st7" x="621.6" y="308" width="3.3" height="2.2"/>
  <rect class="st7" x="627.1" y="277.5" width="3.3" height="2.2"/>
  <rect class="st7" x="401.9" y="335.1" width="2.2" height="3.3"/>
  <rect class="st7" x="765.2" y="491.8" width="2.2" height="3.3"/>
  <path class="st7" d="M721.7,489.6c.5.2,1.7-.3,2.5,0s3.5,3.9,5.1,4.3c-2.7-1-6.2-1.4-7.6-4.4Z"/>
  <path class="st7" d="M456.2,280.8c1.2,1.2-1,3.4-2.2,2.2s1-3.4,2.2-2.2Z"/>
  <path class="st7" d="M804.4,524.5c1.2,1.2-1,3.4-2.2,2.2s1-3.4,2.2-2.2Z"/>
  <path class="st7" d="M732.6,485.3c1.2,1.2-1,3.4-2.2,2.2s1-3.4,2.2-2.2Z"/>
  <path class="st7" d="M747.8,415.7c1.2,1.2-1,3.4-2.2,2.2s1-3.4,2.2-2.2Z"/>
  <path class="st7" d="M523.7,672.4c.7.4-.6,1.8-2.2,1.1s.6-1.8,2.2-1.1Z"/>
  <path class="st7" d="M466,598.4v-1.1h1.1c-.4.3-.7.8-1.1,1.1Z"/>
  <path class="st11" d="M651,532.1l-.6,4.3c13-11.9,32.4-14.2,48.4-7s4.8,4.1,7.4,5.9,7.4,3.9,8.9,2.2c16.7,20.6,19.3,52.8,6.5,76.2-24.6,45.1-86.3,28.7-92.5-22.8-2.7-22,5.1-44.2,21.8-58.8ZM670.3,531.3c-49.5,6.8-51.3,103.8,3,103.2s59.8-111.8-3-103.2Z"/>
  <path class="st1" d="M721.7,613.7c12.7-23.4,10.2-55.6-6.5-76.2s-43.3-23.6-64.2-5.4c-16.7,14.5-24.4,36.7-21.8,58.8-3.3.6-2.1-1.7-2.2-3.8-1-29,6.9-63.4,37.8-74.3,55.2-19.5,94.7,60.3,60.7,98.8-.4.4-3.3,4.3-3.8,2.2Z"/>
  <path class="st1" d="M444.3,593c-41,11.5-59.1-30.4-47.9-64.7,11.2-34.5,52.9-50.1,72.4-13.5.8,1.5,0,2.7,2.7,2.1-1.2-11-7.3-18.4-15.2-25-23.5-19.8-52.7-7.8-67.5,16.3s-13.1,32.8-9.8,51.1c-3.3.7-1.9-1.7-2.5-3.5-5.3-16-6.5-26.2-.6-42.5,19.1-52.7,90.4-58.3,101.5,2.4,5.5,30-5.7,62.5-33.2,77.3ZM418.2,529.9c15.5,11.1,29.1-10.8,17.5-21.3-11.2-10.1-24.8,7.4-19.6,19.1-3.5-4.6-4.9-20.6-11.4-6.5-6.8,14.8-8.2,31.8-1.6,46.8,11.8,27,38.9,29.1,56.6,6.5,10.2-13.1,13.2-26.2,12-43s-2.4-11.1-5.5-15.2-4.6-1.5-8.1-1.7-4.5-1.5-7.7-1-6.8,3-7,3.4c-2.4,3.6,6.5,5.2,9.1,7.5,10,8.9,8.4,27.7,1.6,38.1s-21.4,14.5-31.3,6.8c-1.4-1.1-6.3-6.6-6.8-7.9-3.1-7.4-1.1-24,2.2-31.6Z"/>
  <path class="st11" d="M388.8,508.1c6,1.2,7.2-4.9,10.3-7.6,15.3-13.4,28.7-15.6,48.2-10.1,1.8.5,9.8,6,8.9,1.4,7.9,6.6,14.1,14,15.2,25-2.8.5-1.9-.6-2.7-2.1-19.5-36.6-61.1-21-72.4,13.5-11.2,34.3,6.9,76.3,47.9,64.7-28.5,15.3-59.7-2.8-65.3-33.7-3.3-18.3.2-35.4,9.8-51.1ZM457.9,495.1v1.1c.7-.4.7-.7,0-1.1Z"/>
  <path class="st3" d="M524.8,607.1c6.2,3.8,16.9,5.2,25.6,5.4s9.2-.5,14.7-2.2c2,5.3,1.4,10.9-3.8,14.2s-8.1,3.9-12.8,5.5-.9,2-1.6,2.1c-2.2.5-4.4-1.1-6.1-.8-4.8.8-3.4,3-10.7.4-9.4-3.3-13.5-7.7-17.2-16.3-.3-.7-2-1.1-2.2-1.9,2-5.2,4.5-1.6,5.4-7.6,1.9,2,7.8.5,8.7,1.1Z"/>
  <path class="st4" d="M565,610.4c-5.5,1.7-8.8,2.3-14.7,2.2-8.7-.3-19.4-1.6-25.6-5.4,2.9-2.5,5.2-7.5,0-8.7-.6-3.2,1.7-2.3,3.8-2.2,9.9.8,21.8,2.7,30.3,7.8s4.7,2.4,6.2,6.3Z"/>
  <path class="st15" d="M524.8,598.4c5.2,1.2,2.9,6.2,0,8.7-1-.6-6.8.9-8.7-1.1.4-2.4-.1-5.2,1.1-7.6,2.3.3,5.6-.5,7.6,0Z"/>
  <path class="st4" d="M517.2,598.4c-1.2,2.5-.7,5.2-1.1,7.6-.9,6-3.4,2.4-5.4,7.6-.1-.4,0-8.6,0-9s5-7.1,6.5-6.2Z"/>
  <path class="st2" d="M400.8,880.2c0-.7,1.8-2.7,1.1-4.3l2.2,2.2c2.7-10-1.2-21.1,3.3-30.5,13.5,12.4,27,27.1,23.8,47.2l-1.7,1.6c-3.8-.9-16.8,6.2-18.8,5.2-5.6-2.8-10.4-15.1-9.8-21.3Z"/>
  <path class="st4" d="M479.1,931.4c1.9.3,9.4-.4,9.8,0-.5,4.7-2.6,34.3-4.3,35.4-2.9,2.1-10.6-1.1-14.2-.6,0-1.4,0-2.9,0-4.3l5.2-7.3,3.5-23.1Z"/>
  <path class="st4" d="M485.6,888.9c1.9,0,3.1,0,4.4,1.6,5.2,6-1.4,24.7,0,32.6-4.5,2.7-11.6,2.3-14.2-2.6,6.4.8,4.9-12,5.7-16.6,1.1-5.7,3.9-9.5,4-15Z"/>
  <path class="st5" d="M422.5,936.8c1.4-2.1-.5-6.9-1.2-9.2s-6.2-17.3-5.4-18c3.7-3.2,4.9,7.1,5.5,7.5,3.3,2.1,3.7-2,3.2-4.8l4.4.5c1.8,7.5,5.2,15.2,6.5,22.8-3,1.1-7.8,3.9-10.9,5.4-.3-.9-1.5-2.4-2.2-4.4Z"/>
  <path class="st15" d="M442.1,934.6c1.1,3.7,3,7.6,4.4,12-5.7,2.5-13.1,4.1-17.4,8.7-4.5-4.7-2.6-9.1-4.4-14.1,3.1-1.5,7.9-4.4,10.9-5.4s4.6-.6,6.5-1.1ZM438.8,941.2c-1.5-.7-10.8,1.2-9.8,3.8,1.9,5,11.9,1.8,9.8-3.8Z"/>
  <path class="st12" d="M433.4,905.3c3.7,9.5,5.7,19.8,8.7,29.4-1.9.5-4.8.5-6.5,1.1-1.3-7.7-4.7-15.4-6.5-22.8s-1.5-7.2-1.1-7.6h5.4Z"/>
  <path class="st8" d="M422.5,936.8c-1.9-5.2-9.7-23.4-8.8-27.6l19.7-6.1c.2.7-.2,1.7,0,2.2h-5.4c-.4.4.8,6.4,1.1,7.6l-4.4-.5c.6,2.9.1,6.9-3.2,4.8s-1.8-10.7-5.5-7.5,4.6,15.5,5.4,18,2.6,7.1,1.2,9.2Z"/>
  <path class="st14" d="M400.8,880.2c-3.9-11.5,2.6-23.3,3.3-34.8,4.5-1,2.9,1.8,3.3,2.2-4.5,9.3-.6,20.5-3.3,30.5l-2.2-2.2c.7,1.7-1,3.7-1.1,4.3Z"/>
  <path class="st2" d="M485.6,888.9c-.1,5.5-2.9,9.3-4,15-.9,4.6.6,17.3-5.7,16.6,2.3-7.2-.5-31.5,9.8-31.6Z"/>
  <path class="st0" d="M479.1,931.4l-3.5,23.1-5.2,7.3c.1-10.3,3.4-22.2,4.4-32.6.6-.4,3.6,2.1,4.3,2.2Z"/>
  <path class="st4" d="M446.5,946.6c.6,1.8.6,3.8,1.1,5.4-5,1-9.8,2.7-14.1,5.4-2.7-.8-1.9.4-4.4-2.2,4.3-4.7,11.7-6.2,17.4-8.7Z"/>
  <path class="st2" d="M447.5,952c.7,2.4,3.4,5.7,3.3,8.7-1.3,1.1-14.8-2.4-17.4-3.3,4.3-2.7,9.2-4.5,14.1-5.4Z"/>
  <path class="st15" d="M462.8,961.8l-2.2,2.2c-.3-2.3-.1-2.5,2.2-2.2Z"/>
  <path class="st5" d="M411.6,991.2c-1.5,20.8-2.2,43,3.8,63.1s5.4,7.1,2.7,13.1c-5.3-6.2-9.5-12.8-12-20.7-.2-.8-1.1-3.1-1.1-3.3,0-.3,0-.7,0-1.1-.3-1.6.8-4.5-1.1-5.4,0-.7,0-1.5,0-2.2,0-4.2.9-9.5-1.1-13.1,0-4.7-.2-9.5,0-14.1s1.7-14.2,2.2-20.7c2,.9,4.8,3.6,6.5,4.4Z"/>
  <path class="st2" d="M404,1034.7c-1-2.4-2.2-8-2.2-10.4s1.1-2.5,1.1-2.7c2,3.6,1.1,8.8,1.1,13.1Z"/>
  <path class="st2" d="M405.1,1042.3c-2.9-2-1.1-4.3-1.1-5.4,1.9.9.8,3.8,1.1,5.4Z"/>
  <path class="st2" d="M406.2,1046.7l-1.1-3.3c0,.2.8,2.5,1.1,3.3Z"/>
  <path class="st13" d="M748.7,1041.5c-.4-.4-6.8-2.3-8.8-3.7-9.6-6.5-11.1-21.3-4.9-30.6s7.1-5.3,9-8.4,1.9-7.7,3.7-11.6c6.5-14.3,28.4-22.8,43.1-18.8,9.6,2.6,5.3,1,14.2,1,15.4,0,28.7,14,25.3,29.7-.5,2.1-3.2,4.9-2.8,6.6s4.3,4.1,5.5,6.5c7.5,14.4-4.5,31.2-18.7,35.1-6.2,1.7-13-.4-16.7.7s-7.1,5.7-10.3,7.1c-11.6,5.2-28.5,4.6-36-7-1.2-1.9-2.2-6.2-2.6-6.6ZM759.8,991.2c2.8,2.9,22.2-6.3,18-12-3.8-3.9-16.8,2.7-17.8,6.3s-.4,5.5-.2,5.8ZM747.5,1006.6c-2,.5-5.9,4.7-2.3,6.4,2.8.7,8.3-4.5,4.3-6.5-.7-.2-1.3,0-2,.2Z"/>
  <path class="st0" d="M910.7,893.5c8.9-1.4,18.5.5,24.8,7.3,1.6,1.8,2.4,5.1,3.8,6s5.8,1.3,8.3,2.5c9.1,4.4,13,14.7,11,24.5s-6.8,10.2-7,11.1c-.2,1.5,1.7,5.3,1.8,7.7.3,12.1-11.4,21.7-22.6,23.1-9,1.1-5.5-2.1-13.4,2.9-15.7,10-40,9.1-44.3-12.2-.3-1.5,1.1-3.4.3-4.6s-6.5-3.7-8.8-6.5c-12.8-15.7.7-42.8,17.6-49.9s7.2-1.5,10.5-2.6c5.1-1.7,9.5-7.9,17.9-9.3Z"/>
  <path class="st12" d="M800,847.6l-2.2-4.3c1.7,6.2-9.1,13-9.7,14.9-1.1,3.7,8,11.6.5,20-1.4,1.6-7,4.8-9,5.2-3.6.7-7.2-1.9-10.4-.7s-4.1,7.2-9.1,8.3-7.1-.1-10.6.3-3.6,1.9-5.6,2.1c-7.5.8-15.5-7.9-12.4-15.2-6,.8-8.7,7.7-14.6,2.1-6.5-6.2-2.7-11.6-.9-18.1.5-1.9,0-4.2.5-6,.9-3.1,5.6-4.4,6.8-6.3,2.1-3.2.8-8,5-12.4,5.6-6,11.4-5,17.6-7.4s8.9-6.9,19.9-6.2c10.2.6,8.5,4.6,13.6,7.1,8,3.9,22.2.8,20.6,16.9ZM738.8,833.7c-4.9,1.1-12.4,10-6.6,11.7,1.7.5,14.2-5.8,15.1-7.5,2.8-5.3-5.6-4.8-8.5-4.1Z"/>
  <path class="st15" d="M677.9,906.6c3.2-.5,8.4-.6,11.5,0s7.4,5.6,10.3,6.1,6-1.4,10.4-.6c11.9,2.2,22.4,17.3,19.9,29.2s-3.7,6.7-3.9,9.3,3.5,7.3,4.1,11.1c2.5,14.6-12.5,30.9-26.5,32.8-4.8.7-12.2-1.6-14.9-.8s-5,5-8.7,6.6-10.9,3.1-14.2,3c-10.2-.3-27.2-9.1-28.9-20.1s1.6-13.2,1-17.3-4.5-5.8-5.2-9c-3.1-13.9,3.6-26.8,14.5-35.1s10.8-3.5,16.5-6.3,7.2-7.5,14.2-8.7ZM649.9,990.1c9.8,7.2,18.7,9.4,30.1,3.5,2.6-1.3,7.6-6.3,8.7-6.6,3-.8,7.4,2.1,11.4,1.8,13.9-1.1,27-14.8,23.2-29.2-.7-2.7-4.6-6.3-4.7-8.3s4.1-5.9,4.8-9c1.6-6.8,0-13.7-5-18.6s-9.8-6.6-14.6-6.6-4.1,1.6-6.3,1-3.1-2.8-5.1-3.7c-9.2-4.3-13.3-2.1-21.8,2.3-6,3.1-6.8,3.1-13.1,5.4-12,4.3-24.5,22.8-18.3,35.6,1.2,2.5,5.8,5.3,6.1,6.9s-3.6,7-4,9.9,1.6,9.8,4.1,12.8,3.2,1.9,4.4,2.7Z"/>
  <path class="st2" d="M881.7,854.1c-11.2-28.5-45.4-14.5-47.9,12-2.5-5.9-4.1-12.1-2.2-18.5s5-9.3,5.4-9.8c10.1-12.5,35.3-15.9,43.7.3,3.2,6.1,1.9,10.1.9,16Z"/>
  <path class="st12" d="M837,837.8c3.8-5.6,9.3-11.1,16.3-12.6,21.7-4.5,42.2,13.3,30.7,35.1s-13.6,15.6-16.8,17c-18.4,8.2-36.9-2.7-38.8-22.5l3.2-7.2c-1.9,6.4-.4,12.6,2.2,18.5,8.4,19.6,38.7,13.2,46.2-4.4,1.3-3,1.1-4.7,1.6-7.6,1-5.9,2.3-9.9-.9-16-8.4-16.3-33.6-12.8-43.7-.3Z"/>
  <path class="st14" d="M549.8,1009.7c-3.2.1-6.5,0-9.8,0l.6-2.2,9.2,2.2Z"/>
  <path class="st5" d="M420.9,1065.2c.6.7,2.2,1.4,1.1,2.1-.5-.6-2.2-1.4-1.1-2.1Z"/>
  <path class="st1" d="M670.3,531.3c62.8-8.6,61.2,102.5,3,103.2s-52.5-96.4-3-103.2ZM654.3,566.9c-3.3-2.6-3.1-5.8-7.9-4.1-9.7,3.3-8.9,20.5-8.4,28.6s2.4,9.4,2.2,11.9-1.7.7-1.8.9c-2.5,4.5,2.5,2.3,4,3s3.6,6.9,5,8.6c14.8,18.5,37.9,15.9,52.7-1s14.7-25.6,13-41.9c-.8-7.7-2-5.7-5.4-9.8-6-7.3-1.1-5.3-.1-8.9s-5.1-9.1-8.6-5.2.5,5.9-.2,8.5-4.6,3.8-5.1,5.9,3.4,8.6,3.9,12c1,7.2-1,20.3-5.2,26.4s-7.4,6.5-9.4,7.5c-11.3,5.5-23.7.5-28.7-10.7s-3.2-21.9,1.1-30.5c16.5,9.3,27.7-11.8,16.9-21.8s-26.3,8.4-18,20.7ZM636.8,573.4c.8-1.5-.7-2.9-1.1-2.2-.8,1.5.7,2.9,1.1,2.2ZM635.8,583.2v-5.4h-1.1v5.4h1.1Z"/>
  <path class="st8" d="M715.2,537.5c-1.5,1.7-7.9-1.5-8.9-2.2-2.6-1.8-2.5-3.7-7.4-5.9-16-7.2-35.4-4.9-48.4,7l.6-4.3c20.8-18.1,46.6-16.2,64.2,5.4Z"/>
  <path class="st4" d="M416,561.4c.5,1.3,5.4,6.8,6.8,7.9,9.9,7.7,24.8,3.2,31.3-6.8,3,3.2,5.8,7.4,5.4,12-17.7,22.6-44.8,20.5-56.6-6.5,5.1,0,7.4-6.3,13.1-6.5Z"/>
  <path class="st6" d="M454.1,562.5c6.7-10.4,8.4-29.2-1.6-38.1-2.6-2.3-11.5-3.9-9.1-7.5s6.5-3.3,7-3.4c3.1-.5,5.1.8,7.7,1s4.8-2.8,8.1,1.7,5.1,10,5.5,15.2c1.2,16.8-1.8,30-12,43,.3-4.6-2.5-8.7-5.4-12Z"/>
  <path class="st6" d="M416,527.7c0,.1,2.1,2.1,2.2,2.2-3.3,7.6-5.3,24.1-2.2,31.6-5.6.2-8,6.5-13.1,6.5-6.6-15-5.2-31.9,1.6-46.8,6.5-14.1,8,1.9,11.4,6.5Z"/>
  <path class="st11" d="M418.2,529.9c-.1,0-2.1-2-2.2-2.2-5.1-11.7,8.4-29.1,19.6-19.1,11.7,10.5-2,32.4-17.5,21.3Z"/>
  <path class="st8" d="M456.2,491.8c.8,4.6-7.1-.9-8.9-1.4-19.5-5.5-32.9-3.3-48.2,10.1s-4.4,8.8-10.3,7.6c14.8-24.1,43.9-36.1,67.5-16.3Z"/>
  <path class="st8" d="M457.9,495.1c.7.4.7.7,0,1.1v-1.1Z"/>
  <path class="st8" d="M438.8,941.2c2.2,5.6-7.9,8.8-9.8,3.8s8.3-4.5,9.8-3.8Z"/>
  <path class="st11" d="M759.8,991.2c-.2-.2,0-4.8.2-5.8,1.1-3.6,14-10.1,17.8-6.3,4.1,5.7-15.2,14.9-18,12Z"/>
  <path class="st8" d="M747.5,1006.6c.6-.2,1.3-.3,2-.2,4,2-1.5,7.2-4.3,6.5-3.5-1.7.4-5.8,2.3-6.4Z"/>
  <path class="st5" d="M738.8,833.7c2.9-.7,11.3-1.2,8.5,4.1s-13.5,8-15.1,7.5c-5.8-1.7,1.7-10.6,6.6-11.7Z"/>
  <path class="st5" d="M718.5,923.7c-2.2,4.6,1.8,6.9,1,12.4s-4.9,7.5-5.1,8.9,0,8,0,8.5c.2.9,2.3,2.4,3,4.5,5.5,15.7-8.8,27.5-24.2,24.2-2.8-.6-5.1-3.6-8.4-3-6.2,16.3-19.8,11.1-32.4,7.8-3.5-.9-2.5.6-2.5,3.1-1.2-.8-2.4-.4-4.4-2.7s-4.7-8.9-4.1-12.8,4.3-8.4,4-9.9-4.9-4.4-6.1-6.9c-6.2-12.8,6.3-31.3,18.3-35.6s7.1-2.3,13.1-5.4c8.4-4.4,12.5-6.6,21.8-2.3s3.8,3.4,5.1,3.7c2.3.6,4.2-1,6.3-1,4.8,0,11.2,3.2,14.6,6.6ZM648.8,939c5.5,2.3,22.1-7.2,19.1-13s-23.6,4-19.1,13ZM645.6,973.8c2.3,2.3,14.1-9.7,4.9-8.7-3.5.4-5.4,5.5-4.9,8.7ZM647.2,984.7v1.1c.7-.4.7-.7,0-1.1Z"/>
  <path class="st12" d="M649.9,990.1c0-2.4-1-4,2.5-3.1,12.5,3.3,26.2,8.5,32.4-7.8,3.3-.6,5.6,2.4,8.4,3,15.4,3.3,29.7-8.5,24.2-24.2-.7-2.1-2.8-3.6-3-4.5s0-8,0-8.5c.2-1.5,4.6-4.8,5.1-8.9s-3.2-7.9-1-12.4c4.9,4.8,6.6,11.7,5,18.6-.7,3.1-4.9,7.4-4.8,9s4,5.6,4.7,8.3c3.9,14.4-9.3,28.1-23.2,29.2s-8.5-2.6-11.4-1.8-6.2,5.2-8.7,6.6c-11.4,6-20.3,3.7-30.1-3.5Z"/>
  <path class="st6" d="M881.7,854.1c-.5,2.9-.4,4.6-1.6,7.6-7.5,17.6-37.8,24-46.2,4.4,2.5-26.4,36.7-40.5,47.9-12ZM857.4,846.8c-13.7,2.2-22.7,23.4-2.5,22.6,20.6-.8,25.2-26.4,2.5-22.6Z"/>
  <path class="st4" d="M692.3,601.7c5.7,2.1,5.9,8,7.6,13.1-14.8,16.9-37.9,19.5-52.7,1-1.4-1.7-4.5-8.4-5-8.6l12-8.7c5,11.3,17.4,16.3,28.7,10.7,2-1,8.3-5.9,9.4-7.5Z"/>
  <path class="st6" d="M700,614.8c-1.7-5.1-1.9-10.9-7.6-13.1,4.2-6,6.2-19.1,5.2-26.4s-4.4-10.3-3.9-12,4.6-3.8,5.1-5.9-2.6-5.4.2-8.5,9.4,2.4,8.6,5.2-5.9,1.6.1,8.9c3.4,4.1,4.6,2.1,5.4,9.8,1.7,16.3-2.4,29.8-13,41.9Z"/>
  <path class="st6" d="M642.3,607.1c-1.5-.7-6.5,1.5-4-3s1.8-.3,1.8-.9c.1-2.5-2.1-8.3-2.2-11.9-.4-8.1-1.2-25.3,8.4-28.6s4.6,1.5,7.9,4.1,1,1.1,1.1,1.1c-4.3,8.6-5,21.8-1.1,30.5l-12,8.7Z"/>
  <path class="st11" d="M655.4,568c0,0-.5-.6-1.1-1.1-8.3-12.3,5.7-32,18-20.7s-.4,31.1-16.9,21.8Z"/>
  <rect class="st6" x="634.7" y="577.8" width="1.1" height="5.4"/>
  <path class="st6" d="M636.8,573.4c-.4.7-1.8-.6-1.1-2.2s1.8.6,1.1,2.2Z"/>
  <path class="st7" d="M648.8,939c-4.5-9.1,15.2-20.7,19.1-13s-13.6,15.3-19.1,13Z"/>
  <path class="st8" d="M645.6,973.8c-.5-3.2,1.4-8.4,4.9-8.7,9.2-1-2.7,11-4.9,8.7Z"/>
  <path class="st12" d="M647.2,984.7c.7.4.7.7,0,1.1v-1.1Z"/>
  <path class="st3" d="M857.4,846.8c22.8-3.7,18.1,21.9-2.5,22.6-20.3.7-11.3-20.4,2.5-22.6Z"/>
  <metadata>
    <sfw xmlns="http://ns.adobe.com/SaveForWeb/1.0/">
      <slices/>
      <sliceSourceBounds x="-4510.67" y="129.68" width="7746.66" height="1207.78" bottomLeftOrigin="true"/>
    </sfw>
  </metadata>
</svg>