<?xml version="1.0" encoding="UTF-8"?>
<svg id="Warstwa_2" xmlns="http://www.w3.org/2000/svg" version="1.1" viewBox="0 0 648 770.6">
  <!-- Generator: Adobe Illustrator 29.1.0, SVG Export Plug-In . SVG Version: 2.1.0 Build 142)  -->
  <defs>
    <style>
      .st0 {
        fill: #7d421f;
      }

      .st1 {
        fill: #f6b139;
      }

      .st2 {
        fill: #36272d;
      }

      .st3 {
        fill: #4a2c77;
      }

      .st4 {
        fill: #4d2f7d;
      }

      .st5 {
        fill: #967a6d;
      }

      .st6 {
        fill: #a5562b;
      }

      .st7 {
        fill: #e7d8ca;
      }

      .st8 {
        fill: #9b5db3;
      }

      .st9 {
        fill: #f9bf7e;
      }

      .st10 {
        fill: #44286e;
      }

      .st11 {
        fill: #f8efe2;
      }

      .st12 {
        fill: #72419d;
      }

      .st13 {
        fill: #583186;
      }

      .st14 {
        fill: #e5965a;
      }

      .st15 {
        fill: #6b3c97;
      }

      .st16 {
        fill: #f5ebde;
      }

      .st17 {
        fill: #633991;
      }

      .st18 {
        fill: #d17d4c;
      }

      .st19 {
        fill: #dfcfc1;
      }

      .st20 {
        fill: #f8b975;
      }

      .st21 {
        fill: #39235f;
      }

      .st22 {
        fill: #d4c3b7;
      }

      .st23 {
        fill: #5d3125;
      }

      .st24 {
        fill: #402867;
      }

      .st25 {
        fill: #da8427;
      }

      .st26 {
        fill: #a08576;
      }

      .st27 {
        fill: #302052;
      }

      .st28 {
        fill: #8c7167;
      }

      .st29 {
        fill: #fdfdfd;
      }
    </style>
  </defs>
  <path class="st28" d="M556.2,527.4c-.4.4-.6,3.5-1.1,4.6-6.4,14.1-24.8,25.2-40.3,24.1,3.6,23.6-4.1,48.2-19.7,66.1s-19.1,17.8-28.4,21c-4.1,1.4-6,1.5-9.3-1.6-8.8,16.6-22.9,31.8-37.7,43.3-5.7,4.4-24.5,17.4-31.2,15.9s-2.4-1.9-3.2-1.6c-1.1.5-6,6.2-7.7,7.7-7.9,6.8-18.2,13.9-27.5,18.5-3.9,1.9-9.4,3.3-12.8,5.2s-6.5,5.5-9.7,7.6c-13.5,8.8-32.5,15-48.7,13.3s-11.1-2.2-11.1-8.3c0-2.6,2.6-10.1,2-11.9s-2.6-.8-3.6-1.7-5.4-10.9-7.1-13.6c-12.7-19.2-35-29.8-51.3-45.5-6.4-6.1-11.8-13.2-17-20.4-3.3,7.6-13.9.3-18.6-2.8-23.9-15.9-37.1-45-35.8-73.6.2-5.3,1.6-11,2-16.4-7.6.1-16-1.5-22.9-4.8s-2.5-1.9-3.8-2.6c1.1-2.6,4.6-2.3,6-4.7.6,0,1.4-.1,2,0,3.4.7,6.6,2.9,11,3.3s10.6,1,12.3-2c.9,2.2,3.3,1.2,5.3,1.3-8.2,27.8-5.1,53.5,12,76.7,2.1,2.9,3.3,4.6,6,7.3s2.5,2.1,4,3.3c2.7,2.3,8.3,7.7,11.7,8.7s1,0,1-1c0-1.5-1-5.1-1.4-7,3.2,0,6.5.8,8.7-2,10,23.3,33.2,37.7,52,53.4,9.1,7.5,16.9,15.6,23.9,25.1s3.2,6.8,3.5,2.9c0,0,.9-.1,1.1.2,1.6,2.2,2.2,5.8,6.2,5.2,1.1,7.5.6,14-1.1,21.4,4.7,2.2,9.6,1.2,14.4.6s2.6-.4,4-.7c13.9-2.3,31.5-10.4,40.7-21.3,3.2-.6,7-1.5,10-2.7,13.2-5.3,27.5-17.6,37-28s2.7-4.3,3.7-5.3,1.8-1.3,2-1.3c4.4-.9,4,.9,6.3-4.7l1.7,3.3c-.4,1.3-.5,3.1-1,4.7s-3.6,5.1.4,3.7c23-7.8,54.8-46,63.4-68.4,3.5-.5,4.7,3.5,8,.7l-1.3,11.3c1.3,1.3,9.9-5.6,11.3-6.7,25.9-19,35-48.2,29.4-79.4,2.3-.5,1.4,1.3,3.6,1.4s2.6-1.3,3-1.4c1.5-.4,4.4.3,6.3,0,6.8-1.3,10-2.3,15.7-5.9s10.1-7.5,12.7-11.3c4.8,4.2,4.7-2.6,8.7-3.3Z"/>
  <path class="st10" d="M115.8,293.9c4.3-.3,2.6,2.3,4.7,5.3-20.4,10.9-48.1,31.6-62.3,50.1-8.6,11.2-16.9,26.2-16.4,40.6l3.9-8.4c2.2-3.3,4.2-7.3,6.8-10.2,8.3-9.6,19.4-16.2,30-22.7-.6,2.1,2.8,1.5,3.6,1.2,1.3-.4,1.4-2.6,2.5-3.5,3.1-2.7,7.8.5,10.9-.3s.4-2.1,1.6-2.7c3.1-1.7,7.3-1.4,10.2-2.3s7.8-4.3,9.8-4.9,4.8-.1,7.3-1.3,5.4-4.7,7.3-5.3c5.6-1.7,7.7-1.8,13.7-4.3s6.5-1.1,10-2,3.7-3,6.5-3.6,3.8,0,5.5-.5c13.9-3,29.8-8.8,43.5-9.8,3.8-.3,8.2.4,11.9,0s5.5-2.4,7.5-2.6,3.4.7,5.3.7c3.3,0,6.3-2.1,9.7-.7l-2,5.3c-21.5,2.8-41.8,6.9-62.7,12-36.6,9-74.9,20-106.1,42-6.8,4.8-11.1,8.5-16.7,14.7s-3.9,2.9-4.5,5.2.1,3.5-.2,5.2c-.4,2.4-3,3.3-1.8,7.2s7.5,2.4,7.9,2.7.5,1.8,1,2.3,1.4.9,1.9,1.5c1,1.2,1.6,3.6,3.1,4.3s8.6-.6,9.7.9-1.6,3.6-1,5.6,3.1,1.4,3.2,3.4-1.8,4.6-3.3,6.4c-2.3-1.6-11.3-9.3-12-9.7-1.9-.8-5.7.3-5.8-2.7s.8-2.4.2-4.3-3.3-4.3-4.2-4.6c-3.2-.9-2.9,6.7-4.2,8.6-1-1.3-2.5-2.5-3.6-4.1s-2.8-6.1-4.2-6.5c-2.5-.8-4.2,2.9-6.9,2.6-13.3-32.4,15-64.9,38.4-84.7,6.6-5.6,33-25.4,40.3-26ZM65.1,408.6c-1.2-1.2-3.4,1.1-1,2s1.2-1.8,1-2Z"/>
  <path class="st24" d="M504.1,285.9c38.2,15.7,91.6,49.8,106.1,90.4,3.7,10.3,6.9,28.4,0,37-8.4-4.3-6.8-.4-10.4,4.6-2.5,3.4-5.4,6.4-8.3,9.4-.5-1-.2-1.9-1.6-2.1s-9.9.9-11.7,1.4c0-4.1,3.5-4.2,5.3-6.3s4.6-5.4,4.8-5.9c.5-.8,1.8-4.7,1.8-5.6.2-2.2-1.2-3.6-1.2-5.3s1.4-3.2,1.3-5.3c-.2-4.1-7.6-11.9-10.7-14.7s-1.8-.8-2-1c-26.2-22.7-61.9-37.4-94.7-48,.3-2.9,2-4,4.9-3.3s.5,1.2,1.3,1.5c3.1,1.3,6.9.6,9.7,2.3s4.8,4.4,6,4.8,7.6-1,10-1c3.8,0,5.1,2.8,8.5,3.8s3.9.4,5.7,1c2.7.9,5.9,5.1,7.2,5.5s3.1-.2,4.2.5c1.7,1,1,5.9,4,6.8s3.2-1.6,5.1-1.7c5.7-.4,9,5.2,14.3,2,13.6,9.1,27.9,18.8,36.4,33.3l5.7,12.7c2.2-16.6-6.8-34.2-16.7-47-.6-.8-1.6-1.2-2-1.7-6.1-7.7-38.5-39.3-47.4-39.4-4.3-3.7-10.3-7-15.3-9.7-7.6-4.1-16.3-8.7-23.4-12.3l1.3-6.7c.5.2,1.6-.2,2,0Z"/>
  <path class="st24" d="M590.9,151.1c-5-.9-5.1,5.6-10,5.3,1-2,2.9-6.5,3.3-8.7,1.7-7.4,2.4-17.1-7.9-14.9-1.4.3-12.4,5-12.8,5.6s1,3.5.6,4.6c-34.8-7-39.2-36.3-58.4-60.7-17.5-22.2-48.8-39.6-77-41.4-7.4-.5-10.8-.1-18,.7s-8.5.6-12.7,1.3c.4-1.3-.7-3.2-.5-4.2s2.9-2.5-.8-3.1c-.4-3.3,3,1,4,0s-.2-1.8,0-2,2.5.9,3.6.7.4-1.2.9-1.4c9.2-2.1,31.8-.9,41.2,1.4,27.8,6.9,55.1,26.7,71.4,50,7.8,11.1,23,43.1,35.9,46.2,9.6,2.3,14.9-5.1,23-6.2,16.5-2.2,17.9,12.1,15.4,24.8-.2.8-1,1.4-1.1,1.9ZM430.7,33.7h-12.7v.7h12.7v-.7ZM413.4,34.3c-.6.3-7-.8-6,1s6.1,2.1,6-1ZM437.8,34.3v.7c.4-.2.4-.4,0-.7Z"/>
  <path class="st27" d="M495.5,167.1c26.7,18.4,68.3,22.2,85.4-10.7,4.9.3,5-6.2,10-5.3-6.8,25.8-31.9,40.9-58.4,39.4s-30.4-8.2-43.3-16.8-7.5-6.8-10.1-6.6-3.4,3.2-5,5.1-5.9,5.2-5.9,6.6c3.6,13.2,7.8,26.2,11.2,39.5s3.8,13.1,4.1,19.6c-.1,0-1.9,1.3-2,1.3-5.5-1.1-3.7-4.4-5-6.7s-2.8-2.5-3-2.7c-4.9-21.5-11.3-42-18.7-62.7s-4.7-10.9-4.7-11.7,2.3-3.8,2.6-4c1.5-1,4.8,4.7,5.5,5.9,1.3,2.2,3.7,9.4,4.9,10.5,2.2,2.1,6.8-4.1,8-6,3.7-6.2,2.8-12,2.4-18.6,9.4-1.7,5.2,7.6,7,12s12.7,10.4,15,12Z"/>
  <path class="st10" d="M378.7,39.7v.9c2.2.9,1.2,4.3,2,6.5-62.4,19.5-118.4,76.8-152.8,130.8-3.2,5-6.2,10.2-9.3,15.3s-3.1,3.9-4,5.3c-3.2-1-4.8-.9-6.7-4,38.4-65.4,95.2-132.4,170.8-154.8Z"/>
  <path class="st5" d="M488.8,432c0,5.1.3,9.8.7,14.7.8,9.8,1.7,19.1,8,26.7s.6,1.3.7,1.3c2.4,7.4,6.1,9.1,12,13.3s-.2.9.5,1.4c1.7,1.1,6.3,3.8,8.2,3.3.2,2,2.9,3.5,4.5,4.5,6.1,4.2,14.4,7.9,21.9,8.2,4,.1,10.1-2.2,13.2-1.2,5.4,1.6,1.9,15.1.6,18.9s-1.3.9-1.4,1.4c-.2.8.3,2.1-.2,2.7s-1.1,0-1.2.1c-3.9.8-3.9,7.5-8.7,3.3,1.9-2.9,6-13.8,6-17.3s0-.9,0-1.3c-7.1,2.5-16.2.8-23.1-1.9s-27-17.3-32.2-22.8-5.8-8.7-8-10c-.6-4.2-3.1-7.9-4.3-12-4.2-13.9-3.7-25.9-3-40,4.6-.4,1.7,6.4,6,6.7Z"/>
  <path class="st21" d="M610.2,413.3c-.5.6,0,2.5-.3,3.3-3.8,9.9-16.6,22-25.1,28.3-13.8,10.2-30.7,18.2-47.3,22.4,1-3.1,1.9-6.1,2-9.3.3,0,.8-1.2,1.3-1.3,19.8-6.2,36-14,50.7-29.4s5.8-6,8.3-9.4c3.6-5,2-8.9,10.4-4.6Z"/>
  <path class="st21" d="M51.8,412.6c12.2,15.3,26.5,23.8,44,32,4.1,1.9,8.1,4.6,12.7,5.3,0,.2,0,.4,0,.7.1,2.9.8,5.7.7,8.7-4.1.1-21.5-8.6-26-11-17.9-9.6-38.2-24.5-46-43.7,2.7.3,4.4-3.4,6.9-2.6s3.2,5.2,4.2,6.5,2.6,2.8,3.6,4.1Z"/>
  <path class="st26" d="M129.2,507.4c-.3,2.9-9,8.5-11.8,9.9-5.5,2.7-12.1,4.5-18.3,4.1-.4,1.7,1,2.9,1.3,4,3.2,9.4,9.5,14.5,17.3,20-1.4,2.3-4.9,2.1-6,4.7-9.7-5.8-16.7-14.2-19.5-25.5-2.8-11.4,1.6-8.9,9.7-10,8.7-1.2,18.8-7.2,25.2-13.2,0,2.7,2.4,2.9,2,6Z"/>
  <path class="st23" d="M279.3,199.8c-.2.3-1.2.4-1.3.7-1.4-.4-2.8-.8-4.3-.7s-2.8,1.4-3,1.4c-5,.8-10.7.6-15.3,3.3-12.3-.2-34.9,10.5-46,16s-7.7,3.1-11.3,5.3c-2.9.3-4-2.7-5.3-4.7.2,0,.3-.5.7-.7,3.1-1.7,11.9-5.2,13.3-7.3,4.3-.7,8-3.2,12-4.7s1.5.2,2,0c.9,4.6,7.9.7,7.3-2.7,3.1-1.1,6.2-2.4,9.3-3.3l.3.7c1.2.2,1.1-.2,1-1.3.4-.1,1,.1,1.3,0-.3,2,.9,1.4,2.2,1.2s3.3-1.6,4.9-1.8,4.4.2,6.5-.1c4.7-.8,14.6-2,18.6-3.4s2.8-3.1,3.8-3.8.9-.5,1.3-.7c3.8-1.4,4.8-.3,8.7-3.3-1.9,3.3-4.4,6.9-6.7,10Z"/>
  <path class="st5" d="M160.5,443.3c-1.6,19.6-7.9,36.9-19.7,52.7-1.7,2.3-6.7,8.5-8.6,10.1s-1.5,1.6-3,1.3c.4-3.1-2.1-3.3-2-6,.5-.5,1.5-1.4,2-2,7.6.2,4.8-.7,4-4.7s0-1.9,0-2,1.5-.3,2.4-1.3c1.3-1.5,2-3.3,3-4.7,4.5-6.4,5-8.6,8-15.3s1.3-1.5,2-3.3c2.8-7.1,6.3-17,5.3-24.7.6,0,1.2-1.3,1.3-1.3,1.8-.5,3.7,1.1,5.3,1.3Z"/>
  <path class="st0" d="M117.8,458c0,10.1,11.2,24.8,20.7,28.7-1,1.4-1.7,3.2-3,4.7s-2.3,1.2-2.4,1.3c-12.5-5.8-21-20-23.4-33.4,1.2-.5,3.7-5.5,3.4-6.9l-4.7-1.8c0-.2,0-.4,0-.7,0-1.3,0-2.7,0-4,.9-.2,5.7-2.5,5.9-2.8s.3-3.1.8-4.6c1.6,6.3-.7,13.4,2.7,19.3Z"/>
  <path class="st24" d="M162.5,273.2c.2,0,.5,0,.7,0l2,6.7c-13.4,4.8-32.3,12.7-44.7,19.3-2.1-3-.4-5.7-4.7-5.3-.4-1.6.8-1.4,1.8-1.9,14.9-8,29.1-13.3,44.9-18.8Z"/>
  <path class="st0" d="M192.6,221.1c1.4,1.9,2.5,4.9,5.3,4.7-1.2.7-2.4,2.1-3.3,2.7-14.1,9.4-22.4,19.5-24,37.4-2.9-1-3.6-3.6-7.3-2.7,2.8-21.1,11.4-32,29.4-42Z"/>
  <path class="st0" d="M503.5,273.8l-6.7.7c-3-15.4-9.2-24.2-21.3-34,1.6,0,3.4,1.1,4.9.6s.9-1.8,1.1-1.9,1.9-1.3,2-1.3c1.2-.4,7.6,5.7,8.7,7,8.3,9.2,10.2,17.1,11.3,29Z"/>
  <path class="st0" d="M539.5,458c0,3.3-1,6.3-2,9.3-2.5,7.7-7.1,15.2-13,20.7s-5.3,4.6-5.7,4.7c-1.9.5-6.5-2.2-8.2-3.3s-.4-1.3-.5-1.4c5.6-2.2,10.1-6.6,13.6-11.4,3.4-4.7,6.9-11.7,8.4-17.3,2.2,0,5.3-.7,7.3-1.3Z"/>
  <path class="st21" d="M214.6,198.5c-2.7,4.5-5.1,10.4-8,14.7s-10.3,5.7-13.3,7.3c3.5-8.8,8.7-16.8,13.5-24.9s1.1-.9,1.2-1.1c1.9,3.2,3.4,3.1,6.7,4Z"/>
  <path class="st10" d="M396.7,35.7c3.8.6,1.1,2,.8,3.1s.9,2.9.5,4.2c-2.4.4-5.5,1.4-8,2,.7-3.3-4.2-2.1-5.3-5s6-.2,4.7-3.7c.4,0,.9,0,1.3,0-.6,2,2.5,2.1,2,0,.4,0,.9,0,1.3,0s.7,1.2,1.2.6,0-1.1,0-1.3,1,0,1.3,0Z"/>
  <path class="st23" d="M503.5,273.8c0,.1.6.7.7,1.6.2,3.4-.2,7,0,10.4-.4-.2-1.5.2-2,0-2.4-.9-2.9-2.8-7.3-3.3v-.7c1.6,1.1,2.1-6.6,2-7.3l6.7-.7Z"/>
  <path class="st24" d="M389.4,36.3c1.4,3.4-5.6,1.3-4.7,3.7s6,1.7,5.3,5c-2.8.7-6.9,1.2-9.3,2-.8-2.2.2-5.5-2-6.5v-.9c3-.9,8-1.6,9.2-2.1s-.5-.9,1.4-1.2Z"/>
  <path class="st23" d="M170.5,265.8c-.1,1.2-.4,3.3.7,4-2.9.9-5.6,2.5-8,3.3s-.5,0-.7,0c-.3-3.4.2-6.7.7-10,3.7-1,4.5,1.7,7.3,2.7Z"/>
  <path class="st23" d="M108.5,450.6l4.7,1.8c.3,1.4-2.2,6.4-3.4,6.9s-.4,0-.7,0c.1-2.9-.5-5.7-.7-8.7Z"/>
  <path class="st26" d="M129.2,499.4c1.1-1.1,1.8-4,4-4.7.8,4,3.6,4.9-4,4.7Z"/>
  <path class="st24" d="M392.7,36.3c.5,2.1-2.6,2-2,0,.7,0,1.3,0,2,0Z"/>
  <path class="st24" d="M395.4,35.7c-.1.1.2,1,0,1.3-.6.6-1.2-.6-1.2-.6l1.3-.7Z"/>
  <path class="st19" d="M501.5,533.4c.8,2.2,2.6,4.6,3.3,7.3s.9,5.2,1.3,7.3c5.7,31.2-3.5,60.4-29.4,79.4-3.5-5.8,3.1-11.8,3.4-17.7s-.7-9.3-1-9.7c-1.9-2.7-9.3,2.5-9.7,2,0-4.3-.6-9.2-1.5-13.5s-.6-4-1.8-4.5c-.4,6.1-.9,12.7-2,18.7s-3.2,12.1-5.3,18c-4.2,0-8.1.8-10.6,4.4s-1,3.1-1.8,4.2-3.5,2.2-4.6,3.4c-2.5,2.5-7.9,10.5-9.1,13.6s-.3,3.9-1.2,5.4-12.2,8.2-14.7,10-7.2,7.1-8.9,6.9-3.4-3.4-5.7-1.1-1,3.9-2.2,2.5,1.2-11.7,1.3-13.7-.8-1.5-1.3-1-1.3,5.4-1.7,6.6c-1.1,3-2.3,6.6-3.6,9.4-1.9,4-5.3,7.7-6.7,12-.2,0-1.8,1.1-2,1.3-2.3-2.9-8.7.2-11.3,1.7s-2.3,2.8-4,3.3-3.2.1-4.7.6c-2.7.8-6,5-10.2,4.4s-4-6.9-5.8-7.4l-4,15.3c-1.5,3.3-4.3,6.5-6,9.3-5.3-4.5-10.1,3.4-13.5,4.8s-3.4.2-5.1.9-6,6-7.8,7.5c-4.4,3.7-10,8-14.7,11.3s-9.5,3.8-4.2,5.4c-1.4.2-2.3.5-4,.7-.5-1.6-6.2.4-5.3-1.7s10.8-5.4,13.5-7.1c10.7-6.7,20.1-20.7,26.4-31.7s3.8-5.7,4.1-9.2l-4.7-7c3.2-9.2,8.4-10.8,14-17.3h5.5c3.2-.7,3.2-6.5,3.9-9.6s1.3-2.4-.1-3.1c1-1.4,1.3-1.2,1.3-1.3,2,3.9,6.4,4,9.8,2.2s1.2-2,2.8-2.5c2.5-.8,6.7-1,9.4-1.6-.7,9.4-2.6,13.7-4.5,22.5s-.5,2,.2,2.2c12.4-8.6,20.3-20.5,27.7-33.4,2.4-1.1,4,4.4,5.3,3.3s2.2-4.2,2.4-4.7c.7-2,2.4-6.3,2.9-7.8.7-2.2-1.2-5.9,2.8-5.5.4,2.5.6,4.1.7,6.7-2-.4-2.1,1.7,0,1.3,0,2.7,0,5.3,0,8-1.5,0-1.8.8-2.3,2-1.4,3-4.3,13.3.1,14.6s4.3-2.3,6.2-3.5,2.6-.9,3.6-1.7c4.6-3.4,8.9-8.9,14-12,1.1-6.2-7.7.9-9.7-2.7,16.5-16.3,33.1-45,36.7-68.1,3.6,1.5,5.3-3.9,5.8-4,3.4-.9,2.3,3.6,4.5,3.3s6.1-5.9,9.1-5.3c4.2,11,6.2,22.1,5.3,34s-1.4,3-.7,4.7c1.8,2,9.7-8.4,10.6-9.8,4.1-6.3,6.8-14.7,8.7-21.9,2.3-8.5,1.5-9.6-1.1-17.5s.5-2.5-1.5-2.1c-.1-7.1-1.2-15-2.7-22h6Z"/>
  <path class="st19" d="M153.2,536c2.1-.3,1.3.7,1,2-6,28.2-6.1,50.9,12.1,74.5.3.4.5,1.9,1.5.8s-.8-4-.7-5.6c.5-9.6,4.9-20.7,9.3-29,3.5.8,3.1,3.9,4.4,5.3s1.8.4,2.4,1.1c1.1,1.3,2.2,5.6,3.2,7.4s3.1,5.9,5.5,4.9c5.6,21.3,22,42.3,38.3,56.7,1.2,1.1,16.4,13.5,17,12.7-1.2-5.5-3.7-10.5-5-16s0-3.3-.3-4.7c2.3-1,4.3-5.9,6.4-6.7s2.5,3.7,4.3,3.7l4-1c7.9,14.6,20.2,26.4,28.7,40.7-6,1-2.3,6.1-2.7,9.6s-3.9,7.8-4.7,8.7c-1.3,1.5-4.3,2.6-6,3.7-.3-.7-3.7-7.1-4.7-6,.5,2.5,1.7,15.7,2.7,16.7-.3,3.9-2.8-2-3.5-2.9-7-9.5-14.8-17.6-23.9-25.1,4.5-.8,9.5-1.7,6.3-7.3-4.5-3.5-8.4-7.7-12.7-11.4-9.3-8-19.4-17.7-27.3-27.4s-4.3-8.6-7-12.4-9.2-5.6-9.3-9.3.9-2.4.5-3c-.9-1.2-6.9-1.7-8.6-1.4-1.3-6.3-2.2-12.9-2-19.3-1.5.7-1.7,3.2-2,4.7-3,0-2,4.1-2.8,5.2s-4,.5-5.2,1.1-3.7,8.3-3.8,10.1c0,2.9,3,6.6.8,8.9s-2.8-.6-4.1-1.2-5.4-2.9-4.9,0c-17.1-23.2-20.2-49-12-76.7,1.1-3.7,3.2-8.3,4.7-12Z"/>
  <path class="st7" d="M285.3,682.8c7.4,12.5,12.9,24.9,10,40,9.1-2.2,17.9-11.8,22.6-19.8s4.7-10.9,6.8-16.9l4.7,7c-.3,3.5-2.5,6.3-4.1,9.2-6.2,10.9-15.7,25-26.4,31.7s-12.9,5.5-13.5,7.1,4.8,0,5.3,1.7c-4.8.5-9.7,1.5-14.4-.6,1.7-7.4,2.2-13.9,1.1-21.4-.8-5.2-2.9-11.3-5.3-16,1.6-1.1,4.7-2.2,6-3.7s4.6-7.7,4.7-8.7c.3-3.5-3.3-8.6,2.7-9.6Z"/>
  <path class="st22" d="M184.6,615.4c1.7-.3,7.7.1,8.6,1.4s-.6,2.1-.5,3c.1,3.7,7.4,6.6,9.3,9.3,2.7,3.8,3.8,8.5,7,12.4,7.9,9.6,18,19.3,27.3,27.4s8.2,7.9,12.7,11.4c3.2,5.6-1.8,6.5-6.3,7.3-18.9-15.6-42.1-30.1-52-53.4s-4.7-12.5-6-18.7Z"/>
  <path class="st22" d="M458.8,620.8c-.1.3.1,1,0,1.3-8.5,22.4-40.3,60.6-63.4,68.4-4,1.3-.9-1.9-.4-3.7s.6-3.4,1-4.7.9-.4,1.2-1.1c1.4-4.5,3.2-8-2.5-9.5,1.3-2.8,2.6-6.4,3.6-9.4s1.5-6.4,1.7-6.6c.5-.5,1.4-.3,1.3,1-.1,2-1.8,13.1-1.3,13.7,1.1,1.4,1.9-2.2,2.2-2.5,2.3-2.3,4.1.8,5.7,1.1s7-5.5,8.9-6.9,13.6-8.3,14.7-10,.6-3.6,1.2-5.4c1.1-3.2,6.5-11.1,9.1-13.6s3.7-2.2,4.6-3.4.9-2.9,1.8-4.2c2.4-3.6,6.4-4.4,10.6-4.4Z"/>
  <path class="st7" d="M155.9,530.7c-3.2,1.6-6.7,5.2-8.7,8-3.5.3-6.4,2.1-10,3s-10.1,1.4-15.1,2.3-2.7-.8-2.3,1.3c-.6-.1-1.4,0-2,0-7.8-5.6-14.2-10.7-17.3-20,4.5,2.1,8.3,5,13.2,6.5,12.7,3.9,20.3,2.3,31.5-3.8,5.5-3,10.2-5.6,13.3-11.3.4-.1.9-.5,1.3-.7.5,5.4-1.3,6.4-3.2,11.2s-.5,2.7-.8,3.5Z"/>
  <path class="st22" d="M386,684.8c-.9,1-2.3,3.9-3.7,5.3-9.5,10.4-23.9,22.7-37,28,1.7-5.3,4.7-10.3,4.7-16l-4,.7,4-15.3c1.8.5,5.3,7.3,5.8,7.4,4.2.6,7.5-3.6,10.2-4.4s3.2-.1,4.7-.6,2.6-2.5,4-3.3c2.6-1.5,9-4.6,11.3-1.7Z"/>
  <path class="st19" d="M553.5,513.4c0,3.6-4.1,14.4-6,17.3s-8.7,8.8-12.7,11.3c0-1.9-1-1.7-2.2-2.1-4.7-1.6-13.1-1.2-18.8-1.9s-3.9.4-5.2,0-2-3.4-2.5-4c5,1.9,7.4-2.2,10.7-5.3,9,1.4,20.7-1.6,28-7,3.3-2.5,5.1-6.7,8.7-8.3Z"/>
  <path class="st22" d="M340,712.2c-1.3,2.2-2.7,6.4-4.7,8.7-9.2,11-26.8,19-40.7,21.3-5.3-1.6,2.5-4.2,4.2-5.4,4.6-3.4,10.3-7.7,14.7-11.3s5.9-6.9,7.8-7.5,3.4-.1,5.1-.9c3.4-1.4,8.2-9.3,13.5-4.8Z"/>
  <path class="st22" d="M180.6,600.8c-2.5,13.4-1.1,22.4,1.3,35.4.4,1.9,1.3,5.5,1.4,7s0,1.3-1,1c-3.4-1-9-6.3-11.7-8.7,1.6-3.4-1.4-6.7-4-3.3-2.7-2.7-3.9-4.4-6-7.3-.5-2.8,4.2-.2,4.9,0,1.3.6,2.3,3.2,4.1,1.2s-.8-6-.8-8.9,2.3-9.3,3.8-10.1,4.5-.1,5.2-1.1-.2-5.3,2.8-5.2Z"/>
  <path class="st22" d="M464.1,602.8c1.1-6,1.6-12.6,2-18.7,1.2.5,1.6,3.3,1.8,4.5.9,4.3,1.5,9.2,1.5,13.5.4.4,7.8-4.7,9.7-2s1,8.6,1,9.7c-.3,5.9-6.9,11.9-3.4,17.7-1.5,1.1-10.1,8-11.3,6.7l1.3-11.3c.8-.7.5-.6.7-1.3s-.1-1,0-1.3c1.2-4.4,2.1-11.8,1.4-16.3s-3.8-.8-4.7-1.1Z"/>
  <path class="st22" d="M506.1,534c.5.6,1.5,3.8,2.5,4s3.6-.2,5.2,0c5.7.7,14.1.3,18.8,1.9s2.3.3,2.2,2.1c-5.8,3.7-8.9,4.7-15.7,5.9s-4.8-.3-6.3,0c-.7-2.5-2.5-9-5.6-8.7s-.6,2.2-2.4,1.4c-.8-2.7-2.5-5.2-3.3-7.3s-1.4-4.7.3-4,3.7,3.9,4.3,4.7Z"/>
  <path class="st26" d="M184.6,615.4c1.3,6.2,3.5,13,6,18.7-2.2,2.9-5.5,1.9-8.7,2-2.5-12.9-3.8-22-1.3-35.4s.5-4,2-4.7c-.2,6.5.7,13,2,19.3Z"/>
  <path class="st22" d="M147.2,538.7c-1.8,2.6-2.6,5.8-4,8s-9,2.3-12.3,2-7.6-2.6-11-3.3c-.4-2.1,1-1.1,2.3-1.3,4.9-.9,10.2-1.1,15.1-2.3s6.4-2.7,10-3Z"/>
  <path class="st26" d="M464.1,602.8c.9.3,4.6.4,4.7,1.1.8,4.5-.2,11.9-1.4,16.3-2-.4-2.1,1.7,0,1.3-.2.7,0,.7-.7,1.3-3.3,2.8-4.5-1.2-8-.7.1-.3-.1-1,0-1.3,2.1-5.9,4.2-11.8,5.3-18Z"/>
  <path class="st26" d="M346,702.8l4-.7c0,5.7-2.9,10.7-4.7,16-3,1.2-6.8,2.1-10,2.7,1.9-2.3,3.4-6.5,4.7-8.7s4.5-6,6-9.3Z"/>
  <path class="st22" d="M272,704.8c2.4,4.7,4.6,10.8,5.3,16-3.9.6-4.6-3-6.2-5.2s-1.1,0-1.1-.2c-1-1-2.2-14.2-2.7-16.7.9-1.1,4.3,5.3,4.7,6Z"/>
  <path class="st26" d="M155.9,530.7c-.8,2-2,3.5-2.7,5.3-1.4,3.8-3.6,8.3-4.7,12-2-.2-4.4.9-5.3-1.3,1.4-2.2,2.2-5.5,4-8s5.4-6.4,8.7-8Z"/>
  <path class="st26" d="M394.7,671.5c5.7,1.5,3.9,5,2.5,9.5s-1.1,1.1-1.2,1.1l-1.7-3.3c-2.4,5.6-1.9,3.7-6.3,4.7,1.4-4.3,4.8-8,6.7-12Z"/>
  <path class="st26" d="M512.8,548.1c-.4.1-.2,1.5-3,1.4s-1.4-1.9-3.6-1.4c-.4-2.1-.8-5.4-1.3-7.3,1.8.8,2.2-1.3,2.4-1.4,3.1-.3,5,6.2,5.6,8.7Z"/>
  <path class="st19" d="M170.5,635.5c-1.5-1.2-2.4-1.8-4-3.3,2.6-3.4,5.6-.1,4,3.3Z"/>
  <path class="st15" d="M231.3,274.5l-.4,4.1c-7.1,2.9-16.8,3.7-23.6,6.9s-10.8,7.1-15.8,9.6-9.8,2.3-6.3,5.8,10.8,0,10.7,5c-1.5.3-3.1,1-4.7,1.3s-1.4-.1-2,0c-2.3.5-5.6,1.2-7.3,2.7-.2,0-.4,0-.7,0-.7,0-1.7-.1-2,.7-7.7.8-17.6,4.2-25.2,6.5-25.8,7.9-48.7,17.5-71.5,31.5-10.6,6.5-21.7,13.1-30,22.7,4-11.4,14.5-22.3,23.3-30.4,40.8-37.4,101.8-57,155.5-66.4Z"/>
  <path class="st3" d="M426.7,304.5c.5,2-3.2,2-4.3,2-5.8.3-13.6-1.3-20.1-1.4s-9.2-.8-15.2-1.5c-8.8-1.2-11.3.3-19.6,2.1-2.7.6-7.7-1-7.5,3.5-2-.2-4-.5-6-.7.8-2.2-5.7-2-4.7,0-5.3-.4-11.4-1.2-16.7-1.3-18.2-.6-36.6,0-54.7,1.3v-4.7s-16.4.7-16.4.7c-1.8,0-6.4-1.7-7,1s3.4,1.6,1.3,5c-2.9.3-5.8,1-8.7,1.3l2-5.3c-3.4-1.4-6.4.7-9.7.7s-3.7-.9-5.3-.7-5,2.3-7.5,2.6c-3.8.5-8.1-.2-11.9,0-13.7,1.1-29.7,6.8-43.5,9.8s-3.6,0-5.5.5c-2.8.6-4.7,3.1-6.5,3.6-3.5.9-5.8.3-10,2-6.1,2.5-8.1,2.5-13.7,4.3s-5.4,4.4-7.3,5.3-5.2.7-7.3,1.3-6.8,4-9.8,4.9-7.1.6-10.2,2.3-.6,2.5-1.6,2.7c-3.1.8-7.8-2.4-10.9.3s-1.1,3.1-2.5,3.5-4.2.9-3.6-1.2c22.9-14,45.8-23.6,71.5-31.5,7.6-2.3,17.5-5.7,25.2-6.5.1,0,1.3,1.5,2-.7.2,0,.4,0,.7,0s.7.7,1.6.7c2.4.1,6.3-.4,5.7-3.4.6-.1,1.4.1,2,0-.4,1.9,1.1,1.4,2.3,1.4,27.7-.5,54.1-6.6,81.4-8.7,5.2-.4,15.9.3,20-2s4.2-3,3.7-4.7c43.8-1.6,85.3,2.6,128.1,11.3Z"/>
  <path class="st8" d="M289.3,267.2c-19.1.6-39.3,4.1-58,7.3-53.6,9.4-114.7,28.9-155.5,66.4-8.8,8.1-19.4,19-23.3,30.4-2.6,3-4.6,7-6.8,10.2l-3.9,8.4c-.5-14.5,7.8-29.4,16.4-40.6,14.2-18.5,41.9-39.2,62.3-50.1s31.3-14.6,44.7-19.3c8.1-2.9,19.1-6.4,27.4-8.7,2.5-.7,5.4-1.4,8-2s2.5-.3,4-.7c7.7-1.8,15.6-3.2,23.4-4.7,1,1,2.4.7,3.6.7,16.1.3,32-.5,48.1-.7,3,0,9.3-2,9.7,3.3Z"/>
  <path class="st27" d="M184.6,323.9c.1,1.3,2.3,1.7,2.5,2.1.5.9-.4,4.2,1.1,4.5s1.8-2,4-2.1.9,1.4,1.4,1.4,4,0,4.2,0c-2.7,1-6,2.5-8.7,3.3s-4.3,1.1-6.7,2c-11.6,4.2-15,5.8-24.7,13.3s-3,1.5-4.3,2.7c-8.1,7-11.3,16.3-20.1,22.5-7.4,5.2-15.3,7.1-24.2,8.1,1.2-4.2,1-5.6,5.3-8.3.2-.6-.8-1.7-1-1.7h-10.7c-.4,0-6.1-.7-6.5-.8-1.8-.5-4-3.6-7.6-3.8s-10.6,5.6-10.3-1.4c31.2-22,69.5-33,106.1-42Z"/>
  <path class="st24" d="M61.8,380.6c.2.8-.8,3.8,1,3.3s5.4-3.7,7.4-4.6c7.5-3.4,23.6-7,31.3-4.1,11.4,4.2-1.9,13.3-5.3,18.8s-8.4,19.9-6.4,22c4.4.6,2.6-5.3,6.2-5.2,1.9,2.6,8.5,6.8,7.8,10.1s-5.3,2.6-4,6.7,4.7,1.3,5.3,2.2c1.8,2.4-.9,4-1.3,5.4-.9,3.4,1.4,5.2,4.5,5.5-.1,1.7,0,3.6,0,5.3s0,2.7,0,4c-4.6-.8-8.6-3.4-12.7-5.3,3-1,6.8-2.6,4.1-6.4s-14.4-7.5-16.9-9.1-3.4-2.6-5.1-3.9c1.5-1.8,3.4-3.9,3.3-6.4s-2.8-2.1-3.2-3.4c-.7-2,2.1-4.1,1-5.6s-8.1-.3-9.7-.9-2.1-3.1-3.1-4.3-1.3-.8-1.9-1.5-.5-1.9-1-2.3-6.5,2-7.9-2.7,1.4-4.9,1.8-7.2-.3-3.4.2-5.2,3.2-3.7,4.5-5.2Z"/>
  <path class="st21" d="M332.7,307.2c2.3,9.6-1.3,7.1-8.4,7.3s-2.7-.7-2.3,1.3c-.4,0-.9,0-1.3,0,.5-1.9-.6-2.6-2.4-2.6-3.1,0-7.9.5-11.3.6s-2.7-.7-2.3,1.3c-.4,0-.9,0-1.3,0-2-1.2-5.4-.8-7.7-.7s-2.7-.7-2.3,1.3c-25.3,1.5-50.6,4.7-75.5,9.5s-13.8,4.1-19.9,4.5c-.3,0-4,0-4.2,0-.5,0-.1-1.5-1.4-1.4-2.2,0-2.9,2.3-4,2.1-1.6-.3-.6-3.6-1.1-4.5s-2.4-.8-2.5-2.1c20.9-5.1,41.2-9.2,62.7-12,2.9-.4,5.8-1,8.7-1.3,7.3-.9,14.7-1.5,22-2,18.1-1.3,36.5-1.9,54.7-1.3Z"/>
  <path class="st21" d="M109.2,381.9c-.2.6-1.1,1.2-1.3,2.4-1.5,8.5,8.9,20.1,16,23.7-1.4.5-1.9,1.8-2.7,2.7-8.4,8.6-11.8,18.1-12.7,30-3.1-.3-5.4-2.1-4.5-5.5s3-3.1,1.3-5.4-4.6,0-5.3-2.2c-1.3-4.1,3.9-6.1,4-6.7.7-3.3-5.9-7.5-7.8-10.1-3.6,0-1.8,5.8-6.2,5.2-2-2.1,4.6-19.1,6.4-22,3.4-5.5,16.7-14.6,5.3-18.8s-23.8.7-31.3,4.1c-2,.9-6.2,4.2-7.4,4.6-1.8.5-.7-2.6-1-3.3,5.6-6.2,9.9-9.9,16.7-14.7-.3,7,6.7,1.1,10.3,1.4s5.8,3.3,7.6,3.8,6.1.8,6.5.8h10.7c.2,0,1.2,1.1,1,1.7-4.4,2.7-4.1,4.1-5.3,8.3Z"/>
  <path class="st3" d="M51.8,412.6c1.3-1.9,1.1-9.5,4.2-8.6s3.9,3.6,4.2,4.6c.6,1.9-.2,2.8-.2,4.3.1,3,3.9,1.9,5.8,2.7s9.7,8,12,9.7,3.2,2.7,5.1,3.9,16.4,8.3,16.9,9.1c2.7,3.8-1,5.4-4.1,6.4-17.6-8.3-31.8-16.7-44-32Z"/>
  <path class="st24" d="M65.1,408.6c.2.2.4,2.5-1,2-2.4-.9-.2-3.2,1-2Z"/>
  <path class="st15" d="M471.4,281.2c4.2,1.5,8.6,3,12.7,4.7s.5,0,.7,0c3,1.2,6.4,2.7,9.3,4s1.2,1.4,2.7,2,3.8.5,4,.7c7.1,3.6,15.8,8.2,23.4,12.3,5.1,2.7,11,6,15.3,9.7-.3,0-1.1.8-2.2.6s-1.9-1.5-3.2-1.2c-.5,3.4,3.1,5,5,7.3,5.1,6.5,10.4,13,13.7,20.7-1,.9-14.1-3.4-16.7-2-33.8-16.5-72.6-27.8-109.4-35.4-42.8-8.7-84.3-13-128.1-11.3-18.4.7-37.8,1.5-56,4l-2.7-2.3c-.4-1.7,3.3-1.9,2.7-3.7,11.3-.8,20.2-3,31.1-4.6,5.7-.9,12.1-.4,17.9-1.4,6.1-1.1,12.7-4.5,19.1-3.9,4.3,3.1,10,5.8,15.4,4.4,6.6-1.7,19.7-13.6,25.3-18.4l35.4,3.3c2-2-6.3-4.6-7.8-4.6s-2.8.7-3.9.6c-4.7-.4-10.6-1.7-15.4-2.6s-.8-1.1-1.7-2c1-.9,2.4-2.9,3.3-4,39,3.6,73.2,10.1,110.1,23.4Z"/>
  <path class="st27" d="M349.4,308.5c1.5.1,3.1-.1,4.7,0s4,.5,6,.7c41,3.8,83.7,12.7,122.8,25.4,32.8,10.6,68.5,25.4,94.7,48,2.6,11.2-3.6,5.1-9.4,3s-17.4-4.8-25.7-3.1c-.9,6,3.7,12.3,6.9,17.2s4.9,7.7,6,12-.2,7-1.2,10.2c-1.4.5-2.7-1.4-3.6-1.3s-4.9,5.3-6.5,6.3-3.1,1-4.6,1.7c-2-6.5-6.5-12-11.3-16s-1.4-2-2-2.7c2.5-1.8,7.6-7.1,9.5-10.2s6.1-12.2,0-13.7-7.7-.8-11.9-2.1c-17.5-5.6-20.9-19.1-33.3-29.4s-1.4-.5-1.7-.7c-11.7-9.2-16.4-10.5-30-15.3-2.1-.8-3.9-1.3-6-2-38.7-12.8-77-18.3-117.4-20,.7-2.2-3.8-1.7-5.3-.7-2.7-.1-5.4.1-8,0-.4-2,1-1.3,2.3-1.3,7.1-.3,10.6,2.3,8.4-7.3,5.3.2,11.3,1,16.7,1.3Z"/>
  <path class="st10" d="M360,309.2c-.2-4.5,4.8-2.9,7.5-3.5,8.3-1.8,10.8-3.2,19.6-2.1,6,.8,8.8,1.5,15.2,1.5s14.2,1.7,20.1,1.4,4.8,0,4.3-2c36.8,7.5,75.6,18.9,109.4,35.4,5.7,2.8,12.4,6.6,18,10s6.2,4.6,9.3,6.7c-5.3,3.2-8.6-2.3-14.3-2s-3.2,2.2-5.1,1.7c-2.9-.8-2.3-5.8-4-6.8s-2.9,0-4.2-.5-4.5-4.6-7.2-5.5-3.6-.4-5.7-1c-3.4-1-4.7-3.7-8.5-3.8s-8.3,1.5-10,1-4.8-4-6-4.8c-2.8-1.6-6.6-1-9.7-2.3s-.7-1.4-1.3-1.5c-2.9-.7-4.6.4-4.9,3.3-39.1-12.7-81.8-21.5-122.8-25.4Z"/>
  <path class="st21" d="M577.5,382.6c.2.2,1.2.3,2,1,3.1,2.8,10.5,10.7,10.7,14.7s-1.3,3.7-1.3,5.3,1.4,3,1.2,5.3-1.4,4.8-1.8,5.6-4.2,5.2-4.8,5.9c-1.9,2.1-5.3,2.2-5.3,6.3-.8.2-8.1,7.6-10.1,9-5,3.6-12.6,7.2-18.3,9.7s-5.5,2.6-8.4,2.7c.2-5.3-.5-14.4-2-19.3,1.6-.7,3.1-.7,4.6-1.7s5.4-6.1,6.5-6.3,2.2,1.8,3.6,1.3c1-3.1,2-6.8,1.2-10.2s-3.7-8.4-6-12-7.8-11.2-6.9-17.2c8.3-1.7,17.7.3,25.7,3.1s11.9,8.2,9.4-3Z"/>
  <path class="st13" d="M586.9,353.9c.3.4,1.4.9,2,1.7,9.9,12.8,18.9,30.5,16.7,47l-5.7-12.7c-8.5-14.6-22.8-24.3-36.4-33.3-3.1-2.1-6.2-4.7-9.3-6.7,3.8-5.5,11.7,1.7,13.7,1.3,3.3-.7-4.1-8.5-3-10.7,5.4-1.2,6.2,3,9.7,6s8.5,7.2,9.2,7.5c1.2.5,2,.2,3.1-.2Z"/>
  <path class="st17" d="M539.5,314.5c8.9,0,41.2,31.7,47.4,39.4-1.1.4-1.9.7-3.1.2s-8-6.4-9.2-7.5c-3.4-3-4.3-7.3-9.7-6-1.1,2.2,6.3,10,3,10.7s-9.9-6.8-13.7-1.3c-5.6-3.4-12.3-7.2-18-10,2.6-1.4,15.6,2.9,16.7,2-3.2-7.7-8.5-14.2-13.7-20.7s-5.6-3.9-5-7.3c1.3-.2,2,1,3.2,1.2s1.8-.6,2.2-.6Z"/>
  <path class="st10" d="M578.2,426.6c1.8-.4,10.1-1.6,11.7-1.4s1.1,1.1,1.6,2.1c-14.7,15.3-30.9,23.2-50.7,29.4-.3-3,.6-5.8.7-8.7,2.8,0,5.8-1.5,8.4-2.7,5.7-2.5,13.3-6.1,18.3-9.7s9.2-8.8,10.1-9Z"/>
  <path class="st21" d="M488.8,279.8c-.6,2.9,2.7,3,5,3.2s.9-.6,1-.6c4.4.5,4.9,2.4,7.3,3.3l-1.3,6.7c-.2-.1-2.6-.1-4-.7v-3.3c-1.2-.3-1.7.8-2.7,1.3-3-1.3-6.4-2.8-9.3-4,4-3.1-1.7-6.1-.7,0-4.1-1.6-8.5-3.2-12.7-4.7l.4-3.3c1.2,0,2.6-.3,3.6.3s.8,3.6,2.3,3c2-1.5,2.2-2.3,2.3-4.7,3.2,0,5.9,2.2,8.7,3.3Z"/>
  <path class="st12" d="M428.7,41c.5,2.7-4.2.3-4.7,2.3s2.3,1.6,2.6,2.8c.5,1.7-2.1,2.8-.7,4.6,2.2,2.9,5.8.7,6.1,1-2,5.6,2.2,2.9,3.7,4.7s1.3,5.5,3,6.4,4.5-.6,4.7-.4c.7.9-.3,6.3,4.7,4.7l-.7-3.3c.7-.6,6.3,2.2,6.7,2.7s-1.3,3.7-1.4,3.9c-.6.6-3.5-.3-3.9.1s0,1.7-.4,2.6-1.3,1.1-1.5,1.8c-1.1,3.4,1.7,3.2,1.9,4s.1,3.6,0,4.5c-.7,3.5-5.2,1.9-6.8,7.2-.9,2.9.4,2.5.7,4.3.7,4.1-6.1,2.4-8.1,1.4s-1.1-4.4-6-3.7-1.6,1.1-2.6,1.4c-1.6.4-4.3.3-5.5,1.2s-1,2.2-1.7,3c-2.1,2.5-7.4-.3-8.7.6s-2.6,8.8-3.5,11.2-1.6,2.3-1.7,3c-.4,1.7,1.4,2.9,1.2,3.8s-1.5.8-2,1.6c-.8,1.5-.3,4.5-1,5.5s-2.5.4-2.9,1.7-.7,5-.7,5.2c.4,1.4,3.7.6,3.3,3.4s-1.3.4-1.4.7c-.2,1.5,1.7,2.6,1.4,4.6s-1,.5-1.3.9c-.5.8-.5,1.9-1.4,2.5-3,2.1-10.5,1.6-12,2.7s-.6,3.4-1.6,4.4-2.9.5-3,.6c-.4.3,2.2,6.2-1.4,3.5s-.5-2.6-2.7-1.2-.4,2.5-2.3,1.7-.7-4.1-2.9-2.6-.4,1.8-1.1,2.6c-2.1,2.3-7.3,5.7-10.5,5.3s-3-2.7-4.3-3.1-3.9.4-5.3-.7-.6-3.2-1.2-4.1-2.2-.5-3-1c-2.9-1.9-3.1-1.9-6-3.3s-2.8-2.9-7.1-3-2.7-.6-2.3,1.4c-.3-.3-4.3-2.5-4.9-2.8-6.6-2.8-12.2,2.3-15.8,7.5-9.7,8.9-17.2,19.7-26,29.4l-18.7,4.7c-.7-1.3-2.3-.4-3.3-.3-8.8.9-17.8,1.2-26.4,3.7-.8-.2-.2-1.5,0-2,1.6-4.6,7.1-13.1,9.9-17.4,26.1-40.5,68.4-79.1,110.7-102.1,17.7-9.6,33.4-14.4,52.4-20.4,1.7-.5,3.7-.8,5.5-.9,2.4-2-7.1-.9-6-3.3,7.2-.8,10.6-1.1,18-.7Z"/>
  <path class="st15" d="M564.2,143.1c2.9.6,9.4,0,6.3,4.6-3.8,5.8-17.6,10.5-24.3,10.7-15.5.5-34.8-10.8-46-20.7-5.5-4.9-10.7-11.9-16-17-7.2-7-25.4-24.1-34.2-27.2-.9-.3-1.4-1-2.2.1-1.4,2.3,2.1,8.1,2.8,10.6s1.7,6.7,2.2,9.5c-6.1-1-12,.5-18,1.3-2.6-1.9-5.9-3.6-8.7-5.3s-11.5-7.8-12.7-6.7c.7,3.2,3,5.9,4.7,8.7-4-.9-5.6,7.2-1.7,5.9s3-3.1,3.1-3.3c2.2,2.5,4.1,6.4,5.6,9.4,7.1,14.8,6.3,28.9,1.3,44.4-2,6.2-9.4,20-17.1,19.5s-10-3-13.6-3.8c-12.2-2.6-24.5-4.8-36.8-6.9-7.2-9.9-16-20.7-24.7-29.4s-.2-1.6-.7-2c-.4-1.9,1.1-1.4,2.3-1.4,4.2,0,4,1.4,7.1,3s3.1,1.5,6,3.3,2.4.2,3,1-.1,3,1.2,4.1,3.7.3,5.3.7,2.3,2.8,4.3,3.1c3.2.5,8.4-3,10.5-5.3.7-.7,1-2.5,1.1-2.6,2.3-1.5,1.8,2.1,2.9,2.6,1.9.9,1.8-1.3,2.3-1.7,2.1-1.4,2.1.8,2.7,1.2,3.6,2.7,1-3.2,1.4-3.5s2,.3,3-.6.7-3.8,1.6-4.4c1.5-1,9-.6,12-2.7s.8-1.7,1.4-2.5,1.3-.4,1.3-.9c.3-2-1.6-3-1.4-4.6s1.3-.4,1.4-.7c.5-2.8-2.9-2-3.3-3.4s.6-4.9.7-5.2c.4-1.3,2.4-.9,2.9-1.7s.2-4,1-5.5,1.8-.9,2-1.6c.2-.9-1.6-2.1-1.2-3.8s1.3-1.8,1.7-3c.9-2.4,2.1-10.4,3.5-11.2s6.6,1.9,8.7-.6.5-2.2,1.7-3,3.9-.8,5.5-1.2,1.8-1.2,2.6-1.4c4.9-.7,4.5,2.9,6,3.7s8.8,2.8,8.1-1.4-1.6-1.4-.7-4.3c1.6-5.3,6.2-3.8,6.8-7.2s.2-3.7,0-4.5-3-.6-1.9-4,1.2-1.2,1.5-1.8.3-2.5.4-2.6c.4-.4,3.3.4,3.9-.1s1.5-3.7,1.4-3.9c-.3-.5-6-3.3-6.7-2.7l.7,3.3c-4.9,1.6-3.9-3.8-4.7-4.7s-2.9,1.3-4.7.4-2-5.2-3-6.4c-1.5-1.7-5.6,1-3.7-4.7-.2-.2-3.8,1.9-6.1-1s1.2-2.9.7-4.6-2.9-1.3-2.6-2.8c.4-2.1,5.2.4,4.7-2.3,28.2,1.8,59.5,19.2,77,41.4,19.2,24.4,23.7,53.7,58.4,60.7ZM411.4,126.4h-3.3c0,2.7,3.4,2.7,3.3,0ZM405.4,129.1h-2.7s0,2,0,2c1.4-.2,3.2-.4,2.7-2Z"/>
  <path class="st3" d="M500.1,137.7c11.2,9.9,30.5,21.2,46,20.7.9,1.6,2.4,3,4.4,3.3,10.3,1.6,15.3.2,23.6-5.7s6.4-6.4,10-8.3c-.5,2.2-2.3,6.7-3.3,8.7-17.1,32.9-58.7,29-85.4,10.7l-1.3-5.3c3.2-1.2,10.9,4.6,12.9,4s.5-4.6,0-5.8c-2.1-4.6-8.9-6.3-11.2-8.9s-1.9-4.5-3.1-6.1-7.5-9.2-8-9.5c-3.2-2-4.1,3.3-5.6,3-1.7-.5-4-7.2-5.7-6-1.2,3.5-.2,7.1,0,10.7.4,6.7,1.3,12.4-2.4,18.6s-5.7,8.1-8,6-3.6-8.3-4.9-10.5-4-6.9-5.5-5.9-2.6,3.5-2.6,4c0,.8,4,9.8,4.7,11.7-4.1.9-6.7-4.9-7.7-8s0-3.5-1.1-5.6-4.2-3.2-5.7-4.6-5.7-8-5.8-8.5c-1.5-4.3,1-9.5.3-14,1.4.9,7.6.8,8,1,.7.4,2.1,3.4,3.1,4.3s2.5,1.5,3.5,2.5c2,1.9,4.5,7.1,8.1,5.3s.9-4.2,1.4-5.9,4.3-3.6,4.5-6.8-.7-5.9-.9-7c-.6-2.1-6-8.2-1.7-10.3s4.2,4.1,5.4,6.6,4.2,7.9,4.6,8.1c3.4,1,9.5,1,12.5,2.2s7.8,5.4,8.2,5.8c2.8,3,1.7,8.8,8.7,5.7Z"/>
  <path class="st8" d="M410.7,41.7c-1.1,2.5,8.5,1.3,6,3.3-1.8.1-3.8.4-5.5.9-19,6-34.6,10.7-52.4,20.4-42.3,23-84.6,61.6-110.7,102.1s-8.4,12.8-9.9,17.4-.8,1.8,0,2c8.5-2.5,17.5-2.8,26.4-3.7s2.6-1,3.3.3c-11.1,4.4-23.2,7.6-34,12.7.5-2-1.5-1-1.9-1.4s-.2-2.1-.6-3.1c-.8-1.6-3-2.7-3.4-4-.8-2.8,2-7.7-.1-10.9,34.3-54,90.4-111.3,152.8-130.8,2.5-.8,6.5-1.3,9.3-2s5.6-1.6,8-2c4.2-.8,8.5-.9,12.7-1.3Z"/>
  <path class="st4" d="M584.2,147.7c-3.7,1.9-6.8,6-10,8.3-8.3,5.9-13.4,7.3-23.6,5.7-1.9-.3-3.4-1.6-4.4-3.3,6.7-.2,20.5-4.9,24.3-10.7,3.1-4.7-3.4-4.1-6.3-4.6.4-1.1-1.1-4-.6-4.6s11.4-5.3,12.8-5.6c10.3-2.2,9.5,7.5,7.9,14.9Z"/>
  <path class="st10" d="M413.4,34.3c.1,3.1-4.9,3-6,1s5.4-.7,6-1Z"/>
  <rect class="st10" x="418.1" y="33.7" width="12.7" height=".7"/>
  <path class="st10" d="M437.8,34.3c.4.2.4.4,0,.7v-.7Z"/>
  <path class="st4" d="M500.1,137.7c-7,3.1-5.8-2.7-8.7-5.7s-7.7-5.6-8.2-5.8c-3-1.2-9.2-1.1-12.5-2.2-.4-.2-4-7-4.6-8.1-1.2-2.5-1.4-8.6-5.4-6.6s1.1,8.2,1.7,10.3,1,6,.9,7c-.2,3.2-4.3,6-4.5,6.8-.5,1.8.7,4.9-1.4,5.9-3.5,1.8-6.1-3.4-8.1-5.3s-2.4-1.4-3.5-2.5-2.4-3.9-3.1-4.3-6.6,0-8-1c.7,4.5-1.8,9.7-.3,14s5.4,8.1,5.8,8.5c1.5,1.4,4.4,2,5.7,4.6s.4,3.7,1.1,5.6c1,3.1,3.6,8.9,7.7,8,7.4,20.7,13.8,41.2,18.7,62.7-1.3-.9-5.1-3.1-6.7-4,.5-2.9-2.5-3.3-3.7-4.7-3.1-3.4-7.8-29.4-10-36s-2.8-8.2-4.1-8.6-4.8.3-6.9-.8c0,2-.1,6.2-1.4,7.7s-9.8,9.2-11.1,9.5-3.4-.3-4.9.5-2.8,2.8-2.9,3c-.6,1.2-.2,2.6-1,3.7s-4.5.9-5.4,2.9c-.9-.3-1.8-.4-2.7-.7,0-2.6-4.4-4.1-4-1.3-10.6-3.1-28.7-8-39.4-8.7s-.9,0-1.3,0c0-1.2-.7-2.1-1.3-3-2.3-3.8-5.5-8.8-8-12.3,12.3,2,24.6,4.2,36.8,6.9,3.6.8,10.8,3.6,13.6,3.8,7.8.5,15.1-13.2,17.1-19.5,5-15.6,5.8-29.6-1.3-44.4-1.5-3.1-3.3-6.9-5.6-9.4,0-.1,0-1.2,0-1.3l6.7-3.3c2.8,1.8,6,3.4,8.7,5.3s5.5,5,8.1,7,9.9,7.7,10.6,7.1c1.3-5.1.3-10.3-.7-15.3s-1.4-6.8-2.2-9.5-4.3-8.3-2.8-10.6c.8-1.1,1.3-.4,2.2-.1,8.8,3.1,27,20.1,34.2,27.2,5.3,5.1,10.5,12.2,16,17Z"/>
  <path class="st23" d="M368,192.4c.4,0,.9,0,1.3,0,.6,1.8,4.3,6.8,5.8,7.2,2.9.8,9-.1,12.5.1,16.5,1.3,31.2,9.2,47,12s3.1.6,5.3,1.3c-.4,3.2,6.2,5.8,8.6,6.4s3.1,0,4,.3c4.9,1.3,9.6,3.5,14,6s5.4,3.1,6.7,4,2.9,2.5,3,2.7c1.3,2.2-.5,5.5,5,6.7-.1.1,0,1.6-1.1,1.9s-3.4-.6-4.9-.6c-6.4-5.2-15.6-10.9-22.9-14.8s-6.5-3.8-9.8-3.9c-1.4-2.6-25.4-11.1-29.9-12.5-11.8-3.7-25.3-7.2-37.5-8.9-2.6-.4-5.3-.7-8-.7-1.6-2.4-3.1-5-4.7-7.3,1.8,0,3.6,0,5.3,0Z"/>
  <path class="st10" d="M473.4,143.1c-.2-3.6-1.2-7.2,0-10.7,1.7-1.2,4,5.5,5.7,6,1.6.3,2.4-5,5.6-3s7.2,8.4,8,9.5c1.2,1.6,1.7,4.6,3.1,6.1,2.3,2.6,9,4.3,11.2,8.9s1.9,5.3,0,5.8-9.8-5.2-12.9-4l1.3,5.3c-2.3-1.6-14.3-10.4-15-12-1.8-4.4,2.4-13.7-7-12Z"/>
  <path class="st17" d="M218.6,193.1c3.9-1.9,3.6.4,4.8,1.2s1.8,0,2.5.5c1,.7,1.1,4.2,2.7,5-2.3,1.3-6.8,4.5-8.8,6.2s-1.7.6-1.2,2.4c-4,1.5-7.7,3.9-12,4.7,2.9-4.3,5.3-10.2,8-14.7s3.1-3.9,4-5.3Z"/>
  <path class="st12" d="M227.9,177.8c2.1,3.1-.7,8.1.1,10.9s2.6,2.4,3.4,4,.3,2.7.6,3.1,2.4-.6,1.9,1.4c-1.8.8-3.6,1.7-5.3,2.7-1.6-.9-1.6-4.3-2.7-5s-1.8,0-2.5-.5c-1.3-.8-1-3.1-4.8-1.2,3.1-5.1,6.1-10.3,9.3-15.3Z"/>
  <path class="st16" d="M487.5,489.3c.3.7,4.4,7,5.3,6l-3.3-12.7c.7-.8,6.5,5.7,8.7,4.7,5.2,5.5,25.2,20.1,32.2,22.8s16,4.4,23.1,1.9c0,.4,0,.9,0,1.3-3.6,1.6-5.4,5.8-8.7,8.3-7.3,5.5-19,8.5-28,7s-18.7-11.5-26.7-17.7c-.7-.5-.8-1.3-2-1,2.7,7.7,5.7,15.3,7.3,23.3s2.5,14.9,2.7,22-.7,26.2-5.7,34-1.9,1-2.3,1.7c-2.4,3.7-4.3,8.3-8,11,.9-11.9-1.1-23-5.3-34-3.8-10-10.8-22.1-19.3-28.7.3-3.1-.4-6.7,0-9.6.9-6.1,7.1-14,2-20.4.6-2.2,1.5-8.2,1.3-10.3-.8-9.1-7.1-4.4-11.9-3.2-5.4,1.3-9.4,1.1-14.7-.3s-4.1-2.2-4.8-2.2v-.7h.9c.8-1,2.1-2,3.1-2.7,25.4-17.2,29.1-53.1,30-81.4,1.9,2.4,10.6,8.3,11.2,10.5s.2,10.3.2,13.2c-.2,9.1-1.2,18.2,0,27.2s6.5,21.3,12.6,29.8Z"/>
  <path class="st14" d="M518.8,414c.4.2,6.9,5.4,7.3,6,8.4,9.8,9.2,27.4,6,39.4s-5,12.6-8.4,17.3c-3.5,4.8-8,9.2-13.6,11.4-5.9-4.3-9.6-6-12-13.3,11.7-3.7,17.8-21,10-30.7-1.3-1.7-3.5-4.1-5.5-4.8-8.4-3.1-8.5,2.1-13.2,7.5-.4-4.9-.7-9.6-.7-14.7s.4-7,.7-10.7l5.3-5.3c5.8,1.6,14.5.9,20.2-.8s1.6-1.1,1.8-1.2,1.8,0,2,0Z"/>
  <path class="st19" d="M466.1,392.6c1.6,4.5,5.5,10.5,10,12.7.4,1.5,5.5,5.5,7.3,6-1.4,4.1-.5,9.6-.7,14-.7,14.2-1.3,26.2,3,40s3.8,7.8,4.3,12c-.2-.1-1,.1-1.5-.1-1.2-.7-1.7-2-3.1-1.8,0,1.9-.1,3.7,0,5.6s1.4,7,1.9,8.4c-6.1-8.5-11.1-19.3-12.6-29.8s-.2-18.1,0-27.2c0-3,.5-11-.2-13.2s-9.3-8.1-11.2-10.5c0-2.9,0-5.8,0-8.7s0-6.7,0-10l2.7,2.7Z"/>
  <path class="st18" d="M508.1,444c-7.6,3.1-3.2,6.8-2.7,11.7.9,8-2.9,12.3-8,17.7-6.3-7.6-7.2-16.9-8-26.7,4.7-5.3,4.7-10.6,13.2-7.5s4.2,3.2,5.5,4.8Z"/>
  <path class="st28" d="M485.5,405.9c4.6,2.7,10,4.3,15.3,4.7.5,2.1-1.3,1-2.7,1.6s-2.8,2.2-4.7,2.4c-.9-.3-2.9-.1-4-.7-.1,2.4.2,4.9,0,7.3-.3,3.7-.6,6.8-.7,10.7-4.3-.2-1.4-7.1-6-6.7.2-4.4-.7-9.9.7-14s2.6-3.1,2-5.3Z"/>
  <path class="st6" d="M508.1,444c7.7,9.7,1.7,27-10,30.7,0,0-.6-1.3-.7-1.3,5.1-5.4,8.9-9.7,8-17.7s-5-8.5,2.7-11.7Z"/>
  <path class="st7" d="M490.1,477.3c2.2,1.3,5.9,7.7,8,10-2.2,1.1-8-5.4-8.7-4.7l3.3,12.7c-.9,1-5.1-5.3-5.3-6-.5-1.4-1.7-6.8-1.9-8.4s0-3.7,0-5.6c1.4-.1,1.9,1.2,3.1,1.8s1.3,0,1.5.1Z"/>
  <path class="st6" d="M539.5,428.6c1.5,5,2.2,14.1,2,19.3s-1,5.7-.7,8.7c-.5.2-1,1.2-1.3,1.3-2.1.6-5.2,1.2-7.3,1.3,3.1-11.9,2.4-29.6-6-39.4,2.1-1.9,2.2-4.7,2-7.3,4.9,4.1,9.4,9.5,11.3,16Z"/>
  <path class="st11" d="M177.9,433.3c.5,8.6,1.5,22,4,30-3.4-.5-3.6,5.5-4.5,7.8s-2.2,5.1-3.3,7.3-4.5,4.2-.2,4.5,6.9-1.9,7.4,4.3c-3.3-.9-4.4-2-6.8-2.8-10.4-3.5-8.5,16.2-7.2,22.2-10.7-2.2-8,1.2-7.3,9.3-.4.2-.9.6-1.3.7-6.3,1.6-4.5,4.2-6.4,5.4s-7.6-.2-6.9,5.9c-11.2,6.1-18.8,7.7-31.5,3.8s-8.7-4.4-13.2-6.5c-.4-1.1-1.8-2.3-1.3-4,6.1.4,12.8-1.3,18.3-4.1s11.4-7.1,11.8-9.9c1.5.2,2-.5,3-1.3,1.9-1.6,6.9-7.8,8.6-10.1,11.8-15.7,18.1-33.1,19.7-52.7.5-5.6.8-10.9.7-16.7s.1-5.8,0-8.7c5.9-3.8,10.8-9.9,16-14.7-.1,9.5.1,20.5.7,30Z"/>
  <path class="st4" d="M286.6,179.8l-9.3,13.3c-.4.2-1,.4-1.3.7-3.4-.2-6.7.3-10,1-8.7,1.7-17.6,4.5-26,7s-1-.1-1.3,0c-.6.2-1.1.6-1.3.7-3.2,1-6.2,2.3-9.3,3.3s-4.9,1.8-7.3,2.7-1.5-.2-2,0c-.4-1.9.3-1.6,1.2-2.4,2-1.8,6.5-4.9,8.8-6.2s3.6-1.8,5.3-2.7c10.9-5.1,22.9-8.2,34-12.7l18.7-4.7Z"/>
  <path class="st9" d="M255.3,204.5c1.5,0,6.2.4,5.3,2-13.5,2.8-39.1,11.4-51.4,17.3v-3.3c11.1-5.5,33.8-16.2,46-16Z"/>
  <path class="st27" d="M298,175.1c-1.2,2.3-8.1,11.3-10,13.3s-1.4.9-2,1.3c-3.9,3-4.9,1.9-8.7,3.3l9.3-13.3c8.8-9.6,16.3-20.5,26-29.4-1.9,2.7-2.3,5.4-4.1,7.6s-4.2,3.1-5.8,5.6c-2.4,3.5-3,8.1-4.8,11.6Z"/>
  <path class="st0" d="M278,200.5c-1.6,2.3-6.9,9.8-7.3,12s0,1,0,1.3.4.6.7.7c.8,3.6,3.8,7.5,6,10.7l-4.7,2c-.2-.3-1.1-.4-1.3-.7-1-1.3-1.9-1.9-2-2-.6-.8-3.8-6-4-6.7-1.4-3.7-.6-8.1,1.3-11.3s3.9-3.2,4-5.3c.2,0,1.1-1.3,3-1.4s2.9.3,4.3.7Z"/>
  <path class="st21" d="M276,193.8c-1.1.8-2.1,3.2-3.8,3.8-4,1.4-13.9,2.6-18.6,3.4s-4.4-.2-6.5.1-3.1,1.5-4.9,1.8-2.5.8-2.2-1.2c8.4-2.5,17.3-5.3,26-7s6.6-1.2,10-1Z"/>
  <path class="st20" d="M209.2,220.5v3.3c-.4.2-1.9,1.9-3.1,2.5-2.5,1.3-7.8,4.9-9.9,5.4s-.7-2.6-1.6-3.3c.9-.6,2.2-2,3.3-2.7,3.6-2.2,7.7-3.6,11.3-5.3Z"/>
  <path class="st20" d="M270.6,201.1c-.2,2.1-3.1,3.8-4,5.3-.8-.7-4.7-.3-6,0,.9-1.6-3.8-2-5.3-2,4.6-2.7,10.4-2.5,15.3-3.3Z"/>
  <path class="st9" d="M289.3,189.8c-3,3.6-4.9,8.8-9.3,11.3,0-.3-.6-.9-.7-1.3,2.3-3.1,4.8-6.7,6.7-10,.6-.5,1.6-.9,2-1.3l1.3,1.3Z"/>
  <path class="st20" d="M280,201.1c0,.7,0,1.3-.4,2s-4.5,6.5-5,7.1c-1.1,1.2-2.3,2.2-4,2.3.4-2.2,5.7-9.7,7.3-12s1.1-.4,1.3-.7c.1.4.6,1,.7,1.3Z"/>
  <path class="st27" d="M227.9,205.8c.5,3.4-6.5,7.2-7.3,2.7,2.5-.9,4.8-1.8,7.3-2.7Z"/>
  <path class="st21" d="M238.6,201.8c0,1.1.2,1.6-1,1.3l-.3-.7c.2,0,.7-.5,1.3-.7Z"/>
  <path class="st14" d="M117.8,458c0-.9-.6-3,1-2.7.7,2.3,4,2.9,5,4.3s.6,3.4,1.6,3.7c1.8.5,3.8-2.9,5.5-3.2s3.4,2,5.5.6c1.4,3.8,5.9,9.7,10,10.7-3,6.7-3.5,9-8,15.3-9.5-3.8-20.6-18.6-20.7-28.7Z"/>
  <path class="st18" d="M153.9,443.3c1,7.7-2.6,17.5-5.3,24.7-4.7-1.4-7.3-8.6-7.4-13s1.8-5.6,1.3-7.2-3.8-3.2-4.6-4.5c1.1-2.1,2.4-4.7,4-6s4.6-3.3,6.7-2.3,5.1,6.2,5.4,8.3Z"/>
  <path class="st14" d="M140.5,418c3.4.2,2.6,1.2,3.1,1.3,2.6.6,7.9.1,10.9.7.1,2-.1,4,0,6s.6,2.3.7,3.6c.2,4.1-.2,8.3,0,12.4,0,0-.7,1.3-1.3,1.3-.3-2.2-3.5-7.5-5.4-8.3s-5,1-6.7,2.3c-4.5-3.1-8.1-3.1-13.3-2,1-5,6.7-7.5,11.5-6.5s6.1,3.6,6.5,3.2c-.7-5.2-2.5-10.1-6-14Z"/>
  <path class="st6" d="M137.9,443.3c.8,1.3,4.3,3.5,4.6,4.5.5,1.6-1.4,4.7-1.3,7.2,0,4.4,2.7,11.6,7.4,13-.7,1.9-1.7,2.7-2,3.3-4.1-1-8.6-6.9-10-10.7-2.4-6.5-1.7-11.5,1.3-17.3Z"/>
  <path class="st28" d="M161.2,426.6c0,5.7-.2,11.1-.7,16.7-1.7-.2-3.6-1.9-5.3-1.3-.1-4.1.2-8.3,0-12.4s-.6-2.6-.7-3.6c2.4,0,4.3,1.9,6.7.7Z"/>
  <path class="st20" d="M128.5,414.6c-.2,1.8,1.5,1.8,2.7,2.7-.2,0-2.6,1.7-3,2-4.2,3.3-4.4,7.8-5.7,12.7,1,.2,1.5-.1,2.4-.6,1.3-.8,9.8-8,10.4-9,.9-1.5.7-2.7.6-4.4,1.5,0,3.1,0,4.7,0,3.5,3.9,5.3,8.8,6,14-.4.4-5.2-2.9-6.5-3.2-4.8-1-10.5,1.5-11.5,6.5,5.2-1.1,8.9-1.1,13.3,2-1.6,1.3-2.9,3.9-4,6-3,5.8-3.7,10.9-1.3,17.3-2.1,1.4-3.8-.9-5.5-.6s-3.7,3.7-5.5,3.2-.9-2.7-1.6-3.7c-1-1.4-4.3-2-5-4.3-1.6-.4-1,1.7-1,2.7-3.4-6-1-13-2.7-19.3,2.4-7.7,5.1-17.8,11.3-23.4s1.7-.4,2-.7Z"/>
  <path class="st6" d="M121.2,410.6c.9,2,3.1,4,5.3,4.7-6.2,5.6-9,15.7-11.3,23.4-.5,1.5-.6,4.3-.8,4.6s-5,2.5-5.9,2.8c0-1.8-.1-3.6,0-5.3.8-12,4.3-21.4,12.7-30Z"/>
  <path class="st21" d="M187.9,265.2c.2,0,3.9,2.8,4.1,3,.7.9.7,2,.6,3-8.3,2.3-19.3,5.8-27.4,8.7l-2-6.7c2.4-.8,5.1-2.4,8-3.3s2.3-1.2,2.7-1.3c3.7-1.2,8.5-1.3,12-3.3.6.1,1.6-.2,2,0Z"/>
  <path class="st1" d="M266.6,206.5c-1.9,3.3-2.7,7.7-1.3,11.3-25,4.9-54,13-74.7,28.4-6.7,5-15.9,13.7-16.7,22.3-.4.1-1.4.9-2.7,1.3-1-.7-.8-2.8-.7-4,1.6-17.8,9.9-27.9,24-37.4.9.7,0,3.8,1.6,3.3s7.4-4.2,9.9-5.4,2.7-2.3,3.1-2.5c12.3-6,37.9-14.5,51.4-17.3s5.2-.7,6,0Z"/>
  <path class="st25" d="M378.7,205.1c-.3-1.9.7-1.6,2-1,6.9,3.2,7,8.2,7.7,15.1,15.5,3.4,30.9,7.7,45.6,13.6,2.4,1,10.2,5.4,11.8,5.6s3-4,2.9-5.5c-.3-2.9-4.1-6.8-5.6-9.1s-.2-1.7-.3-2c3.3.1,6.9,2.3,9.8,3.9,7.3,3.9,16.5,9.6,22.9,14.8,12.2,9.8,18.4,18.6,21.3,34s-.4,8.4-2,7.3c-1.9-.8-4.2-1.3-6-2-2.8-1.2-5.4-3.3-8.7-3.3,0-.2,0-.5,0-.7-1-13.4-25.7-26-36.6-31.2-23-11-42.5-14.7-66.9-20.2,3.4-4.7,5.9-8.2,4-14.3s-1.8-4.8-2-5Z"/>
  <path class="st24" d="M494.8,281.9v.7c0,0-.5.6-1,.6-2.3-.2-5.6-.3-5-3.2,1.8.7,4.1,1.2,6,2Z"/>
  <path class="st16" d="M167.2,506.7c.3,1.3,2,6,2.7,7.3-1.2.6-.5,2.3-.2,3.2,7.2,23.2,26.1,36.9,49.6,40.8.6,1.9.3,3.4,0,5.3-.7,4.4-2,8.7-1.3,13.3,2.8.5,3.3-2.2,4.3-4s-.1-1.7,1.7-1.3c-1.1,2.6,0,13.8-2.4,14.6s-3.1-1.7-2.9,3.8,1.4,7.9,2.4,11,2.7,7.7,3,8c.9,1,1.2,0,1.3-1,.3-2.5-.2-5.4,0-8,.9-10.4,4-20.8,9.3-29.7s5.7-9,9.3-11.3,8.4-2.1,11.9-3.2c9.2-2.9,18-6.8,26-12s16.2-17.6,29.7-14c5.6,1.5,7.8,6.1,11.8,9.5,14,11.7,35.6,22.6,54.1,23.7,1.7,3.3,5.4,5.8,7.3,8.7,3.3,4.9,5.4,11.9,6.7,17.7s-.3,2.3,1,1.6,3.7-10.1,4-12c.6-3.6.3-8.2,1-11.7s2.4-2.3,2-4.4c15.8-2.5,28.2-6.5,41.3-15.7s2.6-3.7,5.4-3.6,2.7.9,5,.7,4.9-2.8,6,.6c2.5,7.7,1.2,16,.3,23.7-.2,1.8.3,4,0,5.7-3.6,23-20.2,51.8-36.7,68.1s-10,8.9-11,9.3-.9-.9-1-1.7c-.1-1.4,0-2.9,0-4.3,0-2.7,0-5.4,0-8s0-.9,0-1.3c-.1-2.6-.3-4.1-.7-6.7s-1.1-7.4-2.1-9.5-.9-1.7-1.9-.8l-9.3,25c-7.4,12.8-15.3,24.8-27.7,33.4-.7-.2-.3-1.6-.2-2.2,1.9-8.8,3.8-13.1,4.5-22.5s1.2-1.3,1.3-2.3c1.5-14.1-.3-27.4-5.3-40.6-.1-.7-2-.5-2.1-.4-.3.3-.7,6.1-1,7.4-2.4,11.5-8.5,28.4-15,38s-.4,0-1.3,1.3c-2.3,3.3-7,9.9-9.3,12.7-5.6,6.5-10.8,8.2-14,17.3-2.1,5.9-3.6,11.3-6.8,16.9-4.6,8-13.4,17.6-22.6,19.8,2.9-15.1-2.6-27.6-10-40s-20.8-26.1-28.7-40.7-3.8-7.7-5.2-11.2-3.3-12.2-4.5-14.1-5.1-3.3-6,.6c-2.4,9.8-.7,19.2,1,28.7s-.1,3,.3,4.7c1.3,5.5,3.8,10.5,5,16-.7.8-15.8-11.6-17-12.7-16.3-14.5-32.7-35.4-38.3-56.7-2.2-8.2-2.8-20.5-1.9-28.9s2.2-9.4,1.9-9.8c-1-1.1-1.3.5-1.5.8-5.8,6.6-9.7,11.4-13.8,19.2s-8.8,19.4-9.3,29,.9,5.4.7,5.6c-1,1-1.2-.4-1.5-.8-18.2-23.6-18.2-46.3-12.1-74.5.3-1.3,1-2.3-1-2,.7-1.9,1.9-3.4,2.7-5.3s.3-2.3.8-3.5c1.8-4.8,3.6-5.8,3.2-11.2-.7-8.1-3.3-11.6,7.3-9.3Z"/>
  <path class="st7" d="M349.4,654.8c6.6-9.6,12.6-26.5,15-38,.3-1.2.7-7.1,1-7.4s2-.3,2.1.4c4.9,13.2,6.7,26.6,5.3,40.6-.1,1-1.3,2-1.3,2.3-2.7.6-6.9.8-9.4,1.6s-1.4,1.8-2.8,2.5c-3.5,1.8-7.9,1.7-9.8-2.2Z"/>
  <path class="st7" d="M457.4,539.4c8.5,6.6,15.5,18.7,19.3,28.7-3-.6-7.1,5-9.1,5.3s-1.1-4.2-4.5-3.3-2.2,5.5-5.8,4c.3-1.7-.2-3.8,0-5.7.9-7.7,2.2-16-.3-23.7s-3.3-.9-6-.6-3.7-.6-5-.7c1-3,4.3-5,6.4-7.3,1.4,1.1,3.7,2.3,4.9,3.3Z"/>
  <path class="st7" d="M516.8,528.7c-3.3,3.1-5.7,7.2-10.7,5.3-.6-.8-3.8-4.4-4.3-4.7-1.8-.7-.5,3.5-.3,4h-6c-1.7-8-4.7-15.6-7.3-23.3,1.2-.3,1.3.5,2,1,8,6.1,15.9,16,26.7,17.7Z"/>
  <path class="st7" d="M420.7,642.1c2,3.6,10.8-3.5,9.7,2.7-5.1,3.1-9.5,8.6-14,12s-2.5,1-3.6,1.7c-1.9,1.2-4.2,4.1-6.2,3.5-4.5-1.3-1.6-11.6-.1-14.6s.8-2,2.3-2c0,1.4-.1,2.9,0,4.3s-.4,2.2,1,1.7,9.6-8,11-9.3Z"/>
  <path class="st7" d="M498.1,555.4c2-.4,1.1,1,1.5,2.1,2.6,7.9,3.4,9,1.1,17.5-1.9,7.2-4.6,15.6-8.7,21.9s-8.8,11.8-10.6,9.8c-.7-1.6.6-3.8.7-4.7,3.7-2.7,5.6-7.3,8-11s1.8-.9,2.3-1.7c5-7.8,5.9-24.7,5.7-34Z"/>
  <path class="st7" d="M408.1,629.5c-4-.4-2.1,3.3-2.8,5.5s-2.1,5.8-2.9,7.8-2.1,4.5-2.4,4.7c-1.3,1-2.9-4.4-5.3-3.3l9.3-25c.9-.8,1.5,0,1.9.8,1,2.1,1.8,7.1,2.1,9.5Z"/>
  <path class="st7" d="M338.7,668.8c2.4-2.8,7-9.3,9.3-12.7,1.5.8.3,2.2.1,3.1-.7,3-.7,8.9-3.9,9.4h-5.5Z"/>
  <path class="st7" d="M408.7,636.1c0,.4,0,.9,0,1.3-2.1.4-2-1.7,0-1.3Z"/>
  <path class="st7" d="M256.6,642.1l-4,1c-1.8,0-3.2-4.1-4.3-3.7-2.1.8-4,5.6-6.4,6.7-1.8-9.5-3.4-18.9-1-28.7s4.5-3,6-.6,3.2,10.9,4.5,14.1,3.4,7.9,5.2,11.2Z"/>
  <path class="st7" d="M176.6,578.7c4.2-7.8,8-12.5,13.8-19.2s.5-1.9,1.5-.8-1.7,8.1-1.9,9.8c-.9,8.4-.3,20.7,1.9,28.9-2.4,1-4.5-3.1-5.5-4.9s-2-6.1-3.2-7.4-1.8-.4-2.4-1.1c-1.2-1.4-.8-4.6-4.4-5.3Z"/>
  <path class="st16" d="M158.5,516.7c-3.2,5.8-7.9,8.4-13.3,11.3-.7-6.2,4.4-4.4,6.9-5.9s.2-3.8,6.4-5.4Z"/>
  <path class="st28" d="M467.4,620.1c-.1.4.1,1,0,1.3-2.1.4-2-1.7,0-1.3Z"/>
  <path class="st17" d="M289.3,267.2c1.2,0,1.8.2,4,0s6.2,3.9,7.3,6c-2.3-.2-5.4,1.2-7.7,1.3-14.2.7-24.6,2.8-38.5,5.5s-9.8,2.8-16.3,5.1-8.1.9-11.7,1.7-6.9,3.7-10.5,3.2c-.6,3.7,2.1,1.3,4.4,1.3,8,0,14,.6,22.3,0,.6,1.8-3.1,2-2.7,3.7l2.7,2.3c-15,2-31.8,5.5-46.7,8.7.1-4.9-8.9-3.2-10.7-5-3.5-3.5,4.3-4.8,6.3-5.8,5-2.5,11.4-7.6,15.8-9.6,6.8-3.2,16.5-4,23.6-6.9l.4-4.1c18.8-3.3,39-6.7,58-7.3Z"/>
  <path class="st4" d="M298.6,293.2c.5,1.7-2.5,4-3.7,4.7-4.1,2.3-14.9,1.6-20,2-27.3,2.1-53.7,8.2-81.4,8.7-1.3,0-2.7.6-2.3-1.4,1.5-.3,3.1-1,4.7-1.3,14.9-3.2,31.7-6.6,46.7-8.7,18.2-2.5,37.6-3.3,56-4Z"/>
  <path class="st4" d="M189.2,307.2c.5,3-3.3,3.5-5.7,3.4s-1.4-.7-1.6-.7c1.7-1.4,5-2.1,7.3-2.7Z"/>
  <path class="st4" d="M181.2,309.9c-.7,2.2-1.9.7-2,.7.3-.8,1.3-.7,2-.7Z"/>
  <path class="st10" d="M255.9,310.5c2-3.3-1.6-3.8-1.3-5,.6-2.7,5.2-1,7-1l16.4-.7v4.7c-7.3.5-14.7,1.1-22,2Z"/>
  <path class="st10" d="M349.4,308.5c-1-2,5.4-2.2,4.7,0-1.5-.1-3.1.1-4.7,0Z"/>
  <path class="st27" d="M288,247.8c2.3,2.8,4.9,5.9,7.3,8.7-3.2.1-6.5-.2-9.7,0s-1.5.7-1.6.7c-20,1.1-36.4,3-56,6.7s-15.7,2.8-23.4,4.7c-.4-2.4-1.8-3.1-4-3.3v-4c2.6-.5,4.7-1.6,6.7-2,22.7-5.2,46.2-8.6,69.4-10.7,3.7-.3,7.6,0,11.3-.7Z"/>
  <path class="st27" d="M191.2,261.2c3.3,4.7,4.6,3.5,9.3,4v4c-2.6.6-5.5,1.3-8,2,0-1.1,0-2.1-.6-3s-3.8-2.9-4.1-3c.9-1.5,2.4-2.6,3.3-4Z"/>
  <path class="st12" d="M284,257.2l9.3,10c-2.2.2-2.8,0-4,0-.4-5.4-6.7-3.4-9.7-3.3-16.1.1-31.9,1-48.1.7-1.3,0-2.6.3-3.6-.7,19.6-3.7,36.1-5.6,56-6.7Z"/>
  <path class="st21" d="M204.6,268.5c-1.5.4-2.9.4-4,.7v-4c2.2.3,3.6.9,4,3.3Z"/>
  <path class="st21" d="M271.3,226.5c.2.3,1.1.4,1.3.7,1.1,1.4,2.6,4.3,3.3,6-2.1-.3-6.2,1.1-8.7,1.3-19.4,2.2-31,5.9-48.7,13.3-5,2.1-9.8,3.2-14.6,6.4-1.3.9-8.1,6.2-6.7,7.6,1.2.1,2.2-.5,3.3-.7v4c-4.7-.5-6.1.7-9.3-4,12.4-18.3,48-28,69.2-32.5,3.5-.7,7.5,0,10.9-2.2Z"/>
  <path class="st18" d="M304.7,315.2c5.4-.1,10.7.5,16,.7s.9,0,1.3,0c2.7.1,5.4-.1,8,0s3.4.6,5.3.7c40.4,1.7,78.7,7.3,117.4,20-.3,5.1.3,10.2.7,15.3-2.9-.9-4.9-3.3-7.6-4.8-10.4-6.1-22.5-8.7-33.8-12.6-1,1,4,3.7,4.7,4.3,2.4,2.1,8.4,7.7,8.7,10.7s-1,2.8-.4,4.2c.9,2.2,7.8,6.6,7.7,10.7-1.6.4-2.8,1.4-4.7,1.3-1.7-3.7-7.1-9.6-10.4-11.9s-6.5-3-6.9-3.5c-1.8-2.1,6.1-1.1,7.3-1.3,2.1-2-9.5-9.2-11.1-9.9-17.2-8.6-42.7-8-54.3,9.3,0-1.9-1.2-3.7-3.3-3.3.4-.7.5-2.3,1.3-3.3,2.8-3.5,9-7.9,13.1-9.9s9.1-2.8,7.6-4.1c-8.3-.6-16.7-2-25-2.7s-15.7-1.2-23.3-1.4c-21.8-.6-43.4,1.7-65.1,4l12.5,4.6c4.2,1.6,5.7,4.2,8.2,6.8l-5.3,1.3c-13.4-11.1-44.4-7.4-56.7,4.3s-1.3,2.4-2,3.7c-1.3,2.4-3.4,2.9-6,2.7-.9-8,7.6-11.5,12.5-15.8.4-.4,1.9-.5.5-1.5-8.1,3-16.5,5.3-24.3,9.1s-6,4.4-9.4,4.9c.6-4.9,1.7-9.7,1.3-14.7,2.7-.8,6-2.3,8.7-3.3,6.1-.4,13.6-3.2,19.9-4.5,24.9-4.9,50.2-8.1,75.5-9.5,3.2-.2,7-.6,10-.7s.9,0,1.3,0Z"/>
  <path class="st28" d="M157.9,348.6c-2.4,3.9-4.2,8.2-6.7,12s-.4.9-.7,1.3c-3.8,5.9-8.9,11.3-14,16-4.1,1.6-7.5,4.6-12.3,6s-7.8,1.5-11.7,2c-.2,3.1,1.8,5.7,3.3,8,4.7,7,10.4,10,18.7,11.3s17.8-1.4,25.4-6.7c0,1.8,0,3.6,0,5.3,0,3.6.5,6.6.7,10l-5.8-5.9c-1.4-.4-5.9,2.5-7.5,3.2-2.5-.5-4.7.7-7,.7s-4.6-1.3-7-.7c-2.5-1.5-6.9-2.1-9.3-3.3-7.1-3.5-17.5-15.2-16-23.7s1.1-1.8,1.3-2.4c8.9-1,16.8-2.9,24.2-8.1,8.8-6.3,12.1-15.5,20.1-22.5s3.3-1.9,4.3-2.7Z"/>
  <path class="st22" d="M182.6,335.2c.5,3.6-.4,7.2-.7,10.7-11.2,2.8-20.1,10.5-30.7,14.7,2.4-3.8,4.3-8.2,6.7-12,9.7-7.5,13.1-9.2,24.7-13.3Z"/>
  <path class="st5" d="M189.2,333.2c.4,4.9-.7,9.8-1.3,14.7s-.8,6.2-1.3,9.3h-5.3c.4-3.3.3-7.7.7-11.3s1.2-7.1.7-10.7c2.4-.9,4.5-1.3,6.7-2Z"/>
  <path class="st27" d="M304.7,315.2c-.4-2,1-1.3,2.3-1.3,3.5-.1,8.2-.7,11.3-.6s2.8.7,2.4,2.6c-5.3-.2-10.6-.8-16-.7Z"/>
  <path class="st27" d="M303.3,315.2c-3,0-6.8.5-10,.7-.4-2,1-1.3,2.3-1.3,2.3,0,5.7-.5,7.7.7Z"/>
  <path class="st0" d="M133.2,411.3c-1,.3-3.7,2.6-4.7,3.3s-1.5.2-2,.7c-2.2-.7-4.4-2.7-5.3-4.7.8-.8,1.3-2.2,2.7-2.7,2.5,1.2,6.8,1.8,9.3,3.3Z"/>
  <path class="st27" d="M357.4,247.2c-.4,2.2,1.1,1.1,2.3,1.3,3.3.4,6.6.3,9.7.7,20.1,2.3,40.5,5.8,60,10.7,5.3,1.3,10.8,2.8,16,4.3s18.8,7.3,23.7,7.7,1.1,0,1.7,0c.8-5.1-8.3-4.7-6-10,2,1.5,3.4,1.6,5.7,4,3.3,3.5,4.5,9.5,9.7,10,0,.2,0,.4,0,.7-.1,2.4-.3,3.1-2.3,4.7-1.5.6-1.1-2.3-2.3-3s-2.5-.3-3.6-.3l-.4,3.3c-36.9-13.2-71.1-19.7-110.1-23.4-3.7-.3-6.9-2.1-11.3-1.3,1.8-3.3,4.9-6.4,7.3-9.3Z"/>
  <path class="st13" d="M300.6,273.2c2.8.3,7.6,6.3,10,8-6.4-.6-13,2.8-19.1,3.9-5.8,1-12.2.6-17.9,1.4-10.8,1.6-19.7,3.8-31.1,4.6s-14.4,0-22.3,0-5,2.4-4.4-1.3c3.6.5,7.2-2.5,10.5-3.2s7.8-.3,11.7-1.7c6.5-2.3,8.8-3.6,16.3-5.1,13.9-2.7,24.3-4.8,38.5-5.5,2.3-.1,5.5-1.5,7.7-1.3Z"/>
  <path class="st3" d="M295.3,256.5c4.9,5.7,14,16.4,19.7,20.7,6.2,4.6,9.9,3,15.3-1.4s12-12.6,17.7-18.4c.6-.7,1.2-.8,2-1,4.5-.7,7.6,1,11.3,1.3-1,1.1-2.3,3.1-3.3,4-1.8,1.6-4.6,3.5-6.7,5.3-5.6,4.8-18.7,16.7-25.3,18.4-5.4,1.4-11.1-1.3-15.4-4.4s-7.2-7.7-10-8c-1.1-2.1-4.9-6.3-7.3-6l-9.3-10c0,0,.8-.7,1.6-.7,3.2-.2,6.5.2,9.7,0Z"/>
  <path class="st12" d="M358,261.8c.8.9.1,1.7,1.7,2,4.8.9,10.6,2.3,15.4,2.6s2.4-.7,3.9-.6,9.7,2.6,7.8,4.6l-35.4-3.3c2.1-1.8,4.9-3.8,6.7-5.3Z"/>
  <path class="st24" d="M484.1,285.9c-1-6.1,4.7-3.1.7,0-.2,0-.5,0-.7,0Z"/>
  <path class="st24" d="M494.1,289.9c1-.5,1.5-1.6,2.7-1.3v3.3c-1.4-.6-2.4-1.9-2.7-2Z"/>
  <path class="st22" d="M488.8,353.9c4,11.2,12,20.7,20.7,28.7-12-3.9-21.3-7.6-32.9-12.8s-2.2-1.7-2.8-1.9c-1.7-.7-.7,2.1-1,2.7s-1-.1-1.1.2c-.6,1.3-.2,3.8-2,4.4s-4.1-.8-6.2-1.2c-.7-2.4-2.1-5.3-2.7-8s-1.8-8.8-2-12c-.4-5,.3-10.3,0-15.3,13.6,4.9,18.3,6.1,30,15.3Z"/>
  <path class="st28" d="M488.8,353.9c.2.2,1.1.2,1.7.7,12.5,10.3,15.8,23.8,33.3,29.4,4.2,1.4,8.1,1.2,11.9,2.1,6,1.4,1.9,10.3,0,13.7s-7,8.5-9.5,10.2-5.4,2.3-7.3,4c-.2,0-1.7,0-2,0,.4-1.8-4-3.2-5.3-3.3,5.5-1.9,11.3-3.9,15.7-8s5-5.8,5.7-8.7,1.2-1.9.7-3.3c-5.9.4-11.6-1.8-16.9-4.1s-4.5-3.1-7.1-3.9c-8.7-8-16.7-17.5-20.7-28.7Z"/>
  <path class="st28" d="M458.8,338.6c.3,5-.4,10.4,0,15.3-2.9.6-1.9-3.3-5.3-1.3,0-.2,0-.4,0-.7-.3-5.1-1-10.2-.7-15.3,2.1.7,3.9,1.2,6,2Z"/>
  <path class="st0" d="M526.2,410c.6.7,1.4,2.2,2,2.7.2,2.6.1,5.4-2,7.3-.5-.6-6.9-5.8-7.3-6,1.9-1.7,5.4-2.7,7.3-4Z"/>
  <path class="st24" d="M330,315.9c1.5-1,6.1-1.5,5.3.7-1.9,0-4.2-.6-5.3-.7Z"/>
  <path class="st23" d="M333.3,145.7c.5.4.5,1.8.7,2-.5,3.2-4.8,2-1.3,6-1.2-1.2-3.3-3-4.7-4s-1.2-1.7-3.1-1.8c-3-.1-9.6,7.4-11.9,9.8-5.2,5.5-9.6,12-15,17.4,1.8-3.5,2.4-8,4.8-11.6s4.2-3.6,5.8-5.6,2.2-4.9,4.1-7.6c3.6-5.1,9.2-10.2,15.8-7.5s4.6,2.5,4.9,2.8Z"/>
  <path class="st27" d="M358.7,177.1c2.6,3.5,5.7,8.6,8,12.3s1.3,1.8,1.3,3c-1.8,0-3.6,0-5.3,0-8-11.5-20.5-28.8-30-38.7-3.5-4,.8-2.8,1.3-6,8.7,8.7,17.5,19.5,24.7,29.4Z"/>
  <path class="st17" d="M452.8,113.7c1,5,2,10.3.7,15.3-.7.6-9.3-6.1-10.6-7.1-2.6-2-5.5-5.1-8.1-7,6-.9,12-2.3,18-1.3Z"/>
  <path class="st13" d="M426.1,109.7l-6.7,3.3c0,0-.9-.6-1.3-1.3-1.7-2.7-4-5.4-4.7-8.7,1.2-1.2,11.1,5.7,12.7,6.7Z"/>
  <path class="st12" d="M418.1,111.7c.4.7,1.3,1.2,1.3,1.3,0,.2,0,1.2,0,1.3-.1.2-2.9,3.2-3.1,3.3-3.9,1.2-2.2-6.8,1.7-5.9Z"/>
  <path class="st12" d="M411.4,126.4c0,2.7-3.4,2.7-3.3,0h3.3Z"/>
  <path class="st12" d="M405.4,129.1c.5,1.6-1.2,1.8-2.7,2v-2s2.7,0,2.7,0Z"/>
  <path class="st10" d="M466.8,225.8c-4.4-2.5-9.1-4.7-14-6,.3-1.5-1.9-2.3-2.9-2.8-2.8-1.4-6.7-2.9-9.8-3.9s-3-.9-5.3-1.3c.3-1.6-2.5-2.3-3.6-2.8-5-2.1-10.6-4.2-15.8-5.9.9-2.1,4.3-1.4,5.4-2.9s.4-2.6,1-3.7,2.8-2.9,2.9-3c1.5-.7,3.3,0,4.9-.5s9.9-8.1,11.1-9.5,1.3-5.7,1.4-7.7c2.1,1.1,5.1.2,6.9.8s3.5,6.9,4.1,8.6c2.2,6.6,6.9,32.7,10,36s4.2,1.8,3.7,4.7Z"/>
  <path class="st27" d="M408.7,201.1c1.2.3,2.6.9,4,1.3s1.8.4,2.7.7c5.2,1.7,10.8,3.8,15.8,5.9s3.9,1.2,3.6,2.8c-15.8-2.8-30.6-10.7-47-12s-9.6.7-12.5-.1-5.2-5.4-5.8-7.2c10.6.7,28.8,5.6,39.4,8.7Z"/>
  <path class="st10" d="M412.7,202.5c-1.4-.4-2.8-1-4-1.3-.4-2.8,4.1-1.2,4,1.3Z"/>
  <path class="st1" d="M328,149.7c1.4,1.1,3.5,2.8,4.7,4,9.5,9.9,22,27.2,30,38.7s3.1,5,4.7,7.3,7.9,10.9,7.9,13.7-.6.9-.6,1l-17.3-1.3c-1.2-3.5-3.8-6.8-5.9-9.8-4.6-6.6-9.4-13.3-14.3-19.7s-10.8-14.5-12.6-15.1c-1-4.8-1-11.5,0-16.3s1.5-2.5,3.3-2.4Z"/>
  <path class="st1" d="M442.8,221.8c.2.3-.1,1.3.3,2,1.5,2.3,5.4,6.2,5.6,9.1s-.9,5.7-2.9,5.5-9.4-4.6-11.8-5.6c-14.7-5.9-30.2-10.2-45.6-13.6-.7-6.9-.8-11.8-7.7-15.1s-2.3-.9-2,1c0,0-1.2,0-1.9-1.1s-1.2-2.4-1.4-3.6c12.2,1.7,25.7,5.2,37.5,8.9s28.4,9.8,29.9,12.5Z"/>
  <path class="st0" d="M375.4,200.5c.2,1.2.7,2.6,1.4,3.6s1.8,1,1.9,1.1c.2.2,1.8,4.4,2,5,1.9,6.1-.5,9.6-4,14.3-2.5-.6-3.6,0-4.7-3.3,1.6-2.5,2.3-3.7,2.7-6.7s.6-.5.6-1c0-2.8-6.1-10.9-7.9-13.7,2.7,0,5.4.3,8,.7Z"/>
  <path class="st27" d="M440.1,213.1c3,1,7,2.5,9.8,3.9s3.2,1.3,2.9,2.8c-.9-.3-2.6,0-4-.3-2.5-.6-9-3.2-8.6-6.4Z"/>
  <path class="st22" d="M457.4,539.4c-1.2-.9-3.5-2.2-4.9-3.3-2.1,2.2-5.4,4.3-6.4,7.3-2.8,0-3.5,2.2-5.4,3.6-13.1,9.3-25.5,13.3-41.3,15.7-.8.1-3-.2-3.3,0-3-3.4-7.1-1.3-11-2.7-.8,0,0,2.4-.3,2.7s-6.2,0-7.3,0c-18.4-1-40.1-12-54.1-23.7-4.1-3.4-6.3-8-11.8-9.5-13.5-3.6-19.7,7.4-29.7,14s-16.8,9.2-26,12-9.3,1.5-11.9,3.2c-2.2-1-4.4.6-6.9-.1s-2-2.1-3.3-2.7c-2.9-1.2-7.6-.7-8.5,2.8-.9,0-1.8.1-2.7,0s-2.3-.5-3.3-.7c-23.4-3.9-42.4-17.6-49.6-40.8-.3-1-1-2.6.2-3.2,22.2,47.1,90.2,41.5,124.1,10.7,1.2-1.1,2.8-1.6,4.3-3.3s6.7-10.1,8-10c3.1,5,6.9,8.6,11,12.6s7.5,8.3,12.7,10.7c.2.3.5.4.7.7.2.2.4.5.7.7,25,14.8,50.6,21,79.5,14.5s42.8-19.2,48.6-41.2c5.1,6.4-1,14.3-2,20.4s.2,6.6,0,9.6Z"/>
  <path class="st26" d="M404.7,476c2.6.4,3.7,2.9,7.3,3.3,2,3.6,6.5,6.4,9.7,9.4s1.5.5,1.7.7c1.2,1.1,2.2,4.1,2.6,4.4,1.4,1,2.7-.4,3.4-.4s3.4,1.8,4.8,2.2c5.3,1.4,9.3,1.6,14.7.3,4.8-1.2,11.1-5.9,11.9,3.2s-.8,8.2-1.3,10.3c-5.7,21.9-27.6,36.4-48.6,41.2s-54.5.3-79.5-14.5c-.2-.2-.5-.4-.7-.7s-.5-.4-.7-.7-.2-1.1-.6-1.7c-2.1-2.7-6-5.1-2.7-9,27.9,22.1,72.2,29.4,103.4,10.7s22.1-17.7,23.4-30.7,0-1.3,0-2c-4.1.2-7.5,2.1-11.7,2-17.8-.2-27.5-15.1-41-23.4-1.3-4.1-.5-5.4,4-4.7Z"/>
  <path class="st5" d="M463.4,399.9c0,2.9,0,5.8,0,8.7-.9,28.3-4.7,64.2-30,81.4l-3-2c-1.6,1.3-1.8,2.9-1,4.7v.7c-.6,0-2,1.4-3.4.4s-1.5-3.3-2.6-4.4c18.4-9.8,27-29,30.7-48.7,4.4,0,2.8-3.2,3.4-5.6,2.4-10.6,2.2-24.5,2.6-35.7l3.3.7Z"/>
  <path class="st26" d="M433.4,490c-1,.7-2.4,1.6-3.1,2.6h-.9c-.8-1.8-.6-3.3,1-4.6l3,2Z"/>
  <path class="st5" d="M511.5,410.6c1.3.2,5.8,1.6,5.3,3.3-.2,0-.9.9-1.8,1.2-5.7,1.7-14.5,2.4-20.2.8-.8-.2-1.2-1.3-1.3-1.3,1.9-.1,3.1-1.6,4.7-2.4s3.2.5,2.7-1.6c3.4.2,7.5-.4,10.7,0Z"/>
  <path class="st6" d="M493.5,414.6c0,0,.6,1.1,1.3,1.3l-5.3,5.3c.2-2.4-.1-4.9,0-7.3,1.1.5,3.1.4,4,.7Z"/>
  <path class="st26" d="M463.4,373.9c1,3.1,1.4,4.9,2.7,8s1.6,3.3,2.7,5.3-.2,1.6,0,2c-1.9.1-2.8,1.5-2.7,3.3l-2.7-2.7c0,3.3,0,6.7,0,10l-3.3-.7c.3-8.4,1-12.2-1.1-20.6s.4-2.5-1.5-2.1c0-.4,0-.9,0-1.3.3-2.4,2.3-7,3.3-9.3.6,2.8,1.9,5.6,2.7,8Z"/>
  <path class="st22" d="M468.8,389.3c1.3,2.3,6,8,8,10-1,.9-1,4.7-.7,6-4.5-2.2-8.4-8.2-10-12.7-.2-1.8.8-3.2,2.7-3.3Z"/>
  <path class="st26" d="M485.5,405.9c.6,2.3-1.4,3.5-2,5.3-1.8-.5-7-4.5-7.3-6s-.3-5.1.7-6c2.2,2.2,6,5.1,8.7,6.7Z"/>
  <path class="st19" d="M472.8,370.6c4.5,18.5,20.5,33.1,40.3,31.3,7-.6,13.7-4.5,19.8-7.9-.7,2.8-3.5,6.5-5.7,8.7-4.3,4.2-10.2,6.1-15.7,8-3.2-.4-7.3.2-10.7,0-5.3-.4-10.7-2-15.3-4.7s-6.4-4.5-8.7-6.7-6.7-7.7-8-10,.2-1.6,0-2c4.1-4.2,4.1-10.1-2.7-5.3-1.3-3.2-1.7-4.9-2.7-8,2.1.5,4,2,6.2,1.2s1.4-3.1,2-4.4,1.1-.1,1.1-.2Z"/>
  <path class="st26" d="M183.9,433.3c.5,6.5,1.4,12.9,2.7,19.3,1.1,5.9,1.8,7.9,4,13.3s0,1.3.3,2c3.7,8.2,9.5,16,17.7,20-8,4.9-14.9,9.3-24.8,7.8s-6.9-3-10.5-3.8c0,1.6,0,3.1,0,4.7,0,18.4,13.9,31.2,29.4,38s11.7,5,20.7,6c1.3.1,2.7,0,4,0,3.1.2,5.8.8,9.3.7s4.8-.9,7.3-1.3c22.5-3.5,44.6-14,56.7-34h.7c0,.3.7,1.4.7,2.3-.3,6.7-8.6,9.3-8,16.4-33.9,30.9-101.9,36.4-124.1-10.7-.6-1.3-2.4-6.1-2.7-7.3-1.3-6-3.2-25.6,7.2-22.2s3.5,1.9,6.8,2.8c5.8,1.7,8.7,1.6,14.7,0l-7.9-11.1c-1.4-3.9-5.1-9.4-6.1-12.9-2.5-8.1-3.5-21.4-4-30h6Z"/>
  <path class="st18" d="M183.2,372.6c-.3,19.2-.7,41.6.7,60.7h-6c-.6-9.5-.8-20.6-.7-30s0-13,.7-18.7,1.9-7.2,2.9-9.5,1-2.8,2.5-2.5Z"/>
  <path class="st16" d="M181.9,463.3c1.1,3.5,4.7,9,6.1,12.9l7.9,11.1c-5.9,1.6-8.8,1.7-14.7,0-.5-6.2-3.5-4.1-7.4-4.3s-.6-2.9.2-4.5,2.3-5,3.3-7.3,1.1-8.3,4.5-7.8Z"/>
  <path class="st7" d="M177.2,403.3c-5.3,4.7-10.1,10.9-16,14.7,0-.7-.6-2.5-.7-4-.2-3.4-.6-6.4-.7-10,3.1.7,3.7-1.9,5.3-3.3,5.1-4.7,7.3-8.1,10.7-14s1.3-1.5,2-2c-.6,5.7-.6,13.1-.7,18.7Z"/>
  <path class="st0" d="M147.2,411.3c1.6-.7,6.1-3.6,7.5-3.2l5.8,5.9c0,1.5.6,3.3.7,4,.1,2.9,0,5.8,0,8.7-2.4,1.2-4.2-.7-6.7-.7-.1-2,.1-4,0-6s.4-3-.6-4.4-5.9-4.1-6.7-4.3Z"/>
  <path class="st7" d="M328,149.7c-1.8-.1-2.9.6-3.3,2.4-1,4.8-1,11.5,0,16.3-.2,0-1,0-1.3,0l-.3-.7-.3.7-23.4,28c.3-.9.1-2.6.8-4.2s2.7-4.3,3.8-6.2c-5.4,2.7-5.7,0-5.3-5-1.2-.3-1.3.5-2,1-1.7,1.3-5.8,5.8-7.3,7.7l-1.3-1.3c1.9-2,8.8-11.1,10-13.3,5.4-5.4,9.8-11.8,15-17.4s8.9-9.9,11.9-9.8,2.1,1.1,3.1,1.8ZM323.3,153.8c-1.2-1.3-13.1,10.9-12,12.6s2,.3,2.5,1.9,0,3.3.1,4.9c6.7-5.1,10.6-10.5,9.3-19.3Z"/>
  <path class="st1" d="M289.3,189.8c1.5-1.8,5.6-6.3,7.3-7.7s.8-1.3,2-1c-.4,5,0,7.7,5.3,5-1.1,1.9-2.9,4.3-3.8,6.2s-.5,3.3-.8,4.2c-1.5,3.9-8.9,10.1-10.3,14s-.6,2.5,0,4c8.8,11.3,17.1,24.1,26.7,34.7,1.6,1.8,5.2,6.5,7.7,5.3-2.2,3.6-2.6,13.5-2.1,17.7s1.2.8,2.1,1.6c-3.7,1-4.3,0-7.3-2.3-10.7-8.4-30.3-34.5-38.7-46.4s-5.2-7.1-6-10.7-.4-.5-.7-.7c0-.3,0-1,0-1.3,1.7-.2,2.9-1.1,4-2.3s4.7-6.6,5-7.1.4-1.3.4-2c4.5-2.6,6.3-7.8,9.3-11.3Z"/>
  <path class="st23" d="M376.7,224.5c24.4,5.5,43.9,9.2,66.9,20.2,10.9,5.2,35.6,17.8,36.6,31.2-5.1-.5-6.3-6.5-9.7-10s-3.6-2.5-5.7-4c-23.4-17-49.5-25.8-77.9-31.8-4.2-.9-8.8-1.1-12.5-2.9h-.9c-4.8,7.2-10.6,13.5-16.1,20-2.5,2.9-5.5,6-7.3,9.3-.8.1-1.5.3-2,1-5.7,5.8-11.4,13.3-17.7,18.4s-9.2,5.9-15.3,1.4c-5.7-4.3-14.8-15-19.7-20.7s-5-5.9-7.3-8.7-1.4-2.8-2.4-3.9c-1.9-2.3-6.2-8.6-8-10s-.9-.6-1.6-.7c-.8-1.7-2.3-4.6-3.3-6l4.7-2c8.3,11.8,28,37.9,38.7,46.4s3.6,3.3,7.3,2.3,1.3,0,2.3-.6c1.8-1.2,6.9-6.2,8.7-8,11-11.1,29.4-31.2,37.7-44,1.1,3.4,2.1,2.8,4.7,3.3Z"/>
  <path class="st25" d="M265.3,217.8c.2.6,3.5,5.9,4,6.7-22.5,3.4-46.7,9.8-66.5,21.2-7.4,4.2-16.3,10.1-16.9,19.5-3.6,2-8.3,2.2-12,3.3.8-8.6,10.1-17.3,16.7-22.3,20.7-15.4,49.6-23.5,74.7-28.4Z"/>
  <path class="st23" d="M271.3,226.5c-3.4,2.2-7.4,1.4-10.9,2.2-21.3,4.5-56.8,14.2-69.2,32.5s-2.5,2.5-3.3,4c-.4-.2-1.4.1-2,0,.6-9.4,9.5-15.2,16.9-19.5,19.8-11.4,44-17.9,66.5-21.2,0,.1,1,.7,2,2Z"/>
  <path class="st20" d="M271.3,214.5c-.3,0-.6-.3-.7-.7.3.1.6.4.7.7Z"/>
  <path class="st18" d="M147.2,411.3c.9.2,6.2,3.6,6.7,4.3,1,1.4.5,2.9.6,4.4-3-.6-8.3,0-10.9-.7s.2-1.1-3.1-1.3-3.1,0-4.7,0-3.4-.9-4.7-.7c-1.2-.8-2.8-.9-2.7-2.7,1-.7,3.6-3.1,4.7-3.3,2.4-.6,5,.7,7,.7s4.5-1.1,7-.7Z"/>
  <path class="st9" d="M135.9,418c0,1.6.2,2.9-.6,4.4s-9,8.2-10.4,9-1.3.8-2.4.6c1.3-4.9,1.4-9.4,5.7-12.7s2.8-2,3-2c1.3-.3,3.2.6,4.7.7Z"/>
  <path class="st7" d="M225.3,558.7c2.9.3,6.3,0,9.3.7-.2,3.2-2.2,5.6-2,9s-.2,1.7,2,1.7c-5.3,8.9-8.4,19.3-9.3,29.7s.3,5.5,0,8-.4,2-1.3,1-2.7-7-3-8c-1-3.1-2.2-7.8-2.4-11-.2-5.5,0-2.8,2.9-3.8s1.3-12,2.4-14.6c-1.8-.4-1.1.5-1.7,1.3-1.1,1.8-1.6,4.5-4.3,4-.7-4.6.6-8.9,1.3-13.3,2.2,0,2.9-2.8,3.3-4.7.9.1,1.8,0,2.7,0Z"/>
  <path class="st7" d="M399.4,562.7c.4,2.1-1.6,2.7-2,4.4-.7,3.5-.4,8.1-1,11.7s-2.9,11.3-4,12-.9-1.2-1-1.6c-1.2-5.8-3.3-12.8-6.7-17.7,5-3.8-1.5-9.5,7.7-8,1,.2,2,1.5,2.7,1.3s.9-2,1-2c.3-.2,2.5.1,3.3,0Z"/>
  <path class="st19" d="M243.9,558.7c-3.6,2.4-7.2,7.7-9.3,11.3-2.2,0-1.9.5-2-1.7-.1-3.4,1.8-5.8,2-9-3-.6-6.4-.3-9.3-.7.9-3.6,5.6-4.1,8.5-2.8s2.1,2.3,3.3,2.7c2.5.8,4.7-.9,6.9.1Z"/>
  <path class="st19" d="M396.1,562.7c0,0-.3,1.9-1,2s-1.7-1.1-2.7-1.3c-9.2-1.6-2.6,4.1-7.7,8-2-2.9-5.6-5.4-7.3-8.7,1.2,0,7.1.3,7.3,0s-.5-2.6.3-2.7c3.9,1.4,8-.7,11,2.7Z"/>
  <path class="st19" d="M222.6,558.7c-.5,1.8-1.1,4.6-3.3,4.7.3-1.9.6-3.4,0-5.3,1,.2,2.8.6,3.3.7Z"/>
  <path class="st13" d="M267.3,234.5l9.3,14c-23.2,2-46.7,5.5-69.4,10.7-.5-6.8,8.4-6.5,11.3-11.3,17.7-7.4,29.3-11.2,48.7-13.3Z"/>
  <path class="st24" d="M276,233.1c.7,0,1.1.2,1.6.7,1.8,1.5,6.1,7.7,8,10s1.6,3,2.4,3.9c-3.7.6-7.6.3-11.3.7l-9.3-14c2.4-.3,6.6-1.6,8.7-1.3Z"/>
  <path class="st10" d="M218.6,247.8c-2.9,4.8-11.8,4.6-11.3,11.3-2,.5-4.1,1.5-6.7,2s-2.2.8-3.3.7c-1.4-1.4,5.4-6.7,6.7-7.6,4.9-3.2,9.6-4.3,14.6-6.4Z"/>
  <path class="st20" d="M350.7,341.9c-.8,1-.9,2.6-1.3,3.3-1.3,2.1-3,3.6-3.8,6.5-2,6.9-1.5,17.9,5.8,21.5-1.4,2.5,3.5,5.9,5.3,6.4,17.8.5,36.2,2.8,52.1,11.3s20,16.7,18.7-.3c10.6-1.5,9.5-18.8,6-26,3-.4,9.3,5.4,11,8s3.4,9.7,4,12.6c3.5,15.7,3.7,36.3.8,52.2s-1.1,7.9-3.4,7.9c-3.6-1.5-13.4-14.9-16.7-8-.6,1.3.3,1.7,1.1,2.3,4.9,3.8,12.3,4.1,14.4,11.7s-3.2,9.6-4.8,12c-5.5,8.5-17.1,17.2-27.6,16.1s-4.7-2.9-7.3-3.3c-.4-1.1-1.3-1.6-2.2-2.1-12.7-7.8-31.3-12.6-46.1-10.5-4,.6-7.8,2.1-11.8,2.6,0-5.3-1.2-10.1-6.7-12s-.6-1.5-1.7,0-1.2,4.2-2.1,5.9c-8.4,16.4-39.8,17.1-52.9,6.4s-2.7-4.5-5.4-5c.7-19.9,22.4-24.7,38.7-22.7-.5-2.8-6.7-4.4-9-4.7-20.4-2.2-38,8.9-37,30.7-13.7-3.7-28-1.5-40.9,4.1-2.6,1.1-13.3,7.8-14.1,7.9-2.5.3-8.4-2.7-10.6-4.1-4-2.7-4.8-4.4-7.1-7.9.7-2-2.5-7.4-.6-8.6s5.6,0,7.4-.2c4.2-.8,10.3-4.1,14.8-4.5,7.4-.6,10.7,4.6,18.8.8s4.3-3.6,6.9-4.1c.8.5,7.8,2.6,9,2.7,26.1,1.5,26.1-52.7,3-55.4,0-2.3.9-5.6-2.3-5.3s-5.8,2.7-4.4,6.7c-.5.2-1.6-.2-2,0l-3.2-5.8v-2.9c-3.4-.9-8.1,7.3-9.8,7.3-3.9,0-4.1-4.7-2.4-7.3,3.7-1.5,5.4-2.2,9.3-3.3.8,2.6,3.8.5,2-.7,4.5-1.2,9.1-2.6,13.8-3.3,5.7-.7,19.4.3,23-3.7,1.4-1.5.9-2.9,1.3-3.7.7-1.2,3.7-2.8,5-5.3,4.3-7.9,1.4-19.1-3.7-26.1,15.2-1.9,30.4-2.2,45.7-2l23,2ZM366.3,404.9c-7.3,12.3-5.8,43,11.5,45.7,30,4.7,29.5-59.6.1-54.5-4.6.8-9.3,4.9-11.6,8.8ZM294.5,444.1c-9.5,1.8-13.1,15.4,0,12.1s11.6-14.2,0-12.1ZM408.8,448c-1.3,2,2.6,3.3,4.3,3.3s2.2-.7,3.3-.7c2.1,0,10.6.5,11.4-.6,2.6-3.7-4.1-5.3-6.7-5.4s-11.6,2.2-12.3,3.4Z"/>
  <path class="st11" d="M273.3,340.6c5.2,4.3,9.4,13.9,8.7,20.7-2.2-.6-3.5,1.5-5.1,1.9-5.1,1.2-12.4-2.1-18-2.4-14.4-1-33,6-44,15.2-2.8,2.4-6.6,6.2-8.3,9.4-.2,0-.5,0-.7,0-5.9-1.2-5-10.3-3.8-14.8,2.7-10.3,11.7-17.9,21.8-20.6l-9.3-1.3c.7-1.3,0-1.7,2-3.7,12.3-11.8,43.3-15.4,56.7-4.3Z"/>
  <path class="st11" d="M352.7,348.6c11.6-17.3,37.1-17.8,54.3-9.3,1.5.8,13.2,7.9,11.1,9.9-1.2.2-9.1-.8-7.3,1.3s5.7,2.6,6.9,3.5c3.4,2.3,8.8,8.2,10.4,11.9s4.1,13.3,1,17.3-1.7,1-3,1.3c-4.1-3.8-7.8-8-12.5-11.2-9.8-6.7-25.9-13-37.9-12.9-5.8,0-13.7,3.5-18.7,3.4s-4.3-2.5-7-2c-.1-1.4,0-2.7.2-4.1.4-2.9,2.6-7.2,2.5-9.2Z"/>
  <path class="st14" d="M187.9,347.9c3.4-.5,6.2-3.3,9.4-4.9,7.7-3.8,16.2-6.1,24.3-9.1,1.4,1.1,0,1.1-.5,1.5-4.9,4.3-13.4,7.8-12.5,15.8,2.6.2,4.7-.3,6-2.7l9.3,1.3c-10.1,2.6-19.1,10.2-21.8,20.6s-2.1,13.7,3.8,14.8l-.7,5.3c8.5.5,15.6-5.9,23.1-9.2,11.8-5.2,19.4-6.3,32.3-6.8,6.7-.2,13.6.9,20-1.3-.4.8,0,2.2-1.3,3.7-3.6,4-17.2,3-23,3.7-4.7.6-9.2,2-13.8,3.3s-1.4.5-2,.7c-3.9,1.2-5.6,1.8-9.3,3.3-7.6,3.1-13,6.3-20.1,10.3s-1.8.3-1.9.4c-5.5.4-4-6.6-4.8-7.9s-1.8-.5-2.5-1.1-3.1-3.4-3.8-3.5c-3.2-.6-3.3,2.7-3.9,3.9-1.5,2.8-3,5.6-4,8.7s0,7.9-5,6.7v2c.9.3,2.9-.9,3.3-.7.9.7,2,6.8,2.7,8-.3,3.1-.2,8.5,0,11.7s2.6,11,2.5,11.9-3.3,5.2-4,6.7c-1.2,2.5-1.5,5.6-3.2,7.8-1.2-6.4-2.2-12.8-2.7-19.3-1.3-19.1-.9-41.5-.7-60.7,0-3.1,2.6-11.1,3.3-15.3s.9-6.2,1.3-9.3Z"/>
  <path class="st14" d="M453.4,351.9c0,.2,0,.4,0,.7.6,7.6.9,15.5,4,22.7,0,.4,0,.9,0,1.3-2.1,21.7.9,41.3-3.3,64s-12.2,38.9-30.7,48.7c-.1-.1-1.1-.1-1.7-.7-3.2-2.9-7.7-5.8-9.7-9.4,10.6,1.1,22.1-7.6,27.6-16.1,1.5-2.4,5.4-9.5,4.8-12-2.1-7.6-9.4-7.9-14.4-11.7s-1.7-1-1.1-2.3c3.4-6.9,13.1,6.6,16.7,8,2.3,0,3.1-6.2,3.4-7.9,2.9-15.9,2.7-36.5-.8-52.2-.7-2.9-2.6-10.4-4-12.6s-8-8.4-11-8-.5,0-.7,0c0-4.1-6.8-8.5-7.7-10.7s.5-2.7.4-4.2c-.2-3-6.3-8.6-8.7-10.7s-5.7-3.4-4.7-4.3c11.3,3.9,23.4,6.5,33.8,12.6,2.6,1.5,4.7,3.9,7.6,4.8Z"/>
  <path class="st14" d="M278.6,339.2c-2.5-2.6-4.1-5.2-8.2-6.8l-12.5-4.6c21.6-2.3,43.2-4.7,65.1-4s15.7.8,23.3,1.4,16.7,2.1,25,2.7c1.6,1.3-6.8,3.7-7.6,4.1-4.1,2-10.3,6.4-13.1,9.9l-23-2c-15.3-.1-30.6.1-45.7,2-.5-.7-2.6-1.9-3.3-2.7Z"/>
  <path class="st26" d="M432.8,364.6c.2,0,.4,0,.7,0,3.5,7.3,4.6,24.5-6,26-8.3,1.2-18-6.9-25.6-10.1-8.2-3.4-19.9-6.5-28.8-6.6-5.3,0-10.7,1.2-16.4.7.6-3.8-1.1-2.5-4-2.7l1.3-3.3c5.3,2.1,17.1-.5,23.7,0,8.2.6,18,3.4,25.5,6.5,4.8,2,16.9,10.1,20.6,10.2s1.6-.5,2.3-.7c1.3-.4,1.9.2,3-1.3,3.1-4.1.9-13-1-17.3,1.8.1,3.1-1,4.7-1.3Z"/>
  <path class="st5" d="M278.6,339.2c.7.8,2.8,2,3.3,2.7,5.1,6.9,8,18.1,3.7,26.1-1.4,2.5-4.4,4.1-5,5.3-6.4,2.2-13.3,1.1-20,1.3v-6c7.4.1,20.2,3.7,21.3-7.3s-3.4-16.3-8.7-20.7l5.3-1.3Z"/>
  <path class="st5" d="M352.7,348.6c0,2-2.1,6.3-2.5,9.2s-.3,2.7-.2,4.1c.2,2.2,1.9,5.9,4,6.7l-1.3,3.3c2.9.1,4.6-1.2,4,2.7-1.7-.1-3.8-.6-5.3-1.3-7.3-3.6-7.8-14.6-5.8-21.5.8-2.9,2.5-4.4,3.8-6.5,2.1-.4,3.3,1.4,3.3,3.3Z"/>
  <path class="st11" d="M163.9,366.6c1-.6,4.9-3,4.7-1-.4,3.4-4.7,12.8-6.7,15.7-7.5,11-22.3,17.8-35.4,15s-7.5-3.4-10.7-2.4c-1.5-2.3-3.5-4.9-3.3-8,3.9-.5,7.9-.9,11.7-2s8.2-4.4,12.3-6c10.3-4.1,17.1-5.4,27.4-11.3Z"/>
  <path class="st19" d="M181.9,345.9c-.3,3.7-.2,8.1-.7,11.3-1,7.3-6.2,21.5-10,28s-6.9,10.2-7.3,10.7-3.2,2.1-4,2.7c-7.5,5.3-16.2,8.2-25.4,6.7-.5-4.5,5.2-1.8,7.3-2.3s10.7-6,12-7.4.9-3.1,1.6-4.1,2.3-1.1,3.1-1.9c2.7-2.5,5.3-4.4,3.4-8.3,2-2.9,6.3-12.3,6.7-15.7s-3.6.4-4.7,1c-2.4.6-.9-2.3-1.3-2.7s-10.4-.3-12-2c.3-.4.4-.9.7-1.3,10.6-4.2,19.5-11.9,30.7-14.7Z"/>
  <path class="st7" d="M161.9,381.3c1.9,3.9-.7,5.8-3.4,8.3s-2.7,1.3-3.1,1.9c-.7,1-.3,2.7-1.6,4.1s-10.4,7.1-12,7.4-7.8-2.2-7.3,2.3c-8.3-1.3-14-4.3-18.7-11.3,3.2-1.1,7.3,1.7,10.7,2.4,13,2.7,27.9-4.1,35.4-15Z"/>
  <path class="st7" d="M150.5,361.9c1.6,1.7,11.5,1.6,12,2s-1.1,3.3,1.3,2.7c-10.2,5.9-17,7.3-27.4,11.3,5.1-4.7,10.2-10.2,14-16Z"/>
  <path class="st26" d="M163.9,395.9c1.2,1.3,1.6,2.9,1.3,4.7-1.6,1.5-2.2,4-5.3,3.3,0-1.8,0-3.6,0-5.3.8-.6,3.8-2.5,4-2.7Z"/>
  <path class="st26" d="M186.6,357.2c-.7,4.2-3.3,12.2-3.3,15.3-1.5-.3-2,1.5-2.5,2.5-1,2.2-2.6,7.2-2.9,9.5-.7.5-1.6,1.3-2,2l-4.7-1.3c3.8-6.5,9-20.7,10-28h5.3Z"/>
  <path class="st21" d="M464.8,261.8c-2.3,5.4,6.8,4.9,6,10-.6,0-1.1,0-1.7,0-4.9-.4-17.9-6-23.7-7.7s-10.7-3-16-4.3c.3-2.6,3.2-2.5,2.6-5.5s-4.3-6-5.4-6.6c-3.2-2-13-5.1-17-6.3-9.4-2.9-19-4.7-28.7-6.7-1.6,0-1.7,2.1-2.5,3.2-3,3.7-6.8,7.1-9,11.4-3.1-.4-6.4-.3-9.7-.7s-2.7.8-2.3-1.3c5.5-6.5,11.3-12.9,16.1-19.9h.9c3.7,1.7,8.3,1.9,12.5,2.8,28.4,6,54.5,14.8,77.9,31.8Z"/>
  <path class="st4" d="M429.4,259.8c-19.6-4.9-40-8.4-60-10.7,2.1-4.3,6-7.7,9-11.4s.9-3.2,2.5-3.2c9.6,2,19.3,3.8,28.7,6.7,4,1.3,13.9,4.4,17,6.3s5.2,5.5,5.4,6.6c.6,3-2.2,2.9-2.6,5.5Z"/>
  <path class="st11" d="M509.5,382.6c2.5.8,4.8,2.9,7.1,3.9,5.4,2.3,11,4.5,16.9,4.1.5,1.4-.5,2.5-.7,3.3-6,3.4-12.7,7.3-19.8,7.9-19.8,1.8-35.8-12.8-40.3-31.3.3-.5-.7-3.4,1-2.7s1.6,1.4,2.8,1.9c11.6,5.1,21,8.8,32.9,12.8Z"/>
  <path class="st18" d="M453.4,352.6c3.4-1.9,2.5,1.9,5.3,1.3.2,3.2,1.3,8.7,2,12-1.1,2.3-3,7-3.3,9.3-3.1-7.2-3.4-15-4-22.7Z"/>
  <path class="st25" d="M374.7,214.5c-.4,3-1,4.1-2.7,6.7-8.3,12.8-26.7,33-37.7,44s-6.9,6.9-8.7,8-1.5.4-2.3.6c-.8-.8-1.9-.2-2.1-1.6-.6-4.2-.1-14.1,2.1-17.7,12-13.2,24.4-26.4,34-41.4l17.3,1.3Z"/>
  <path class="st13" d="M324.7,168.4c1.7.6,10.7,12.7,12.6,15.1,4.9,6.4,9.7,13.1,14.3,19.7,2.1,3,4.6,6.4,5.9,9.8-9.7,14.9-22.1,28.2-34,41.4-2.5,1.2-6.1-3.5-7.7-5.3-9.6-10.6-17.9-23.4-26.7-34.7-.5-1.5-.5-2.5,0-4,1.5-4,8.8-10.1,10.3-14l23.4-28c.2,0,.5,0,.7,0s1.1,0,1.3,0ZM302.6,199.1c-.3.4-1.4.8-2,1.7-1.8,2.4-7.3,9.3-7.4,11.7s.2,1.9.7,2.9c3.2,5.7,9.8,13.2,13.9,18.4s8.5,11.7,12.7,15.7.7,1.1,1.6,1c1.6-.3,18.7-21.3,21.1-24.3s7.6-9.1,8.7-12.3.7-.5.7-1.3-3.9-6.2-4.8-7.5c-5.1-7.6-11.2-15.9-17-23.1-1.8-2.3-4.5-6.6-6.9-7.4s-.2-.9-1.3-.4c-2.4,1.2-13.2,15.3-15.7,18.5s-3,4.7-4.4,6.6Z"/>
  <path class="st28" d="M317.3,524c-4.1-4.1-7.9-7.6-11-12.6-1.3-.2-6.5,8.4-8,10s-3.2,2.2-4.3,3.3c-.5-7,7.7-9.6,8-16.4s-.7-2-.7-2.3c0-.8,1.2-1.6,1.3-2,1.2,2.7,4,2.8,6,4.3,3.4,2.6,9,11.4,8.6,15.7Z"/>
  <path class="st5" d="M326.7,524c-3.3,3.9.6,6.4,2.7,9s.4,1.4.6,1.7c-5.2-2.3-8.8-6.8-12.7-10.7,2.7.4,4.1-1.2,6-2.7.7.6,2.4,2,3.3,2.7Z"/>
  <path class="st5" d="M331.3,536c-.3-.2-.5-.4-.7-.7.2.2.5.4.7.7Z"/>
  <path class="st11" d="M400.7,480.7c13.5,8.3,23.2,23.2,41,23.4,4.2,0,7.6-1.9,11.7-2,0,.7,0,1.3,0,2-3.1.7-4.3,4.5-6.3,6.7-3,3.3-10.2,9.6-14.3,11s-10.9.6-9.3,2.9,2.5.1,1.2,1.4-7,2.4-8,2.7c-14.2,3.3-31.1,1.2-44-5.3-6.4-3.2-11.9-8.1-17.3-12.7,1.1,5.7,4.5,11.6,8,16.2s1.3.4,1.3.5c.2.2.2,1.1.6,1.7s3.6,2.9,1,3c-13.1-4.3-26.4-9.8-35.7-20.3-3-3.4-6.8-8.4-6.7-13,10.3-4.1,14.1-11.1,17.3-20.7.5-1.4,1.4-4.6,2.7-5.3,2.2-1.4,14.7-3.2,17.7-3.3,12.9-.5,28.1,4.7,39,11.3Z"/>
  <path class="st19" d="M324,498.7c-.2,4.6,3.7,9.7,6.7,13,9.3,10.5,22.7,16,35.7,20.3,2.6,0-.4-2.2-1-3s-.5-1.5-.6-1.7c2.5-.8,7.6-1,8-4,13,6.5,29.9,8.6,44,5.3.5,2.9,5.6,2.7,7.6,4.1s1,1.7,1.2,1.8c.6.4,3.6-1.7,4.6,0-31.2,18.8-75.5,11.4-103.4-10.7-.9-.7-2.7-2.1-3.3-2.7-4.5-4.1-11-13.5-13.3-19.3,4.3-2,9.7-1.6,14-3.3Z"/>
  <path class="st14" d="M404.7,476c-4.5-.7-5.3.5-4,4.7-10.9-6.7-26.1-11.8-39-11.3-3,.1-15.5,2-17.7,3.3.2-2.3.7-4.3.7-6.7,4-.5,7.8-2,11.8-2.6,14.8-2.1,33.4,2.7,46.1,10.5.9.6,1.8,1,2.2,2.1Z"/>
  <path class="st22" d="M453.4,504c-1.2,12.9-12.9,24.4-23.4,30.7-1-1.8-3.9.3-4.6,0s-.4-1.3-1.2-1.8c-2-1.4-7.2-1.2-7.6-4.1,1-.2,7.7-2.4,8-2.7,1.2-1.3-1.2-1.3-1.2-1.4-1.6-2.3,7.8-2.4,9.3-2.9,4.1-1.4,11.3-7.7,14.3-11,2-2.2,3.3-6,6.3-6.7Z"/>
  <path class="st18" d="M457.4,376.6c1.9-.4,1.2,1,1.5,2.1,2.2,8.4,1.4,12.1,1.1,20.6s-.2,25.2-2.6,35.7,1.1,5.7-3.4,5.6c4.3-22.7,1.3-42.3,3.3-64Z"/>
  <path class="st22" d="M468.8,387.3c-1-2-1.7-3.1-2.7-5.3,6.7-4.7,6.7,1.1,2.7,5.3Z"/>
  <path class="st11" d="M269.3,470.7c.8,3.1,2.8,5.7,4,8.7s0,2.4.5,3.8,4,7,5.5,8.5,9.6,5.9,9.9,6.4c1,1.7-4.6,9.3-5.9,10.9-8.9,10.7-25.5,19-39.3,19.7.9-2.4,6.7-7.5,8.6-10.5s4-7.7,3.5-8.2l-12.9,8.1c-27.2,14.2-53.5,7.3-68-19.7s-.3-2.1-1.9-1.8c0-1.6,0-3.1,0-4.7,3.6.8,6.8,3.3,10.5,3.8,9.9,1.5,16.9-3,24.8-7.8s18.5-13.2,30-16.3c10.6-2.9,20-2.7,30.7-1Z"/>
  <path class="st9" d="M231.3,387.9c-1.7,2.6-1.5,7.4,2.4,7.3s6.4-8.2,9.7-7.3v2.9c.1,0,3.3,5.8,3.3,5.8-.9.4-6.2,5.7-6.9,6.7-7,10-6.9,28.7-.5,39.1.4.7,3.8,5.4,4.1,5.5-2.6.6-4.9,3.2-6.9,4.1-8.1,3.8-11.5-1.4-18.8-.8s-10.7,3.8-14.8,4.5-6.7-.2-7.4.2c-1.9,1.2,1.2,6.5.6,8.6-.3-.4-2-1.2-2.3-2h-1c.1,1.7,0,3.4-2,3.3-2.2-5.5-2.9-7.5-4-13.3,1.7-2.2,2-5.2,3.2-7.8s3.8-5.6,4-6.7-2.3-9.5-2.5-11.9-.3-8.6,0-11.7,2.2-9.2,3-10c4-4.2,6.3,8,7.6,9.6,2.1,2.7,2.1-2.1,2.5-3.5,1.1-3.8,3.1-6.1,4.5-9.5s.2-2.6.3-2.7,1.2,0,1.9-.4c7.1-4,12.5-7.2,20.1-10.3Z"/>
  <path class="st19" d="M287.3,489.3c-.2,0-2.3.7-3.3,0-.5,3.5,2.4,3.6,4.3,5.4s3,3.5,4.4,4.3,5.7,1.5,5.9,1.8c.5.7-.7,5.8,2.1,5.3-12.1,20-34.2,30.5-56.7,34-4.9-3.6-1.8-4.5-.6-7.6s.3-3,.6-3.7c13.9-.7,30.4-9,39.3-19.7s6.9-9.2,5.9-10.9-8.1-4.6-9.9-6.4-4.8-6.5-5.5-8.5-.3-3.3-.5-3.8c4.2,4.1,8.9,7.2,14,10Z"/>
  <path class="st7" d="M173.2,496.7c1.6-.4,1.4.8,1.9,1.8,14.5,27,40.7,33.9,68,19.7l12.9-8.1c.5.5-2.8,7.2-3.5,8.2-1.8,3-7.7,8.1-8.6,10.5s-.1,2.4-.6,3.7c-1.2,3.1-4.3,4,.6,7.6-2.6.4-4.2,1.2-7.3,1.3,1.3-3-2.6-6.2-1.9-8.2s5.6-4.6,6.7-5.4,2.5-.7,1.3-1.7-10.6,4.8-12.3,5.4c-5.5,1.7-11.7,2.6-17.4,1.9l-10.4,1.4c-15.5-6.9-29.3-19.6-29.4-38Z"/>
  <path class="st14" d="M195.9,464.7c2.3,3.5,3.1,5.2,7.1,7.9s8.1,4.4,10.6,4.1,11.5-6.8,14.1-7.9c12.9-5.6,27.2-7.8,40.9-4.1,0,2.1.1,4,.7,6-10.7-1.7-20.1-1.9-30.7,1-11.5,3.2-20.2,10.3-30,16.3-8.2-4-14-11.8-17.7-20-.3-.7-.1-1.6-.3-2,2.1,0,2.1-1.6,2-3.3h1c.4.8,2.1,1.6,2.3,2Z"/>
  <path class="st22" d="M324,498.7c-4.3,1.7-9.7,1.3-14,3.3l-4-8c-1,3.4-2.2,6.7-3.3,10s-1.3,1.2-1.3,2h-.7c-2.8.6-1.5-4.6-2.1-5.3s-4.6-1-5.9-1.8-3.1-3.1-4.4-4.3c-1.9-1.7-4.8-1.8-4.3-5.4,1.1.7,3.1,0,3.3,0,4.5.5,9.3,2.9,14.4,3.3,15.4,1.3,29.4-3.1,39.7-14.7-3.2,9.6-7.1,16.6-17.3,20.7Z"/>
  <path class="st22" d="M202.6,534.7l10.4-1.4c5.7.7,11.9-.2,17.4-1.9s11.8-5.8,12.3-5.4c1.2,1-.9,1.5-1.3,1.7-1.1.8-6.5,4.7-6.7,5.4-.7,2,3.2,5.3,1.9,8.2-3.5.2-6.2-.4-9.3-.7.5-3.3-4.1-4-4,0-9-1-12.9-2.5-20.7-6Z"/>
  <path class="st7" d="M223.3,540.7c-.1-4,4.5-3.3,4,0-1.3,0-2.7.1-4,0Z"/>
  <path class="st22" d="M175.9,386.6c-3.3,5.9-5.5,9.3-10.7,14,.2-1.8,0-3.3-1.3-4.7.5-.4,6.6-9.5,7.3-10.7l4.7,1.3Z"/>
  <path class="st1" d="M323.3,153.8c1.3,8.8-2.7,14.3-9.3,19.3-.2-1.5.3-3.4-.1-4.9s-2.3-1.6-2.5-1.9c-1.2-1.7,10.8-14,12-12.6Z"/>
  <path class="st20" d="M323.3,168.4c-.2,0-.4,0-.7,0l.3-.7.3.7Z"/>
  <path class="st2" d="M366.3,404.9c2.3-3.8,7-8,11.6-8.8,29.4-5.1,29.9,59.3-.1,54.5-17.3-2.7-18.8-33.4-11.5-45.7ZM377.2,402.1c-8.7,1.3-10.1,17.5-.2,17.9s11.6-19.6.2-17.9Z"/>
  <path class="st2" d="M255.3,395.3c23.1,2.7,23.1,56.9-3,55.4s-8.2-2.2-9-2.7-3.7-4.9-4.1-5.5c-6.3-10.4-6.5-29.1.5-39.1s6.1-6.4,6.9-6.7,1.5.2,2,0c2.2-.7,4.3-1.6,6.7-1.3ZM249.1,402.1c-8.4,1.9-9,18.3,1.8,17.8s10.7-20.7-1.8-17.8Z"/>
  <path class="st6" d="M268.6,464.7c-1-21.8,16.6-32.9,37-30.7s8.5,1.9,9,4.7c-16.3-2-38,2.8-38.7,22.7-1.1,29.5,51.8,30.8,61.5,8.5,2.6-6,1.7-9.7.5-15.8,5.5,1.9,6.7,6.7,6.7,12s-.4,4.4-.7,6.7c-1.3.8-2.2,3.9-2.7,5.3-10.3,11.6-24.3,15.9-39.7,14.7s-9.8-2.9-14.4-3.3c-5.1-2.8-9.8-5.9-14-10-1.2-2.9-3.2-5.6-4-8.7s-.6-3.9-.7-6Z"/>
  <path class="st14" d="M338,454c1.2,6.1,2.1,9.8-.5,15.8-9.7,22.3-62.6,21-61.5-8.5,2.7.5,3.3,3.3,5.4,5,13.1,10.7,44.5,10.1,52.9-6.4s1.2-4.7,2.1-5.9,1.4,0,1.7,0Z"/>
  <path class="st14" d="M356.7,374.6c5.6.5,11.1-.7,16.4-.7,8.9,0,20.6,3.2,28.8,6.6,7.6,3.2,17.3,11.3,25.6,10.1,1.3,17-11.9,4-18.7.3-15.9-8.5-34.2-10.8-52.1-11.3-1.8-.5-6.7-3.9-5.3-6.4,1.6.8,3.6,1.2,5.3,1.3Z"/>
  <path class="st9" d="M294.5,444.1c11.7-2.2,10.6,9.4,0,12.1s-9.5-10.3,0-12.1Z"/>
  <path class="st9" d="M408.8,448c.8-1.2,10.5-3.4,12.3-3.4s9.3,1.7,6.7,5.4-9.3.6-11.4.6-2.2.7-3.3.7c-1.7,0-5.6-1.3-4.3-3.3Z"/>
  <path class="st9" d="M255.3,395.3c-2.4-.3-4.5.6-6.7,1.3-1.4-4,0-6.4,4.4-6.7s2.2,3.1,2.3,5.3Z"/>
  <path class="st9" d="M242.6,383.9c1.8,1.2-1.2,3.3-2,.7.6-.2,1.2-.4,2-.7Z"/>
  <path class="st19" d="M282,361.2c-1.1,11-13.9,7.4-21.3,7.3-11.2-.2-22,2.3-32.3,6.8s-16,10.2-21.8,9.9c1.7-3.2,5.5-7,8.3-9.4,10.9-9.3,29.6-16.2,44-15.2,5.5.4,12.9,3.6,18,2.4s2.9-2.5,5.1-1.9Z"/>
  <path class="st26" d="M260.6,368.6v6c-12.8.5-20.4,1.5-32.3,6.8s-14.6,9.8-23.1,9.2l.7-5.3c.2,0,.5,0,.7,0,5.8.3,15.8-7.3,21.8-9.9,10.3-4.5,21-6.9,32.3-6.8Z"/>
  <path class="st19" d="M350,361.9c2.7-.5,4.5,2,7,2,5,0,12.9-3.3,18.7-3.4,12-.2,28.1,6.2,37.9,12.9s8.4,7.4,12.5,11.2c-.6.2-.9.8-2.3.7-3.8-.1-15.8-8.1-20.6-10.2-7.5-3.2-17.3-6-25.5-6.5-6.6-.5-18.3,2.1-23.7,0s-3.8-4.5-4-6.7Z"/>
  <path class="st20" d="M191.2,414.6c-.7-1.3-1.8-7.3-2.7-8s-2.4,1-3.3.7v-2c4.9,1.2,3.9-3.4,5-6.7s2.6-5.8,4-8.7.7-4.5,3.9-3.9,2.9,2.8,3.8,3.5,2.4.9,2.5,1.1c.8,1.3-.7,8.3,4.8,7.9,0,.1,0,1.8-.3,2.7-1.5,3.4-3.4,5.7-4.5,9.5s-.4,6.1-2.5,3.5-3.6-13.8-7.6-9.6-2.8,8.6-3,10Z"/>
  <path class="st8" d="M352.7,212.5c-9.3-.6-18.4-1.4-27.7-1.4-.9,0-1.5.7-1.6.7-1.8.1-6.9-.7-10.3-.7h-12c-1.8,0-5.6,1.4-7.7,1.3,0-2.4,5.6-9.3,7.4-11.7s1.7-1.3,2-1.7c.9,1.3,3.2.5,4.7.7,1.2,7.6,13.1-1.4,14-8,2,.4,1.3-1,1.3-2.3.2-4.9.4-10.2,1.3-15,2.5.8,5.1,5.1,6.9,7.4,5.7,7.1,11.9,15.5,17,23.1.9,1.3,4.7,6.6,4.8,7.5Z"/>
  <path class="st15" d="M323.3,211.8c-1.6,7.7-1.4,15.5-1.3,23.4-4.4-1-6.7-6.4-9-6.7s-5.2,2.8-5,5.4c-4.2-5.3-10.8-12.8-13.9-18.4s-.8-1.8-.7-2.9c2.1,0,5.9-1.3,7.7-1.3h12c3.4,0,8.5.8,10.3.7Z"/>
  <path class="st12" d="M352,213.8c-1.1,3.2-6.3,9.3-8.7,12.3s-19.5,24-21.1,24.3c-.8.2-1.1-.5-1.6-1-4.1-3.9-9-11-12.7-15.7-.3-2.6,2.3-5.6,5-5.4s4.6,5.7,9,6.7.5.7,1,.7c1.5,0,1.9-2.1,3-3,8.3-7.6,10.6-13.4,22.4-18.4,1.3-.5,2.2-.9,3.7-.6Z"/>
  <path class="st17" d="M352.7,212.5c0,.8-.6,1.1-.7,1.3-1.5-.3-2.4,0-3.7.6-11.8,4.9-14.1,10.7-22.4,18.4s-1.5,3-3,3c-.5,0-.8-.6-1-.7,0-7.8-.2-15.7,1.3-23.4.1,0,.7-.7,1.6-.7,9.4,0,18.5.8,27.7,1.4Z"/>
  <path class="st22" d="M324,174.4c-.9,4.8-1.1,10.1-1.3,15s.7,2.7-1.3,2.3c.4-2.6-.3-6.7-3.7-6.7s-11,10.4-10.4,14.7c-1.5-.2-3.7.6-4.7-.7,1.4-2,2.8-4.5,4.4-6.6,2.5-3.2,13.2-17.2,15.7-18.5s1.1.3,1.3.4Z"/>
  <path class="st26" d="M310,502c2.4,5.8,8.8,15.2,13.3,19.3-1.9,1.4-3.3,3.1-6,2.7.4-4.4-5.2-13.2-8.6-15.7s-4.9-1.6-6-4.3c1.1-3.3,2.4-6.6,3.3-10l4,8Z"/>
  <path class="st7" d="M372.7,523.4c-.4,3-5.5,3.2-8,4,0,0-.9.1-1.3-.5-3.5-4.6-6.9-10.5-8-16.2,5.4,4.6,11,9.5,17.3,12.7Z"/>
  <path class="st11" d="M377.2,402.1c11.4-1.7,11.1,18.5-.2,17.9s-8.6-16.6.2-17.9Z"/>
  <path class="st11" d="M249.1,402.1c12.6-2.9,11.9,17.4,1.8,17.8s-10.2-15.9-1.8-17.8Z"/>
  <path class="st29" d="M321.3,191.8c-.9,6.6-12.8,15.6-14,8s5.7-14.8,10.4-14.7,4,4.1,3.7,6.7Z"/>
  <metadata>
    <sfw xmlns="http://ns.adobe.com/SaveForWeb/1.0/">
      <slices/>
      <sliceSourceBounds x="-803.23" y="4811.9" width="580.6" height="719.9" bottomLeftOrigin="true"/>
    </sfw>
  </metadata>
</svg>